<svg width="240" height="195" viewBox="0 0 240 195" fill="none" xmlns="http://www.w3.org/2000/svg">
<rect width="240" height="195" fill="#F7F7F7"/>
<path d="M121.539 134.508C121.424 134.508 121.313 134.445 121.256 134.335C121.028 133.892 120.81 133.437 120.609 132.98C120.538 132.82 120.611 132.633 120.772 132.562C120.935 132.492 121.121 132.564 121.192 132.725C121.388 133.169 121.6 133.613 121.822 134.045C121.903 134.201 121.841 134.392 121.685 134.472C121.638 134.496 121.588 134.508 121.539 134.508ZM165.622 153.001C165.448 153.001 165.306 152.861 165.304 152.687C165.302 152.512 165.442 152.368 165.618 152.366C166.615 152.353 167.608 152.325 168.571 152.282C168.732 152.271 168.895 152.41 168.903 152.585C168.911 152.76 168.775 152.909 168.599 152.917C167.63 152.96 166.629 152.988 165.626 153.001C165.625 153.001 165.623 153.001 165.622 153.001ZM162.66 152.993C162.658 152.993 162.656 152.993 162.654 152.993C162.28 152.987 161.907 152.978 161.535 152.968C160.919 152.951 160.302 152.93 159.684 152.904C159.508 152.897 159.372 152.749 159.379 152.574C159.386 152.398 159.532 152.258 159.71 152.27C160.325 152.295 160.939 152.316 161.553 152.333C161.923 152.343 162.293 152.352 162.665 152.358C162.841 152.361 162.981 152.506 162.978 152.681C162.975 152.855 162.833 152.993 162.66 152.993ZM156.738 152.742C156.73 152.742 156.723 152.742 156.715 152.741C155.704 152.672 154.707 152.588 153.752 152.491C153.577 152.473 153.45 152.317 153.467 152.142C153.485 151.968 153.639 151.843 153.816 151.859C154.764 151.955 155.755 152.039 156.759 152.108C156.934 152.12 157.067 152.271 157.055 152.446C157.043 152.614 156.903 152.742 156.738 152.742ZM171.544 152.734C171.38 152.734 171.24 152.608 171.227 152.442C171.213 152.267 171.344 152.114 171.519 152.1C172.511 152.021 173.499 151.924 174.457 151.81C174.634 151.785 174.79 151.914 174.811 152.088C174.832 152.262 174.707 152.42 174.532 152.44C173.566 152.555 172.57 152.654 171.57 152.733C171.561 152.734 171.552 152.734 171.544 152.734ZM150.842 152.137C150.827 152.137 150.812 152.136 150.797 152.134C149.795 151.993 148.805 151.831 147.857 151.654C147.685 151.622 147.571 151.456 147.603 151.284C147.636 151.111 147.801 150.997 147.975 151.03C148.913 151.206 149.893 151.366 150.886 151.506C151.06 151.53 151.181 151.691 151.156 151.864C151.134 152.023 150.998 152.137 150.842 152.137ZM177.43 152.032C177.277 152.032 177.142 151.921 177.117 151.765C177.088 151.592 177.206 151.429 177.38 151.401C178.365 151.241 179.341 151.06 180.28 150.862C180.452 150.827 180.621 150.936 180.657 151.107C180.694 151.279 180.584 151.447 180.412 151.484C179.463 151.684 178.477 151.867 177.482 152.028C177.464 152.031 177.447 152.032 177.43 152.032ZM145.018 151.042C144.993 151.042 144.968 151.039 144.943 151.033C143.962 150.796 142.994 150.533 142.066 150.252C141.898 150.201 141.803 150.024 141.854 149.856C141.905 149.689 142.084 149.594 142.251 149.644C143.168 149.923 144.124 150.182 145.092 150.416C145.264 150.457 145.368 150.628 145.327 150.799C145.292 150.944 145.162 151.042 145.018 151.042ZM183.23 150.806C183.089 150.806 182.96 150.712 182.922 150.57C182.877 150.401 182.978 150.227 183.148 150.182C184.11 149.926 185.06 149.644 185.973 149.344C186.137 149.291 186.319 149.38 186.374 149.547C186.429 149.713 186.338 149.893 186.171 149.948C185.248 150.251 184.285 150.537 183.312 150.795C183.284 150.803 183.257 150.806 183.23 150.806ZM61.2857 149.867C61.2819 149.867 61.2784 149.867 61.2747 149.867C60.2782 149.834 59.2746 149.754 58.292 149.631C58.1175 149.609 57.9938 149.451 58.0158 149.277C58.0375 149.103 58.1977 148.982 58.3711 149.001C59.3347 149.122 60.3188 149.2 61.2962 149.233C61.4718 149.239 61.6095 149.385 61.6034 149.561C61.5977 149.732 61.4564 149.867 61.2857 149.867ZM64.2482 149.836C64.0803 149.836 63.9399 149.705 63.9305 149.536C63.921 149.361 64.0555 149.211 64.231 149.202C65.197 149.149 66.18 149.054 67.1523 148.918C67.3243 148.893 67.4872 149.015 67.5116 149.188C67.5361 149.362 67.4147 149.523 67.2406 149.547C66.2505 149.685 65.2496 149.782 64.2658 149.836C64.2598 149.836 64.254 149.836 64.2482 149.836ZM139.352 149.317C139.315 149.317 139.277 149.31 139.24 149.297C138.83 149.143 138.421 148.983 138.015 148.816C137.501 148.606 136.986 148.382 136.483 148.15C136.323 148.077 136.254 147.888 136.328 147.729C136.402 147.569 136.591 147.5 136.75 147.574C137.245 147.801 137.752 148.022 138.257 148.229C138.657 148.393 139.059 148.551 139.464 148.702C139.628 148.764 139.712 148.947 139.65 149.111C139.602 149.238 139.481 149.317 139.352 149.317ZM55.4118 149.132C55.3892 149.132 55.3664 149.13 55.3434 149.125C54.3823 148.915 53.4098 148.657 52.4529 148.359C52.285 148.307 52.1916 148.129 52.244 147.961C52.2962 147.794 52.4742 147.7 52.6427 147.753C53.5823 148.045 54.5367 148.298 55.4797 148.505C55.6515 148.542 55.7601 148.712 55.7224 148.883C55.6898 149.031 55.558 149.132 55.4118 149.132ZM70.1114 149.023C69.9655 149.023 69.8339 148.922 69.8009 148.774C69.7626 148.603 69.8708 148.434 70.0424 148.396C70.9845 148.186 71.9413 147.936 72.8857 147.65C73.0526 147.6 73.2316 147.694 73.2826 147.862C73.3336 148.03 73.2384 148.207 73.0702 148.258C72.1106 148.548 71.1384 148.803 70.1806 149.015C70.1573 149.02 70.1341 149.023 70.1114 149.023ZM188.857 148.949C188.731 148.949 188.612 148.874 188.562 148.75C188.497 148.587 188.576 148.402 188.738 148.337C189.66 147.966 190.564 147.565 191.426 147.145C191.584 147.068 191.775 147.133 191.852 147.291C191.929 147.448 191.864 147.638 191.706 147.715C190.83 148.143 189.912 148.55 188.976 148.926C188.937 148.941 188.897 148.949 188.857 148.949ZM49.7575 147.378C49.7179 147.378 49.6777 147.371 49.6388 147.355C48.7307 146.99 47.8136 146.58 46.9126 146.137C46.7549 146.06 46.6901 145.869 46.7678 145.712C46.8458 145.555 47.037 145.491 47.1941 145.568C48.081 146.004 48.9834 146.407 49.8767 146.766C50.0398 146.832 50.1188 147.017 50.0531 147.179C50.0028 147.303 49.8837 147.378 49.7575 147.378ZM75.7824 147.314C75.6543 147.314 75.5336 147.237 75.485 147.11C75.4224 146.946 75.5047 146.763 75.6691 146.7C76.5715 146.357 77.4847 145.974 78.383 145.563C78.543 145.49 78.7319 145.561 78.8049 145.72C78.8783 145.879 78.808 146.068 78.6483 146.141C77.7373 146.557 76.8113 146.945 75.8958 147.294C75.8584 147.308 75.8201 147.314 75.7824 147.314ZM133.976 146.836C133.923 146.836 133.87 146.823 133.82 146.796C132.947 146.308 132.091 145.782 131.274 145.234C131.128 145.136 131.089 144.939 131.187 144.793C131.286 144.648 131.484 144.609 131.629 144.707C132.432 145.246 133.274 145.762 134.131 146.242C134.285 146.328 134.339 146.521 134.253 146.674C134.195 146.778 134.087 146.836 133.976 146.836ZM194.176 146.347C194.067 146.347 193.961 146.292 193.901 146.191C193.812 146.04 193.862 145.846 194.013 145.756C194.864 145.256 195.692 144.719 196.475 144.162C196.618 144.06 196.817 144.094 196.918 144.236C197.021 144.379 196.987 144.577 196.844 144.679C196.046 145.246 195.203 145.793 194.337 146.303C194.286 146.333 194.231 146.347 194.176 146.347ZM81.1708 144.854C81.0573 144.854 80.9474 144.793 80.89 144.686C80.8071 144.531 80.8654 144.339 81.0204 144.256C81.8741 143.8 82.734 143.308 83.5762 142.794C83.7262 142.703 83.922 142.75 84.0138 142.899C84.1055 143.049 84.0583 143.244 83.9085 143.335C83.0561 143.856 82.1853 144.354 81.3208 144.816C81.273 144.842 81.2216 144.854 81.1708 144.854ZM44.4426 144.771C44.3881 144.771 44.333 144.757 44.2826 144.728C43.4378 144.237 42.587 143.706 41.7536 143.148C41.6078 143.05 41.5688 142.853 41.6668 142.707C41.7648 142.561 41.9629 142.523 42.1083 142.621C42.9303 143.171 43.7698 143.695 44.603 144.179C44.7549 144.267 44.8062 144.462 44.7179 144.613C44.6587 144.715 44.5521 144.771 44.4426 144.771ZM129.066 143.535C128.995 143.535 128.925 143.512 128.866 143.464C128.082 142.834 127.328 142.168 126.625 141.486C126.499 141.363 126.496 141.162 126.619 141.037C126.741 140.911 126.943 140.909 127.069 141.03C127.758 141.699 128.497 142.352 129.266 142.97C129.403 143.08 129.424 143.28 129.313 143.416C129.251 143.494 129.158 143.535 129.066 143.535ZM198.989 142.915C198.9 142.915 198.811 142.878 198.748 142.805C198.633 142.672 198.648 142.472 198.781 142.357C199.523 141.719 200.239 141.042 200.907 140.345C201.028 140.217 201.23 140.213 201.357 140.335C201.484 140.456 201.488 140.657 201.367 140.783C200.684 141.496 199.954 142.187 199.197 142.838C199.137 142.89 199.063 142.915 198.989 142.915ZM86.2277 141.77C86.1265 141.77 86.0271 141.722 85.9653 141.632C85.8656 141.488 85.9021 141.29 86.0468 141.191C86.8441 140.642 87.6456 140.059 88.4289 139.458C88.5684 139.351 88.7679 139.378 88.8752 139.516C88.9826 139.655 88.9564 139.855 88.8172 139.961C88.0251 140.569 87.2146 141.159 86.4081 141.713C86.353 141.751 86.2901 141.77 86.2277 141.77ZM39.5209 141.481C39.4535 141.481 39.3858 141.46 39.3281 141.416C38.6289 140.885 37.9274 140.323 37.2434 139.747L37.0078 139.548C36.8739 139.434 36.8582 139.233 36.9724 139.1C37.0866 138.966 37.2874 138.951 37.421 139.065L37.6541 139.262C38.33 139.831 39.023 140.386 39.7141 140.911C39.8538 141.017 39.8809 141.216 39.7743 141.356C39.7117 141.438 39.6168 141.481 39.5209 141.481ZM124.828 139.413C124.737 139.413 124.647 139.375 124.584 139.3C123.935 138.53 123.329 137.727 122.781 136.912C122.683 136.766 122.722 136.569 122.868 136.471C123.014 136.373 123.212 136.413 123.31 136.558C123.845 137.354 124.437 138.139 125.071 138.891C125.185 139.026 125.167 139.226 125.032 139.339C124.973 139.389 124.9 139.413 124.828 139.413ZM203.076 138.648C203.008 138.648 202.939 138.626 202.881 138.58C202.742 138.472 202.718 138.273 202.826 138.135C203.418 137.381 203.987 136.577 204.52 135.746C204.614 135.599 204.81 135.555 204.96 135.65C205.108 135.744 205.151 135.941 205.056 136.088C204.513 136.936 203.931 137.756 203.327 138.526C203.264 138.606 203.171 138.648 203.076 138.648ZM90.9267 138.166C90.8366 138.166 90.7471 138.128 90.6842 138.054C90.5703 137.921 90.5863 137.72 90.7201 137.607C91.4621 136.976 92.2017 136.316 92.9182 135.646C93.046 135.526 93.2476 135.532 93.3681 135.66C93.4882 135.788 93.482 135.989 93.3537 136.109C92.6297 136.787 91.8825 137.453 91.1328 138.09C91.073 138.141 90.9996 138.166 90.9267 138.166ZM35.0166 137.64C34.9375 137.64 34.8583 137.611 34.7966 137.552C34.0831 136.871 33.378 136.16 32.7004 135.437C32.5804 135.31 32.587 135.109 32.7155 134.989C32.8437 134.869 33.0452 134.875 33.1654 135.004C33.8347 135.717 34.5317 136.421 35.2366 137.093C35.3636 137.215 35.368 137.416 35.2466 137.542C35.1841 137.607 35.1004 137.64 35.0166 137.64ZM95.2488 134.12C95.1691 134.12 95.0891 134.091 95.0273 134.031C94.9011 133.909 94.898 133.708 95.0202 133.582C95.7024 132.88 96.3762 132.153 97.0228 131.423C97.139 131.291 97.3395 131.278 97.4723 131.394C97.6039 131.511 97.6165 131.711 97.5002 131.843C96.8471 132.581 96.1664 133.315 95.4774 134.024C95.415 134.088 95.3319 134.12 95.2488 134.12ZM206.268 133.675C206.219 133.675 206.169 133.664 206.121 133.639C205.966 133.559 205.905 133.367 205.986 133.211C206.426 132.368 206.847 131.476 207.237 130.56C207.305 130.399 207.492 130.323 207.654 130.391C207.816 130.46 207.891 130.646 207.823 130.808C207.426 131.74 206.998 132.647 206.551 133.504C206.494 133.613 206.383 133.675 206.268 133.675ZM30.9677 133.325C30.8767 133.325 30.7866 133.287 30.7236 133.212C30.0885 132.457 29.465 131.673 28.8699 130.884C28.7642 130.744 28.7926 130.544 28.9331 130.439C29.074 130.334 29.2733 130.362 29.3788 130.502C29.9668 131.283 30.5835 132.057 31.2113 132.804C31.3243 132.938 31.3067 133.139 31.1719 133.251C31.1123 133.301 31.0397 133.325 30.9677 133.325ZM99.1703 129.691C99.1001 129.691 99.0294 129.668 98.9706 129.62C98.8338 129.51 98.8125 129.31 98.9229 129.174C99.5311 128.423 100.142 127.641 100.737 126.85C100.843 126.71 101.043 126.682 101.183 126.787C101.324 126.893 101.352 127.092 101.246 127.232C100.646 128.028 100.031 128.816 99.4181 129.573C99.3551 129.651 99.2632 129.691 99.1703 129.691ZM27.4061 128.601C27.3037 128.601 27.2032 128.552 27.1419 128.461C26.5909 127.645 26.0529 126.8 25.5426 125.953C25.452 125.802 25.5009 125.607 25.6516 125.517C25.8017 125.427 25.9976 125.475 26.0884 125.626C26.5932 126.464 27.1251 127.299 27.6699 128.107C27.7681 128.252 27.7293 128.449 27.5835 128.547C27.5289 128.584 27.4671 128.601 27.4061 128.601ZM208.591 128.242C208.557 128.242 208.521 128.237 208.487 128.225C208.321 128.168 208.233 127.987 208.29 127.821C208.6 126.927 208.896 125.984 209.169 125.018C209.216 124.849 209.393 124.75 209.561 124.798C209.731 124.846 209.829 125.021 209.781 125.19C209.505 126.168 209.206 127.123 208.892 128.028C208.846 128.16 208.723 128.242 208.591 128.242ZM102.734 124.967C102.671 124.967 102.607 124.948 102.551 124.909C102.407 124.808 102.372 124.61 102.474 124.467C103.026 123.682 103.586 122.863 104.137 122.031C104.234 121.884 104.431 121.844 104.578 121.941C104.725 122.038 104.765 122.234 104.668 122.381C104.113 123.218 103.55 124.043 102.994 124.832C102.933 124.92 102.834 124.967 102.734 124.967ZM24.3556 123.534C24.2418 123.534 24.1318 123.473 24.0744 123.365C23.6109 122.498 23.1618 121.603 22.7398 120.708C22.665 120.549 22.7334 120.36 22.8923 120.285C23.052 120.211 23.241 120.279 23.3158 120.437C23.7334 121.324 24.1778 122.208 24.6364 123.067C24.719 123.221 24.6602 123.414 24.505 123.496C24.4574 123.522 24.4062 123.534 24.3556 123.534ZM210.207 122.557C210.184 122.557 210.16 122.554 210.135 122.549C209.964 122.509 209.857 122.339 209.897 122.168C210.108 121.252 210.31 120.282 210.498 119.286C210.531 119.114 210.695 118.998 210.87 119.033C211.043 119.065 211.156 119.231 211.124 119.403C210.934 120.408 210.73 121.386 210.517 122.31C210.483 122.457 210.352 122.557 210.207 122.557ZM106.004 120.035C105.946 120.035 105.888 120.02 105.836 119.987C105.686 119.894 105.641 119.698 105.734 119.55C106.24 118.744 106.757 117.896 107.273 117.031C107.363 116.88 107.559 116.83 107.71 116.92C107.861 117.01 107.91 117.205 107.82 117.355C107.302 118.225 106.782 119.076 106.274 119.886C106.214 119.983 106.11 120.035 106.004 120.035ZM21.8351 118.184C21.71 118.184 21.5912 118.11 21.5407 117.987C21.1656 117.075 20.8086 116.14 20.4794 115.209C20.4207 115.044 20.5078 114.863 20.6736 114.804C20.8385 114.746 21.0213 114.832 21.0796 114.998C21.4055 115.919 21.7588 116.843 22.1297 117.746C22.1964 117.908 22.1187 118.093 21.9561 118.16C21.9163 118.176 21.8755 118.184 21.8351 118.184ZM211.312 116.747C211.296 116.747 211.279 116.746 211.263 116.744C211.089 116.717 210.97 116.554 210.997 116.381C211.143 115.449 211.28 114.493 211.416 113.46C211.438 113.287 211.596 113.164 211.773 113.187C211.947 113.21 212.07 113.369 212.047 113.543C211.91 114.581 211.773 115.542 211.626 116.479C211.602 116.636 211.466 116.747 211.312 116.747ZM109.037 114.955C108.984 114.955 108.93 114.942 108.88 114.913C108.727 114.826 108.674 114.633 108.761 114.48C109.25 113.626 109.731 112.767 110.207 111.904C110.292 111.75 110.486 111.695 110.639 111.779C110.793 111.864 110.849 112.057 110.765 112.211C110.287 113.076 109.804 113.938 109.314 114.795C109.255 114.897 109.148 114.955 109.037 114.955ZM19.8622 112.609C19.725 112.609 19.5984 112.52 19.5574 112.382C19.2753 111.438 19.0132 110.472 18.7783 109.514C18.7366 109.343 18.841 109.171 19.0118 109.13C19.1831 109.088 19.3549 109.192 19.3966 109.363C19.6291 110.312 19.8885 111.267 20.1674 112.201C20.2176 112.369 20.1216 112.546 19.9532 112.596C19.9229 112.605 19.8924 112.609 19.8622 112.609ZM212.093 110.883C212.081 110.883 212.069 110.883 212.056 110.881C211.882 110.861 211.756 110.704 211.777 110.529L211.829 110.078C211.923 109.253 212.013 108.425 212.099 107.594C212.116 107.42 212.276 107.295 212.447 107.311C212.622 107.329 212.75 107.484 212.732 107.659C212.646 108.492 212.555 109.323 212.461 110.151L212.409 110.602C212.39 110.764 212.253 110.883 212.093 110.883ZM111.899 109.776C111.848 109.776 111.797 109.764 111.749 109.738C111.594 109.656 111.535 109.463 111.618 109.308C112.083 108.44 112.545 107.57 113.003 106.697C113.085 106.542 113.277 106.482 113.433 106.563C113.589 106.645 113.649 106.837 113.567 106.992C113.108 107.866 112.646 108.738 112.18 109.608C112.122 109.715 112.012 109.776 111.899 109.776ZM18.4562 106.867C18.3066 106.867 18.1731 106.761 18.1441 106.609C17.9576 105.639 17.7938 104.652 17.657 103.676C17.6325 103.502 17.754 103.342 17.928 103.318C18.0996 103.293 18.2629 103.414 18.2873 103.588C18.4227 104.554 18.5847 105.529 18.7691 106.489C18.8023 106.662 18.6891 106.828 18.5165 106.861C18.4965 106.865 18.4762 106.867 18.4562 106.867ZM212.695 105C212.686 105 212.677 105 212.668 104.999C212.492 104.984 212.363 104.831 212.378 104.656C212.463 103.647 212.536 102.658 212.594 101.714C212.605 101.539 212.758 101.407 212.932 101.417C213.107 101.428 213.241 101.578 213.23 101.753C213.172 102.702 213.098 103.696 213.012 104.71C212.998 104.875 212.858 105 212.695 105ZM114.653 104.539C114.604 104.539 114.554 104.528 114.507 104.503C114.351 104.423 114.29 104.231 114.371 104.076C114.825 103.201 115.278 102.325 115.73 101.449C115.811 101.292 116.003 101.231 116.159 101.312C116.315 101.392 116.376 101.583 116.296 101.739C115.843 102.616 115.39 103.492 114.936 104.367C114.88 104.477 114.768 104.539 114.653 104.539ZM17.6367 101.012C17.4736 101.012 17.3346 100.888 17.3201 100.723C17.2333 99.7386 17.1714 98.7402 17.1359 97.755C17.1297 97.5797 17.2669 97.4325 17.4426 97.4263C17.6119 97.4178 17.7658 97.557 17.772 97.7323C17.8071 98.7065 17.8684 99.6938 17.9542 100.667C17.9696 100.841 17.8403 100.996 17.6652 101.011C17.6555 101.012 17.6461 101.012 17.6367 101.012ZM117.371 99.2834C117.322 99.2834 117.272 99.272 117.225 99.248C117.069 99.1674 117.008 98.976 117.089 98.8202C117.542 97.9437 117.998 97.0683 118.456 96.1946C118.537 96.0389 118.73 95.9796 118.885 96.0602C119.041 96.1415 119.101 96.3333 119.02 96.4885C118.562 97.3614 118.108 98.236 117.654 99.1117C117.598 99.2207 117.486 99.2834 117.371 99.2834ZM213.05 99.0978C213.046 99.0978 213.043 99.0978 213.04 99.0976C212.864 99.0923 212.726 98.9457 212.731 98.7704C212.759 97.8923 212.772 97.0336 212.772 96.2184L212.771 95.8252C212.771 95.65 212.913 95.5073 213.089 95.5067C213.089 95.5067 213.089 95.5067 213.09 95.5067C213.265 95.5067 213.407 95.6481 213.408 95.8232L213.409 96.2182C213.409 97.0399 213.395 97.9053 213.368 98.7903C213.363 98.962 213.221 99.0978 213.05 99.0978ZM17.4255 95.1048C17.4239 95.1048 17.422 95.1048 17.4201 95.1048C17.2444 95.1019 17.1043 94.9572 17.1072 94.7819C17.1238 93.7925 17.1675 92.7928 17.2371 91.8112C17.2493 91.6359 17.4025 91.5033 17.577 91.5168C17.7522 91.5292 17.8845 91.6809 17.8721 91.8558C17.8035 92.8263 17.7602 93.8144 17.7438 94.7927C17.7409 94.9661 17.599 95.1048 17.4255 95.1048ZM120.12 94.0434C120.07 94.0434 120.018 94.0314 119.971 94.0062C119.816 93.9237 119.757 93.7313 119.839 93.5766C120.305 92.7053 120.774 91.8366 121.248 90.9713C121.333 90.817 121.527 90.7612 121.681 90.845C121.835 90.9293 121.891 91.1222 121.807 91.276C121.334 92.1392 120.866 93.0059 120.401 93.8751C120.344 93.9823 120.234 94.0434 120.12 94.0434ZM213.011 93.1851C212.843 93.1851 212.702 93.0528 212.694 92.8831C212.645 91.8812 212.572 90.8945 212.479 89.9501C212.461 89.7756 212.589 89.6199 212.764 89.6026C212.943 89.5854 213.095 89.7132 213.112 89.8873C213.207 90.8423 213.28 91.8398 213.329 92.8521C213.338 93.0274 213.203 93.1762 213.027 93.1847C213.022 93.1849 213.017 93.1851 213.011 93.1851ZM17.8439 89.2089C17.8307 89.2089 17.8174 89.208 17.8039 89.2064C17.6294 89.1845 17.5058 89.0258 17.5277 88.8519C17.6516 87.8681 17.8041 86.8791 17.9811 85.9122C18.0124 85.7396 18.1792 85.6249 18.3514 85.6569C18.5242 85.6883 18.6388 85.8537 18.6073 86.0263C18.4324 86.9815 18.2818 87.9588 18.1593 88.9307C18.1392 89.0914 18.0021 89.2089 17.8439 89.2089ZM122.968 88.8575C122.915 88.8575 122.861 88.8443 122.812 88.8161C122.659 88.7297 122.605 88.536 122.692 88.3835C123.188 87.5108 123.689 86.6482 124.182 85.8197C124.272 85.6687 124.467 85.6191 124.619 85.7086C124.77 85.7983 124.82 85.9931 124.73 86.1437C124.239 86.9687 123.739 87.8276 123.245 88.6963C123.187 88.7996 123.079 88.8575 122.968 88.8575ZM212.421 87.3037C212.267 87.3037 212.132 87.1921 212.107 87.0356C211.953 86.057 211.768 85.0868 211.557 84.1514C211.519 83.9805 211.627 83.8106 211.798 83.7722C211.968 83.7346 212.14 83.8412 212.178 84.0126C212.392 84.9612 212.579 85.9451 212.736 86.9369C212.764 87.1101 212.645 87.2726 212.471 87.2999C212.454 87.3024 212.438 87.3037 212.421 87.3037ZM125.998 83.7728C125.94 83.7728 125.882 83.7574 125.829 83.7247C125.68 83.6319 125.635 83.4359 125.728 83.2873C126.255 82.4445 126.795 81.6049 127.333 80.7915C127.43 80.6452 127.627 80.6049 127.774 80.7014C127.921 80.798 127.961 80.9948 127.864 81.1413C127.33 81.9501 126.793 82.7852 126.268 83.6236C126.208 83.7199 126.104 83.7728 125.998 83.7728ZM18.9086 83.3942C18.8839 83.3942 18.8586 83.3913 18.8335 83.3853C18.6628 83.3442 18.5577 83.1726 18.599 83.0021C18.8305 82.0463 19.0936 81.0805 19.381 80.132C19.432 79.9641 19.6112 79.8701 19.7776 79.9199C19.9458 79.9705 20.0411 80.1476 19.9902 80.3155C19.7063 81.2529 19.4465 82.2069 19.2177 83.1514C19.1825 83.2967 19.0522 83.3942 18.9086 83.3942ZM211.117 81.5396C210.981 81.5396 210.854 81.451 210.813 81.3135C210.592 80.5827 210.35 79.8568 210.092 79.1556C210.017 78.9497 209.939 78.7449 209.859 78.5407C209.795 78.3772 209.876 78.1932 210.04 78.1298C210.204 78.0663 210.388 78.1465 210.453 78.3105C210.534 78.5187 210.613 78.7274 210.69 78.9372C210.952 79.6499 211.198 80.3881 211.422 81.1308C211.473 81.2987 211.377 81.4758 211.209 81.5263C211.178 81.5353 211.148 81.5396 211.117 81.5396ZM129.264 78.8377C129.201 78.8377 129.138 78.8191 129.082 78.7804C128.938 78.68 128.903 78.482 129.003 78.3383C129.577 77.5202 130.163 76.7109 130.744 75.9326C130.849 75.7922 131.048 75.7631 131.189 75.8677C131.33 75.9725 131.359 76.1715 131.254 76.3121C130.677 77.0852 130.095 77.8893 129.525 78.7021C129.463 78.7904 129.364 78.8377 129.264 78.8377ZM20.6206 77.7356C20.5846 77.7356 20.5479 77.7296 20.5121 77.7165C20.3467 77.6566 20.2616 77.4745 20.3214 77.3098C20.658 76.386 21.0257 75.4552 21.4151 74.5434C21.4841 74.3822 21.671 74.3069 21.8326 74.3758C21.9943 74.4445 22.0697 74.6309 22.0007 74.7924C21.6158 75.6936 21.2522 76.6137 20.9198 77.5265C20.8727 77.6555 20.7507 77.7356 20.6206 77.7356ZM208.973 76.0329C208.855 76.0329 208.741 75.967 208.687 75.8537C208.263 74.9806 207.797 74.1108 207.302 73.2685C207.214 73.1171 207.265 72.9226 207.416 72.8341C207.568 72.7455 207.763 72.7963 207.852 72.9476C208.355 73.8042 208.828 74.6889 209.259 75.5771C209.336 75.7349 209.27 75.9249 209.112 76.0013C209.067 76.0228 209.02 76.0329 208.973 76.0329ZM132.809 74.0981C132.739 74.0981 132.669 74.0756 132.611 74.0289C132.473 73.9196 132.451 73.7199 132.56 73.5827C133.183 72.8038 133.822 72.0344 134.458 71.2958C134.572 71.1627 134.773 71.1474 134.906 71.262C135.04 71.3763 135.055 71.5768 134.94 71.7096C134.309 72.4424 133.676 73.2058 133.058 73.9787C132.995 74.0572 132.902 74.0981 132.809 74.0981ZM22.9412 72.2971C22.8941 72.2971 22.8463 72.2867 22.8013 72.2647C22.6435 72.1876 22.5781 71.9972 22.6557 71.8399C23.0898 70.9564 23.5548 70.0701 24.0374 69.2056C24.1229 69.052 24.3167 68.9967 24.4702 69.0826C24.6238 69.1679 24.6791 69.3612 24.5936 69.5144C24.1164 70.3693 23.6565 71.2457 23.2272 72.1193C23.1718 72.2318 23.0586 72.2971 22.9412 72.2971ZM205.983 70.9338C205.882 70.9338 205.783 70.8861 205.721 70.7972C205.167 69.9993 204.573 69.2103 203.957 68.4516C203.846 68.3154 203.868 68.1153 204.004 68.005C204.14 67.8952 204.341 67.9153 204.452 68.0519C205.078 68.8228 205.681 69.6248 206.244 70.4355C206.345 70.5795 206.309 70.7774 206.164 70.8772C206.109 70.9154 206.046 70.9338 205.983 70.9338ZM136.674 69.6161C136.596 69.6161 136.519 69.588 136.457 69.5311C136.329 69.4117 136.321 69.2107 136.441 69.0823C137.124 68.35 137.822 67.6331 138.516 66.9514C138.641 66.8284 138.842 66.8296 138.966 66.9547C139.089 67.0796 139.088 67.2807 138.963 67.4036C138.275 68.079 137.584 68.7892 136.907 69.5148C136.844 69.582 136.759 69.6161 136.674 69.6161ZM25.8233 67.1325C25.7658 67.1325 25.7072 67.1168 25.6549 67.0841C25.5059 66.9908 25.4607 66.7949 25.554 66.6465C26.0781 65.8121 26.6317 64.9784 27.2001 64.1683C27.3004 64.0244 27.4993 63.9899 27.6434 64.0902C27.7874 64.1908 27.8224 64.3889 27.7216 64.5325C27.1594 65.3337 26.6118 66.1583 26.0936 66.9834C26.033 67.0798 25.9294 67.1325 25.8233 67.1325ZM202.257 66.3419C202.172 66.3419 202.087 66.3082 202.025 66.2416C201.359 65.5345 200.656 64.8397 199.936 64.1769C199.807 64.058 199.799 63.8571 199.918 63.7281C200.037 63.5995 200.239 63.5916 200.368 63.7101C201.099 64.3834 201.813 65.0888 202.489 65.8071C202.609 65.9349 202.603 66.1358 202.475 66.2559C202.413 66.3133 202.335 66.3419 202.257 66.3419ZM140.898 65.4696C140.811 65.4696 140.724 65.434 140.661 65.364C140.544 65.2336 140.554 65.0328 140.685 64.9156C141.432 64.2482 142.195 63.5995 142.954 62.9878C143.09 62.8781 143.291 62.8983 143.401 63.0354C143.512 63.1716 143.491 63.3715 143.354 63.4819C142.604 64.0865 141.849 64.7281 141.111 65.3886C141.05 65.4428 140.974 65.4696 140.898 65.4696ZM197.903 62.335C197.834 62.335 197.764 62.3123 197.705 62.2656C196.943 61.6583 196.148 61.07 195.343 60.5171C195.199 60.4176 195.162 60.2198 195.262 60.0755C195.361 59.931 195.56 59.8949 195.705 59.9941C196.521 60.5555 197.328 61.1528 198.102 61.7695C198.24 61.8788 198.262 62.0788 198.152 62.2156C198.09 62.2941 197.997 62.335 197.903 62.335ZM145.509 61.7571C145.41 61.7571 145.312 61.7114 145.25 61.6252C145.148 61.4829 145.18 61.2845 145.322 61.182C146.136 60.5969 146.966 60.0354 147.79 59.513C147.939 59.419 148.136 59.463 148.23 59.6108C148.324 59.759 148.28 59.9552 148.132 60.0492C147.318 60.5647 146.498 61.1192 145.695 61.6971C145.638 61.7376 145.573 61.7571 145.509 61.7571ZM193.025 58.9837C192.97 58.9837 192.914 58.9696 192.863 58.9399C192.023 58.4456 191.152 57.9758 190.278 57.543C190.12 57.465 190.056 57.2745 190.134 57.1176C190.212 56.9607 190.403 56.8958 190.56 56.9741C191.449 57.4136 192.332 57.8908 193.187 58.3926C193.338 58.4816 193.388 58.6761 193.299 58.8272C193.24 58.9279 193.133 58.9837 193.025 58.9837ZM150.51 58.5913C150.398 58.5913 150.289 58.532 150.231 58.4269C150.146 58.2734 150.202 58.0803 150.356 57.9958C151.228 57.516 152.123 57.0614 153.014 56.6443C153.171 56.5707 153.363 56.6381 153.437 56.797C153.512 56.9557 153.444 57.1447 153.284 57.2193C152.405 57.6304 151.524 58.0788 150.664 58.5517C150.615 58.5787 150.562 58.5913 150.51 58.5913ZM187.717 56.3601C187.677 56.3601 187.636 56.3527 187.597 56.3365C186.697 55.9699 185.768 55.6296 184.837 55.3253C184.67 55.2708 184.578 55.0913 184.633 54.9247C184.688 54.7581 184.868 54.6669 185.035 54.7217C185.981 55.0309 186.924 55.3764 187.838 55.7486C188 55.8149 188.078 56.0001 188.012 56.1626C187.961 56.2857 187.843 56.3601 187.717 56.3601ZM155.874 56.085C155.746 56.085 155.626 56.0081 155.577 55.8824C155.514 55.7189 155.595 55.5349 155.759 55.4715C156.681 55.1143 157.63 54.7852 158.579 54.4932C158.747 54.4421 158.925 54.5354 158.977 54.703C159.029 54.8706 158.935 55.0484 158.767 55.1C157.832 55.3876 156.897 55.7116 155.989 56.0634C155.951 56.0782 155.912 56.085 155.874 56.085ZM182.089 54.5202C182.063 54.5202 182.037 54.5171 182.011 54.5107C181.067 54.2738 180.099 54.0661 179.135 53.893C178.962 53.862 178.847 53.6968 178.878 53.5243C178.909 53.3519 179.075 53.2384 179.248 53.2679C180.226 53.4435 181.208 53.6544 182.166 53.8947C182.337 53.9375 182.44 54.1101 182.397 54.2802C182.361 54.4243 182.231 54.5202 182.089 54.5202ZM161.534 54.3422C161.389 54.3422 161.259 54.2434 161.224 54.0969C161.184 53.9261 161.29 53.7554 161.462 53.7155C162.425 53.4914 163.41 53.2977 164.39 53.1396C164.566 53.1122 164.727 53.2291 164.755 53.4023C164.784 53.5753 164.666 53.7384 164.492 53.7663C163.526 53.9222 162.555 54.1132 161.607 54.334C161.582 54.3396 161.558 54.3422 161.534 54.3422ZM176.259 53.4749C176.247 53.4749 176.236 53.4743 176.224 53.4731C175.253 53.3664 174.267 53.2916 173.29 53.2502C173.115 53.2428 172.978 53.0946 172.986 52.9195C172.993 52.744 173.124 52.6078 173.317 52.6156C174.308 52.6576 175.309 52.7336 176.293 52.8418C176.468 52.861 176.594 53.0179 176.575 53.1921C176.557 53.3546 176.419 53.4749 176.259 53.4749ZM167.38 53.398C167.218 53.398 167.079 53.2744 167.064 53.1099C167.048 52.9352 167.177 52.7806 167.352 52.7644C168.337 52.6733 169.34 52.6146 170.332 52.5899C170.509 52.5746 170.653 52.7245 170.658 52.8994C170.662 53.0746 170.523 53.2202 170.347 53.2247C169.369 53.2489 168.381 53.3068 167.41 53.3965C167.4 53.3976 167.39 53.398 167.38 53.398ZM29.2602 62.2377C29.1918 62.2377 29.1228 62.2157 29.0648 62.1705C28.9262 62.0628 28.9013 61.8633 29.0095 61.725C29.3156 61.333 29.6268 60.9449 29.9432 60.5604C30.0545 60.4251 30.2554 60.4048 30.391 60.5164C30.5269 60.6276 30.5468 60.8277 30.4351 60.963C30.1224 61.3433 29.8144 61.7275 29.5113 62.1153C29.4488 62.1957 29.3549 62.2377 29.2602 62.2377Z" fill="#252525"/>
<path d="M111.926 42.6338V42.6508H111.921C111.926 42.6465 111.926 42.638 111.926 42.6338Z" fill="#F9A488"/>
<path d="M22.3403 42.4288L58.5818 36.4727L30.4058 48.7953L22.3403 42.4288Z" fill="#F9D95A"/>
<path d="M58.582 36.4727L46.7135 61.6644L36.449 53.5654L58.582 36.4727Z" fill="#F9D95A"/>
<path d="M30.1304 60.83L30.2349 48.874L58.5805 36.4714L36.4454 53.5629L30.1304 60.83Z" fill="#F4B1E6"/>
<path d="M26.5544 138.916C26.7856 136.606 26.5845 134.254 25.9646 132.017C25.808 131.451 25.6118 130.871 25.199 130.453C24.6048 129.851 23.589 129.721 22.8612 130.152C22.1334 130.584 21.7633 131.536 22.0094 132.345C21.3741 129.596 20.6782 126.854 19.4679 124.304C19.237 123.818 18.9804 123.333 18.6013 122.951C18.2222 122.568 17.7006 122.295 17.1621 122.325C16.496 122.362 15.9226 122.857 15.6194 123.45C15.3162 124.043 15.2381 124.722 15.194 125.386C14.9287 129.375 15.7283 133.429 17.4885 137.02C17.3548 136.446 16.7105 136.05 16.1276 135.957C15.5447 135.864 14.9189 136.153 14.6129 136.657C14.2895 137.189 14.3297 137.863 14.4506 138.473C14.872 140.6 16.1824 142.538 18.0017 143.724C17.4269 143.24 16.4066 143.428 15.9853 144.049C15.6358 144.565 15.6852 145.245 15.7822 145.859C16.0747 147.713 16.6784 149.518 17.5604 151.176C18.0515 152.099 18.6376 152.987 19.4204 153.681C20.2031 154.375 21.2013 154.865 22.2483 154.894C23.2952 154.923 24.3791 154.441 24.9328 153.554" fill="#F9D95A"/>
<path d="M39.2725 135.785C38.1483 137.493 36.9824 139.17 35.6311 140.714C36.157 140.107 36.7761 139.52 37.5498 139.284C38.3235 139.047 39.2831 139.263 39.6853 139.963C40.0979 140.673 39.8193 141.578 39.4687 142.33C38.7053 143.935 37.7357 145.458 36.4872 146.724C36.8484 146.508 37.23 146.302 37.6428 146.24C38.0553 146.189 38.5299 146.323 38.7467 146.673C39.0046 147.084 38.86 147.619 38.6743 148.062C37.7457 150.315 36.0436 152.23 33.9185 153.423C31.7933 154.617 29.2556 155.07 26.8518 154.699C26.8005 154.689 24.572 151.9 24.2834 147.794C24.1182 145.366 24.6753 142.896 25.8409 140.755C26.1607 140.169 26.5426 139.603 27.079 139.212C27.6255 138.831 28.3582 138.666 28.9669 138.954C29.4621 139.191 29.8953 139.808 29.8231 140.333C30.8547 136.906 33.4337 133.984 36.7245 132.553C37.23 132.337 37.7664 132.152 38.3235 132.142C38.8703 132.142 39.4481 132.347 39.7783 132.79C40.1083 133.222 40.1495 133.819 40.005 134.344C39.8709 134.869 39.5717 135.332 39.2725 135.785Z" fill="#2B8941"/>
<path d="M34.0703 163.633V176.353C34.0703 179.294 31.6789 181.68 28.7394 181.68H21.3622C18.6071 181.68 16.3338 179.596 16.0504 176.923C16.0268 176.734 16.0173 176.546 16.0173 176.353V163.633C16.0173 160.687 18.4134 158.301 21.3623 158.301H28.7395C30.9417 158.301 32.8321 159.64 33.645 161.549C33.919 162.191 34.0703 162.893 34.0703 163.633Z" fill="#EF603F"/>
<path d="M28.7393 182H21.3633C18.241 182 15.7009 179.466 15.7009 176.351V163.632C15.7009 160.517 18.241 157.984 21.3633 157.984H28.7393C31.8556 157.984 34.3909 160.517 34.3909 163.632V176.351C34.3909 179.466 31.8556 182 28.7393 182ZM21.3633 158.619C18.592 158.619 16.3375 160.868 16.3375 163.632V176.351C16.3375 179.116 18.592 181.365 21.3633 181.365H28.7393C31.5046 181.365 33.7543 179.116 33.7543 176.351V163.632C33.7543 160.868 31.5046 158.619 28.7393 158.619H21.3633Z" fill="#252525"/>
<path d="M25.9924 158.631C25.9726 158.631 25.9524 158.629 25.9323 158.625C25.7597 158.592 25.6464 158.426 25.6793 158.253C26.986 151.422 29.6967 144.737 33.5186 138.922C33.6154 138.775 33.8124 138.735 33.9594 138.83C34.1065 138.926 34.1475 139.123 34.0511 139.27C30.2745 145.017 27.5958 151.622 26.3046 158.373C26.2755 158.525 26.142 158.631 25.9924 158.631Z" fill="#252525"/>
<path d="M28.9803 148.555C28.9105 148.555 28.84 148.532 28.7812 148.485C28.6442 148.375 28.6222 148.175 28.7323 148.038C30.2045 146.21 32.0214 145.192 34.2966 144.227C34.4586 144.158 34.6453 144.234 34.7139 144.395C34.7827 144.557 34.7075 144.743 34.5456 144.812C32.2964 145.766 30.6224 146.705 29.2288 148.436C29.1658 148.514 29.0736 148.555 28.9803 148.555ZM27.0524 154.154C26.9906 154.154 26.9283 154.136 26.8735 154.099C26.728 154 26.6906 153.803 26.7895 153.658C28.2596 151.503 30.5203 149.891 33.5088 148.868C33.6754 148.811 33.8561 148.899 33.9133 149.065C33.9703 149.231 33.8819 149.412 33.7156 149.469C30.8602 150.447 28.7068 151.976 27.3158 154.015C27.2543 154.105 27.1541 154.154 27.0524 154.154ZM27.8419 151.61C27.6774 151.61 27.5379 151.484 27.5251 151.317C27.2822 148.172 27.5603 145.9 28.4549 143.723C28.5215 143.561 28.7081 143.484 28.8699 143.55C29.0325 143.616 29.1105 143.802 29.0437 143.964C28.1894 146.044 27.925 148.228 28.1595 151.269C28.1732 151.444 28.042 151.596 27.8667 151.61C27.8584 151.61 27.8502 151.61 27.8419 151.61Z" fill="#252525"/>
<path d="M28.5234 155.145C27.9493 155.145 27.374 155.101 26.8031 155.013C26.4851 154.949 24.2529 151.905 23.9655 147.816C23.7985 145.361 24.365 142.8 25.5609 140.604C25.847 140.079 26.2565 139.417 26.891 138.955C27.5968 138.463 28.4421 138.355 29.103 138.667C29.3745 138.797 29.6424 139.029 29.8391 139.312C31.0583 136.19 33.5276 133.596 36.597 132.262C37.0889 132.052 37.6765 131.836 38.3173 131.824C39.0313 131.824 39.6706 132.114 40.0333 132.6C40.3924 133.07 40.4971 133.755 40.3116 134.428C40.1617 135.016 39.8159 135.539 39.538 135.959C38.9152 136.906 38.2112 137.948 37.4317 138.987C37.4398 138.985 37.448 138.982 37.4563 138.98C38.2928 138.724 39.4557 138.926 39.9611 139.805C40.3478 140.47 40.2813 141.34 39.7572 142.464C39.1341 143.774 38.4194 144.932 37.6233 145.923C38.2143 145.858 38.7568 146.085 39.0171 146.505C39.4096 147.131 39.0769 147.924 38.9678 148.184C38.0115 150.505 36.2734 152.465 34.0746 153.7C32.3834 154.65 30.46 155.145 28.5234 155.145ZM27.0095 154.402C29.3234 154.737 31.7213 154.293 33.762 153.147C35.8369 151.981 37.4768 150.132 38.3796 147.941C38.5922 147.434 38.6235 147.075 38.4765 146.841C38.324 146.595 37.9572 146.521 37.6821 146.555C37.3199 146.609 36.9595 146.811 36.6505 146.996C36.5134 147.078 36.3357 147.046 36.2367 146.92C36.1377 146.795 36.1476 146.615 36.2599 146.501C37.378 145.368 38.3606 143.918 39.1808 142.194C39.61 141.274 39.685 140.596 39.4096 140.122C39.0801 139.549 38.2533 139.4 37.6427 139.587C36.933 139.804 36.3579 140.368 35.9286 140.856C35.9093 140.878 35.8898 140.9 35.8706 140.922C35.7549 141.054 35.5542 141.068 35.4221 140.953C35.2895 140.839 35.2752 140.638 35.39 140.506C35.4093 140.484 35.429 140.461 35.4488 140.439C36.8222 138.859 38.0167 137.114 39.0061 135.61C39.0062 135.61 39.0062 135.61 39.0065 135.609C39.2711 135.209 39.5709 134.756 39.6959 134.265C39.8308 133.776 39.7662 133.298 39.5245 132.982C39.2829 132.658 38.8233 132.459 38.3231 132.459C37.7978 132.468 37.2831 132.659 36.8494 132.845C33.6512 134.235 31.1376 137.069 30.1273 140.424C30.0797 140.583 29.916 140.678 29.755 140.643C29.5925 140.608 29.4845 140.454 29.5071 140.29C29.5562 139.933 29.233 139.433 28.8289 139.24C28.2864 138.983 27.6631 139.191 27.2609 139.472C26.7342 139.855 26.3743 140.44 26.12 140.907C24.9814 142.998 24.4416 145.436 24.6003 147.772C24.8441 151.238 26.5597 153.863 27.0095 154.402Z" fill="#252525"/>
<path d="M22.3118 155.212C22.2871 155.212 22.2631 155.212 22.2394 155.211C21.1926 155.182 20.1163 154.723 19.2089 153.918C18.499 153.289 17.8859 152.464 17.2793 151.324C16.3767 149.628 15.7673 147.806 15.4681 145.909C15.3626 145.242 15.3104 144.478 15.7215 143.871C15.9525 143.531 16.3396 143.279 16.7778 143.18C15.4328 141.962 14.4931 140.325 14.1383 138.535C14.0289 137.981 13.9308 137.167 14.3406 136.492C14.7131 135.879 15.4687 135.531 16.1777 135.643C16.3041 135.664 16.4351 135.697 16.5659 135.742C15.2231 132.464 14.6406 128.908 14.8763 125.365C14.9192 124.72 14.9938 123.975 15.3359 123.306C15.7246 122.545 16.4177 122.048 17.1445 122.008C17.7306 121.979 18.3428 122.238 18.8277 122.727C19.2388 123.143 19.5165 123.665 19.7554 124.168C20.749 126.261 21.3992 128.485 21.9349 130.655C22.12 130.34 22.3794 130.068 22.6985 129.879C23.5547 129.372 24.7268 129.522 25.4259 130.23C25.8827 130.693 26.1022 131.321 26.2715 131.932C26.9143 134.252 27.1926 137.344 26.964 139.627C26.9466 139.801 26.7904 139.93 26.6157 139.911C26.4408 139.893 26.3132 139.738 26.3308 139.563C26.5521 137.352 26.2816 134.353 25.6579 132.101C25.5215 131.609 25.345 131.053 24.9725 130.676C24.4814 130.178 23.6254 130.069 23.0238 130.425C22.4801 130.748 22.173 131.435 22.2695 132.057C22.2863 132.129 22.3032 132.201 22.3197 132.273C22.3582 132.44 22.2574 132.607 22.0916 132.651C21.927 132.696 21.7548 132.601 21.7049 132.437C21.6788 132.351 21.6586 132.264 21.644 132.177C21.0484 129.616 20.3586 126.923 19.1802 124.44C18.9319 123.917 18.7001 123.502 18.3747 123.174C18.0183 122.813 17.5855 122.615 17.1797 122.642C16.6861 122.669 16.1848 123.043 15.9029 123.594C15.6157 124.156 15.5504 124.825 15.5116 125.407C15.2594 129.199 15.9704 133.006 17.5697 136.451C17.6758 136.598 17.7558 136.764 17.7987 136.948C17.8354 137.105 17.748 137.265 17.5955 137.319C17.4425 137.373 17.2738 137.305 17.2028 137.159C17.1415 137.034 17.0814 136.909 17.0223 136.783C16.8045 136.511 16.4179 136.325 16.0776 136.271C15.6247 136.198 15.123 136.43 14.8851 136.821C14.6605 137.192 14.6216 137.697 14.7631 138.412C15.1498 140.364 16.3458 142.184 17.9816 143.326C18.0622 143.371 18.1378 143.422 18.2074 143.481C18.3358 143.589 18.3578 143.779 18.2574 143.913C18.1573 144.048 17.9688 144.081 17.828 143.989C17.7669 143.949 17.7064 143.909 17.6467 143.868C17.4718 143.78 17.2547 143.747 17.0275 143.779C16.6995 143.824 16.4086 143.992 16.249 144.227C15.9616 144.651 16.0109 145.265 16.097 145.81C16.3852 147.638 16.9723 149.393 17.8419 151.027C18.4117 152.098 18.9806 152.866 19.6323 153.444C20.4278 154.149 21.36 154.552 22.2575 154.577C22.7986 154.583 23.6411 154.396 24.2198 153.797C24.7036 153.295 24.9196 152.598 24.8613 151.725C24.8497 151.55 24.9825 151.399 25.1579 151.387C25.3292 151.376 25.4849 151.508 25.4966 151.683C25.5671 152.742 25.2917 153.601 24.6783 154.237C23.9808 154.96 22.9856 155.212 22.3118 155.212Z" fill="#252525"/>
<path d="M22.2098 158.619C22.2036 158.619 22.1976 158.619 22.1911 158.618C22.0156 158.608 21.8818 158.458 21.892 158.283C22.4879 148.005 21.2981 138.041 18.3552 128.669C18.3027 128.502 18.396 128.324 18.5639 128.271C18.7313 128.218 18.9099 128.312 18.9628 128.479C21.9286 137.925 23.128 147.965 22.5273 158.32C22.5175 158.488 22.3772 158.619 22.2098 158.619Z" fill="#252525"/>
<path d="M21.7191 142.808C21.7115 142.808 21.7038 142.807 21.6961 142.807C21.5208 142.794 21.3888 142.642 21.4013 142.467C21.5955 139.737 22.2018 137.059 23.2032 134.509C23.2673 134.346 23.4521 134.265 23.6156 134.329C23.7792 134.393 23.8601 134.577 23.7959 134.741C22.8181 137.231 22.226 139.846 22.0362 142.513C22.0244 142.68 21.8845 142.808 21.7191 142.808ZM22.2082 148.414C22.0553 148.414 21.9203 148.303 21.8945 148.148C21.3427 144.81 19.8932 141.728 17.9181 139.692C17.7958 139.566 17.7991 139.365 17.9255 139.243C18.0513 139.121 18.2526 139.123 18.3755 139.25C20.4385 141.377 21.95 144.582 22.5227 148.044C22.5513 148.218 22.4338 148.381 22.2604 148.41C22.2428 148.412 22.2253 148.414 22.2082 148.414ZM22.3559 152.84C22.2263 152.84 22.1045 152.76 22.057 152.632C21.4072 150.87 20.3937 149.282 19.1264 148.04C19.0009 147.917 18.9992 147.716 19.1222 147.591C19.2457 147.466 19.4472 147.464 19.5723 147.587C20.9065 148.894 21.9723 150.563 22.6546 152.413C22.715 152.577 22.6308 152.76 22.4656 152.82C22.4295 152.833 22.3924 152.84 22.3559 152.84Z" fill="#252525"/>
<path d="M188.225 88.2447V170.292C188.225 176.289 183.348 181.154 177.336 181.154H56.6803C50.6645 181.154 45.7911 176.289 45.7911 170.292V88.2447C45.7911 82.2473 50.6645 77.3821 56.6803 77.3821H177.336C183.348 77.3821 188.225 82.2474 188.225 88.2447Z" fill="#F2F7FD"/>
<path d="M188.222 92.8567V88.2444C188.222 82.2471 183.345 77.3818 177.333 77.3818H56.6773C50.6615 77.3818 45.7881 82.2471 45.7881 88.2444V92.8567H188.222Z" fill="white"/>
<path d="M171.507 85.1213C171.507 87.0876 169.906 88.6846 167.932 88.6846C165.957 88.6846 164.36 87.0877 164.36 85.1213C164.36 83.1516 165.957 81.5547 167.932 81.5547C169.906 81.5546 171.507 83.1516 171.507 85.1213Z" fill="#F9D95A"/>
<path d="M161.191 85.1211C161.191 87.0874 159.59 88.6844 157.616 88.6844C155.641 88.6844 154.044 87.0874 154.044 85.1211C154.044 83.1514 155.641 81.5544 157.616 81.5544C159.59 81.5544 161.191 83.1514 161.191 85.1211Z" fill="#E53C6D"/>
<path d="M150.875 85.1211C150.875 87.0874 149.274 88.6844 147.299 88.6844C145.325 88.6844 143.727 87.0874 143.727 85.1211C143.727 83.1514 145.325 81.5544 147.299 81.5544C149.274 81.5544 150.875 83.1514 150.875 85.1211Z" fill="#6CA8F5"/>
<path d="M177.333 181.472H56.6771C50.4971 181.472 45.4695 176.457 45.4695 170.292V88.2449C45.4695 82.08 50.4972 77.0647 56.6771 77.0647H177.333C183.513 77.0647 188.54 82.0801 188.54 88.2449V170.292C188.54 176.457 183.513 181.472 177.333 181.472ZM56.6771 77.6996C50.8481 77.6996 46.106 82.4302 46.106 88.2449V170.292C46.106 176.106 50.8481 180.837 56.6771 180.837H177.333C183.162 180.837 187.904 176.106 187.904 170.292V88.2449C187.904 82.4302 183.162 77.6996 177.333 77.6996H56.6771Z" fill="#252525"/>
<path d="M188.222 93.1744H45.7878C45.6121 93.1744 45.4695 93.0322 45.4695 92.8569V88.2446C45.4695 82.0798 50.4972 77.0645 56.6771 77.0645H177.333C183.513 77.0645 188.54 82.0798 188.54 88.2446V92.8569C188.54 93.0322 188.398 93.1744 188.222 93.1744ZM46.1061 92.5394H187.904V88.2446C187.904 82.4299 183.162 77.6994 177.333 77.6994H56.6771C50.8481 77.6994 46.106 82.4299 46.106 88.2446V92.5394H46.1061Z" fill="#252525"/>
<path d="M167.932 89.0019C165.787 89.0019 164.042 87.261 164.042 85.1211C164.042 82.9794 165.787 81.2368 167.932 81.2368C170.079 81.2368 171.825 82.9794 171.825 85.1211C171.825 87.261 170.079 89.0019 167.932 89.0019ZM167.932 81.8718C166.138 81.8718 164.678 83.3296 164.678 85.1211C164.678 86.9108 166.138 88.3668 167.932 88.3668C169.728 88.3668 171.189 86.9108 171.189 85.1211C171.189 83.3296 169.728 81.8718 167.932 81.8718ZM157.616 89.0019C155.471 89.0019 153.726 87.261 153.726 85.1211C153.726 82.9794 155.471 81.2368 157.616 81.2368C159.763 81.2368 161.509 82.9794 161.509 85.1211C161.509 87.261 159.763 89.0019 157.616 89.0019ZM157.616 81.8718C155.822 81.8718 154.362 83.3296 154.362 85.1211C154.362 86.9108 155.822 88.3668 157.616 88.3668C159.412 88.3668 160.873 86.9108 160.873 85.1211C160.873 83.3296 159.412 81.8718 157.616 81.8718ZM147.3 89.0019C145.155 89.0019 143.41 87.261 143.41 85.1211C143.41 82.9794 145.155 81.2368 147.3 81.2368C149.447 81.2368 151.193 82.9794 151.193 85.1211C151.193 87.261 149.447 89.0019 147.3 89.0019ZM147.3 81.8718C145.506 81.8718 144.046 83.3296 144.046 85.1211C144.046 86.9108 145.506 88.3668 147.3 88.3668C149.096 88.3668 150.557 86.9108 150.557 85.1211C150.557 83.3296 149.096 81.8718 147.3 81.8718Z" fill="#252525"/>
<rect x="61.8988" y="100.297" width="32.7644" height="32.6818" rx="16.3409" fill="#F9D95A" stroke="#252525"/>
<mask id="mask0_1_2058" style="mask-type:alpha" maskUnits="userSpaceOnUse" x="61" y="99" width="35" height="34">
<rect x="61.3989" y="99.8821" width="33.7644" height="33.0874" rx="16.5437" fill="#D9D9D9"/>
</mask>
<g mask="url(#mask0_1_2058)">
<rect x="65.7719" y="121.576" width="25.0184" height="26.5398" rx="12.5092" fill="#6666FF" stroke="#252525"/>
<path d="M84.9312 114.389C84.9312 118.133 81.8883 121.17 78.1321 121.17C74.376 121.17 71.3331 118.133 71.3331 114.389C71.3331 110.645 74.376 107.608 78.1321 107.608C81.8883 107.608 84.9312 110.645 84.9312 114.389Z" fill="#EDA5A5" stroke="#252525"/>
<path d="M83.596 114.15C83.9659 112.982 83.5899 111.65 82.7789 110.73C81.968 109.81 80.7734 109.279 79.5561 109.118C78.3388 108.956 77.0968 109.139 75.9148 109.472C74.6847 109.818 73.3941 110.328 72.1708 109.959C70.9805 109.599 70.1631 108.453 69.8499 107.253C69.5367 106.052 69.6415 104.787 69.7485 103.551C70.7124 104.216 71.9141 104.205 73.0679 104.001C74.2218 103.797 75.3114 103.336 76.4303 102.989C77.5493 102.641 78.7475 102.407 79.8893 102.669C81.0313 102.932 82.0977 103.797 82.2866 104.951C83.013 104.176 84.2752 104.049 85.2489 104.476C86.2226 104.903 86.9202 105.828 87.2393 106.84C87.5584 107.852 87.5333 108.944 87.3571 109.991C86.9582 112.36 86.5391 113.765 84.8085 115.435" fill="#252525"/>
<path d="M71.4434 113.892C70.1119 111.882 69.736 109.846 69.9171 107.443C72.3155 106.951 74.4316 109.6 74.4316 109.6C72.6914 110.918 71.8686 112.417 72.1077 114.126C72.1077 114.126 71.5987 113.596 71.4434 113.892Z" fill="#252525"/>
</g>
<rect x="61.8988" y="138.932" width="32.7644" height="32.6818" rx="16.3409" fill="#2B8941" stroke="#252525"/>
<mask id="mask1_1_2058" style="mask-type:alpha" maskUnits="userSpaceOnUse" x="61" y="138" width="35" height="34">
<rect x="61.3989" y="138.517" width="33.7644" height="33.0874" rx="16.5437" fill="#D9D9D9"/>
</mask>
<g mask="url(#mask1_1_2058)">
<rect x="65.7721" y="160.211" width="25.0184" height="26.5398" rx="12.5092" fill="#EF603F" stroke="#252525"/>
<path d="M84.9312 153.024C84.9312 156.768 81.8883 159.805 78.1321 159.805C74.376 159.805 71.3331 156.768 71.3331 153.024C71.3331 149.28 74.376 146.243 78.1321 146.243C81.8883 146.243 84.9312 149.28 84.9312 153.024Z" fill="#EDA5A5" stroke="#252525"/>
</g>
<path d="M83.1983 152.997C83.5682 151.829 83.1922 150.497 82.3812 149.577C81.5703 148.657 80.3757 148.127 79.1584 147.965C77.9411 147.803 76.6991 147.987 75.5171 148.319C74.287 148.665 72.9964 149.175 71.7731 148.806C70.5828 148.446 69.7654 147.301 69.4522 146.1C69.139 144.899 69.2438 143.634 69.3508 142.398C70.3147 143.063 71.5164 143.052 72.6702 142.848C73.8241 142.644 74.9137 142.183 76.0326 141.836C77.1516 141.489 78.3498 141.254 79.4916 141.517C80.6335 141.779 81.7 142.644 81.8889 143.798C82.6153 143.023 83.8775 142.896 84.8512 143.323C85.8249 143.75 86.5225 144.675 86.8416 145.687C87.1607 146.699 87.1356 147.792 86.9594 148.838C86.5605 151.207 86.1414 152.612 84.4108 154.282" fill="#252525"/>
<path d="M71.0457 152.739C69.7142 150.73 69.3383 148.693 69.5194 146.29C71.9178 145.798 74.0339 148.447 74.0339 148.447C72.2937 149.765 71.4709 151.264 71.71 152.973C71.71 152.973 71.201 152.443 71.0457 152.739Z" fill="#252525"/>
<rect x="100.629" y="100.297" width="32.7644" height="32.6818" rx="16.3409" fill="#95BBE8" stroke="#252525"/>
<mask id="mask2_1_2058" style="mask-type:alpha" maskUnits="userSpaceOnUse" x="100" y="99" width="34" height="34">
<rect x="100.129" y="99.7971" width="33.7644" height="33.0874" rx="16.5437" fill="#D9D9D9"/>
</mask>
<g mask="url(#mask2_1_2058)">
<rect x="104.502" y="121.491" width="25.0184" height="26.5398" rx="12.5092" fill="#E53C6D" stroke="#252525"/>
<path d="M123.661 114.304C123.661 118.048 120.618 121.085 116.862 121.085C113.106 121.085 110.063 118.048 110.063 114.304C110.063 110.56 113.106 107.523 116.862 107.523C120.618 107.523 123.661 110.56 123.661 114.304Z" fill="#EDA5A5" stroke="#252525"/>
</g>
<path d="M122.028 114.065C122.398 112.897 122.022 111.565 121.211 110.645C120.4 109.725 119.205 109.195 117.988 109.033C116.77 108.871 115.528 109.054 114.346 109.387C113.116 109.733 111.826 110.243 110.602 109.874C109.412 109.514 108.595 108.368 108.282 107.168C107.968 105.967 108.073 104.702 108.18 103.466C109.144 104.131 110.346 104.12 111.5 103.916C112.653 103.712 113.743 103.251 114.862 102.904C115.981 102.557 117.179 102.322 118.321 102.584C119.463 102.847 120.529 103.712 120.718 104.866C121.445 104.091 122.707 103.964 123.681 104.391C124.654 104.818 125.352 105.743 125.671 106.755C125.99 107.767 125.965 108.86 125.789 109.906C125.39 112.275 124.971 113.68 123.24 115.35" fill="#252525"/>
<path d="M109.875 113.807C108.544 111.797 108.168 109.76 108.349 107.358C110.747 106.865 112.863 109.514 112.863 109.514C111.123 110.832 110.3 112.332 110.539 114.041C110.539 114.041 110.03 113.511 109.875 113.807Z" fill="#252525"/>
<rect x="100.629" y="138.932" width="32.7644" height="32.6818" rx="16.3409" fill="#6666FF" stroke="#252525"/>
<mask id="mask3_1_2058" style="mask-type:alpha" maskUnits="userSpaceOnUse" x="100" y="138" width="34" height="34">
<rect x="100.129" y="138.517" width="33.7644" height="33.0874" rx="16.5437" fill="#D9D9D9"/>
</mask>
<g mask="url(#mask3_1_2058)">
<rect x="104.502" y="160.211" width="25.0184" height="26.5398" rx="12.5092" fill="#95BBE8" stroke="#252525"/>
<path d="M123.661 153.024C123.661 156.768 120.618 159.805 116.862 159.805C113.106 159.805 110.063 156.768 110.063 153.024C110.063 149.28 113.106 146.243 116.862 146.243C120.618 146.243 123.661 149.28 123.661 153.024Z" fill="#EDA5A5" stroke="#252525"/>
</g>
<path d="M121.928 152.997C122.298 151.829 121.922 150.497 121.111 149.577C120.3 148.657 119.105 148.127 117.888 147.965C116.671 147.803 115.429 147.987 114.247 148.319C113.017 148.665 111.726 149.175 110.503 148.806C109.313 148.446 108.495 147.301 108.182 146.1C107.869 144.899 107.974 143.634 108.081 142.398C109.044 143.063 110.246 143.052 111.4 142.848C112.554 142.644 113.643 142.183 114.762 141.836C115.881 141.489 117.079 141.254 118.221 141.517C119.363 141.779 120.43 142.644 120.619 143.798C121.345 143.023 122.607 142.896 123.581 143.323C124.555 143.75 125.252 144.675 125.571 145.687C125.89 146.699 125.865 147.792 125.689 148.838C125.29 151.207 124.871 152.612 123.141 154.282" fill="#252525"/>
<path d="M109.775 152.739C108.444 150.73 108.068 148.693 108.249 146.29C110.648 145.798 112.764 148.447 112.764 148.447C111.023 149.765 110.201 151.264 110.44 152.973C110.44 152.973 109.931 152.443 109.775 152.739Z" fill="#252525"/>
<rect x="139.358" y="100.297" width="32.7644" height="32.6818" rx="16.3409" fill="#EF603F" stroke="#252525"/>
<mask id="mask4_1_2058" style="mask-type:alpha" maskUnits="userSpaceOnUse" x="138" y="99" width="35" height="34">
<rect x="138.858" y="99.8821" width="33.7644" height="33.0874" rx="16.5437" fill="#D9D9D9"/>
</mask>
<g mask="url(#mask4_1_2058)">
<rect x="143.231" y="121.576" width="25.0184" height="26.5398" rx="12.5092" fill="#F9D95A" stroke="#252525"/>
<path d="M162.391 114.389C162.391 118.133 159.348 121.17 155.592 121.17C151.835 121.17 148.793 118.133 148.793 114.389C148.793 110.645 151.835 107.608 155.592 107.608C159.348 107.608 162.391 110.645 162.391 114.389Z" fill="#EDA5A5" stroke="#252525"/>
</g>
<path d="M160.757 114.065C161.127 112.897 160.751 111.565 159.94 110.645C159.129 109.725 157.935 109.195 156.717 109.033C155.5 108.871 154.258 109.054 153.076 109.387C151.846 109.733 150.555 110.243 149.332 109.874C148.142 109.514 147.324 108.368 147.011 107.168C146.698 105.967 146.803 104.702 146.91 103.466C147.874 104.131 149.075 104.12 150.229 103.916C151.383 103.712 152.473 103.251 153.592 102.904C154.711 102.557 155.909 102.322 157.051 102.584C158.193 102.847 159.259 103.712 159.448 104.866C160.174 104.091 161.437 103.964 162.41 104.391C163.384 104.818 164.082 105.743 164.401 106.755C164.72 107.767 164.695 108.86 164.518 109.906C164.12 112.275 163.7 113.68 161.97 115.35" fill="#252525"/>
<path d="M148.605 113.807C147.273 111.797 146.897 109.76 147.078 107.358C149.477 106.865 151.593 109.514 151.593 109.514C149.853 110.832 149.03 112.332 149.269 114.041C149.269 114.041 148.76 113.511 148.605 113.807Z" fill="#252525"/>
<rect x="139.358" y="138.932" width="32.7644" height="32.6818" rx="16.3409" fill="#F4B1E6" stroke="#252525"/>
<mask id="mask5_1_2058" style="mask-type:alpha" maskUnits="userSpaceOnUse" x="138" y="138" width="35" height="34">
<rect x="138.858" y="138.517" width="33.7644" height="33.0874" rx="16.5437" fill="#D9D9D9"/>
</mask>
<g mask="url(#mask5_1_2058)">
<rect x="143.231" y="160.211" width="25.0184" height="26.5398" rx="12.5092" fill="#2B8941" stroke="#252525"/>
<path d="M162.391 153.024C162.391 156.768 159.348 159.805 155.592 159.805C151.835 159.805 148.793 156.768 148.793 153.024C148.793 149.28 151.835 146.243 155.592 146.243C159.348 146.243 162.391 149.28 162.391 153.024Z" fill="#EDA5A5" stroke="#252525"/>
</g>
<path d="M160.658 152.997C161.028 151.829 160.652 150.497 159.841 149.577C159.03 148.657 157.835 148.127 156.618 147.965C155.401 147.803 154.159 147.987 152.977 148.319C151.746 148.665 150.456 149.175 149.233 148.806C148.042 148.446 147.225 147.301 146.912 146.1C146.598 144.899 146.703 143.634 146.81 142.398C147.774 143.063 148.976 143.052 150.13 142.848C151.284 142.644 152.373 142.183 153.492 141.836C154.611 141.489 155.809 141.254 156.951 141.517C158.093 141.779 159.16 142.644 159.348 143.798C160.075 143.023 161.337 142.896 162.311 143.323C163.284 143.75 163.982 144.675 164.301 145.687C164.62 146.699 164.595 147.792 164.419 148.838C164.02 151.207 163.601 152.612 161.87 154.282" fill="#252525"/>
<path d="M148.505 152.739C147.174 150.73 146.798 148.693 146.979 146.29C149.377 145.798 151.493 148.447 151.493 148.447C149.753 149.765 148.93 151.264 149.169 152.973C149.169 152.973 148.66 152.443 148.505 152.739Z" fill="#252525"/>
<path d="M30.4061 49.1126C30.3357 49.1126 30.2658 49.0892 30.2087 49.0442L22.1432 42.6777C22.0444 42.5996 22.0011 42.4708 22.0326 42.3491C22.0641 42.2275 22.1646 42.1358 22.2889 42.1153L58.5304 36.1592C58.6875 36.1336 58.8418 36.2286 58.8874 36.3823C58.933 36.5358 58.8569 36.6992 58.71 36.7634L30.5341 49.0859C30.4929 49.1037 30.4494 49.1126 30.4061 49.1126ZM23.1026 42.6252L30.4535 48.4275L56.1334 37.1966L23.1026 42.6252Z" fill="#252525"/>
<path d="M46.7138 61.9815C46.6429 61.9815 46.5731 61.9577 46.5164 61.9131L36.252 53.814C36.1753 53.7535 36.1308 53.6609 36.1311 53.5633C36.1315 53.4657 36.1771 53.3737 36.2546 53.3139L58.3877 36.2211C58.5041 36.1318 58.6666 36.1331 58.7816 36.2245C58.8962 36.3163 58.9331 36.4746 58.8705 36.6073L47.0018 61.7989C46.9606 61.8868 46.8812 61.9509 46.7867 61.973C46.7625 61.9788 46.738 61.9815 46.7138 61.9815ZM36.9658 53.5676L46.5965 61.1666L57.7322 37.5304L36.9658 53.5676Z" fill="#252525"/>
<path d="M30.131 61.1475C30.0933 61.1475 30.0552 61.1409 30.0185 61.127C29.8937 61.0799 29.8115 60.9602 29.8127 60.8273L29.9173 48.8713C29.9184 48.7462 29.993 48.6333 30.1078 48.5831L58.4533 36.1804C58.6013 36.1164 58.7727 36.1712 58.855 36.3093C58.937 36.4469 58.9032 36.6243 58.776 36.7225L36.666 53.7945L30.3716 61.0379C30.3098 61.1089 30.2216 61.1475 30.131 61.1475ZM30.5521 49.0822L30.4567 59.9704L36.2055 53.3549C36.2194 53.339 36.2347 53.3245 36.2513 53.3117L56.3449 37.7966L30.5521 49.0822Z" fill="#252525"/>
<rect width="134.682" height="78" transform="matrix(1 0 0 -1 50.1943 175.5)" fill="#F2F7FD" fill-opacity="0.8"/>
<path d="M225.149 163.423V170.661C225.149 173.483 222.851 175.775 220.022 175.775H159.209C156.38 175.775 154.083 173.483 154.083 170.661V163.423C154.083 160.601 156.38 158.309 159.209 158.309H220.022C222.851 158.309 225.149 160.601 225.149 163.423Z" fill="#F9D95A"/>
<path d="M220.022 176.093H159.209C156.207 176.093 153.765 173.656 153.765 170.661V163.422C153.765 160.427 156.207 157.991 159.209 157.991H220.022C223.024 157.991 225.467 160.427 225.467 163.422V170.661C225.467 173.656 223.024 176.093 220.022 176.093ZM159.209 158.626C156.558 158.626 154.401 160.778 154.401 163.422V170.661C154.401 173.306 156.558 175.458 159.209 175.458H220.022C222.673 175.458 224.83 173.306 224.83 170.661V163.422C224.83 160.778 222.673 158.626 220.022 158.626H159.209Z" fill="#252525"/>
<path d="M167.308 164.394C165.661 164.394 164.515 165.536 164.515 167.125C164.515 168.714 165.661 169.849 167.308 169.849C168.956 169.849 170.102 168.714 170.102 167.125C170.102 165.536 168.956 164.394 167.308 164.394ZM167.308 168.925C166.288 168.925 165.567 168.182 165.567 167.125C165.567 166.069 166.288 165.317 167.308 165.317C168.328 165.317 169.05 166.069 169.05 167.125C169.05 168.182 168.328 168.925 167.308 168.925Z" fill="#0A0A0A"/>
<path d="M171.858 169.293C172.234 169.802 172.713 169.841 172.949 169.841C173.451 169.841 173.843 169.646 174.102 169.403C174.298 169.215 174.635 168.8 174.635 168.033C174.635 167.36 174.377 166.937 174.125 166.687C173.741 166.303 173.262 166.233 172.964 166.233C172.336 166.233 172.007 166.569 171.858 166.781V166.342H170.901V171.524H171.858V169.293ZM172.705 167.078C172.933 167.078 173.184 167.164 173.357 167.321C173.545 167.501 173.647 167.783 173.647 168.033C173.647 168.284 173.553 168.565 173.349 168.753C173.223 168.871 173.019 168.996 172.705 168.996C172.407 168.996 172.203 168.879 172.078 168.769C171.889 168.605 171.764 168.346 171.764 168.033C171.764 167.72 171.874 167.485 172.085 167.305C172.258 167.149 172.454 167.078 172.705 167.078Z" fill="#0A0A0A"/>
<path d="M177.831 168.644C177.675 168.918 177.4 169.09 177.039 169.09C176.67 169.09 176.458 168.91 176.356 168.769C176.246 168.62 176.192 168.401 176.192 168.198H178.734V168.119C178.734 167.751 178.687 167.219 178.326 166.789C178.09 166.507 177.69 166.233 177 166.233C176.592 166.233 176.121 166.319 175.721 166.71C175.478 166.953 175.203 167.368 175.203 168.041C175.203 168.573 175.36 169.012 175.736 169.364C176.074 169.685 176.49 169.841 177.039 169.841C178.224 169.841 178.608 169.035 178.71 168.785L177.831 168.644ZM176.223 167.587C176.301 167.133 176.67 166.906 177.023 166.906C177.376 166.906 177.753 167.125 177.831 167.587H176.223Z" fill="#0A0A0A"/>
<path d="M179.475 169.732H180.432V168.002C180.432 167.806 180.44 167.564 180.581 167.344C180.723 167.133 180.919 167.047 181.17 167.047C181.264 167.047 181.468 167.063 181.617 167.219C181.79 167.399 181.797 167.697 181.797 167.884V169.732H182.755V167.603C182.755 167.274 182.723 166.937 182.488 166.648C182.221 166.319 181.782 166.233 181.484 166.233C180.934 166.233 180.613 166.53 180.432 166.781V166.342H179.475V169.732Z" fill="#0A0A0A"/>
<path d="M185.639 164.511V169.732H186.659V167.798H187.318C187.922 167.798 188.354 167.626 188.644 167.337C189.044 166.937 189.076 166.374 189.076 166.17C189.076 165.795 188.966 165.286 188.542 164.91C188.158 164.574 187.75 164.511 187.161 164.511H185.639ZM186.659 165.388H187.012C187.255 165.388 187.522 165.403 187.734 165.552C187.883 165.662 188.024 165.857 188.024 166.147C188.024 166.374 187.93 166.609 187.742 166.757C187.522 166.922 187.271 166.922 187.075 166.922H186.659V165.388Z" fill="#0A0A0A"/>
<path d="M189.689 164.026V169.732H190.646V164.026H189.689Z" fill="#0A0A0A"/>
<path d="M191.559 166.342V168.417C191.559 168.722 191.598 169.129 191.975 169.458C192.288 169.732 192.791 169.841 193.207 169.841C193.622 169.841 194.125 169.732 194.438 169.458C194.815 169.129 194.854 168.722 194.854 168.417V166.342H193.897V168.26C193.897 168.44 193.881 168.683 193.693 168.855C193.575 168.957 193.387 169.027 193.207 169.027C193.026 169.027 192.838 168.957 192.72 168.855C192.532 168.683 192.516 168.44 192.516 168.26V166.342H191.559Z" fill="#0A0A0A"/>
<path d="M198.088 166.593C197.656 166.264 197.256 166.233 197.005 166.233C196.731 166.233 196.385 166.264 196.119 166.476C195.922 166.64 195.765 166.914 195.765 167.243C195.765 167.517 195.867 167.728 196.024 167.892C196.228 168.104 196.511 168.213 196.754 168.299L196.974 168.378C197.099 168.425 197.272 168.511 197.272 168.722C197.272 168.957 197.068 169.09 196.801 169.09C196.519 169.09 196.236 168.918 196.048 168.698L195.546 169.278C195.758 169.505 196.158 169.841 196.864 169.841C197.28 169.841 197.609 169.732 197.884 169.481C198.159 169.231 198.261 168.925 198.261 168.62C198.261 168.401 198.19 168.198 198.088 168.057C197.892 167.791 197.492 167.657 197.225 167.571L196.997 167.501C196.731 167.415 196.691 167.282 196.691 167.196C196.691 167.031 196.833 166.922 197.06 166.922C197.162 166.922 197.39 166.937 197.617 167.149L198.088 166.593Z" fill="#0A0A0A"/>
<path d="M200.91 164.511V169.732H201.93V167.798H202.589C203.194 167.798 203.625 167.626 203.916 167.337C204.316 166.937 204.347 166.374 204.347 166.17C204.347 165.795 204.237 165.286 203.814 164.91C203.429 164.574 203.021 164.511 202.433 164.511H200.91ZM201.93 165.388H202.283C202.527 165.388 202.793 165.403 203.005 165.552C203.154 165.662 203.296 165.857 203.296 166.147C203.296 166.374 203.201 166.609 203.013 166.757C202.793 166.922 202.542 166.922 202.346 166.922H201.93V165.388Z" fill="#0A0A0A"/>
<path d="M204.961 164.026V169.732H205.918V164.026H204.961Z" fill="#0A0A0A"/>
<path d="M209.435 166.781C209.113 166.28 208.603 166.233 208.345 166.233C207.34 166.233 206.658 167.031 206.658 168.033C206.658 169.027 207.348 169.841 208.392 169.841C208.635 169.841 209.09 169.786 209.435 169.293V169.732H210.392V166.342H209.435V166.781ZM208.588 167.078C209.137 167.078 209.529 167.493 209.529 168.033C209.529 168.573 209.137 168.996 208.588 168.996C208.039 168.996 207.646 168.573 207.646 168.033C207.646 167.493 208.039 167.078 208.588 167.078Z" fill="#0A0A0A"/>
<path d="M211.305 169.732H212.262V168.002C212.262 167.806 212.27 167.564 212.411 167.344C212.553 167.133 212.749 167.047 213 167.047C213.094 167.047 213.298 167.063 213.447 167.219C213.62 167.399 213.628 167.697 213.628 167.884V169.732H214.585V167.603C214.585 167.274 214.553 166.937 214.318 166.648C214.051 166.319 213.612 166.233 213.314 166.233C212.765 166.233 212.443 166.53 212.262 166.781V166.342H211.305V169.732Z" fill="#0A0A0A"/>
<g clip-path="url(#clip0_1_2058)">
<path d="M119.927 59.8763L117.473 64.8889L105.907 72.3202C105.902 72.3202 105.902 72.325 105.902 72.325L95.4055 79.0734L83.6013 86.6564V86.6612L83.259 86.8793L55.125 82.4831C55.8191 80.8754 56.5654 79.3626 57.3641 77.9399C59.1992 74.6725 61.2909 71.884 63.5395 69.5033C67.0528 65.7664 70.9367 63.0395 74.7684 61.062C79.2182 58.7524 83.6014 57.4483 87.2619 56.7084C92.7765 55.5941 96.6558 55.7742 96.6558 55.7742L115.087 59.0227L119.927 59.8763Z" fill="#95BBE8"/>
<path d="M146.197 140.605H74.5686C74.4498 126.388 75.8141 114.911 77.6777 105.934C78.7188 100.912 79.9168 96.6721 81.0958 93.1771C81.961 90.6066 82.8215 88.4395 83.6012 86.6611V86.6563C85.5028 82.3313 86.9433 80.2825 86.9433 80.2825L115.087 59.0226L117.198 57.4292C117.198 57.4292 118.244 57.4909 119.907 57.6996H119.912C122.693 58.0505 127.214 58.8188 131.493 60.4217C134.811 61.6642 137.992 63.4094 140.098 65.8516C146.544 73.3254 146.197 140.605 146.197 140.605Z" fill="#95BBE8"/>
<path opacity="0.5" d="M109.917 108.21C99.8606 108.21 91.7058 100.075 91.7058 90.0433C91.7058 80.0112 99.8606 71.8807 109.917 71.8807C119.974 71.8807 128.129 80.0112 128.129 90.0433C128.129 100.075 119.974 108.21 109.917 108.21ZM130.42 73.1052C128.528 73.1052 126.994 71.5748 126.994 69.6874C126.994 67.8 128.528 66.2704 130.42 66.2704C132.312 66.2704 133.846 67.8 133.846 69.6874C133.846 71.5747 132.312 73.1052 130.42 73.1052ZM115.052 124.212C113.16 124.212 111.626 122.681 111.626 120.794C111.626 118.906 113.16 117.377 115.052 117.377C116.944 117.377 118.478 118.906 118.478 120.794C118.479 122.681 116.944 124.212 115.052 124.212ZM96.4708 71.3319C94.5788 71.3319 93.0447 69.8014 93.0447 67.9141C93.0447 66.0267 94.5788 64.4971 96.4708 64.4971C98.3628 64.4971 99.897 66.0267 99.897 67.9141C99.897 69.8014 98.3628 71.3319 96.4708 71.3319ZM80.2846 81.8954C78.3926 81.8954 76.8584 80.3649 76.8584 78.4776C76.8584 76.5903 78.3926 75.0606 80.2846 75.0606C82.1766 75.0606 83.7107 76.5903 83.7107 78.4776C83.7108 80.365 82.1766 81.8954 80.2846 81.8954ZM65.5979 73.6527C65.5979 76.5361 63.2542 78.8788 60.3589 78.8788C59.2465 78.8788 58.2149 78.5326 57.3639 77.9399C59.1989 74.6724 61.2907 71.8839 63.5393 69.5032C64.7945 70.4564 65.5979 71.9645 65.5979 73.6527ZM131.493 60.4216C130.342 62.0957 128.412 63.1911 126.23 63.1911C123.002 63.1911 120.335 60.801 119.912 57.6995C122.693 58.0504 127.214 58.8187 131.493 60.4216ZM134.037 114.82C130.378 114.82 127.41 111.86 127.41 108.209C127.41 104.559 130.378 101.6 134.037 101.6C137.697 101.6 140.664 104.559 140.664 108.209C140.664 111.86 137.697 114.82 134.037 114.82ZM140.987 138.993C140.987 139.538 140.944 140.079 140.863 140.605H119.974C119.893 140.079 119.85 139.538 119.85 138.993C119.85 133.174 124.585 128.455 130.419 128.455C136.256 128.455 140.987 133.174 140.987 138.993ZM87.7562 59.2075C87.7562 62.8593 84.7897 65.8183 81.1291 65.8183C78.115 65.8183 75.5717 63.8123 74.7683 61.0618C79.2181 58.7523 83.6012 57.4481 87.2618 56.7083C87.5803 57.4814 87.7562 58.3255 87.7562 59.2075ZM91.7058 129.203C88.0389 129.203 85.0655 126.237 85.0655 122.579C85.0655 118.921 88.039 115.957 91.7058 115.957C95.3727 115.957 98.3461 118.921 98.3461 122.579C98.3461 126.237 95.3727 129.203 91.7058 129.203ZM100.763 140.605H88.3076C89.249 138.087 91.683 136.29 94.5353 136.29C97.3925 136.29 99.8265 138.087 100.763 140.605ZM78.891 106.045C75.2241 106.045 72.2507 103.079 72.2507 99.4213C72.2507 95.7633 75.2241 92.7987 78.891 92.7987C82.5579 92.7987 85.5313 95.7633 85.5313 99.4213C85.5313 103.079 82.5579 106.045 78.891 106.045Z" fill="white"/>
<path d="M83.2605 87.1687C83.2455 87.1687 83.2303 87.1676 83.2149 87.1653L55.0782 82.7692C54.9894 82.7552 54.9119 82.7011 54.8685 82.6224C54.8249 82.5441 54.8201 82.4499 54.8558 82.3675C61.143 67.7724 72.1768 61.2401 80.3259 58.3301C89.1497 55.1792 96.5957 55.4808 96.6702 55.486C96.8308 55.4932 96.9551 55.6294 96.9476 55.7895C96.9402 55.9499 96.8018 56.0813 96.6432 56.0665C96.5701 56.0646 89.2204 55.7668 80.5011 58.8848C72.5325 61.7346 61.765 68.1005 55.5404 82.2532L83.3051 86.591C83.464 86.616 83.5726 86.7647 83.5478 86.9233C83.5254 87.0666 83.4014 87.1687 83.2605 87.1687Z" fill="#252525"/>
<path d="M143.386 77.3056C143.269 77.3056 143.149 77.1544 143.104 77.0387C142.976 74.6139 140.673 66.7867 139.876 66.041C133.579 58.7452 117.344 57.7289 117.181 57.7195C117.02 57.71 116.897 57.5727 116.907 57.4126C116.916 57.2526 117.046 57.1341 117.214 57.1391C117.891 57.178 133.861 58.1807 140.318 65.6622C141.356 66.864 143.491 74.699 143.658 76.911C143.716 77.0609 143.641 77.2289 143.491 77.2863C143.457 77.2996 143.421 77.3056 143.386 77.3056Z" fill="#252525"/>
<path d="M130.205 14.9437C129.048 17.4775 126.418 19.1629 123.805 20.1353H123.801C119.583 18.6747 114.778 18.574 110.747 20.4956C106.716 22.4173 103.197 26.5862 103.131 31.0416C102.999 30.1002 102.855 29.1355 102.428 28.2831C102.004 27.4307 101.235 26.6907 100.288 26.5513C99.3557 26.4196 98.4196 26.8922 97.7633 27.5663C96.536 28.8139 96.1321 30.8015 96.769 32.4287C97.4021 34.0598 99.142 35.0942 100.89 35.1872C101.022 37.4382 100.963 39.7008 100.719 41.9402C96.466 40.2587 92.0656 35.5049 90.1936 31.1423C88.3216 26.7797 87.972 21.7896 89.2148 17.2101C90.1625 13.7076 92.1588 10.3253 95.3241 8.54704C98.4895 6.76481 102.925 7.0089 105.341 9.71704C106.145 6.18364 109.663 3.63435 113.295 3.84739C115.361 3.97143 117.287 4.90508 119.109 5.88918C120.934 6.86937 122.764 7.93099 124.795 8.33775C126.826 8.74459 129.149 8.36872 130.547 6.84224C131.522 9.44981 131.362 12.4137 130.205 14.9437Z" fill="#0A0A0A"/>
<path d="M124.577 38.7866C124.344 41.9249 122.872 45.1987 120.044 46.5934C118.751 47.2288 117.291 47.4031 115.858 47.2327L115.861 47.2366C115.858 47.2792 115.846 47.3218 115.842 47.3645C115.399 50.2857 115.687 53.1527 116.619 55.9113C116.623 55.9228 116.623 55.9268 116.627 55.9345C116.794 56.4382 116.984 56.9341 117.197 57.43C113.741 64.7835 102.804 62.3504 96.6557 55.7757C99.8366 49.4371 101.309 42.2619 100.889 35.1873C99.1414 35.0943 97.4013 34.0599 96.7683 32.4288C96.1314 30.8016 96.5353 28.814 97.7626 27.5665C98.419 26.8923 99.355 26.4197 100.287 26.5514C101.235 26.6909 102.004 27.4309 102.427 28.2833C102.854 29.1356 102.998 30.1003 103.13 31.0418C103.196 26.5863 106.715 22.4175 110.746 20.4958C114.778 18.5741 119.582 18.6749 123.8 20.1355C122.522 23.0141 123.05 26.3151 123.544 29.4262C124.045 32.5334 124.81 35.6484 124.577 38.7866Z" fill="#EDA5A5"/>
<path d="M116.618 55.9116C115.087 51.9139 109.192 43.9324 108.645 43.1926C110.932 46.0808 113.67 47.0861 115.843 47.3659C115.401 50.2872 115.686 53.1515 116.618 55.9116Z" fill="#CB8383"/>
<path d="M100.723 42.2294C100.688 42.2294 100.651 42.2229 100.616 42.209C96.5038 40.5877 91.9077 35.8791 89.9254 31.2564C88.0201 26.8138 87.6673 21.7983 88.9319 17.1335C90.0305 13.0818 92.2499 9.94211 95.1813 8.29286C98.4748 6.44045 102.755 6.83691 105.191 9.14756C106.226 5.76697 109.69 3.34665 113.311 3.55773C115.469 3.68526 117.427 4.65269 119.248 5.63263L119.741 5.89901C121.365 6.77948 123.045 7.68974 124.851 8.0515C126.567 8.39538 128.907 8.20549 130.331 6.64778C130.4 6.57249 130.501 6.53956 130.602 6.55811C130.701 6.57742 130.784 6.64702 130.819 6.74163C131.809 9.38408 131.681 12.4177 130.47 15.0647C129.077 18.1082 125.759 19.7196 123.905 20.4093C123.753 20.4653 123.586 20.3885 123.53 20.2383C123.474 20.0881 123.55 19.9209 123.701 19.8645C125.471 19.2065 128.635 17.6761 129.94 14.8232C131.022 12.4581 131.192 9.76914 130.423 7.37452C128.826 8.80359 126.48 8.96932 124.737 8.62118C122.844 8.24241 121.125 7.31055 119.462 6.40974L118.971 6.14412C117.208 5.19524 115.315 4.25844 113.276 4.13805C109.754 3.92578 106.391 6.41007 105.624 9.7831C105.6 9.88944 105.518 9.973 105.413 10.0003C105.306 10.0272 105.195 9.99307 105.122 9.91174C102.945 7.4676 98.7037 6.97831 95.4672 8.79899C92.6728 10.3711 90.5515 13.3846 89.4943 17.2852C88.2636 21.8243 88.6069 26.7047 90.4609 31.0278C92.3888 35.5234 96.8467 40.0981 100.83 41.6687C100.98 41.7277 101.053 41.8964 100.994 42.0455C100.949 42.1597 100.839 42.2294 100.723 42.2294Z" fill="#252525"/>
<path d="M109.62 62.2257C105.222 62.2257 100.031 59.8126 96.4437 55.9742C96.3606 55.8853 96.3417 55.7543 96.3961 55.6458C99.5278 49.4029 100.985 42.4283 100.616 35.4587C98.7482 35.2649 97.1127 34.1132 96.4964 32.5328C95.8245 30.8106 96.2591 28.6842 97.5534 27.3615C98.3569 26.5401 99.3941 26.1277 100.328 26.2642C101.285 26.4023 102.168 27.108 102.69 28.1519C102.848 28.4678 102.968 28.7992 103.064 29.136C103.966 25.0766 107.412 21.7619 110.622 20.2333C114.464 18.4031 119.304 18.2685 123.899 19.8625C123.976 19.889 124.038 19.9465 124.07 20.021C124.103 20.0955 124.102 20.1803 124.069 20.2548C122.823 23.0539 123.337 26.2692 123.833 29.3785C123.938 30.036 124.055 30.6936 124.172 31.3516C124.605 33.7833 125.052 36.2975 124.866 38.8075C124.652 41.6868 123.308 45.3121 120.173 46.8532C118.971 47.4441 117.56 47.6768 116.11 47.5523C115.639 50.8353 116.095 54.119 117.466 57.317C117.498 57.393 117.497 57.4796 117.462 57.5546C116.274 60.0816 114.146 61.6529 111.305 62.0986C110.761 62.1841 110.197 62.2257 109.62 62.2257ZM97.0079 55.724C100.941 59.8432 106.755 62.2222 111.215 61.5246C113.812 61.1171 115.767 59.7002 116.879 57.424C115.508 54.1697 115.055 50.8278 115.531 47.4842C114.646 47.3517 113.755 47.0881 112.894 46.6946C110.933 45.7983 109.134 44.3188 107.234 42.0386C107.131 41.9152 107.148 41.7321 107.272 41.6292C107.395 41.527 107.579 41.5432 107.682 41.667C109.525 43.8778 111.258 45.3075 113.137 46.1664C114.034 46.5766 114.966 46.8368 115.883 46.9458C115.892 46.9461 115.9 46.9473 115.909 46.9484C115.91 46.9488 115.91 46.9488 115.911 46.9488C117.344 47.1153 118.74 46.9098 119.916 46.3317C122.83 44.8992 124.084 41.4835 124.285 38.7642C124.466 36.3272 124.025 33.8494 123.599 31.4533C123.481 30.7915 123.363 30.1305 123.258 29.4699C122.765 26.3818 122.256 23.1922 123.413 20.3115C119.051 18.8733 114.496 19.0322 110.873 20.7575C107.332 22.4439 103.491 26.3825 103.422 31.0454C103.419 31.1971 103.301 31.3216 103.149 31.3311C102.994 31.347 102.863 31.2323 102.842 31.0822C102.712 30.1718 102.578 29.2308 102.169 28.4114C101.732 27.5378 101.013 26.9501 100.245 26.8393C99.4944 26.7323 98.6443 27.078 97.9703 27.767C96.8304 28.9323 96.4475 30.8051 97.0394 32.322C97.6028 33.767 99.1581 34.8025 100.909 34.8989C101.057 34.9073 101.175 35.0245 101.184 35.1721C101.604 42.2592 100.16 49.3613 97.0079 55.724Z" fill="#252525"/>
<path d="M98.2844 31.3404C98.154 31.3404 98.0352 31.2526 98.0021 31.1205C97.8317 30.4447 98.0102 29.6972 98.4675 29.1698C98.9249 28.6431 99.6404 28.3593 100.336 28.4308C100.496 28.4471 100.613 28.5898 100.596 28.7495C100.58 28.9092 100.44 29.0284 100.277 29.009C99.7655 28.9576 99.2431 29.1646 98.908 29.5505C98.5731 29.9364 98.4424 30.4839 98.5672 30.9791C98.6062 31.1346 98.5116 31.2924 98.3555 31.3318C98.3318 31.3377 98.3079 31.3404 98.2844 31.3404Z" fill="#252525"/>
<path d="M116.206 35.5405C115.908 35.5405 115.592 35.4739 115.28 35.3423C114.832 35.153 114.451 34.8651 114.083 34.5867C113.954 34.4898 113.929 34.3075 114.026 34.1796C114.124 34.052 114.306 34.0271 114.435 34.1236C114.774 34.3805 115.126 34.6461 115.508 34.8073C115.905 34.9746 116.296 35.0055 116.61 34.8936C116.94 34.7759 117.186 34.4637 117.182 34.1667C117.179 33.8932 116.998 33.6291 116.807 33.3495L116.699 33.189C116.291 32.5723 116.019 31.8508 115.912 31.1031C115.833 30.5541 115.843 30.0044 115.941 29.4694C115.97 29.3112 116.122 29.2045 116.28 29.2359C116.438 29.2647 116.543 29.416 116.514 29.5738C116.427 30.0475 116.418 30.5341 116.488 31.0206C116.583 31.6842 116.825 32.3237 117.185 32.8693L117.288 33.0218C117.509 33.3445 117.759 33.7104 117.765 34.1595C117.772 34.7104 117.378 35.237 116.807 35.4406C116.619 35.5072 116.417 35.5405 116.206 35.5405ZM119.932 29.294C119.873 29.9896 120.392 30.5992 121.09 30.6578C121.787 30.7162 122.398 30.2013 122.456 29.5058C122.515 28.8103 121.999 28.2009 121.302 28.1424C120.604 28.0839 119.99 28.5985 119.932 29.294ZM111.23 28.2731C111.172 28.9686 111.691 29.5783 112.388 29.6368C113.085 29.6953 113.696 29.1804 113.755 28.4849C113.813 27.7893 113.297 27.1799 112.6 27.1215C111.903 27.063 111.289 27.5776 111.23 28.2731ZM112.127 38.6334C112.665 39.4852 113.693 40.0007 114.699 39.9236C115.702 39.8467 116.769 39.0713 117.156 38.1371C117.05 38.1608 116.944 38.1785 116.837 38.1933C116.381 38.5447 115.832 38.7813 115.302 38.8222C114.299 38.8991 113.274 38.3833 112.733 37.5317C112.461 37.106 112.31 36.5808 112.289 36.0477C112.199 35.9028 112.115 35.7513 112.045 35.5928C111.511 36.4794 111.575 37.7617 112.127 38.6334Z" fill="#252525"/>
<path d="M112.733 37.5321C113.274 38.3827 114.3 38.8995 115.303 38.8229C115.832 38.7808 116.381 38.5434 116.836 38.1937C115.925 38.3205 114.976 38.1655 114.154 37.7598C113.388 37.3787 112.734 36.7759 112.288 36.0481C112.309 36.5795 112.462 37.1051 112.733 37.5321Z" fill="white"/>
<path d="M109.48 22.7729C109.621 22.8924 110.086 22.6397 110.748 22.5136C111.409 22.3695 112.24 22.4172 112.898 22.6709C113.555 22.9146 113.91 23.1618 114.163 23.2379C114.411 23.3241 114.556 23.2611 114.661 23.1118C114.764 22.9667 114.817 22.7594 114.631 22.436C114.446 22.1264 114.003 21.6593 113.079 21.3772C112.622 21.2403 112.088 21.1948 111.593 21.2645C111.097 21.3291 110.642 21.503 110.295 21.7147C109.588 22.1452 109.345 22.6732 109.48 22.7729ZM123.506 23.774C123.63 23.6566 123.445 23.2409 122.998 22.9121C122.56 22.5767 121.887 22.3994 121.368 22.4569C120.845 22.5107 120.591 22.7013 120.492 22.8614C120.392 23.0271 120.433 23.1781 120.502 23.3398C120.572 23.5023 120.658 23.6356 120.784 23.705C120.913 23.7737 121.07 23.7691 121.389 23.7206C121.705 23.6736 122.164 23.6424 122.585 23.7103C123.008 23.7594 123.38 23.9015 123.506 23.774ZM121.06 32.4454C120.949 32.4454 120.837 32.4405 120.723 32.431C119.659 32.3421 118.694 31.8454 118.005 31.0323C117.316 30.2196 116.986 29.1885 117.076 28.1288C117.26 25.9385 119.199 24.3085 121.393 24.4905C122.455 24.5794 123.419 25.0762 124.107 25.8893C124.795 26.7027 125.125 27.7349 125.036 28.7961C124.861 30.8715 123.111 32.4451 121.06 32.4454ZM121.055 25.0573C119.301 25.0573 117.806 26.4031 117.656 28.1772C117.58 29.0826 117.862 29.963 118.45 30.6573C119.039 31.3516 119.863 31.7758 120.772 31.8522C122.647 32.0077 124.298 30.6165 124.455 28.7477C124.532 27.8408 124.25 26.9589 123.662 26.2642C123.074 25.5699 122.251 25.1454 121.344 25.0694C121.247 25.0615 121.151 25.0573 121.055 25.0573ZM117.366 28.153H117.37H117.366Z" fill="#252525"/>
<path d="M117.366 28.4421C117.358 28.4421 117.35 28.4418 117.342 28.441C117.181 28.4278 117.062 28.287 117.076 28.1273C117.108 27.7509 116.834 27.4191 116.466 27.388C116.1 27.3559 115.773 27.6388 115.742 28.0153C115.728 28.1753 115.589 28.2979 115.427 28.2805C115.267 28.2672 115.148 28.1265 115.161 27.9668C115.22 27.271 115.829 26.7497 116.515 26.8091C117.203 26.8669 117.715 27.4802 117.657 28.1757C117.644 28.3275 117.516 28.4421 117.366 28.4421Z" fill="#252525"/>
<path d="M111.77 31.6656C111.657 31.6656 111.543 31.6611 111.429 31.6512C110.365 31.5623 109.4 31.0655 108.711 30.2528C108.022 29.4401 107.692 28.409 107.781 27.3493C107.871 26.2876 108.369 25.3243 109.184 24.6376C109.999 23.9508 111.033 23.6194 112.098 23.711C113.161 23.7999 114.125 24.2967 114.813 25.1098C115.501 25.9229 115.831 26.9554 115.742 28.0167C115.652 29.0764 115.154 30.0382 114.34 30.725C113.612 31.3375 112.711 31.6656 111.77 31.6656ZM108.362 27.3977C108.286 28.3028 108.567 29.1835 109.156 29.8774C109.744 30.5716 110.569 30.9958 111.478 31.0722C112.385 31.1457 113.268 30.8672 113.964 30.2808C114.659 29.6943 115.085 28.8729 115.161 27.9682C115.237 27.0613 114.956 26.1794 114.368 25.4847C113.78 24.7905 112.957 24.3659 112.049 24.2899C111.141 24.2172 110.256 24.4946 109.56 25.0814C108.864 25.6682 108.438 26.4908 108.362 27.3977Z" fill="#252525"/>
<path d="M99.9788 26.8206C99.8243 26.8206 99.6955 26.6995 99.6881 26.544C99.6803 26.3836 99.8043 26.2474 99.9652 26.2398L108.392 25.8376C108.558 25.8225 108.689 25.9537 108.696 26.1138C108.704 26.2742 108.58 26.4105 108.419 26.418L99.9928 26.8202C99.9881 26.8206 99.9835 26.8206 99.9788 26.8206Z" fill="#252525"/>
</g>
<path d="M204.374 97.534C204.374 92.7412 208.288 88.856 213.116 88.856C217.944 88.856 221.858 92.7412 221.858 97.534C221.858 102.327 217.944 106.212 213.116 106.212C208.288 106.212 204.374 102.327 204.374 97.534Z" fill="white"/>
<path fill-rule="evenodd" clip-rule="evenodd" d="M213.116 106.842C207.942 106.842 203.743 102.677 203.743 97.5342C203.743 92.3908 207.942 88.2266 213.116 88.2266C218.29 88.2266 222.489 92.3908 222.489 97.5342C222.489 102.677 218.29 106.842 213.116 106.842ZM213.116 88.8561C208.288 88.8561 204.374 92.7414 204.374 97.5342C204.374 102.327 208.288 106.212 213.116 106.212C217.944 106.212 221.858 102.327 221.858 97.5342C221.858 92.7414 217.944 88.8561 213.116 88.8561Z" fill="#252525"/>
<path d="M217.221 96.2111L214.758 93.7545C214.721 93.7177 214.674 93.6927 214.623 93.6825C214.572 93.6724 214.519 93.6776 214.471 93.6975C214.423 93.7174 214.382 93.7511 214.353 93.7944C214.324 93.8376 214.308 93.8884 214.308 93.9405V95.0912C212.539 95.2257 210.751 96.7044 210.751 98.5028V98.8538C210.751 98.9657 210.779 99.0819 210.829 99.0183L211.286 98.449C211.663 98.0365 212.135 97.7219 212.662 97.5325C213.189 97.3432 213.754 97.2847 214.308 97.3622V98.5028C214.308 98.5531 214.323 98.6023 214.35 98.6447C214.377 98.687 214.416 98.7207 214.462 98.7417C214.508 98.7627 214.558 98.7702 214.608 98.7632C214.658 98.7563 214.705 98.7352 214.744 98.7025L217.206 96.5968C217.234 96.5732 217.256 96.5441 217.272 96.5115C217.288 96.4789 217.297 96.4434 217.298 96.4072C217.299 96.371 217.293 96.3349 217.28 96.3011C217.267 96.2674 217.247 96.2368 217.221 96.2111Z" fill="#6CA8F5"/>
<path d="M215.833 101.749H210.36C209.971 101.748 209.599 101.594 209.324 101.32C209.049 101.046 208.895 100.674 208.894 100.287V94.8275C208.895 94.4399 209.049 94.0682 209.324 93.7941C209.599 93.52 209.971 93.3658 210.36 93.3652H212.705C212.783 93.3652 212.858 93.396 212.913 93.4509C212.968 93.5057 212.998 93.5801 212.998 93.6577C212.998 93.7353 212.968 93.8096 212.913 93.8645C212.858 93.9193 212.783 93.9501 212.705 93.9501H210.36C210.127 93.9505 209.903 94.043 209.738 94.2075C209.573 94.3719 209.481 94.5949 209.48 94.8275V100.287C209.481 100.519 209.573 100.742 209.738 100.907C209.903 101.071 210.127 101.164 210.36 101.164H215.833C216.066 101.164 216.289 101.071 216.454 100.907C216.619 100.742 216.712 100.519 216.712 100.287V97.9471C216.712 97.8695 216.743 97.7951 216.798 97.7403C216.853 97.6854 216.927 97.6546 217.005 97.6546C217.083 97.6546 217.158 97.6854 217.213 97.7403C217.267 97.7951 217.298 97.8695 217.298 97.9471V100.287C217.298 100.674 217.143 101.046 216.868 101.32C216.594 101.594 216.221 101.748 215.833 101.749Z" fill="#252525"/>
<path d="M210.751 99.4093C210.718 99.4093 210.685 99.4038 210.654 99.393C210.597 99.3729 210.547 99.3355 210.512 99.2861C210.477 99.2366 210.458 99.1775 210.458 99.1169V98.7269C210.459 97.7695 210.822 96.8477 211.474 96.1452C212.126 95.4426 213.019 95.0108 213.976 94.9359V93.6577C213.976 93.5999 213.993 93.5434 214.025 93.4953C214.057 93.4473 214.103 93.4098 214.157 93.3877C214.21 93.3656 214.269 93.3598 214.326 93.3711C214.383 93.3823 214.435 93.4102 214.476 93.451L217.212 96.1806C217.241 96.2091 217.263 96.2432 217.278 96.2807C217.293 96.3182 217.3 96.3584 217.298 96.3987C217.297 96.4389 217.287 96.4785 217.269 96.5148C217.252 96.551 217.227 96.5833 217.196 96.6095L214.46 98.9492C214.417 98.9856 214.365 99.0091 214.309 99.0168C214.254 99.0245 214.197 99.0162 214.146 98.9928C214.095 98.9694 214.052 98.9319 214.022 98.8848C213.992 98.8377 213.976 98.7829 213.976 98.7269V97.4596C213.497 97.463 213.025 97.5733 212.594 97.7825C212.163 97.9917 211.785 98.2944 211.487 98.6685L210.979 99.3013C210.951 99.3351 210.917 99.3624 210.877 99.3811C210.838 99.3997 210.795 99.4094 210.751 99.4093ZM214.562 94.3639V95.2175C214.562 95.295 214.531 95.3694 214.476 95.4243C214.421 95.4791 214.347 95.5099 214.269 95.5099C213.499 95.5109 212.754 95.7866 212.169 96.2871C211.585 96.7876 211.199 97.4801 211.081 98.2395C211.438 97.8114 211.885 97.4671 212.39 97.2312C212.896 96.9953 213.447 96.8736 214.005 96.8747H214.269C214.347 96.8747 214.421 96.9055 214.476 96.9604C214.531 97.0152 214.562 97.0896 214.562 97.1672V98.0909L216.575 96.3709L214.562 94.3639Z" fill="#252525"/>
<rect x="78.7007" y="118.759" width="39.5967" height="72.9332" rx="3.5" fill="white" stroke="#252525"/>
<rect x="82.1122" y="122.162" width="32.7644" height="32.6818" rx="16.3409" fill="#D9E7F8" stroke="#252525"/>
<mask id="mask6_1_2058" style="mask-type:alpha" maskUnits="userSpaceOnUse" x="81" y="121" width="35" height="34">
<rect x="81.9031" y="121.875" width="33.2158" height="32.7395" rx="16.3698" fill="#D9D9D9"/>
</mask>
<g mask="url(#mask6_1_2058)">
<rect x="85.9852" y="143.562" width="25.0184" height="26.6985" rx="12.5092" fill="#95BBE8" stroke="#252525"/>
<path d="M105.144 136.337C105.144 140.107 102.099 143.16 98.3454 143.16C94.5919 143.16 91.5463 140.107 91.5463 136.337C91.5463 132.567 94.5919 129.514 98.3454 129.514C102.099 129.514 105.144 132.567 105.144 136.337Z" fill="#EDA5A5" stroke="#252525"/>
</g>
<path d="M103.904 136.227C104.274 135.059 103.898 133.727 103.087 132.808C102.276 131.888 101.081 131.357 99.864 131.195C98.6467 131.034 97.4047 131.217 96.2227 131.549C94.9925 131.895 93.7019 132.406 92.4787 132.036C91.2884 131.676 90.471 130.531 90.1578 129.33C89.8446 128.129 89.9494 126.865 90.0564 125.628C91.0203 126.293 92.222 126.282 93.3758 126.078C94.5297 125.874 95.6193 125.413 96.7382 125.066C97.8572 124.719 99.0554 124.484 100.197 124.747C101.339 125.009 102.406 125.875 102.594 127.028C103.321 126.253 104.583 126.126 105.557 126.553C106.53 126.98 107.228 127.905 107.547 128.917C107.866 129.929 107.841 131.022 107.665 132.068C107.266 134.437 106.847 135.842 105.116 137.513" fill="#252525"/>
<path d="M91.7513 135.969C90.4198 133.96 90.0439 131.923 90.225 129.52C92.6234 129.028 94.7395 131.677 94.7395 131.677C92.9993 132.995 92.1765 134.494 92.4156 136.204C92.4156 136.204 91.9066 135.673 91.7513 135.969Z" fill="#252525"/>
<path d="M90.1689 158.877H81.9031V166.763H90.1689V158.877Z" fill="#0160D2"/>
<path d="M90.1689 169.427H81.9031V177.313H90.1689V169.427Z" fill="#0160D2"/>
<path d="M90.1689 180.572H81.9031V188.458H90.1689V180.572Z" fill="#E53C6D"/>
<path d="M90.1692 167.054H81.9035C81.7427 167.054 81.6122 166.924 81.6122 166.763V158.877C81.6122 158.717 81.7427 158.586 81.9035 158.586H90.1692C90.33 158.586 90.4605 158.717 90.4605 158.877V166.763C90.4606 166.924 90.3301 167.054 90.1692 167.054ZM82.1949 166.473H89.878V159.168H82.1949V166.473ZM114.277 165.451H92.4791C92.3183 165.451 92.1878 165.321 92.1878 165.161C92.1878 165 92.3183 164.87 92.4791 164.87H114.277C114.438 164.87 114.569 165 114.569 165.161C114.568 165.321 114.438 165.451 114.277 165.451ZM107.948 160.77H92.4791C92.3183 160.77 92.1878 160.64 92.1878 160.48C92.1878 160.319 92.3183 160.189 92.4791 160.189H107.948C108.109 160.189 108.24 160.319 108.24 160.48C108.24 160.64 108.109 160.77 107.948 160.77Z" fill="#252525"/>
<path d="M90.1692 177.604H81.9035C81.7427 177.604 81.6122 177.473 81.6122 177.313V169.427C81.6122 169.266 81.7427 169.136 81.9035 169.136H90.1692C90.33 169.136 90.4605 169.266 90.4605 169.427V177.313C90.4606 177.473 90.3301 177.604 90.1692 177.604ZM82.1949 177.022H89.878V169.717H82.1949V177.022ZM114.277 176.001H92.4791C92.3183 176.001 92.1878 175.871 92.1878 175.71C92.1878 175.55 92.3183 175.42 92.4791 175.42H114.277C114.438 175.42 114.569 175.55 114.569 175.71C114.568 175.871 114.438 176.001 114.277 176.001ZM107.948 171.32H92.4791C92.3183 171.32 92.1878 171.19 92.1878 171.029C92.1878 170.869 92.3183 170.739 92.4791 170.739H107.948C108.109 170.739 108.24 170.869 108.24 171.029C108.24 171.19 108.109 171.32 107.948 171.32Z" fill="#252525"/>
<path d="M90.1692 188.749H81.9035C81.7427 188.749 81.6122 188.619 81.6122 188.458V180.572C81.6122 180.412 81.7427 180.281 81.9035 180.281H90.1692C90.33 180.281 90.4605 180.412 90.4605 180.572V188.458C90.4606 188.619 90.3301 188.749 90.1692 188.749ZM82.1949 188.168H89.878V180.863H82.1949V188.168ZM114.277 187.146H92.4791C92.3183 187.146 92.1878 187.016 92.1878 186.856C92.1878 186.695 92.3183 186.565 92.4791 186.565H114.277C114.438 186.565 114.569 186.695 114.569 186.856C114.568 187.016 114.438 187.146 114.277 187.146ZM107.948 182.465H92.4791C92.3183 182.465 92.1878 182.335 92.1878 182.175C92.1878 182.014 92.3183 181.884 92.4791 181.884H107.948C108.109 181.884 108.24 182.014 108.24 182.175C108.24 182.335 108.109 182.465 107.948 182.465Z" fill="#252525"/>
<path d="M186.856 65.9359C186.856 58.8877 192.584 53.1741 199.649 53.1741C206.715 53.1741 212.442 58.8877 212.442 65.9359C212.442 72.984 206.715 78.6976 199.649 78.6976C192.584 78.6976 186.856 72.984 186.856 65.9359Z" fill="white"/>
<path fill-rule="evenodd" clip-rule="evenodd" d="M199.683 79.3613C192.27 79.3613 186.259 73.3658 186.259 65.97C186.259 58.5741 192.27 52.5786 199.683 52.5786C207.097 52.5786 213.108 58.5741 213.108 65.97C213.108 73.3658 207.097 79.3613 199.683 79.3613ZM199.683 53.2082C192.618 53.2082 186.89 58.9218 186.89 65.97C186.89 73.0181 192.618 78.7318 199.683 78.7318C206.749 78.7318 212.477 73.0181 212.477 65.97C212.477 58.9218 206.749 53.2082 199.683 53.2082Z" fill="#252525"/>
<path d="M206.085 60.5022H193.228V69.2759H206.085V60.5022Z" fill="#6CA8F5"/>
<path fill-rule="evenodd" clip-rule="evenodd" d="M207.157 69.2897V69.2759H192.157C192.157 69.84 192.383 70.381 192.784 70.7799C193.186 71.1788 193.731 71.4028 194.3 71.4028H205.014C205.58 71.4029 206.123 71.1807 206.524 70.7848C206.926 70.3889 207.153 69.8514 207.157 69.2897Z" fill="#6666FF"/>
<path fill-rule="evenodd" clip-rule="evenodd" d="M205.817 69.0101H193.496V60.7681H205.817V69.0101ZM207.171 69.5418L207.157 69.5559L207.171 69.5418ZM206.869 69.5418H192.443C192.508 69.9847 192.731 70.3896 193.072 70.6825C193.413 70.9754 193.849 71.1368 194.299 71.1371H205.014C205.464 71.137 205.9 70.9758 206.241 70.6828C206.582 70.3898 206.805 69.9848 206.869 69.5418ZM192.96 69.0101H192.157C192.085 69.0101 192.017 69.0381 191.967 69.088C191.917 69.1378 191.889 69.2055 191.889 69.276C191.889 69.9106 192.143 70.5192 192.595 70.968C193.047 71.4167 193.66 71.6688 194.299 71.6688H205.014C205.65 71.6688 206.261 71.4188 206.713 70.9734C207.164 70.528 207.42 69.9233 207.424 69.2914V69.2754C207.424 69.2049 207.396 69.1373 207.346 69.0874C207.296 69.0376 207.227 69.0096 207.156 69.0096H206.353V60.5017C206.353 60.4312 206.325 60.3636 206.274 60.3137C206.224 60.2639 206.156 60.2358 206.085 60.2358H193.228C193.157 60.2358 193.089 60.2639 193.039 60.3137C192.988 60.3636 192.96 60.4312 192.96 60.5017V69.0101Z" fill="#252525"/>
<path fill-rule="evenodd" clip-rule="evenodd" d="M200.728 62.6292H205.014C205.085 62.6292 205.153 62.6011 205.203 62.5513C205.253 62.5014 205.282 62.4338 205.282 62.3633C205.282 62.2928 205.253 62.2251 205.203 62.1753C205.153 62.1254 205.085 62.0974 205.014 62.0974H200.728C200.657 62.0974 200.589 62.1254 200.539 62.1753C200.488 62.2251 200.46 62.2928 200.46 62.3633C200.46 62.4338 200.488 62.5014 200.539 62.5513C200.589 62.6011 200.657 62.6292 200.728 62.6292ZM200.728 65.8196H205.014C205.085 65.8196 205.153 65.7916 205.203 65.7417C205.253 65.6919 205.282 65.6242 205.282 65.5537C205.282 65.4832 205.253 65.4156 205.203 65.3657C205.153 65.3159 205.085 65.2879 205.014 65.2879H200.728C200.657 65.2879 200.589 65.3159 200.539 65.3657C200.488 65.4156 200.46 65.4832 200.46 65.5537C200.46 65.6242 200.488 65.6919 200.539 65.7417C200.589 65.7916 200.657 65.8196 200.728 65.8196ZM200.728 63.6926H205.014C205.085 63.6926 205.153 63.6646 205.203 63.6148C205.253 63.5649 205.282 63.4973 205.282 63.4268C205.282 63.3563 205.253 63.2886 205.203 63.2388C205.153 63.1889 205.085 63.1609 205.014 63.1609H200.728C200.657 63.1609 200.589 63.1889 200.539 63.2388C200.488 63.2886 200.46 63.3563 200.46 63.4268C200.46 63.4973 200.488 63.5649 200.539 63.6148C200.589 63.6646 200.657 63.6926 200.728 63.6926ZM200.728 66.8831H205.014C205.085 66.8831 205.153 66.8551 205.203 66.8052C205.253 66.7553 205.282 66.6877 205.282 66.6172C205.282 66.5467 205.253 66.4791 205.203 66.4292C205.153 66.3794 205.085 66.3513 205.014 66.3513H200.728C200.657 66.3513 200.589 66.3794 200.539 66.4292C200.488 66.4791 200.46 66.5467 200.46 66.6172C200.46 66.6877 200.488 66.7553 200.539 66.8052C200.589 66.8551 200.657 66.8831 200.728 66.8831ZM200.728 67.9466H205.014C205.085 67.9466 205.153 67.9186 205.203 67.8687C205.253 67.8188 205.282 67.7512 205.282 67.6807C205.282 67.6102 205.253 67.5426 205.203 67.4927C205.153 67.4428 205.085 67.4148 205.014 67.4148H200.728C200.657 67.4148 200.589 67.4428 200.539 67.4927C200.488 67.5426 200.46 67.6102 200.46 67.6807C200.46 67.7512 200.488 67.8188 200.539 67.8687C200.589 67.9186 200.657 67.9466 200.728 67.9466ZM200.728 64.7561H205.014C205.085 64.7561 205.153 64.7281 205.203 64.6782C205.253 64.6284 205.282 64.5608 205.282 64.4902C205.282 64.4197 205.253 64.3521 205.203 64.3022C205.153 64.2524 205.085 64.2244 205.014 64.2244H200.728C200.657 64.2244 200.589 64.2524 200.539 64.3022C200.488 64.3521 200.46 64.4197 200.46 64.4902C200.46 64.5608 200.488 64.6284 200.539 64.6782C200.589 64.7281 200.657 64.7561 200.728 64.7561Z" fill="#252525"/>
<path d="M196.978 67.6807C198.457 67.6807 199.656 66.4903 199.656 65.022C199.656 63.5536 198.457 62.3633 196.978 62.3633C195.498 62.3633 194.299 63.5536 194.299 65.022C194.299 66.4903 195.498 67.6807 196.978 67.6807Z" fill="#F9D95A"/>
<path fill-rule="evenodd" clip-rule="evenodd" d="M197.871 62.7988C198.152 63.414 198.302 64.0804 198.312 64.7561H199.374C199.325 64.3254 199.16 63.9159 198.895 63.5712C198.63 63.2265 198.276 62.9596 197.871 62.7988ZM197.776 64.7561H196.18C196.185 64.1501 196.322 63.5523 196.582 63.0038C196.639 62.8904 196.717 62.7885 196.812 62.7033C196.833 62.68 196.859 62.6613 196.888 62.6485C196.916 62.6357 196.948 62.6291 196.979 62.6291C197.011 62.6291 197.042 62.6357 197.071 62.6485C197.1 62.6613 197.125 62.68 197.146 62.7033C197.241 62.7885 197.319 62.8904 197.377 63.0038C197.636 63.5524 197.772 64.1502 197.776 64.7561ZM196.086 62.7988C195.68 62.9597 195.326 63.2266 195.062 63.5713C194.797 63.916 194.631 64.3254 194.582 64.7561H195.644C195.654 64.0805 195.804 63.4141 196.086 62.7988ZM195.644 65.2879H194.582C194.631 65.7186 194.797 66.1281 195.061 66.4728C195.326 66.8175 195.68 67.0844 196.086 67.2452C195.804 66.6299 195.654 65.9635 195.644 65.2879ZM199.374 65.2879H198.312C198.302 65.9635 198.152 66.6299 197.871 67.2452C198.276 67.0843 198.63 66.8173 198.895 66.4727C199.16 66.128 199.325 65.7185 199.374 65.2879ZM197.776 65.2879C197.771 65.8939 197.634 66.4917 197.375 67.0402C197.317 67.1536 197.239 67.2554 197.144 67.3406C197.123 67.364 197.097 67.3827 197.069 67.3955C197.04 67.4083 197.009 67.4149 196.977 67.4149C196.946 67.4149 196.914 67.4083 196.886 67.3955C196.857 67.3827 196.831 67.364 196.81 67.3406C196.715 67.2554 196.637 67.1536 196.58 67.0402C196.32 66.4917 196.183 65.8939 196.178 65.2879H197.776ZM196.978 62.0974C196.395 62.0974 195.826 62.2689 195.341 62.5903C194.857 62.9116 194.479 63.3684 194.256 63.9028C194.033 64.4372 193.975 65.0252 194.088 65.5925C194.202 66.1599 194.483 66.681 194.895 67.09C195.307 67.499 195.832 67.7775 196.403 67.8904C196.975 68.0032 197.567 67.9453 198.106 67.7239C198.644 67.5026 199.104 67.1277 199.428 66.6468C199.752 66.1658 199.925 65.6004 199.925 65.022C199.924 64.2464 199.614 63.5028 199.061 62.9544C198.509 62.406 197.759 62.0978 196.978 62.0974Z" fill="#252525"/>
<path d="M149.791 55.5901C149.791 50.7974 153.704 46.9121 158.532 46.9121C163.361 46.9121 167.274 50.7974 167.274 55.5901C167.274 60.3829 163.361 64.2681 158.532 64.2681C153.704 64.2681 149.791 60.3829 149.791 55.5901Z" fill="white"/>
<path fill-rule="evenodd" clip-rule="evenodd" d="M158.532 64.8979C153.359 64.8979 149.159 60.7336 149.159 55.5903C149.159 50.447 153.359 46.2827 158.532 46.2827C163.706 46.2827 167.905 50.447 167.905 55.5903C167.905 60.7336 163.706 64.8979 158.532 64.8979ZM158.532 46.9123C153.704 46.9123 149.79 50.7976 149.79 55.5903C149.79 60.383 153.704 64.2683 158.532 64.2683C163.36 64.2683 167.274 60.383 167.274 55.5903C167.274 50.7976 163.36 46.9123 158.532 46.9123Z" fill="#252525"/>
<path d="M158.538 55.7213C159.321 55.7213 159.956 55.0878 159.956 54.3064C159.956 53.525 159.321 52.8916 158.538 52.8916C157.755 52.8916 157.12 53.525 157.12 54.3064C157.12 55.0878 157.755 55.7213 158.538 55.7213Z" fill="#EDA5A5"/>
<path d="M158.538 55.4384C157.987 55.4385 157.452 55.6159 157.011 55.9444C156.569 56.2729 156.246 56.7347 156.09 57.2612C156.065 57.3457 156.061 57.4347 156.077 57.5212C156.093 57.6076 156.129 57.6892 156.182 57.7594C156.235 57.8297 156.304 57.8866 156.382 57.9258C156.461 57.965 156.548 57.9853 156.636 57.9852H160.44C160.528 57.9853 160.615 57.965 160.694 57.9258C160.773 57.8866 160.841 57.8297 160.894 57.7594C160.947 57.6892 160.983 57.6076 160.999 57.5212C161.015 57.4347 161.011 57.3457 160.986 57.2612C160.83 56.7347 160.507 56.2729 160.066 55.9444C159.624 55.6159 159.089 55.4385 158.538 55.4384Z" fill="#6CA8F5"/>
<path d="M162.509 52.3257V54.3065C162.509 54.3816 162.479 54.4536 162.426 54.5066C162.373 54.5597 162.301 54.5895 162.226 54.5895C162.15 54.5895 162.078 54.5597 162.025 54.5066C161.972 54.4536 161.942 54.3816 161.942 54.3065V52.3257C161.942 52.2507 161.912 52.1787 161.859 52.1257C161.806 52.0726 161.734 52.0428 161.658 52.0428H159.673C159.597 52.0428 159.525 52.0129 159.472 51.9599C159.419 51.9068 159.389 51.8348 159.389 51.7598C159.389 51.6847 159.419 51.6128 159.472 51.5597C159.525 51.5066 159.597 51.4768 159.673 51.4768H161.658C161.884 51.4771 162.1 51.5666 162.26 51.7257C162.419 51.8849 162.509 52.1007 162.509 52.3257ZM157.687 51.7598C157.687 51.8348 157.657 51.9068 157.604 51.9599C157.551 52.0129 157.479 52.0428 157.403 52.0428H155.418C155.342 52.0428 155.27 52.0726 155.217 52.1257C155.164 52.1787 155.134 52.2507 155.134 52.3257V54.3065C155.134 54.3816 155.104 54.4536 155.051 54.5066C154.998 54.5597 154.926 54.5895 154.85 54.5895C154.775 54.5895 154.703 54.5597 154.65 54.5066C154.597 54.4536 154.567 54.3816 154.567 54.3065V52.3257C154.567 52.1007 154.657 51.8849 154.816 51.7257C154.976 51.5666 155.192 51.4771 155.418 51.4768H157.403C157.479 51.4768 157.551 51.5066 157.604 51.5597C157.657 51.6128 157.687 51.6847 157.687 51.7598ZM157.687 59.1171C157.687 59.1921 157.657 59.2641 157.604 59.3172C157.551 59.3703 157.479 59.4001 157.403 59.4001H155.418C155.192 59.3998 154.976 59.3103 154.816 59.1511C154.657 58.992 154.567 58.7762 154.567 58.5511V56.5703C154.567 56.4953 154.597 56.4233 154.65 56.3702C154.703 56.3172 154.775 56.2874 154.85 56.2874C154.926 56.2874 154.998 56.3172 155.051 56.3702C155.104 56.4233 155.134 56.4953 155.134 56.5703V58.5511C155.134 58.6262 155.164 58.6981 155.217 58.7512C155.27 58.8042 155.342 58.8341 155.418 58.8341H157.403C157.479 58.8341 157.551 58.8639 157.604 58.917C157.657 58.9701 157.687 59.042 157.687 59.1171ZM162.509 56.5703V58.5511C162.509 58.7762 162.419 58.992 162.26 59.1511C162.1 59.3103 161.884 59.3998 161.658 59.4001H159.673C159.597 59.4001 159.525 59.3703 159.472 59.3172C159.419 59.2641 159.389 59.1921 159.389 59.1171C159.389 59.042 159.419 58.9701 159.472 58.917C159.525 58.8639 159.597 58.8341 159.673 58.8341H161.658C161.734 58.8341 161.806 58.8042 161.859 58.7512C161.912 58.6981 161.942 58.6262 161.942 58.5511V56.5703C161.942 56.4953 161.972 56.4233 162.025 56.3702C162.078 56.3172 162.15 56.2874 162.226 56.2874C162.301 56.2874 162.373 56.3172 162.426 56.3702C162.479 56.4233 162.509 56.4953 162.509 56.5703ZM161.258 57.181C161.146 56.8078 160.957 56.4618 160.704 56.1645C160.452 55.8672 160.14 55.6251 159.79 55.4533C160.014 55.2108 160.162 54.9083 160.217 54.5829C160.271 54.2575 160.23 53.9233 160.097 53.6211C159.964 53.3189 159.746 53.0619 159.469 52.8814C159.192 52.7009 158.869 52.6048 158.538 52.6048C158.207 52.6048 157.884 52.7009 157.607 52.8814C157.33 53.0619 157.112 53.3189 156.979 53.6211C156.846 53.9233 156.805 54.2575 156.859 54.5829C156.914 54.9083 157.062 55.2108 157.287 55.4533C156.936 55.6251 156.624 55.8671 156.372 56.1643C156.119 56.4616 155.93 56.8076 155.818 57.1808C155.782 57.3074 155.776 57.4407 155.8 57.5701C155.824 57.6995 155.878 57.8216 155.957 57.9269C156.036 58.0322 156.139 58.1177 156.257 58.1769C156.375 58.2361 156.505 58.2673 156.637 58.2682H160.439C160.571 58.2674 160.701 58.2362 160.819 58.177C160.937 58.1178 161.04 58.0323 161.119 57.9271C161.198 57.8218 161.252 57.6997 161.276 57.5703C161.3 57.4409 161.294 57.3077 161.258 57.181ZM158.538 53.1746C158.762 53.1746 158.982 53.241 159.168 53.3654C159.355 53.4898 159.5 53.6666 159.586 53.8734C159.672 54.0802 159.695 54.3078 159.651 54.5274C159.607 54.7469 159.499 54.9486 159.34 55.1069C159.182 55.2652 158.979 55.373 158.759 55.4167C158.539 55.4604 158.311 55.4379 158.104 55.3523C157.896 55.2666 157.719 55.1215 157.595 54.9354C157.47 54.7492 157.403 54.5304 157.403 54.3065C157.404 54.0064 157.523 53.7187 157.736 53.5065C157.949 53.2943 158.237 53.1749 158.538 53.1746ZM160.669 57.5867C160.643 57.6227 160.608 57.6518 160.568 57.6719C160.528 57.692 160.484 57.7024 160.439 57.7022H156.637C156.593 57.702 156.549 57.6917 156.51 57.6722C156.471 57.6526 156.436 57.6243 156.41 57.5894C156.383 57.5545 156.365 57.514 156.357 57.471C156.348 57.4279 156.35 57.3836 156.362 57.3413C156.467 56.9939 156.653 56.6764 156.906 56.4155C157.159 56.1545 157.47 55.9576 157.815 55.8412C158.041 55.9475 158.288 56.0026 158.538 56.0026C158.788 56.0026 159.035 55.9475 159.261 55.8412C159.606 55.9576 159.918 56.1546 160.17 56.4156C160.423 56.6766 160.61 56.9941 160.714 57.3416C160.727 57.3831 160.729 57.4269 160.721 57.4695C160.713 57.5121 160.696 57.5522 160.669 57.5867Z" fill="#252525"/>
<defs>
<clipPath id="clip0_1_2058">
<rect width="88.1017" height="73.5079" fill="white" transform="translate(57.3904 3.57324)"/>
</clipPath>
<clipPath id="clip1_1_2058">
<rect width="28.9977" height="9.78403" fill="white" transform="translate(61.3989 80.6545)"/>
</clipPath>
</defs>
</svg>
