<svg xmlns="http://www.w3.org/2000/svg" width="519" height="424" viewBox="0 0 519 424" fill="none">
<g clip-path="url(#clip0_244_22021)">
<path d="M310.997 307.666C310.275 312.673 308.936 325.311 307.406 340.49C302.796 348.515 296.9 356.445 289.326 363.216C267.22 382.998 209.505 342.106 169.859 309.632L169.817 309.6C148.454 292.104 132.35 277.063 129.864 275.277C126.294 272.726 103.232 254.475 102.679 248.767C102.201 243.909 106.939 244.462 107.938 245.334C99.6837 236.107 108.533 233.099 109.935 234.449C109.17 233.407 108.724 232.11 108.681 230.793C108.639 229.251 109.17 227.667 110.169 226.456C110.7 225.807 111.39 225.233 112.219 225.084C112.761 224.989 113.355 225.074 113.791 225.361C113.43 224.723 113.409 223.873 113.717 223.192C114.11 222.225 115.002 221.524 115.969 221.151C119.814 219.653 122.64 222.831 125.094 225.276C127.314 227.487 134.06 235.661 136.163 237.978C140.317 242.527 145.596 245.727 151.142 248.374C148.985 244.824 147.763 240.689 147.625 236.533C147.593 234.747 147.901 232.663 149.463 231.792C151.152 230.846 153.362 231.973 154.392 233.588C155.423 235.215 155.625 237.223 156.06 239.094C157.324 244.643 160.968 249.862 165.961 252.573C192.954 267.199 255.906 303.467 255.906 303.467L259.38 293.433L310.997 307.666Z" fill="#EDA5A5"/>
<path d="M289.326 363.216C267.222 383 209.509 342.101 169.854 309.629C190.312 322.773 212.091 333.922 233.775 345.006C248.636 352.59 265.185 360.397 281.332 356.227C292.033 353.464 300.869 345.63 307.075 336.483C312.419 328.617 315.925 319.828 319.371 311.013C319.694 310.206 320.047 309.512 320.43 308.93C316.083 323.898 307.576 346.884 289.326 363.216Z" fill="#CB8383"/>
<path d="M107.938 245.334C111.395 249.365 123.18 259.696 126.163 261.772M109.939 234.444C114.331 240.628 126.895 253.199 132.688 257.04M113.787 225.367C116.638 232.209 130.939 249.173 137.53 252.559M310.997 307.666C310.275 312.673 308.936 325.311 307.406 340.49C302.796 348.515 296.9 356.445 289.326 363.216C267.22 382.998 209.505 342.106 169.859 309.632L169.817 309.6C148.454 292.104 132.35 277.063 129.864 275.277C126.294 272.726 103.232 254.475 102.679 248.767C102.201 243.909 106.939 244.462 107.938 245.334C99.6837 236.107 108.533 233.099 109.935 234.449C109.17 233.407 108.724 232.11 108.681 230.793C108.639 229.251 109.17 227.667 110.169 226.456C110.7 225.807 111.39 225.233 112.219 225.084C112.761 224.989 113.355 225.074 113.791 225.361C113.43 224.723 113.409 223.873 113.717 223.192C114.11 222.225 115.002 221.524 115.969 221.151C119.814 219.653 122.64 222.831 125.094 225.276C127.314 227.487 134.06 235.661 136.163 237.978C140.317 242.527 145.596 245.727 151.142 248.374C148.985 244.824 147.763 240.689 147.625 236.533C147.593 234.747 147.901 232.663 149.463 231.792C151.152 230.846 153.362 231.973 154.392 233.588C155.423 235.215 155.625 237.223 156.06 239.094C157.324 244.643 160.968 249.862 165.961 252.573C192.954 267.199 255.906 303.467 255.906 303.467L259.38 293.433L310.997 307.666Z" stroke="#252525" stroke-width="1.5" stroke-miterlimit="10" stroke-linecap="round" stroke-linejoin="round"/>
<path d="M37.4395 340.821C37.8825 336.382 37.4972 331.861 36.3094 327.561C36.0092 326.474 35.6331 325.359 34.8424 324.555C33.7038 323.399 31.7574 323.148 30.363 323.978C28.9686 324.807 28.2595 326.638 28.7311 328.191C27.5139 322.908 26.1802 317.638 23.8613 312.738C23.419 311.804 22.9273 310.872 22.201 310.137C21.4746 309.401 20.4753 308.877 19.4434 308.934C18.1672 309.005 17.0685 309.958 16.4876 311.097C15.9068 312.236 15.7572 313.542 15.6725 314.817C15.1643 322.483 16.6963 330.275 20.069 337.177C19.8127 336.075 18.5783 335.313 17.4615 335.134C16.3444 334.956 15.1456 335.512 14.5594 336.48C13.9396 337.503 14.0167 338.797 14.2484 339.971C15.056 344.059 17.5666 347.782 21.0525 350.062C19.9512 349.132 17.9962 349.492 17.1888 350.687C16.5191 351.678 16.6138 352.985 16.7997 354.166C17.3603 357.729 18.5169 361.198 20.207 364.384C21.1479 366.157 22.2709 367.865 23.7707 369.199C25.2704 370.533 27.1831 371.474 29.1891 371.53C31.1952 371.586 33.2718 370.66 34.3326 368.955" fill="#F9D95A"/>
<path d="M61.8077 334.803C59.6535 338.086 57.4197 341.31 54.8305 344.277C55.8381 343.11 57.0243 341.983 58.5068 341.528C59.9893 341.073 61.828 341.488 62.5985 342.833C63.389 344.198 62.8552 345.939 62.1835 347.382C60.7208 350.468 58.863 353.395 56.4708 355.828C57.1628 355.412 57.8939 355.017 58.6849 354.898C59.4754 354.799 60.3844 355.057 60.8001 355.729C61.2943 356.52 61.0171 357.549 60.6616 358.399C58.8824 362.731 55.621 366.409 51.5492 368.704C47.4771 370.998 42.6146 371.869 38.0091 371.157C37.9107 371.137 33.6409 365.777 33.0878 357.885C32.7713 353.217 33.8388 348.47 36.0722 344.356C36.6851 343.229 37.4166 342.141 38.4445 341.39C39.4918 340.658 40.8954 340.341 42.062 340.895C43.0109 341.35 43.8408 342.537 43.7024 343.545C45.6791 336.959 50.6206 331.342 56.9259 328.593C57.8943 328.177 58.9222 327.821 59.9897 327.802C61.0374 327.802 62.1443 328.197 62.777 329.048C63.4093 329.878 63.4883 331.026 63.2114 332.034C62.9542 333.043 62.381 333.933 61.8077 334.803Z" fill="#2B8941"/>
<path d="M51.841 388.327V412.773C51.841 418.427 47.2589 423.012 41.6268 423.012H27.4917C22.2127 423.012 17.857 419.007 17.3139 413.869C17.2687 413.507 17.2504 413.144 17.2504 412.773V388.327C17.2504 382.664 21.8415 378.079 27.4917 378.079H41.6268C45.8464 378.079 49.4684 380.652 51.0261 384.322C51.5511 385.554 51.841 386.904 51.841 388.327Z" fill="#EF603F"/>
<path d="M36.3616 378.102C38.8653 364.973 43.9703 352.346 51.2935 341.167M42.0881 358.736C44.9064 355.225 48.3714 353.353 52.5129 351.591M38.3939 369.497C41.3942 365.087 45.9196 362.258 50.9625 360.526M39.9072 364.61C39.5221 359.603 39.7422 354.939 41.6451 350.292M51.8453 388.324V412.771C51.8453 418.427 47.2598 423.016 41.6261 423.016H27.4934C21.84 423.016 17.254 418.427 17.254 412.771V388.324C17.254 382.667 21.84 378.079 27.4934 378.079H41.6261C47.26 378.079 51.8453 382.668 51.8453 388.324Z" stroke="#252525" stroke-width="1.5" stroke-miterlimit="10" stroke-linecap="round" stroke-linejoin="round"/>
<path d="M61.8077 334.803C59.6535 338.086 57.4197 341.31 54.8305 344.277C55.8381 343.11 57.0243 341.983 58.5068 341.528C59.9893 341.073 61.828 341.488 62.5985 342.833C63.389 344.198 62.8552 345.939 62.1835 347.382C60.7208 350.468 58.863 353.395 56.4708 355.828C57.1628 355.412 57.8939 355.017 58.6849 354.898C59.4754 354.799 60.3844 355.057 60.8001 355.729C61.2943 356.52 61.0171 357.549 60.6616 358.399C58.8824 362.731 55.621 366.409 51.5492 368.704C47.4771 370.998 42.6146 371.869 38.0091 371.157C37.9107 371.137 33.6409 365.777 33.0878 357.885C32.7713 353.217 33.8388 348.47 36.0722 344.356C36.6851 343.229 37.4166 342.141 38.4445 341.39C39.4918 340.658 40.8954 340.341 42.062 340.895C43.0109 341.35 43.8408 342.537 43.7024 343.545C45.6791 336.959 50.6206 331.342 56.9259 328.593C57.8943 328.177 58.9222 327.821 59.9897 327.802C61.0374 327.802 62.1443 328.197 62.777 329.048C63.4093 329.878 63.4883 331.026 63.2114 332.034C62.9542 333.043 62.381 333.933 61.8077 334.803Z" stroke="#252525" stroke-width="1.5" stroke-miterlimit="10" stroke-linecap="round" stroke-linejoin="round"/>
<path d="M37.6177 342.126C38.0607 337.687 37.4971 331.861 36.3095 327.561C36.0093 326.474 35.6333 325.358 34.8425 324.555C33.7039 323.399 31.7576 323.148 30.3632 323.977C28.9688 324.807 28.2596 326.638 28.7312 328.191C27.514 322.908 26.1804 317.638 23.8614 312.738C23.4191 311.804 22.9275 310.872 22.2011 310.136C21.4747 309.401 20.4755 308.877 19.4435 308.934C18.1673 309.005 17.0686 309.957 16.4878 311.096C15.907 312.235 15.7573 313.541 15.6727 314.817C15.1644 322.483 16.6964 330.275 20.0691 337.177C19.8128 336.075 18.5784 335.312 17.4616 335.134C16.3446 334.956 15.1457 335.511 14.5595 336.479C13.9397 337.502 14.0168 338.797 14.2485 339.97C15.0561 344.058 17.5667 347.782 21.0526 350.061C19.9513 349.131 17.9963 349.492 17.189 350.687C16.5192 351.678 16.614 352.984 16.7998 354.166C17.3604 357.729 18.517 361.198 20.2071 364.384C21.148 366.157 22.2711 367.865 23.7708 369.199C25.2705 370.533 27.1833 371.474 29.1893 371.53C31.1953 371.586 35.1296 370.302 34.8042 365.399M22.3109 320.945C28.0912 339.41 30.2311 358.762 29.1139 378.079M28.1739 347.691C28.5408 342.518 29.6956 337.403 31.5861 332.575M29.1128 358.466C28.1343 352.531 25.5098 346.21 21.33 341.888M29.3947 366.972C28.1573 363.606 26.1911 360.435 23.6342 357.922" stroke="#252525" stroke-width="1.5" stroke-miterlimit="10" stroke-linecap="round" stroke-linejoin="round"/>
<path d="M367.428 393.884C367.465 393.875 367.501 393.866 367.547 393.866L367.538 393.875C367.501 393.875 367.465 393.884 367.428 393.884Z" fill="#F9A488"/>
<path d="M468.25 399.346C467.602 409.445 468.028 419.249 467.869 424H299.5C299.5 424 308.65 324.1 310.997 307.666L347.105 210.044L351.397 209.841L407.338 207.216C407.338 207.216 407.487 207.216 407.763 207.237L455.131 293.242C460.261 304.466 471.532 348.122 468.25 399.346ZM347.105 210.044L310.997 307.666L255.258 292.295C255.258 292.295 259.05 275.777 269.981 257.537C274.677 249.692 280.7 241.528 288.306 234.226C296.104 226.742 305.558 220.152 316.957 215.741C323.862 213.073 331.468 211.191 339.849 210.394L347.105 210.044Z" fill="#95BBE8"/>
<path d="M508.16 270.93L505.505 272.046L455.13 293.241L407.762 207.237C411.958 207.428 446.271 209.554 471.15 227.975C473.657 229.825 476.068 231.834 478.352 234.045C482.644 238.19 486.33 241.974 489.496 245.397C505.738 262.958 508.16 270.93 508.16 270.93Z" fill="#95BBE8"/>
<path opacity="0.5" d="M465.298 423.92H428.171C429.243 414.611 437.15 407.385 446.73 407.385C456.319 407.385 464.226 414.611 465.298 423.92ZM343.929 417.101C343.929 419.506 343.475 421.81 342.634 423.92H307.855C307.014 421.81 306.561 419.506 306.561 417.101C306.561 406.774 314.929 398.41 325.24 398.41C335.56 398.41 343.929 406.774 343.929 417.101ZM489.498 246.3C487.242 250.159 483.062 252.759 478.272 252.759C471.096 252.759 465.28 246.93 465.28 239.749C465.28 235.206 467.61 231.199 471.152 228.877C473.658 230.728 476.071 232.745 478.346 234.947C482.637 239.101 486.326 242.886 489.498 246.3ZM294.752 247.383C294.752 255.59 288.103 262.243 279.892 262.243C276.082 262.243 272.605 260.8 269.978 258.44C274.676 250.593 280.696 242.432 288.306 235.132C292.2 237.806 294.752 242.294 294.752 247.383ZM351.456 212.055C351.456 221.752 343.596 229.617 333.905 229.617C325.804 229.617 318.98 224.121 316.964 216.644C323.862 213.98 331.473 212.101 339.85 211.296L351.4 210.75C351.437 211.185 351.456 211.62 351.456 212.055Z" fill="white"/>
<path d="M467.905 423.25C468.486 409.699 468.819 371.029 468.424 359.417M339.851 210.39C272.586 216.849 255.257 292.288 255.257 292.288L310.999 307.667C308.65 324.091 299.505 423.014 299.505 423.014M463.199 328.893C463.19 328.838 463.181 328.782 463.171 328.727C463.153 328.625 463.134 328.532 463.125 328.44C463.106 328.32 463.079 328.181 463.051 328.014C463.005 327.727 462.959 327.45 462.912 327.163C462.894 327.052 462.875 326.932 462.847 326.821C462.81 326.562 462.764 326.302 462.718 326.043C462.672 325.747 462.626 325.46 462.57 325.174C462.542 325.026 462.514 324.868 462.487 324.702C462.404 324.184 462.311 323.665 462.21 323.157C462.154 322.777 462.08 322.398 462.006 322.028C461.95 321.685 461.886 321.343 461.821 321.001C461.738 320.538 461.645 320.057 461.553 319.557C461.47 319.113 461.386 318.669 461.303 318.243C461.174 317.568 461.044 316.883 460.897 316.17C457.993 301.764 455.33 293.806 455.145 293.269C455.145 293.26 455.135 293.251 455.135 293.242L505.505 272.052L508.159 270.933C508.159 270.933 504.701 259.552 478.346 234.041C452.001 208.54 407.337 207.217 407.337 207.217" stroke="#252525" stroke-width="1.5" stroke-miterlimit="10" stroke-linecap="round" stroke-linejoin="round"/>
<path d="M310.997 307.67L314.879 270.132" stroke="#252525" stroke-width="1.5" stroke-miterlimit="10" stroke-linecap="round" stroke-linejoin="round"/>
<path d="M455.137 293.238C455.137 293.238 449.826 276.549 446.739 270.132" stroke="#252525" stroke-width="1.5" stroke-miterlimit="10" stroke-linecap="round" stroke-linejoin="round"/>
<path opacity="0.5" d="M353.611 367.706C361.35 359.963 361.349 347.408 353.61 339.664C345.871 331.92 333.324 331.921 325.585 339.664C317.846 347.408 317.847 359.963 325.586 367.707C333.325 375.451 345.872 375.45 353.611 367.706Z" fill="white"/>
<path opacity="0.5" d="M378.347 317.541C356.93 317.541 339.564 300.164 339.564 278.734C339.564 257.304 356.93 239.936 378.347 239.936C399.764 239.936 417.13 257.304 417.13 278.734C417.13 300.164 399.764 317.541 378.347 317.541ZM309.324 290.708C309.324 296.13 304.932 300.525 299.513 300.525C294.099 300.525 289.706 296.13 289.706 290.708C289.706 285.29 294.099 280.895 299.513 280.895C304.932 280.895 309.324 285.29 309.324 290.708ZM434.623 223.09C434.623 227.169 431.318 230.475 427.242 230.475C423.169 230.475 419.865 227.169 419.865 223.09C419.865 219.015 423.169 215.708 427.242 215.708C431.318 215.708 434.623 219.015 434.623 223.09Z" fill="white"/>
<path opacity="0.5" d="M374.199 348.123C379.371 348.123 383.563 343.928 383.563 338.753C383.563 333.578 379.371 329.383 374.199 329.383C369.028 329.383 364.836 333.578 364.836 338.753C364.836 343.928 369.028 348.123 374.199 348.123Z" fill="white"/>
<path d="M257.815 111.066L247.94 84.8184C246.856 81.9343 248.307 78.7173 251.196 77.6293L288.118 63.7218C291.001 62.6362 294.218 64.0946 295.303 66.9787L305.178 93.2262C306.263 96.1101 304.805 99.3295 301.923 100.415L265 114.323C262.11 115.411 258.9 113.95 257.815 111.066Z" fill="#E53C6D"/>
<path d="M272.233 98.3814L267.141 84.8457C266.746 83.7958 267.646 82.721 268.748 82.928L282.359 85.532C283.413 85.7343 283.88 86.9768 283.221 87.8246L274.702 98.7564C274.011 99.639 272.628 99.4313 272.233 98.3814Z" fill="white"/>
<path d="M257.815 111.066L247.94 84.8184C246.856 81.9343 248.307 78.7173 251.196 77.6293L288.118 63.7218C291.001 62.6362 294.218 64.0946 295.303 66.9787L305.178 93.2262C306.263 96.1101 304.805 99.3295 301.923 100.415L265 114.323C262.11 115.411 258.9 113.95 257.815 111.066Z" stroke="#252525" stroke-width="1.5" stroke-miterlimit="10" stroke-linecap="round" stroke-linejoin="round"/>
<path d="M272.233 98.3814L267.141 84.8457C266.746 83.7958 267.646 82.721 268.748 82.928L282.359 85.532C283.413 85.7343 283.88 86.9768 283.221 87.8246L274.702 98.7564C274.011 99.639 272.628 99.4313 272.233 98.3814Z" stroke="#252525" stroke-width="1.5" stroke-miterlimit="10" stroke-linecap="round" stroke-linejoin="round"/>
<path d="M173.669 200.219C173.669 202.322 172.808 204.249 171.44 205.618C170.047 206.987 168.147 207.848 166.044 207.848H112.796C108.591 207.848 105.171 204.452 105.171 200.219C105.171 198.115 106.032 196.213 107.4 194.819C108.793 193.45 110.694 192.589 112.796 192.589H166.045C170.25 192.589 173.669 196.011 173.669 200.219ZM173.669 215.478C173.669 217.582 172.808 219.509 171.44 220.877C170.047 222.246 168.147 223.108 166.044 223.108H112.796C108.591 223.108 105.171 219.711 105.171 215.478C105.171 213.374 106.032 211.473 107.4 210.079C108.793 208.71 110.694 207.848 112.796 207.848H166.045C170.25 207.848 173.669 211.271 173.669 215.478Z" fill="#2E3E56"/>
<path d="M158.11 223.108L153.149 235.999C152.444 237.787 150.728 238.963 148.823 238.963H130.016C128.112 238.963 126.396 237.787 125.691 235.999L120.73 223.108H158.11Z" fill="#2E3E56"/>
<path d="M224.296 86.4316C224.296 125.138 198.431 157.786 163.042 168.027V192.589H115.798V168.027C80.5746 158.19 54.5441 125.137 54.5441 86.4316C54.5441 39.5379 92.5424 1.48987 139.433 1.48987C186.297 1.48987 224.296 39.5379 224.296 86.4316Z" fill="#F9D95A"/>
<path d="M224.296 86.4316C224.296 125.138 198.431 157.786 163.042 168.027V192.589H115.798V168.027C80.5746 158.19 54.5441 125.137 54.5441 86.4316C54.5441 39.5379 92.5424 1.48987 139.433 1.48987C186.297 1.48987 224.296 39.5379 224.296 86.4316ZM173.669 200.219C173.669 202.322 172.808 204.249 171.44 205.617C170.047 206.986 168.146 207.848 166.044 207.848H112.796C108.59 207.848 105.171 204.451 105.171 200.219C105.171 198.115 106.032 196.213 107.4 194.819C108.793 193.45 110.693 192.589 112.796 192.589H166.044C170.249 192.589 173.669 196.011 173.669 200.219ZM173.669 215.478C173.669 217.581 172.808 219.509 171.44 220.877C170.047 222.246 168.146 223.108 166.044 223.108H112.796C108.59 223.108 105.171 219.711 105.171 215.478C105.171 213.374 106.032 211.473 107.4 210.079C108.793 208.71 110.693 207.848 112.796 207.848H166.044C170.249 207.848 173.669 211.271 173.669 215.478Z" stroke="#252525" stroke-width="1.5" stroke-miterlimit="10" stroke-linecap="round" stroke-linejoin="round"/>
<path d="M148.486 192.589V119.599C148.486 116.572 150.939 114.118 153.964 114.118H154.526C157.551 114.118 160.003 116.572 160.003 119.599C160.003 122.626 157.551 125.08 154.526 125.08H124.315C121.289 125.08 118.837 122.626 118.837 119.599C118.837 116.572 121.289 114.118 124.315 114.118H124.876C127.902 114.118 130.354 116.572 130.354 119.599V192.589M289.652 105.045C289.835 105.954 289.973 106.881 290.065 107.817C293.064 139.633 235.743 171.549 163.042 180.866M158.11 223.108L153.149 235.999C152.444 237.787 150.728 238.963 148.824 238.963H130.016C128.112 238.963 126.396 237.787 125.691 235.999L120.73 223.108H158.11Z" stroke="#252525" stroke-width="1.5" stroke-miterlimit="10" stroke-linecap="round" stroke-linejoin="round"/>
<path d="M115.798 183.143C51.5188 183.271 9.84077 163.535 7.10709 134.52C3.96057 101.098 64.7443 68.0252 142.875 60.6543C189.679 56.2389 232.097 62.0403 259.26 74.5882" stroke="#252525" stroke-width="1.5" stroke-miterlimit="10" stroke-linecap="round" stroke-linejoin="round"/>
<path d="M55.3422 98.1425C55.3422 113.026 43.2946 125.081 28.4206 125.081C13.5595 125.081 1.4989 113.026 1.4989 98.1425C1.4989 83.2725 13.5595 71.2173 28.4206 71.2173C43.2946 71.2173 55.3422 83.2725 55.3422 98.1425Z" fill="#B9D3F2"/>
<path d="M55.3422 98.1425C55.3422 113.026 43.2946 125.081 28.4206 125.081C13.5595 125.081 1.4989 113.026 1.4989 98.1425C1.4989 83.2725 13.5595 71.2173 28.4206 71.2173C43.2946 71.2173 55.3422 83.2725 55.3422 98.1425Z" stroke="#252525" stroke-width="1.5" stroke-miterlimit="10" stroke-linecap="round" stroke-linejoin="round"/>
<path d="M34.1558 88.0521H22.685L23.7168 85.0219C23.9078 84.4608 24.4348 84.0835 25.0272 84.0835H31.8136C32.4061 84.0835 32.933 84.4608 33.124 85.0219L34.1558 88.0521ZM17.3559 86.4043V88.0523H14.271V86.4043C14.271 86.044 14.563 85.7518 14.9231 85.7518H16.7036C17.0639 85.7516 17.3559 86.0438 17.3559 86.4043Z" fill="white"/>
<path d="M46.407 91.6493V108.618C46.407 110.605 44.7977 112.215 42.8124 112.215H14.0288C12.0434 112.215 10.4341 110.605 10.4341 108.618V91.6493C10.4341 89.6627 12.0434 88.0524 14.0288 88.0524H42.8121C44.7975 88.0522 46.407 89.6627 46.407 91.6493Z" fill="white"/>
<path d="M36.7874 100.565C36.7874 104.943 33.2449 108.494 28.8698 108.494C24.4947 108.494 20.9446 104.943 20.9446 100.565C20.9446 96.1867 24.4945 92.642 28.8698 92.642C33.2449 92.642 36.7874 96.1867 36.7874 100.565Z" fill="#2E3E56"/>
<path d="M31.3494 100.567C31.3494 101.939 30.2388 103.053 28.8672 103.053C27.4956 103.053 26.3827 101.939 26.3827 100.567C26.3827 99.1944 27.4956 98.0831 28.8672 98.0831C30.2388 98.0831 31.3494 99.1944 31.3494 100.567Z" fill="white"/>
<path d="M46.407 105.556V108.619C46.407 110.607 44.8 112.215 42.8134 112.215H14.0274C12.0408 112.215 10.4338 110.607 10.4338 108.619V105.556H22.7122C24.1656 107.347 26.3861 108.494 28.8695 108.494C31.353 108.494 33.5733 107.347 35.0196 105.556H46.407Z" fill="#E53C6D"/>
<path d="M46.407 91.6493V108.618C46.407 110.605 44.7977 112.215 42.8124 112.215H14.0288C12.0434 112.215 10.4341 110.605 10.4341 108.618V91.6493C10.4341 89.6627 12.0434 88.0524 14.0288 88.0524H42.8121C44.7975 88.0522 46.407 89.6627 46.407 91.6493Z" stroke="#252525" stroke-width="1.5" stroke-miterlimit="10" stroke-linecap="round" stroke-linejoin="round"/>
<path d="M46.407 105.556V108.619C46.407 110.607 44.8 112.215 42.8134 112.215H14.0274C12.0408 112.215 10.4338 110.607 10.4338 108.619V105.556H22.7122C24.1656 107.347 26.3861 108.494 28.8695 108.494C31.353 108.494 33.5733 107.347 35.0196 105.556H46.407ZM34.1558 88.0521H22.685L23.7168 85.0219C23.9078 84.4608 24.4348 84.0835 25.0272 84.0835H31.8136C32.4061 84.0835 32.933 84.4608 33.124 85.0219L34.1558 88.0521Z" stroke="#252525" stroke-width="1.5" stroke-miterlimit="10" stroke-linecap="round" stroke-linejoin="round"/>
<path d="M36.7874 100.565C36.7874 104.943 33.2449 108.494 28.8698 108.494C24.4947 108.494 20.9446 104.943 20.9446 100.565C20.9446 96.1867 24.4945 92.642 28.8698 92.642C33.2449 92.642 36.7874 96.1867 36.7874 100.565Z" stroke="#252525" stroke-width="1.5" stroke-miterlimit="10" stroke-linecap="round" stroke-linejoin="round"/>
<path d="M31.3493 100.567C31.3493 101.939 30.2387 103.053 28.8672 103.053C27.4956 103.053 26.3826 101.939 26.3826 100.567C26.3826 99.1944 27.4956 98.0831 28.8672 98.0831C30.2387 98.0831 31.3493 99.1944 31.3493 100.567ZM17.3559 86.4042V88.0522H14.271V86.4042C14.271 86.0439 14.563 85.7517 14.9231 85.7517H16.7036C17.0639 85.7515 17.3559 86.0437 17.3559 86.4042Z" stroke="#252525" stroke-width="1.5" stroke-miterlimit="10" stroke-linecap="round" stroke-linejoin="round"/>
<path d="M40.9094 91.287H42.7199" stroke="#252525" stroke-width="1.5" stroke-miterlimit="10" stroke-linecap="round" stroke-linejoin="round"/>
<path d="M225.299 309.769V413.567C225.299 418.787 221.073 423.016 215.856 423.016H137.835C132.618 423.016 128.382 418.787 128.382 413.567V309.769C128.382 304.549 132.618 300.319 137.835 300.319H215.856C221.073 300.319 225.299 304.549 225.299 309.769Z" fill="#F2F7FD"/>
<path d="M225.299 309.769V413.567C225.299 418.787 221.073 423.016 215.856 423.016H137.835C132.618 423.016 128.382 418.787 128.382 413.567V309.769C128.382 304.549 132.618 300.319 137.835 300.319H215.856C221.073 300.319 225.299 304.549 225.299 309.769Z" stroke="#252525" stroke-width="1.5" stroke-miterlimit="10" stroke-linecap="round" stroke-linejoin="round"/>
<path d="M143.59 318.803H192.804" stroke="#252525" stroke-width="1.5" stroke-miterlimit="10" stroke-linecap="round" stroke-linejoin="round"/>
<path d="M143.59 335.949H210.092" stroke="#252525" stroke-width="1.5" stroke-miterlimit="10" stroke-linecap="round" stroke-linejoin="round"/>
<path d="M143.59 353.095H202.297" stroke="#252525" stroke-width="1.5" stroke-miterlimit="10" stroke-linecap="round" stroke-linejoin="round"/>
<path d="M143.59 370.241H197.938" stroke="#252525" stroke-width="1.5" stroke-miterlimit="10" stroke-linecap="round" stroke-linejoin="round"/>
<path d="M143.59 387.387H210.092" stroke="#252525" stroke-width="1.5" stroke-miterlimit="10" stroke-linecap="round" stroke-linejoin="round"/>
<path d="M143.59 404.533H210.092" stroke="#252525" stroke-width="1.5" stroke-miterlimit="10" stroke-linecap="round" stroke-linejoin="round"/>
<path d="M302.623 423.236H195.353L175.269 414.455C174.108 413.947 174.108 412.298 175.269 411.79L195.353 403.009H302.623C304.889 403.009 306.726 404.847 306.726 407.114V419.13C306.726 421.398 304.889 423.236 302.623 423.236Z" fill="#2B8941"/>
<path d="M195.539 403.009H195.353L175.269 411.79C174.108 412.298 174.108 413.947 175.269 414.455L195.353 423.236H195.539V403.009Z" fill="#F9D95A"/>
<path d="M180.366 409.561L175.266 411.79C174.108 412.299 174.108 413.947 175.266 414.456L180.366 416.685V409.561Z" fill="#2E3E56"/>
<path d="M302.623 403.009H290.753V423.236H302.623C304.889 423.236 306.726 421.398 306.726 419.13V407.115C306.726 404.847 304.889 403.009 302.623 403.009Z" fill="#E53C6D"/>
<path d="M302.623 423.236H195.353L175.269 414.455C174.108 413.947 174.108 412.298 175.269 411.79L195.353 403.009H302.623C304.889 403.009 306.726 404.847 306.726 407.114V419.13C306.726 421.398 304.889 423.236 302.623 423.236Z" stroke="#252525" stroke-width="1.5" stroke-miterlimit="10" stroke-linecap="round" stroke-linejoin="round"/>
<path d="M195.353 413.123H290.757" stroke="#252525" stroke-width="1.5" stroke-miterlimit="10" stroke-linecap="round" stroke-linejoin="round"/>
<path d="M290.758 403.009V423.236H302.623C304.889 423.236 306.726 421.398 306.726 419.13V407.115C306.726 404.847 304.889 403.009 302.623 403.009H290.758V403.009ZM195.358 403.011V423.235L175.266 414.456C174.108 413.947 174.108 412.299 175.266 411.79L195.358 403.011Z" stroke="#252525" stroke-width="1.5" stroke-miterlimit="10" stroke-linecap="round" stroke-linejoin="round"/>
<path d="M180.366 409.341L175.266 411.57C174.108 412.079 174.108 413.727 175.266 414.236L180.366 416.465V409.341Z" stroke="#252525" stroke-width="1.5" stroke-miterlimit="10" stroke-linecap="round" stroke-linejoin="round"/>
<path d="M515.512 339.31C505.664 371.943 432.366 362.94 392.253 347.07C386.506 344.795 381.513 342.786 377.157 340.99C351.152 330.339 348.019 327.873 342.76 327.32C341.719 327.203 324.265 324.652 324.265 324.652C321.62 324.375 319.708 322.005 319.984 319.369C320.122 318.04 320.781 316.913 321.737 316.138C322.47 315.542 323.373 315.16 324.35 315.075C324.361 315.043 324.372 315.011 324.382 314.99L323.012 314.851C320.367 314.575 318.455 312.204 318.731 309.568C318.869 308.24 319.528 307.113 320.484 306.337C321.333 305.646 322.417 305.242 323.575 305.263C320.94 304.987 319.028 302.617 319.304 299.981C319.442 298.652 320.101 297.525 321.057 296.749C322.013 295.973 323.256 295.559 324.573 295.697L327.006 295.984C324.371 295.707 322.459 293.337 322.725 290.701C322.863 289.372 323.532 288.245 324.488 287.469C325.434 286.704 326.687 286.29 328.005 286.417L344.406 289.542C343.599 285.237 342.777 271.425 348.224 270.13C356.954 268.055 352.153 289.095 358.251 292.699C362.978 295.494 459.804 310.961 459.804 310.961L455.13 293.241L504.187 272.598C504.187 272.598 508.128 280.634 511.708 291.933C516.107 305.753 519.984 324.461 515.512 339.31Z" fill="#EDA5A5"/>
<path d="M515.516 339.313C505.668 371.946 432.369 362.943 392.257 347.073C386.51 344.798 381.517 342.789 377.161 340.993C376.63 339.951 374.671 340.85 374.204 339.776C404.575 356.56 442.515 360.073 476.476 352.94C486.324 350.878 496.416 347.509 503.31 340.185C509.811 333.286 512.68 323.592 513.073 314.121C513.338 307.743 510.077 298.495 511.713 291.937C516.111 305.756 519.988 324.464 515.516 339.313Z" fill="#CB8383"/>
<path d="M459.812 310.966L472.384 312.371" stroke="#252525" stroke-width="1.5" stroke-miterlimit="10" stroke-linecap="round" stroke-linejoin="round"/>
<path d="M515.515 339.311C505.668 371.943 432.369 362.94 392.256 347.07C386.509 344.795 381.516 342.787 377.161 340.99C351.156 330.339 348.022 327.873 342.764 327.32C341.723 327.204 324.265 324.65 324.265 324.65C321.62 324.374 319.708 322.004 319.984 319.368C320.122 318.039 320.781 316.912 321.737 316.136C322.47 315.541 323.372 315.158 324.35 315.073C324.36 315.041 324.371 315.01 324.382 314.988L323.011 314.85C320.366 314.573 318.454 312.203 318.73 309.567C318.868 308.238 319.527 307.112 320.483 306.336C321.333 305.645 322.427 305.241 323.585 305.262C323.574 305.251 323.564 305.251 323.564 305.241L323.575 305.264C320.941 304.987 319.028 302.617 319.305 299.981C319.443 298.652 320.101 297.525 321.057 296.749C322.013 295.974 323.256 295.559 324.574 295.697L327.003 295.985C324.368 295.709 322.456 293.339 322.722 290.703C322.86 289.374 323.529 288.247 324.485 287.471C325.43 286.706 326.684 286.291 328.001 286.419L344.407 289.547C343.6 285.242 342.677 271.474 348.225 270.135C356.836 268.055 352.148 289.101 358.251 292.703C362.978 295.493 459.808 310.961 459.808 310.961L455.134 293.242L504.191 272.599C504.191 272.599 508.132 280.635 511.712 291.934C516.11 305.753 519.987 324.461 515.515 339.311Z" stroke="#252525" stroke-width="1.5" stroke-miterlimit="10" stroke-linecap="round" stroke-linejoin="round"/>
<path d="M327.003 295.985L334.418 297.256" stroke="#252525" stroke-width="1.5" stroke-miterlimit="10" stroke-linecap="round" stroke-linejoin="round"/>
<path d="M323.033 305.143L334.052 306.396" stroke="#252525" stroke-width="1.5" stroke-miterlimit="10" stroke-linecap="round" stroke-linejoin="round"/>
<path d="M324.035 314.947L333.335 316.037" stroke="#252525" stroke-width="1.5" stroke-miterlimit="10" stroke-linecap="round" stroke-linejoin="round"/>
<path d="M255.906 303.467L264.942 307.998" stroke="#252525" stroke-width="1.5" stroke-miterlimit="10" stroke-linecap="round" stroke-linejoin="round"/>
<path d="M407.337 207.216C407.337 207.216 396.087 230.282 373.014 230.473C349.941 230.665 339.849 210.394 339.849 210.394C343.631 208.385 346.021 203.974 347.508 198.914C350.302 189.507 350.015 177.878 349.909 175.295C349.888 175.008 349.888 174.827 349.888 174.774C349.888 174.764 349.888 174.764 349.888 174.764C331.903 170.597 340.986 123.603 340.986 123.603C340.986 123.603 355.189 115.833 371.856 119.054C388.524 122.285 383.212 146.159 383.212 146.159H386.814C387.196 142.173 393.793 131.788 398.584 140.483C403.715 149.826 388.524 159.032 388.524 159.032C388.524 159.042 388.524 159.042 388.524 159.053C388.715 207.747 407.337 207.216 407.337 207.216Z" fill="#EDA5A5"/>
<path d="M413.467 130.438C411.47 141.28 406.828 151.623 400.071 160.329C397.235 163.974 393.326 167.642 388.747 167.291C388.609 164.708 388.535 161.955 388.524 159.032C388.524 159.032 403.715 149.826 398.584 140.483C393.793 131.788 387.196 142.173 386.814 146.159H383.213C383.213 146.159 388.524 122.285 371.857 119.054C355.189 115.833 340.986 123.603 340.986 123.603C340.986 123.603 340.986 123.603 340.986 123.614C336.726 124.156 332.296 121.265 329.556 117.959C326.804 114.653 325.519 110.316 325.275 106.022C325.062 102.259 325.837 98.4534 326.656 94.7436C326.751 94.3076 327.335 94.2438 327.537 94.6373C328.823 97.1566 331.765 98.7615 334.665 98.9104C338.096 99.0804 341.4 97.6031 344.311 95.7639C347.211 93.9249 349.888 91.714 352.937 90.1302C360.809 86.0377 372.08 86.3353 378.995 92.2668C381.821 94.6903 383.648 98.3361 384.009 102.046C387.77 96.9756 395.238 95.498 401.102 97.8153C406.966 100.143 411.183 105.66 413.042 111.698C414.89 117.725 414.614 124.23 413.467 130.438Z" fill="#2E3E56"/>
<path d="M347.504 198.919C350.304 189.502 350.015 177.871 349.916 175.296C352.752 175.377 355.588 175.323 358.405 174.952C362.226 174.446 365.324 172.901 368.864 171.681C361.764 174.228 348.318 193.486 347.504 198.919Z" fill="#CB8383"/>
<path d="M388.741 167.291C393.413 167.775 397.191 164.042 400.073 160.331C406.832 151.625 411.468 141.282 413.47 130.441C414.616 124.234 414.892 117.727 413.038 111.693C411.185 105.659 406.964 100.143 401.099 97.8182C395.234 95.4935 387.771 96.9726 384.014 102.044C383.647 98.3403 381.818 94.687 378.994 92.2647C372.08 86.3351 360.809 86.0395 352.933 90.1266C349.883 91.7094 347.215 93.9299 344.309 95.7644C341.403 97.599 338.096 99.0805 334.665 98.9103C331.77 98.7667 328.821 97.1582 327.536 94.6411C327.331 94.2403 326.749 94.3032 326.653 94.7428C325.841 98.45 325.066 102.264 325.276 106.018C325.516 110.312 326.804 114.651 329.552 117.958C332.3 121.265 336.722 124.157 340.985 123.611" stroke="#252525" stroke-width="1.5" stroke-miterlimit="10" stroke-linecap="round" stroke-linejoin="round"/>
<path d="M390.705 145.676C390.796 144.587 391.593 143.59 392.635 143.261C393.678 142.933 394.901 143.294 395.6 144.134" stroke="#252525" stroke-width="1.5" stroke-miterlimit="10" stroke-linecap="round" stroke-linejoin="round"/>
<path d="M388.513 159.042L388.524 159.053C388.715 207.747 407.337 207.216 407.337 207.216C407.337 207.216 396.088 230.282 373.015 230.474C349.941 230.665 339.849 210.394 339.849 210.394C343.631 208.385 346.021 203.974 347.509 198.914C350.303 189.507 350.016 177.878 349.909 175.295C349.888 175.008 349.888 174.827 349.888 174.774" stroke="#252525" stroke-width="1.5" stroke-miterlimit="10" stroke-linecap="round" stroke-linejoin="round"/>
<path d="M373.099 168.545C366.821 174.232 358.163 176.602 349.888 174.774C349.888 174.764 349.888 174.764 349.888 174.764C331.903 170.597 340.986 123.603 340.986 123.603C340.986 123.603 355.189 115.833 371.857 119.054C388.524 122.285 383.213 146.159 383.213 146.159H386.814C387.196 142.173 393.793 131.788 398.584 140.483C403.715 149.826 388.524 159.032 388.524 159.032C388.524 159.042 388.524 159.042 388.524 159.053L388.513 159.042" stroke="#252525" stroke-width="1.5" stroke-miterlimit="10" stroke-linecap="round" stroke-linejoin="round"/>
<path d="M357.198 142.011C357.308 143.126 357.229 144.256 356.978 145.347C356.634 146.842 355.968 148.263 355.02 149.469C354.452 150.192 353.756 150.909 353.668 151.825C353.575 152.794 354.25 153.731 355.135 154.135C356.021 154.538 357.062 154.477 357.987 154.174C358.912 153.87 359.744 153.344 360.566 152.824" stroke="#252525" stroke-width="1.5" stroke-miterlimit="10" stroke-linecap="round" stroke-linejoin="round"/>
<path d="M347.739 138.617C347.739 140.132 346.508 141.357 344.994 141.357C343.48 141.357 342.256 140.132 342.256 138.617C342.256 137.102 343.48 135.877 344.994 135.877C346.508 135.877 347.739 137.102 347.739 138.617ZM367.73 138.617C367.73 140.132 366.499 141.357 364.985 141.357C363.471 141.357 362.247 140.132 362.247 138.617C362.247 137.102 363.471 135.877 364.985 135.877C366.499 135.877 367.73 137.102 367.73 138.617ZM367.641 159.633C366.26 162.29 363.348 164.071 360.356 164.088C357.373 164.106 354.028 162.069 352.656 159.394C352.974 159.438 353.293 159.465 353.612 159.483C355.045 160.413 356.727 160.979 358.303 160.971C361.286 160.953 364.189 159.173 365.578 156.516C366.278 155.187 366.596 153.593 366.526 152.008C366.756 151.556 366.968 151.086 367.136 150.599C368.933 153.097 369.057 156.914 367.641 159.633Z" fill="#252525"/>
<path d="M365.58 156.517C364.188 159.171 361.282 160.955 358.3 160.974C356.728 160.978 355.047 160.409 353.615 159.484C356.339 159.637 359.106 158.945 361.437 157.54C363.605 156.223 365.391 154.276 366.529 152.009C366.597 153.59 366.276 155.185 365.58 156.517Z" fill="white"/>
<path d="M375.314 128.577C374.969 128.781 374.071 128.07 372.705 127.558C371.348 127.008 369.557 126.806 368.061 127.109C366.569 127.39 365.722 127.789 365.155 127.859C364.595 127.953 364.308 127.765 364.138 127.407C363.973 127.059 363.935 126.597 364.45 125.973C364.958 125.378 366.075 124.54 368.15 124.275C369.174 124.149 370.329 124.247 371.36 124.577C372.395 124.896 373.3 125.435 373.964 126.014C375.315 127.194 375.639 128.413 375.314 128.577ZM344.905 128.717C344.656 128.443 345.126 127.574 346.144 126.936C347.144 126.282 348.625 126.01 349.736 126.22C350.855 126.422 351.372 126.877 351.56 127.24C351.749 127.615 351.635 127.935 351.459 128.274C351.281 128.614 351.072 128.888 350.79 129.018C350.501 129.145 350.163 129.109 349.482 128.951C348.807 128.797 347.822 128.654 346.903 128.732C345.982 128.768 345.156 129.014 344.905 128.717Z" fill="#252525"/>
<path d="M354.993 138.841C354.993 137.67 355.94 136.722 357.108 136.722C358.278 136.722 359.226 137.67 359.226 138.841M354.993 138.844C354.993 143.268 351.405 146.858 346.975 146.858C342.554 146.858 338.966 143.268 338.966 138.844C338.966 134.411 342.554 130.821 346.975 130.821C351.405 130.822 354.993 134.411 354.993 138.844Z" stroke="#252525" stroke-width="1.5" stroke-miterlimit="10" stroke-linecap="round" stroke-linejoin="round"/>
<path d="M375.177 138.844C375.177 143.268 371.59 146.858 367.16 146.858C362.738 146.858 359.151 143.268 359.151 138.844C359.151 134.411 362.738 130.821 367.16 130.821C371.59 130.822 375.177 134.411 375.177 138.844Z" stroke="#252525" stroke-width="1.5" stroke-miterlimit="10" stroke-linecap="round" stroke-linejoin="round"/>
<path d="M375.054 137.109H394.177" stroke="#252525" stroke-width="1.5" stroke-miterlimit="10" stroke-linecap="round" stroke-linejoin="round"/>
<rect x="206" y="422.8" width="293" height="1.2" rx="0.6" fill="#252525"/>
</g>
<defs>
<clipPath id="clip0_244_22021">
<rect width="519" height="424" fill="white"/>
</clipPath>
</defs>
</svg>