<svg width="45" height="45" viewBox="0 0 45 45" fill="none" xmlns="http://www.w3.org/2000/svg">
<g clip-path="url(#clip0_68_1547)">
<path d="M42.4583 16.2383L34.3399 10.8068C33.1066 9.97739 31.6542 9.53427 30.168 9.53404L4.3232 9.53404C3.66008 9.535 3.0244 9.79884 2.5555 10.2677C2.08661 10.7366 1.82277 11.3723 1.82181 12.0354L1.82181 24.5335C1.82277 25.1967 2.08661 25.8323 2.55551 26.3012C3.0244 26.7701 3.66009 27.034 4.3232 27.0349L30.1856 27.0349C31.6593 27.0367 33.1003 26.6014 34.3266 25.7842L37.5749 23.632L42.4451 20.397C42.7879 20.1697 43.0694 19.8614 43.2646 19.4993C43.4597 19.1372 43.5625 18.7325 43.5638 18.3212C43.5651 17.9099 43.4649 17.5046 43.2721 17.1412C43.0792 16.7779 42.7997 16.4677 42.4583 16.2383ZM38.0168 19.902C37.66 20.1076 37.2452 20.1896 36.8369 20.1354C36.4287 20.0812 36.0497 19.8938 35.7588 19.6022C35.4679 19.3106 35.2814 18.9312 35.2282 18.5228C35.175 18.1144 35.258 17.6998 35.4644 17.3435C35.6709 16.9871 35.9892 16.7088 36.3699 16.5517C36.7506 16.3947 37.1726 16.3677 37.5702 16.475C37.9679 16.5822 38.319 16.8177 38.5692 17.1449C38.8193 17.472 38.9545 17.8726 38.9538 18.2845C38.9523 18.6124 38.865 18.9342 38.7007 19.218C38.5363 19.5017 38.3005 19.7376 38.0168 19.902Z" fill="#F7D43D"/>
<g style="mix-blend-mode:multiply">
<path d="M43.4052 17.4306C43.2208 17.922 42.8845 18.3418 42.4453 18.6292L37.5751 21.8642L34.3268 24.0164C33.1006 24.8336 31.6595 25.2689 30.1859 25.2671L4.32343 25.2671C3.66031 25.2662 3.02463 25.0023 2.55573 24.5334C2.08684 24.0645 1.82299 23.4288 1.82204 22.7657V12.0354V24.5335C1.82299 25.1966 2.08684 25.8323 2.55573 26.3012C3.02463 26.7701 3.66031 27.0339 4.32343 27.0349L30.1859 27.0349C31.6595 27.0366 33.1006 26.6014 34.3268 25.7842L37.5751 23.6319L42.4453 20.3969C42.9183 20.0849 43.271 19.6212 43.4455 19.0821C43.6199 18.543 43.6057 17.9606 43.4052 17.4306Z" fill="#F7D43D"/>
</g>
<path d="M4.21907 18.7265C4.13169 18.6391 4.0722 18.5278 4.0481 18.4066C4.024 18.2853 4.03639 18.1597 4.08369 18.0455C4.13099 17.9313 4.21108 17.8337 4.31384 17.765C4.4166 17.6964 4.53742 17.6597 4.66101 17.6597L5.28592 17.6597C5.44977 17.6625 5.60595 17.7296 5.72082 17.8465C5.83569 17.9634 5.90006 18.1207 5.90006 18.2846C5.90006 18.4485 5.83569 18.6058 5.72082 18.7227C5.60595 18.8396 5.44977 18.9067 5.28592 18.9095L4.66101 18.9095C4.49527 18.9095 4.3363 18.8437 4.21907 18.7265ZM8.41133 18.2846L10.2869 18.2846C10.3699 18.286 10.4523 18.2708 10.5294 18.24C10.6064 18.2092 10.6766 18.1634 10.7357 18.1051C10.7949 18.0469 10.8419 17.9775 10.8739 17.901C10.9059 17.8244 10.9224 17.7422 10.9223 17.6592C10.9223 17.5763 10.9057 17.4941 10.8735 17.4176C10.8414 17.3411 10.7943 17.2717 10.7351 17.2136C10.6759 17.1555 10.6057 17.1097 10.5286 17.079C10.4515 17.0483 10.369 17.0333 10.286 17.0348L8.41089 17.0352L8.41089 15.1596L10.9105 15.1596C11.0744 15.1568 11.2305 15.0897 11.3454 14.9728C11.4603 14.8559 11.5246 14.6986 11.5246 14.5347C11.5246 14.3708 11.4603 14.2135 11.3454 14.0966C11.2305 13.9798 11.0744 13.9127 10.9105 13.9098L7.78598 13.9098C7.62025 13.9098 7.46132 13.9757 7.34413 14.0929C7.22695 14.2101 7.1611 14.369 7.16108 14.5347L7.16063 17.6588L7.16063 22.0332C7.16348 22.197 7.23057 22.3532 7.34746 22.4681C7.46434 22.5829 7.62166 22.6473 7.78554 22.6473C7.94942 22.6473 8.10674 22.5829 8.22362 22.4681C8.34051 22.3532 8.4076 22.197 8.41045 22.0331L8.41133 18.2846ZM29.0367 21.41L26.5358 21.4096L26.5362 18.9095L28.4114 18.9099C28.5773 18.9099 28.7363 18.8441 28.8536 18.7268C28.9709 18.6095 29.0367 18.4505 29.0367 18.2846C29.0367 18.1187 28.9709 17.9597 28.8536 17.8424C28.7363 17.7251 28.5773 17.6593 28.4114 17.6593L26.5367 17.6593L26.5362 15.1592L29.0367 15.1592C29.2006 15.1563 29.3568 15.0893 29.4717 14.9724C29.5865 14.8555 29.6509 14.6982 29.6509 14.5343C29.6509 14.3704 29.5865 14.2131 29.4717 14.0962C29.3568 13.9793 29.2006 13.9122 29.0367 13.9094L25.9113 13.9094C25.7456 13.9094 25.5867 13.9752 25.4695 14.0924C25.3523 14.2096 25.2865 14.3686 25.2864 14.5343L25.2864 22.0349C25.2865 22.2006 25.3523 22.3596 25.4695 22.4768C25.5867 22.594 25.7456 22.6598 25.9113 22.6598H29.0367C29.2006 22.657 29.3568 22.5899 29.4717 22.473C29.5865 22.3561 29.6509 22.1988 29.6509 22.0349C29.6509 21.871 29.5865 21.7137 29.4717 21.5968C29.3568 21.4799 29.2006 21.4129 29.0367 21.41ZM23.4113 21.4096L20.9108 21.4096L20.9112 18.9095L22.7864 18.9091C22.8693 18.9105 22.9518 18.8954 23.0289 18.8647C23.1059 18.8339 23.1761 18.7881 23.2353 18.7299C23.2945 18.6718 23.3415 18.6024 23.3736 18.5258C23.4057 18.4493 23.4222 18.3671 23.4222 18.2842C23.4222 18.2012 23.4057 18.119 23.3736 18.0425C23.3415 17.9659 23.2945 17.8966 23.2353 17.8384C23.1761 17.7802 23.1059 17.7344 23.0289 17.7037C22.9518 17.6729 22.8693 17.6578 22.7864 17.6593L20.9112 17.6597L20.9117 15.1596L23.4113 15.1596C23.5751 15.1568 23.7313 15.0897 23.8462 14.9728C23.961 14.8559 24.0254 14.6986 24.0254 14.5347C24.0254 14.3708 23.961 14.2135 23.8462 14.0966C23.7313 13.9798 23.5751 13.9127 23.4113 13.9098L20.2867 13.9098C20.121 13.9098 19.9621 13.9757 19.8449 14.0929C19.7277 14.2101 19.6619 14.369 19.6618 14.5347L19.661 22.0345C19.661 22.2002 19.7268 22.3591 19.844 22.4763C19.9612 22.5935 20.1201 22.6594 20.2859 22.6594L23.4113 22.6594C23.5751 22.6565 23.7313 22.5894 23.8462 22.4726C23.961 22.3557 24.0254 22.1984 24.0254 22.0345C24.0254 21.8706 23.961 21.7133 23.8462 21.5964C23.7313 21.4795 23.5751 21.4124 23.4113 21.4096ZM31.0944 18.7265C31.2117 18.8437 31.3706 18.9095 31.5364 18.9095H32.1613C32.2443 18.9109 32.3267 18.8959 32.4038 18.8651C32.4808 18.8343 32.551 18.7885 32.6102 18.7304C32.6694 18.6722 32.7164 18.6028 32.7485 18.5263C32.7806 18.4497 32.7971 18.3676 32.7971 18.2846C32.7971 18.2016 32.7806 18.1195 32.7485 18.0429C32.7164 17.9664 32.6694 17.897 32.6102 17.8388C32.551 17.7807 32.4809 17.7349 32.4038 17.7041C32.3267 17.6734 32.2443 17.6583 32.1613 17.6597H31.5364C31.4128 17.6597 31.292 17.6964 31.1892 17.765C31.0864 17.8337 31.0063 17.9313 30.959 18.0455C30.9117 18.1597 30.8994 18.2853 30.9235 18.4066C30.9476 18.5278 31.0071 18.6391 31.0944 18.7265Z" fill="#0A0A0A"/>
<path d="M38.0865 24.0416L42.791 20.9202C43.2202 20.6359 43.5724 20.2501 43.8166 19.7969C44.0607 19.3437 44.1891 18.8373 44.1903 18.3225C44.1916 17.8078 44.0657 17.3007 43.8238 16.8464C43.5819 16.392 43.2316 16.0044 42.8038 15.7181L34.6876 10.2844C33.3506 9.38635 31.7762 8.90749 30.1656 8.90906L4.32043 8.9095C3.49164 8.90951 2.6968 9.23875 2.11075 9.82479C1.52471 10.4108 1.19547 11.2057 1.19546 12.0345L1.1959 24.5348C1.19603 25.3634 1.52526 26.1581 2.1112 26.744C2.69713 27.33 3.49179 27.6592 4.32043 27.6593L18.6491 27.6593C15.2616 32.4531 14.3468 36.9176 16.4093 38.9801C19.1352 41.706 25.9296 39.1825 31.8773 33.2349C34.8096 30.3026 37.0573 26.9686 38.0865 24.0416ZM4.32043 26.4095C3.82684 26.398 3.35666 26.1968 3.00755 25.8477C2.65843 25.4986 2.45723 25.0284 2.44571 24.5348L2.44527 12.0345C2.44525 11.7882 2.49374 11.5444 2.58797 11.3169C2.6822 11.0893 2.82032 10.8826 2.99445 10.7085C3.16858 10.5344 3.3753 10.3962 3.60281 10.302C3.83033 10.2078 4.07418 10.1593 4.32043 10.1593L30.1656 10.1589C31.5284 10.1579 32.8606 10.5632 33.992 11.3229L42.1073 16.7584C42.212 16.8283 42.3096 16.9084 42.3986 16.9975C42.5933 17.1946 42.7419 17.4324 42.8337 17.6938C42.9255 17.9552 42.9583 18.2338 42.9296 18.5093C42.9009 18.7849 42.8115 19.0507 42.6678 19.2876C42.5241 19.5245 42.3296 19.7266 42.0985 19.8794L38.5784 22.215C38.7083 21.5471 38.7437 20.8643 38.6836 20.1865C38.7375 20.1415 38.7959 20.1034 38.8462 20.0531C39.3061 19.6145 39.593 19.0253 39.6548 18.3929C39.7167 17.7605 39.5493 17.127 39.1831 16.6076C38.8169 16.0883 38.2764 15.7178 37.66 15.5636C37.0436 15.4094 36.3922 15.4818 35.8247 15.7676C35.2572 16.0534 34.8112 16.5335 34.568 17.1205C34.3248 17.7076 34.3006 18.3624 34.4997 18.9658C34.6989 19.5692 35.1082 20.081 35.6531 20.4079C36.198 20.7348 36.8421 20.8551 37.4683 20.7469C37.4576 21.5938 37.313 22.4337 37.04 23.2355L33.9831 25.2644C32.8573 26.0139 31.5349 26.4137 30.1824 26.4135L4.32043 26.4095ZM36.7386 18.6508C36.9777 18.8964 37.1594 19.1919 37.2707 19.5161C37.2067 19.5265 37.142 19.5321 37.0772 19.5329C36.748 19.5254 36.4345 19.3913 36.2017 19.1585C35.969 18.9257 35.8349 18.6122 35.8273 18.2831C35.8245 18.1171 35.8547 17.9523 35.9162 17.7981C35.9777 17.6439 36.0693 17.5036 36.1856 17.3852C36.302 17.2668 36.4407 17.1728 36.5938 17.1086C36.7469 17.0444 36.9112 17.0114 37.0772 17.0114C37.2431 17.0114 37.4075 17.0444 37.5605 17.1086C37.7136 17.1728 37.8523 17.2668 37.9687 17.3852C38.085 17.5036 38.1766 17.6439 38.2381 17.7981C38.2997 17.9523 38.3298 18.1171 38.327 18.2831C38.3254 18.4179 38.3021 18.5516 38.258 18.6791C38.0966 18.3419 37.8813 18.0332 37.6207 17.7651C37.5035 17.6479 37.3446 17.5821 37.1788 17.5821C37.013 17.5821 36.8541 17.6479 36.7369 17.7651C36.6196 17.8823 36.5538 18.0413 36.5538 18.2071C36.5538 18.3728 36.6196 18.5318 36.7369 18.649L36.7386 18.6508ZM17.2932 38.0962C15.6368 36.4398 16.8649 32.0783 20.2025 27.6589L30.1837 27.6593C31.7819 27.6608 33.3448 27.1893 34.6756 26.3043L36.2012 25.2923C34.8555 27.9095 33.097 30.2929 30.9934 32.351C25.7237 37.6207 19.4494 40.2525 17.2932 38.0962Z" fill="#0A0A0A"/>
<path d="M17.7004 21.7206L15.6975 18.2761C16.2599 18.2545 16.792 18.0154 17.1817 17.6092C17.5714 17.2031 17.7882 16.6615 17.7865 16.0987C17.7733 15.5228 17.5386 14.9741 17.1312 14.5668C16.7239 14.1595 16.1753 13.9248 15.5994 13.9115L13.4118 13.9115C13.246 13.9115 13.0871 13.9774 12.9699 14.0945C12.8527 14.2117 12.7869 14.3707 12.7869 14.5364L12.7869 17.645L12.7873 17.6614L12.7869 17.6777L12.7873 22.0366C12.7901 22.2004 12.8572 22.3566 12.9741 22.4715C13.091 22.5864 13.2483 22.6507 13.4122 22.6507C13.5761 22.6507 13.7334 22.5864 13.8503 22.4715C13.9672 22.3566 14.0343 22.2004 14.0371 22.0366L14.0371 18.2863L14.2572 18.2863L16.6216 22.3504C16.662 22.4229 16.7164 22.4867 16.7818 22.538C16.8471 22.5893 16.922 22.627 17.0021 22.649C17.0821 22.671 17.1658 22.6768 17.2482 22.6661C17.3305 22.6554 17.4099 22.6284 17.4817 22.5867C17.5535 22.545 17.6163 22.4894 17.6663 22.4231C17.7164 22.3568 17.7528 22.2813 17.7733 22.2008C17.7938 22.1203 17.7981 22.0366 17.7859 21.9544C17.7736 21.8723 17.7452 21.7934 17.7021 21.7224L17.7004 21.7206ZM14.0353 15.16L15.5976 15.1595C15.8444 15.1651 16.0796 15.2657 16.2542 15.4403C16.4288 15.6149 16.5294 15.85 16.535 16.0969C16.5349 16.3455 16.4362 16.5839 16.2604 16.7597C16.0846 16.9354 15.8462 17.0342 15.5976 17.0342L14.0353 17.0347L14.0353 15.16Z" fill="#0A0A0A"/>
</g>
<defs>
<clipPath id="clip0_68_1547">
<rect width="45" height="45" fill="white"/>
</clipPath>
</defs>
</svg>
