<svg width="24" height="24" viewBox="0 0 24 24" fill="none" xmlns="http://www.w3.org/2000/svg">
    <g clip-path="url(#clip0_5_26)">
        <path d="M12.0038 0C6.99385 0 5.52865 0.0051696 5.24401 0.0288024C4.2159 0.114286 3.57613 0.276218 2.87917 0.623306C2.34205 0.890114 1.91845 1.19935 1.50037 1.63289C0.738971 2.42347 0.277523 3.396 0.110483 4.55225C0.0292669 5.11337 0.00565089 5.22785 0.000850891 8.09489C-0.000994949 9.05055 0.000850891 10.3082 0.000850891 11.9951C0.000850891 17.0023 0.0063884 18.4665 0.0303829 18.7509C0.113444 19.7516 0.270337 20.3812 0.602591 21.0699C1.23756 22.3881 2.45025 23.3778 3.87883 23.7471C4.37352 23.8745 4.91986 23.9446 5.62128 23.9779C5.91845 23.9908 8.94744 24 11.9782 24C15.0089 24 18.0398 23.9963 18.3295 23.9816C19.1417 23.9433 19.6133 23.88 20.1347 23.7452C20.8431 23.5635 21.5033 23.2293 22.0692 22.7659C22.635 22.3025 23.093 21.7212 23.411 21.0625C23.7367 20.3905 23.902 19.7369 23.9767 18.7884C23.9929 18.5816 23.9998 15.2846 23.9998 11.9921C23.9998 8.69905 23.9924 5.40816 23.9761 5.20128C23.9017 4.23769 23.7357 3.58968 23.3994 2.90472C23.1234 2.34389 22.8172 1.92514 22.3722 1.497C21.5783 0.738533 20.6075 0.276941 19.4505 0.110045C18.8901 0.028992 18.7782 0.00498961 15.91 4.80652e-06L12.0038 0Z" fill="url(#paint0_radial_5_26)"/>
        <path d="M12.0038 0C6.99385 0 5.52865 0.0051696 5.24401 0.0288024C4.2159 0.114286 3.57613 0.276218 2.87917 0.623306C2.34205 0.890114 1.91845 1.19935 1.50037 1.63289C0.738971 2.42347 0.277523 3.396 0.110483 4.55225C0.0292669 5.11337 0.00565089 5.22785 0.000850891 8.09489C-0.000994949 9.05055 0.000850891 10.3082 0.000850891 11.9951C0.000850891 17.0023 0.0063884 18.4665 0.0303829 18.7509C0.113444 19.7516 0.270337 20.3812 0.602591 21.0699C1.23756 22.3881 2.45025 23.3778 3.87883 23.7471C4.37352 23.8745 4.91986 23.9446 5.62128 23.9779C5.91845 23.9908 8.94744 24 11.9782 24C15.0089 24 18.0398 23.9963 18.3295 23.9816C19.1417 23.9433 19.6133 23.88 20.1347 23.7452C20.8431 23.5635 21.5033 23.2293 22.0692 22.7659C22.635 22.3025 23.093 21.7212 23.411 21.0625C23.7367 20.3905 23.902 19.7369 23.9767 18.7884C23.9929 18.5816 23.9998 15.2846 23.9998 11.9921C23.9998 8.69905 23.9924 5.40816 23.9761 5.20128C23.9017 4.23769 23.7357 3.58968 23.3994 2.90472C23.1234 2.34389 22.8172 1.92514 22.3722 1.497C21.5783 0.738533 20.6075 0.276941 19.4505 0.110045C18.8901 0.028992 18.7782 0.00498961 15.91 4.80652e-06L12.0038 0Z" fill="url(#paint1_radial_5_26)"/>
        <path d="M12 15.4644C13.9504 15.4644 15.5316 13.8833 15.5316 11.9328C15.5316 9.9824 13.9504 8.40125 12 8.40125C10.0495 8.40125 8.46838 9.9824 8.46838 11.9328C8.46838 13.8833 10.0495 15.4644 12 15.4644Z" stroke="white" stroke-width="1.70598"/>
        <path d="M15.4032 4.48047H8.59676C6.30463 4.48047 4.4465 6.3386 4.4465 8.63072V15.3689C4.4465 17.661 6.30463 19.5191 8.59676 19.5191H15.4032C17.6953 19.5191 19.5534 17.661 19.5534 15.3689V8.63072C19.5534 6.3386 17.6953 4.48047 15.4032 4.48047Z" stroke="white" stroke-width="1.72852"/>
        <path d="M16.4943 8.59796C17.0484 8.59796 17.4976 8.14874 17.4976 7.5946C17.4976 7.04047 17.0484 6.59125 16.4943 6.59125C15.9401 6.59125 15.4909 7.04047 15.4909 7.5946C15.4909 8.14874 15.9401 8.59796 16.4943 8.59796Z" fill="white"/>
    </g>
    <defs>
        <radialGradient id="paint0_radial_5_26" cx="0" cy="0" r="1" gradientUnits="userSpaceOnUse" gradientTransform="translate(6.37403 25.8487) rotate(-90) scale(23.7853 22.1224)">
            <stop stop-color="#FFDD55"/>
            <stop offset="0.1" stop-color="#FFDD55"/>
            <stop offset="0.5" stop-color="#FF543E"/>
            <stop offset="1" stop-color="#C837AB"/>
        </radialGradient>
        <radialGradient id="paint1_radial_5_26" cx="0" cy="0" r="1" gradientUnits="userSpaceOnUse" gradientTransform="translate(-4.02172 1.72657) rotate(78.681) scale(10.6323 43.8267)">
            <stop stop-color="#3771C8"/>
            <stop offset="0.128" stop-color="#3771C8"/>
            <stop offset="1" stop-color="#6600FF" stop-opacity="0"/>
        </radialGradient>
        <clipPath id="clip0_5_26">
            <rect width="24" height="24" rx="12" fill="white"/>
        </clipPath>
    </defs>
</svg>
