<svg width="340" height="135" viewBox="0 0 340 135" fill="none" xmlns="http://www.w3.org/2000/svg">
<g clip-path="url(#clip0_816_15561)">
<path d="M41.4841 14.6973H46.1408L48.6373 0.320801H43.9806L43.0599 5.46926H39.023L39.9437 0.320801H35.2871L32.7905 14.6973H37.4472L38.3856 9.31724H42.4225L41.4841 14.6973Z" fill="white"/>
<path d="M51.2755 0.302967L49.8591 8.30178C49.7351 8.9253 49.682 9.531 49.682 10.1011C49.682 14.341 53.3648 14.9823 55.5781 14.9823C60.217 14.9823 62.2178 13.4324 62.9437 9.24596L64.5018 0.285156H59.8452L58.5172 7.80297C58.0923 10.1545 57.7913 11.3837 56.0561 11.3837C54.9229 11.3837 54.3741 10.778 54.3741 9.531C54.3741 9.05 54.4449 8.46211 54.5865 7.73171L55.9322 0.285156H51.2755V0.302967Z" fill="white"/>
<path d="M89.1129 14.697H93.7696L94.4247 10.9916H96.6202C100.675 10.9916 102.923 8.78254 102.923 4.75642C102.923 1.92387 100.976 0.302734 97.5586 0.302734H91.6094L89.1129 14.697V14.697ZM96.3723 7.44644H95.0267L95.6464 4.06164H96.9035C97.9304 4.06164 98.4793 4.57827 98.4793 5.52245C98.4793 6.71604 97.6826 7.44644 96.3723 7.44644Z" fill="white"/>
<path d="M111.971 0C106.907 0 103.88 3.29573 103.88 8.83611C103.88 12.6841 106.288 15 110.325 15C115.388 15 118.416 11.7043 118.416 6.1639C118.434 2.2981 116.026 0 111.971 0V0ZM110.608 11.2767C109.404 11.2767 108.696 10.4038 108.696 8.94299C108.696 8.39073 108.749 7.90974 108.855 7.35748C109.209 5.46912 109.811 3.74109 111.706 3.74109C112.91 3.74109 113.618 4.61402 113.618 6.07482C113.618 6.62708 113.565 7.10808 113.459 7.66033C113.104 9.53088 112.502 11.2767 110.608 11.2767V11.2767Z" fill="white"/>
<path d="M134.617 14.6973H139.274L141.115 4.16878H144.621L145.294 0.320801H133.378L132.705 4.16878H136.423L134.617 14.6973V14.6973Z" fill="white"/>
<path d="M126.898 5.62945C125.428 5.16627 124.826 4.97031 124.826 4.27553C124.826 3.81235 125.127 3.26009 126.012 3.26009C126.667 3.26009 127.216 3.6342 127.429 4.18646L131.536 3.06413C131.058 1.03325 129.323 0 126.331 0C120.7 0 120.258 3.79453 120.258 4.95249C120.258 7.30403 121.497 8.74703 124.189 9.49525C124.897 9.69121 125.711 9.90498 125.711 10.6888C125.711 11.3123 125.251 11.7043 124.454 11.7043C123.728 11.7043 122.949 11.2767 122.684 10.5285L118.629 11.633C119.072 13.7708 121.072 14.9822 124.206 14.9822C126.597 14.9822 130.598 14.3409 130.598 9.99406C130.616 7.82067 129.394 6.39549 126.898 5.62945V5.62945Z" fill="white"/>
<path d="M30.1878 14.6973L32.7021 0.320801H25V14.6973H30.1878V14.6973Z" fill="#7F8399"/>
<path d="M147.294 0.320801L144.798 14.6973H152.5V0.320801H147.294V0.320801Z" fill="#7F8399"/>
<path d="M70.0614 10.4571H73.9744L74.6118 6.84074H70.6988L71.1415 4.16853H76.6126L77.2854 0.302734H67.1577L64.6611 14.697H69.3178L70.0614 10.4571Z" fill="white"/>
<path d="M82.2608 10.4571H86.1915L86.8289 6.84074H82.9159L83.3585 4.16853H88.8296L89.5025 0.302734H79.3747L76.8782 14.697H81.5348L82.2608 10.4571Z" fill="white"/>
</g>
<g clip-path="url(#clip1_816_15561)">
<path d="M210.886 13.3258C210.886 13.5898 210.886 13.6498 211.064 13.8118L212.061 14.7957V14.8377H207.64V12.9478C207.195 14.1934 206.018 15.0171 204.709 14.9997C202.436 14.9997 200.786 13.1998 200.786 9.88782C200.786 6.78588 202.567 4.71592 205.065 4.71592C206.172 4.64543 207.202 5.29032 207.634 6.32389V2.15396C207.667 1.96086 207.589 1.76561 207.432 1.64997L206.483 0.725987V0.683988L210.886 0.161997V13.3258ZM207.64 12.7258V6.50388C207.32 6.10151 206.833 5.87124 206.323 5.87989C205.249 5.87989 204.21 6.86388 204.21 9.78582C204.21 12.5218 205.106 13.4878 206.222 13.4878C206.787 13.4761 207.314 13.1932 207.64 12.7258ZM213.817 14.8377V6.43788C213.845 6.2503 213.778 6.06092 213.639 5.93389L212.66 4.91391V4.87191H217.081V13.3918C217.081 13.6558 217.081 13.7158 217.259 13.8777L218.232 14.8017V14.8437L213.817 14.8377ZM213.657 1.79997C213.657 0.805873 214.454 0 215.437 0C216.42 0 217.217 0.805873 217.217 1.79997C217.217 2.79406 216.42 3.59994 215.437 3.59994C214.454 3.59994 213.657 2.79406 213.657 1.79997ZM229.007 13.3078C229.007 13.5718 229.007 13.6498 229.186 13.8118L230.182 14.7957V14.8377H225.738V12.6838C225.333 14.0457 224.1 14.9838 222.694 14.9997C220.724 14.9997 219.668 13.5478 219.668 10.7998C219.668 9.47383 219.668 8.02186 219.709 6.38989C219.742 6.2072 219.674 6.02106 219.531 5.90389L218.552 4.91391V4.87191H222.937C222.937 4.93191 222.937 10.0858 222.937 10.3498C222.937 12.1498 223.198 13.3498 224.314 13.3498C224.913 13.3119 225.453 12.9713 225.75 12.4438V6.44388C225.778 6.2563 225.711 6.06691 225.572 5.93989L224.587 4.91391V4.87191H229.007V13.3078ZM244.056 14.8377C244.056 14.5137 244.115 10.3858 244.115 9.43783C244.115 7.63786 243.836 6.39588 242.584 6.39588C241.954 6.41553 241.371 6.7361 241.012 7.25987C241.137 7.82081 241.197 8.39476 241.19 8.96984C241.19 10.2178 241.148 11.8078 241.13 13.3978C241.098 13.5804 241.166 13.7666 241.308 13.8837L242.305 14.8077V14.8497H237.843C237.843 14.5497 237.902 10.3978 237.902 9.44983C237.902 7.61986 237.623 6.40789 236.389 6.40789C235.781 6.42996 235.226 6.7649 234.918 7.29587V13.4158C234.918 13.6798 234.918 13.7398 235.096 13.9018L236.069 14.8257V14.8677H231.654V6.46788C231.682 6.2803 231.615 6.09091 231.476 5.96389L230.497 4.91391V4.87191H234.918V7.00787C235.327 5.59764 236.634 4.65028 238.086 4.70992C239.558 4.70992 240.555 5.5379 240.976 7.10987C241.444 5.66008 242.791 4.68726 244.299 4.70992C246.269 4.70992 247.384 6.17989 247.384 8.95784C247.384 10.2838 247.343 11.7958 247.325 13.3858C247.291 13.5739 247.37 13.7649 247.527 13.8718L248.5 14.7957V14.8377H244.056ZM188.521 13.5298L189.833 14.7957V14.8377H183.181V14.7957L184.516 13.5298C184.658 13.4126 184.726 13.2264 184.694 13.0438V4.94991C184.694 4.60792 184.694 4.14593 184.753 3.74993L180.267 14.9997H180.214L175.568 4.64992C175.467 4.39192 175.437 4.37392 175.372 4.19992V10.9858C175.316 11.44 175.393 11.9007 175.592 12.3118L177.461 14.7957V14.8377H172.5V14.7957L174.369 12.3058C174.567 11.8964 174.643 11.438 174.589 10.9858V3.48594C174.619 3.11666 174.509 2.74961 174.28 2.45996L172.957 0.725987V0.683988H177.704L181.68 9.44983L185.181 0.683988H189.827V0.725987L188.521 2.19596C188.365 2.3116 188.287 2.50685 188.319 2.69995V13.0438C188.285 13.2319 188.364 13.4229 188.521 13.5298ZM193.725 9.47383V9.51583C193.725 12.0838 195.037 13.1158 196.573 13.1158C197.857 13.1601 199.044 12.4325 199.6 11.2618H199.641C199.107 13.7998 197.552 14.9997 195.226 14.9997C192.716 14.9997 190.349 13.4698 190.349 9.92382C190.349 6.19789 192.722 4.70992 195.345 4.70992C197.458 4.70992 199.706 5.7179 199.706 8.95784C199.706 9.01784 199.706 9.23383 199.706 9.47383H193.725ZM193.725 8.95784H196.651C196.651 8.69384 196.651 8.51385 196.651 8.43585C196.651 5.7959 196.111 5.09391 195.298 5.09391C194.313 5.09391 193.713 6.14389 193.713 8.95784H193.725Z" fill="white"/>
</g>
<g clip-path="url(#clip2_816_15561)">
<path d="M272.025 7.50465C272.025 10.256 275.249 12.4944 279.212 12.4944H285.925C286.347 12.4944 286.674 12.2162 286.674 11.9766V2.83278C286.674 2.25515 287.351 1.78506 288.183 1.78506C288.716 1.78506 289.213 1.98149 289.48 2.29792C289.513 2.33775 291.546 4.77056 293.697 7.34644C295.753 9.80781 297.879 12.353 297.913 12.3929C298.02 12.5203 298.231 12.6025 298.449 12.6025C298.795 12.6025 299.076 12.4073 299.076 12.1671V2.83278C299.076 2.25515 299.753 1.78506 300.585 1.78506C301.118 1.78506 301.616 1.98149 301.882 2.29792C301.916 2.33775 303.946 4.77056 306.097 7.34657C308.151 9.80741 310.275 12.3519 310.309 12.3929C310.416 12.5203 310.627 12.6025 310.845 12.6025C311.191 12.6025 311.472 12.4073 311.472 12.1671V0.0652986H308.826V7.26894C308.826 7.26894 304.031 1.53968 303.876 1.35545C303.176 0.524803 301.849 0 300.437 0C298.224 0 296.43 1.24631 296.43 2.78237V7.26894C296.43 7.26894 291.635 1.53968 291.48 1.35545C290.78 0.524803 289.453 0 288.04 0C285.828 0 284.034 1.24631 284.034 2.78237V10.1547C284.035 10.423 283.744 10.6568 283.321 10.6574H279.241C276.733 10.6574 274.7 9.24587 274.7 7.50465C274.7 5.76345 276.733 4.35195 279.241 4.35195H282.659V2.51487H279.212C275.249 2.51487 272.025 4.75326 272.025 7.50465Z" fill="white"/>
<path d="M312.354 0.0654297V12.1674C312.354 12.7452 311.677 13.2151 310.845 13.2151C310.312 13.2151 309.814 13.0187 309.548 12.7024C309.514 12.6626 307.483 10.2296 305.333 7.65376C303.279 5.19305 301.155 2.64828 301.121 2.60739C301.014 2.48001 300.803 2.39768 300.585 2.39768C300.239 2.39768 299.958 2.59291 299.958 2.83292V12.1674C299.958 12.7452 299.281 13.2151 298.449 13.2151C297.915 13.2151 297.419 13.0187 297.152 12.7024C297.118 12.6626 295.086 10.2298 292.934 7.65376C290.878 5.19252 288.752 2.64734 288.719 2.60739C288.611 2.48001 288.401 2.39768 288.183 2.39768C287.837 2.39768 287.556 2.59291 287.556 2.83292V11.9769C287.556 12.5789 286.794 13.1071 285.925 13.1071H279.212C274.763 13.1071 271.143 10.5941 271.143 7.50479C271.143 4.41577 274.763 1.90265 279.212 1.90265H282.659V0.0654297H279.216C273.298 0.0654297 268.5 3.39607 268.5 7.50479C268.5 11.6136 273.298 14.9444 279.216 14.9444H285.993C288.56 14.9454 290.211 13.901 290.208 11.9746V7.73126C290.208 7.73126 295.036 13.5013 295.158 13.6449C295.857 14.4754 297.185 15.0002 298.597 15.0002C300.81 15.0002 302.604 13.7539 302.604 12.218V7.73126C302.604 7.73126 307.398 13.4606 307.553 13.6449C308.254 14.4754 309.581 15.0002 310.993 15.0002C313.206 15.0002 315 13.7539 315 12.218V0.0654297H312.354Z" fill="white"/>
<path d="M271.143 7.50478C271.143 10.5939 274.763 13.1071 279.212 13.1071H285.925C286.794 13.1071 287.556 12.5789 287.556 11.9767V2.83292C287.556 2.5929 287.837 2.39768 288.183 2.39768C288.401 2.39768 288.611 2.47987 288.719 2.60725C288.752 2.64734 290.878 5.19252 292.934 7.65376C295.086 10.2296 297.118 12.6624 297.152 12.7024C297.418 13.0187 297.915 13.215 298.449 13.215C299.281 13.215 299.958 12.745 299.958 12.1673V2.83292C299.958 2.5929 300.239 2.39768 300.585 2.39768C300.803 2.39768 301.013 2.47987 301.121 2.60725C301.155 2.64828 303.279 5.19292 305.333 7.65362C307.483 10.2295 309.514 12.6624 309.548 12.7024C309.814 13.0187 310.311 13.215 310.845 13.215C311.677 13.215 312.354 12.745 312.354 12.1673V0.0654297H311.472V12.1673C311.472 12.4074 311.191 12.6026 310.845 12.6026C310.627 12.6026 310.417 12.5204 310.309 12.3931C310.275 12.352 308.151 9.80754 306.097 7.3467C303.946 4.77069 301.916 2.33788 301.882 2.29805C301.615 1.98162 301.118 1.78519 300.585 1.78519C299.753 1.78519 299.076 2.25528 299.076 2.83292V12.1673C299.076 12.4074 298.795 12.6026 298.449 12.6026C298.231 12.6026 298.02 12.5204 297.913 12.3931C297.879 12.3531 295.753 9.80794 293.697 7.34657C291.546 4.77069 289.513 2.33788 289.48 2.29805C289.213 1.98162 288.716 1.78519 288.183 1.78519C287.351 1.78519 286.674 2.25528 286.674 2.83292V11.9767C286.674 12.2163 286.347 12.4946 285.925 12.4946H279.212C275.249 12.4946 272.025 10.2562 272.025 7.50479C272.025 4.75339 275.249 2.515 279.212 2.515H282.659V1.90251H279.212C274.763 1.90251 271.143 4.41564 271.143 7.50478Z" fill="#0A0A0A"/>
</g>
<path fill-rule="evenodd" clip-rule="evenodd" d="M63.8754 43.1215C63.7744 43.2524 63.4622 43.1604 63.3407 43.2138C63.3812 43.0148 63.694 43.1292 63.8754 43.1215Z" fill="white"/>
<path fill-rule="evenodd" clip-rule="evenodd" d="M49.4165 46.6509C51.0391 46.6019 52.5594 46.3683 54.0192 46.3741C53.3003 46.675 52.4898 46.9397 51.6714 47.2277C50.8719 47.5089 50.0238 47.8711 49.1841 47.8506C48.7441 47.8398 48.1181 47.6945 48.0683 47.2738C47.9995 46.6925 48.4813 46.2043 48.8121 45.7972C49.2253 45.2891 49.6033 44.9618 49.9744 44.6206C49.8406 45.2571 49.5729 45.9604 49.4165 46.6509Z" fill="white"/>
<path fill-rule="evenodd" clip-rule="evenodd" d="M65.4329 47.1123C65.0516 47.3497 64.492 47.4145 63.9451 47.4816C63.2146 47.5712 62.3294 47.5329 61.6669 47.4816C62.6618 47.1261 64.2218 47.1946 65.4329 47.1123Z" fill="white"/>
<path fill-rule="evenodd" clip-rule="evenodd" d="M51.9038 41.668C51.5057 43.0108 50.9772 44.424 50.5555 45.8207C51.2295 45.8057 52.0047 45.7033 52.7871 45.636C53.4721 45.5772 54.3897 45.6044 54.8562 45.2899C55.2498 45.0242 55.2581 44.4413 55.5536 44.0442C55.7308 44.6857 56.2697 45.5523 55.8792 46.1666C55.5919 46.6184 54.6441 46.9196 54.0193 47.1357C53.2776 47.3922 52.7228 47.6058 51.9737 47.8968C51.2756 48.1683 50.664 48.424 49.7886 48.5197C48.7431 48.6343 47.3151 48.4263 47.1851 47.4124C47.1388 47.0507 47.291 46.6808 47.4408 46.3742C47.8639 45.5083 48.5304 44.8297 49.1377 44.2058C49.5736 43.7581 50.0162 43.3298 50.4627 42.937C50.9495 42.5083 51.4389 42.0863 51.9038 41.668ZM49.9744 44.6207C49.6032 44.962 49.2253 45.2892 48.8121 45.7973C48.4812 46.2043 47.9995 46.6924 48.0682 47.2739C48.118 47.6946 48.7439 47.8399 49.184 47.8507C50.0238 47.8711 50.8719 47.5091 51.6713 47.2278C52.49 46.9398 53.3003 46.6751 54.0191 46.3742C52.5593 46.3686 51.039 46.6022 49.4165 46.6511C49.5728 45.9603 49.8405 45.2571 49.9744 44.6207Z" fill="white"/>
<path fill-rule="evenodd" clip-rule="evenodd" d="M28.8673 44.5054C29.1263 44.3582 29.251 44.0598 29.3787 43.8133C29.5108 43.5578 29.6727 43.2787 29.7506 42.9828C29.8723 42.5222 29.8056 42.0944 29.7739 41.6909C29.5922 39.3785 31.9617 38.891 33.9349 38.5534C35.1208 38.3504 36.4998 38.3729 37.7472 38.5073C37.9132 38.5252 38.1249 38.5959 38.2586 38.5765C38.4339 38.5509 38.7202 38.2866 38.8862 38.1843C39.2638 37.9521 39.7015 37.7191 40.2112 37.6306C40.8423 37.5212 41.6187 37.6147 42.3266 37.746C44.3412 38.1195 46.4802 38.619 48.0685 39.3147C48.0991 39.4551 47.8341 39.6956 47.743 39.8684C49.267 39.049 50.7005 38.1968 52.4617 37.6768C54.0759 37.2002 55.9474 37.126 57.5758 37.6306C57.7755 37.6925 58.0335 37.8219 58.2265 37.8383C58.519 37.8629 58.8743 37.7504 59.2028 37.7229C64.4118 37.2871 69.2622 38.7689 73.7082 39.6146C72.7458 41.1511 71.4026 42.3094 69.6401 43.052C69.8217 43.2295 70.0283 43.2948 70.1748 43.4673C70.575 43.9387 70.543 44.7448 70.2678 45.2898C69.9974 45.8254 69.4079 46.1322 69.1055 46.4664C70.0576 46.4112 71.0008 46.5834 71.1279 47.4584C71.2579 48.3531 70.7569 49.0719 70.3143 49.5347C68.9145 50.998 66.4741 51.4779 64.1077 51.9572C62.4634 52.29 60.9683 52.4463 59.0168 52.4647C57.5012 52.4789 55.1425 52.3413 54.4841 51.3804C54.3547 51.1916 54.2842 50.9021 54.2749 50.6651C52.442 51.4445 50.3849 52.2665 47.8823 52.3263C45.308 52.3874 42.9583 51.7705 42.0709 50.0422C41.6493 50.8014 41.2844 51.5652 40.5599 51.9801C39.731 52.4551 38.2524 52.5205 37.2358 52.3263C36.1085 52.1108 35.2422 51.64 35.1434 50.4805C35.046 49.3343 35.5123 48.2162 35.8176 47.2738C36.1506 46.2462 36.5206 45.3121 36.8869 44.4132C36.3914 44.7021 36.0485 45.2537 35.6783 45.7281C34.5979 47.1123 33.3099 48.4809 31.8427 49.5347C30.8961 50.2143 29.8353 50.8973 28.6114 51.4033C27.5281 51.8512 25.7494 52.4672 24.4039 51.9339C23.9367 51.7488 23.4778 51.2497 23.7065 50.6189C23.8307 50.2763 24.2582 50.0766 24.2877 49.6961C24.3099 49.406 24.0205 49.0227 23.846 48.7272C23.3418 47.874 22.7715 46.8885 22.4048 46.005C21.8963 44.7802 21.2744 43.0499 21.7308 41.5756C22.1493 40.2233 23.329 39.413 24.4971 38.761C25.4192 38.2464 26.3271 37.8673 27.4028 37.4922C28.007 37.2815 29.0602 36.9289 29.5182 37.5383C30.1638 38.3979 29.6049 40.0666 29.3785 40.9757C29.0806 42.1721 28.8591 43.2918 28.8673 44.5054ZM42.4891 38.5075C41.746 38.3627 40.9154 38.227 40.211 38.3921C39.8776 38.4704 39.5524 38.6407 39.3044 38.8074C39.1066 38.9404 38.7684 39.2995 38.5141 39.338C38.2156 39.3832 37.7933 39.2555 37.4215 39.2226C35.4635 39.0494 33.6588 39.1771 32.1215 39.7302C31.5855 39.923 30.91 40.1893 30.657 40.6991C30.3597 41.2985 30.7289 42.129 30.6338 42.8907C30.5923 43.2222 30.4205 43.5778 30.2618 43.8827C29.9252 44.5297 29.603 44.9466 29.1691 45.5207C29.0139 45.726 28.6776 46.1753 28.3787 46.1205C28.1718 46.0824 28.0767 45.7204 28.0533 45.3131C27.95 43.5204 28.3958 42.0185 28.7042 40.5145C28.8324 39.8886 29.0116 39.1271 28.9597 38.5305C28.9219 38.0932 28.7235 37.9152 28.3555 37.9307C27.7457 37.9565 26.9904 38.3806 26.4028 38.6228C25.7638 38.8862 25.2278 39.1678 24.7057 39.4995C23.6647 40.1612 22.6769 41.0096 22.4976 42.4524C22.3067 43.9852 22.9286 45.344 23.4739 46.4204C23.7447 46.9551 24.0008 47.4947 24.427 48.0353C24.7549 48.4517 25.4219 49.1088 25.3335 49.7194C25.2688 50.167 24.3613 50.6205 24.5199 51.0805C24.6005 51.3143 25.1352 51.3764 25.6127 51.3806C27.0084 51.3927 28.0742 50.8535 28.9136 50.4348C30.2353 49.775 31.2569 49.0327 32.284 48.1737C33.3235 47.3048 34.2752 46.3925 35.1202 45.3821C35.9712 44.3647 36.6835 43.2331 37.561 42.1756C38.1886 43.8622 37.5474 45.2264 37.0263 46.4435C36.7522 47.0839 36.5304 47.6733 36.3055 48.3814C36.1039 49.0165 35.8145 49.9638 36.0033 50.6653C36.2486 51.5756 37.6207 51.7422 38.6998 51.6573C39.5076 51.5938 40.1176 51.372 40.5363 50.9652C41.4146 50.112 41.8777 48.9085 42.4192 47.7813C42.3051 49.3474 42.948 50.2689 43.9766 50.8266C45 51.3816 46.3363 51.634 47.8354 51.634C50.844 51.634 53.1147 50.5047 54.9719 49.4885C54.8708 49.9926 54.8431 50.5472 55.0416 50.9188C55.4416 51.6677 56.5084 51.7232 57.6684 51.8186C58.4733 51.8849 59.0945 51.9012 59.6675 51.8878C61.1448 51.8534 62.5047 51.6761 63.8982 51.4031C65.7738 51.0359 67.7826 50.4815 69.1983 49.5575C69.676 49.2459 70.2009 48.8385 70.3141 48.2887C70.6345 46.7299 68.7678 47.1915 67.757 47.4118C66.9841 47.5804 66.212 47.8133 65.5489 47.9655C64.0844 48.3016 62.1612 48.7384 60.8532 48.1501C60.6535 48.0603 60.3641 47.9142 60.3649 47.6195C60.3657 47.4213 60.5753 47.1961 60.7136 47.0889C61.1942 46.7163 61.9905 46.6198 62.8289 46.5583C64.9094 46.4056 67.9831 46.7403 69.2215 45.4507C69.5247 45.135 69.8306 44.3599 69.4772 43.7897C69.1917 43.3287 68.4604 43.2287 67.8035 43.2591C66.0004 43.3427 64.4796 44.0858 62.8987 44.0435C62.6087 44.0356 62.0564 44.0402 61.9689 43.8358C61.8602 43.5823 62.1304 43.2053 62.2712 43.0284C62.4506 42.8029 62.6831 42.5503 62.8987 42.4747C63.2563 42.3496 63.8142 42.4226 64.3167 42.4747C65.8329 42.6312 67.3644 42.7669 68.6171 42.5439C70.2122 42.26 71.291 41.417 72.1735 40.4676C72.2946 40.3377 72.4585 40.2087 72.499 40.0293C68.7219 39.3534 64.4151 38.2593 60.2719 38.3221C59.5416 38.3331 58.8845 38.434 58.3425 38.7143C57.8923 38.9471 57.2529 39.4812 57.3429 40.0985C57.3964 40.4653 57.8797 40.7347 58.2263 40.8598C58.6683 41.0198 59.1274 41.0807 59.505 41.252C58.5289 41.4281 57.3491 41.7071 56.3668 41.8749C56.5584 41.392 56.8122 40.9223 57.0409 40.3292C57.1949 39.9295 57.556 39.0644 57.4359 38.5528C57.3199 38.0588 56.3676 37.9619 55.7157 37.953C55.1028 37.9448 54.2962 38.0434 53.7399 38.1607C50.0025 38.9489 47.1594 40.9784 44.7205 42.9822C45.1846 41.9057 45.8545 40.8864 46.4639 39.9832C46.5525 39.8519 46.6945 39.6915 46.6731 39.591C45.2848 39.1019 43.9071 38.7837 42.4891 38.5075ZM63.3407 43.2137C63.4622 43.1603 63.7743 43.2524 63.8754 43.1214C63.6941 43.1291 63.3812 43.0147 63.3407 43.2137ZM61.6669 47.4816C62.3294 47.533 63.2146 47.5712 63.9451 47.4816C64.4918 47.4145 65.0516 47.3497 65.4329 47.1123C64.2218 47.1946 62.6618 47.1262 61.6669 47.4816Z" fill="white"/>
<g clip-path="url(#clip3_816_15561)">
<path d="M160.506 39.825V50.175H165.708C167.162 50.175 168.003 49.95 168.615 49.425C169.38 48.75 169.763 47.55 169.763 45C169.763 42.45 169.38 41.25 168.615 40.575C168.003 40.05 167.162 39.825 165.708 39.825H160.506ZM167.621 45C167.621 47.25 167.468 47.775 167.009 48.075C166.703 48.3 166.32 48.375 165.555 48.375H162.648V41.55H165.555C166.32 41.55 166.703 41.55 167.009 41.85C167.468 42.225 167.621 42.75 167.621 45ZM172.44 52.4628H157.178V37.5H172.44V52.4628ZM144.709 41.55V39.825H153.736V43.125H151.823V41.55H148.151V44.025H151.058V45.675H148.151V48.45H151.9V46.65H153.812V50.175H144.71V48.45H146.163V41.55H144.709ZM136.524 47.475C136.524 48.6 136.6 49.425 136.753 50.1H138.819C138.742 49.575 138.666 48.6 138.666 47.325C138.589 45.825 138.13 45.6 137.059 45.375C138.283 45.15 138.819 44.625 138.819 42.75C138.819 41.25 138.589 40.65 138.13 40.275C137.824 39.975 137.289 39.825 136.447 39.825H130.021V50.175H132.163V46.125H135.147C135.759 46.125 135.988 46.2 136.218 46.35C136.448 46.5 136.524 46.725 136.524 47.475V47.475ZM132.163 44.475V41.625H135.606C136.065 41.625 136.218 41.7 136.294 41.775C136.447 41.925 136.6 42.15 136.6 43.05C136.6 43.95 136.447 44.25 136.294 44.4C136.218 44.475 136.065 44.55 135.606 44.55L132.163 44.475ZM141.879 52.4628H126.579V37.5H141.84V52.4628H141.879ZM122.601 48.45V50.175H115.333V48.45H117.934V41.55H115.333V39.825H122.6V41.55H119.999V48.45H122.601ZM110.322 39.825H108.333L106.88 48L105.197 40.425C105.12 39.9 104.891 39.825 104.432 39.825H103.361C102.902 39.825 102.672 39.975 102.596 40.425L100.913 48L99.4591 39.825H97.3171L99.3826 49.65C99.4591 50.1 99.6121 50.175 100.148 50.175H101.601C102.06 50.175 102.213 50.1 102.366 49.65L103.973 42.525L105.579 49.65C105.656 50.1 105.809 50.175 106.344 50.175H107.721C108.18 50.175 108.41 50.1 108.486 49.65L110.322 39.825ZM111.393 52.4628H96.0931V37.5H111.355V52.4628H111.393Z" fill="white"/>
</g>
<g clip-path="url(#clip4_816_15561)">
<path d="M199.899 41.3146V48.2698C200.84 47.7623 201.499 46.8787 201.819 45.8823L201.894 45.9201C201.687 48.4015 199.993 50.8826 197.357 50.8826C194.703 50.8826 192.745 48.909 192.745 45.7507C192.745 43.3823 194.288 41.8971 196.265 40.5623C195.976 40.4867 195.679 40.4488 195.38 40.4496C194.025 40.4496 193.234 41.3707 193.234 42.3107H193.121C193.102 42.179 193.102 42.0476 193.102 41.916C193.102 40.2429 193.987 38.2126 196.133 38.2126C197.508 38.2126 198.562 39.4721 200.162 39.4721C200.802 39.4721 201.593 39.1712 201.913 38.4757H201.969C201.95 39.6979 201.574 40.9573 199.899 41.3146V41.3146ZM200.915 48.439C199.974 49.4351 198.957 50.2812 197.639 50.2812C195.192 50.2812 193.31 48.3637 193.31 45.5815C193.31 43.9462 193.987 43.0629 194.74 42.0287H194.665C194.194 42.4987 192.952 43.6829 192.952 45.6943C192.952 48.7773 194.891 50.676 197.432 50.676C199.202 50.676 200.407 49.4543 200.953 48.4579L200.915 48.439V48.439ZM201.668 39.3221C201.348 39.9235 200.67 40.694 199.296 40.694C197.922 40.694 196.66 39.754 195.55 39.754C194.533 39.754 193.837 40.431 193.573 40.9385L193.592 40.9762C193.95 40.619 194.495 40.2618 195.38 40.2618C196.849 40.2618 197.79 41.1643 199.277 41.1643C200.859 41.1643 201.574 40.1301 201.706 39.341L201.668 39.3221V39.3221ZM196.434 40.619C195.474 41.6154 194.589 42.7057 194.589 44.8298C194.589 45.9951 194.985 47.1982 195.87 47.9501L196.415 47.6679V42.6304L195.907 42.8935L195.813 42.7054L198.449 41.2765C197.733 41.1265 197.093 40.8071 196.434 40.619V40.619ZM199.691 41.3521C199.559 41.3707 199.428 41.3707 199.277 41.3707C199.014 41.3707 198.769 41.3521 198.524 41.2954V46.7843L196.058 48.1196C196.566 48.4954 197.187 48.721 197.978 48.721C198.618 48.721 199.183 48.5893 199.691 48.3637V41.3521H199.691V41.3521ZM196.98 42.311L196.623 42.5176V47.5557L196.98 47.3676V42.311V42.311ZM207.805 43.0251V49.5293C207.805 51.3337 206.205 52.556 204.417 52.9129L204.379 52.8376C205.264 52.4051 205.772 51.5218 205.772 50.5818V43.8521L204.756 42.9312L204.36 43.3635V48.6082L204.925 49.1157V49.1535L203.4 50.8076L201.65 49.2098V49.1346L202.327 48.4201V40.1115L204.323 37.9876L204.36 38.0062V43.044L205.998 41.2771L207.711 42.8187L208.031 42.4801L208.182 42.6121L207.805 43.0251V43.0251ZM202.534 49.1721V49.1346L202.929 48.7396V39.7918L202.534 40.2057V48.5518L201.932 49.1535V49.191L203.4 50.5068L203.663 50.206L202.534 49.1721V49.1721ZM206.374 43.5512L205.151 42.4987L204.887 42.7807L205.979 43.7585V50.5257C205.979 50.9768 205.885 51.4465 205.716 51.7098L205.735 51.7287C206.205 51.3901 206.375 50.8826 206.375 50.2248V43.5512H206.374V43.5512ZM210.798 46.8035V47.7621L212.624 49.1907L213.679 48.0629L213.83 48.2132L211.382 50.826L208.897 48.8335L208.521 49.2282L208.37 49.0779L208.803 48.6268V43.871L212.361 41.2768L214.225 44.2846L210.798 46.8035V46.8035ZM209.405 48.4579V43.6829L209.01 43.9651V48.646L211.345 50.5446L211.646 50.2251L209.405 48.4579V48.4579ZM210.836 42.6679L210.798 42.6868V46.5404L212.474 45.3185L210.836 42.6679ZM211.326 42.2921L210.987 42.5362L212.644 45.1868L212.982 44.9423L211.326 42.2921V42.2921ZM226.496 50.8073L223.879 48.5515L221.884 50.8073L219.173 48.4762V44.7921H218.646C218.175 44.7921 217.931 45.0929 217.817 45.4498H217.761C217.701 45.2164 217.669 44.9766 217.667 44.7357C217.667 44.2468 217.799 42.9687 219.173 42.9687V39.7354C219.173 39.1151 218.439 38.8707 218.439 38.0435C218.439 36.9723 219.455 35.9196 221.319 35.2612L221.395 35.3176C220.717 35.7126 220.359 36.0885 220.359 36.8968C220.359 38.1376 221.564 37.8179 221.564 39.7729V40.5248L223.767 38.2126L226.082 40.4871L228.266 38.2126L230.374 40.2804V47.2357L226.496 50.8073V50.8073ZM219.776 48.1757V44.2096H218.721C218.175 44.2096 217.931 44.5665 217.893 44.8862L217.911 44.9051C218.1 44.6985 218.288 44.5857 218.721 44.5857H219.38V48.3829L221.865 50.526L222.147 50.1873L219.776 48.1757V48.1757ZM219.776 39.5473C219.776 38.7768 219.098 38.5135 219.098 38.0248C219.098 37.3479 219.361 36.7843 219.776 36.2579L219.738 36.2393C219.173 36.6718 218.646 37.3673 218.646 38.0437C218.646 38.7207 219.38 39.0401 219.38 39.6418V42.969H219.776V39.5473ZM223.748 41.4273L222.317 40.0362L221.564 40.8068V47.4612L223.277 48.9087L223.748 48.3823V41.4273ZM224.35 48.1382V41.1643L222.75 39.5851L222.449 39.886L223.955 41.3332V48.3448L226.496 50.5443L226.797 50.2621L224.35 48.1382ZM228.002 41.1829L226.816 40.0548L226.139 40.7504V47.4426L227.984 49.059L228.002 49.0404V41.1829V41.1829ZM228.605 40.9198L227.23 39.5851L226.948 39.886L228.209 41.089V48.9465L228.605 48.5704V40.9198V40.9198ZM236.604 50.8073L234.815 49.1907L233.215 50.8073L231.257 49.0779L230.994 49.3598L230.843 49.2096L231.182 48.8523V43.8148L234.721 41.2582L236.755 42.8373L237.112 42.4612L237.263 42.6118L236.849 43.044V48.2512L237.846 49.1721L238.167 48.8337L238.317 48.9654L236.604 50.8073V50.8073ZM231.785 48.721V43.6454L231.389 43.9273V48.909L233.197 50.5257L233.498 50.2248L231.785 48.721V48.721ZM234.815 43.7771L233.272 42.574L233.215 42.6118V48.0818L234.495 49.1907L234.815 48.8712V43.7771V43.7771ZM235.418 48.8901V43.4951L233.818 42.1979L233.441 42.461L235.023 43.7018V49.0779L236.604 50.5065L236.886 50.2057L235.418 48.8901V48.8901ZM242.082 44.6793H244.021V48.7021L241.028 50.8073C240.632 50.3562 240.067 50.0368 239.371 50.0368C238.806 50.0368 238.354 50.2248 237.752 50.7323L237.658 50.6946L240.219 46.9726H238.637V43.4762L241.781 41.2957C242.157 41.5965 242.44 41.7654 242.929 41.7654C243.306 41.7654 243.852 41.6901 244.266 41.3521L244.342 41.3896L242.082 44.6793V44.6793ZM239.974 49.4915C239.428 49.4915 238.995 49.6796 238.618 49.9426V49.9804C238.919 49.8487 239.221 49.8112 239.503 49.8112C239.936 49.8112 240.614 50.0182 241.066 50.5446L241.499 50.2251C241.141 49.8112 240.708 49.4915 239.974 49.4915V49.4915ZM241.988 46.3335H240.933L238.731 49.5107L238.75 49.5482C239.296 49.1535 239.823 48.8904 240.463 48.8904C241.028 48.8904 241.611 49.1535 241.969 49.6046L241.988 49.586V46.3335ZM239.239 46.3335V43.3073L238.844 43.5893V46.7473H240.369L240.67 46.3337H239.239V46.3335ZM243.174 42.649C242.779 42.9312 242.553 43.0815 241.894 43.0815C241.517 43.0815 241.065 42.9123 240.708 42.5362L240.67 42.5551V45.2996H241.386L243.193 42.6676L243.174 42.649V42.649ZM242.27 42.4798C241.932 42.4798 241.499 42.311 241.216 41.9348L240.745 42.2543C241.103 42.6868 241.442 42.8746 241.969 42.8746C242.308 42.8746 242.797 42.7804 243.306 42.3479L243.324 42.2918C243.005 42.4237 242.609 42.4798 242.27 42.4798V42.4798ZM242.59 45.7135H241.367L241.084 46.1082H242.195V49.7548L242.59 49.4729V45.7135ZM250.516 43.0251V49.5293C250.516 51.3337 248.916 52.556 247.127 52.9129L247.09 52.8376C247.975 52.4051 248.483 51.5218 248.483 50.5818V43.8521L247.466 42.9312L247.071 43.3635V48.6082L247.636 49.1157V49.1535L246.111 50.8076L244.36 49.2098V49.1346L245.038 48.4201V40.1115L247.034 37.9876L247.071 38.0062V43.044L248.709 41.2771L250.422 42.8187L250.742 42.4801L250.893 42.6121L250.516 43.0251V43.0251ZM245.245 49.1721V49.1346L245.64 48.7396V39.7918L245.245 40.2054V48.5515L244.642 49.1532V49.1907L246.111 50.5065L246.374 50.2057L245.245 49.1721V49.1721ZM249.085 43.5512L247.861 42.4987L247.598 42.7807L248.69 43.7585V50.5257C248.69 50.9768 248.596 51.4465 248.426 51.7098L248.445 51.7287C248.916 51.3901 249.085 50.8826 249.085 50.2248V43.5512H249.085ZM253.942 50.8073L252.323 49.3223L251.947 49.7171L251.796 49.5665L252.229 49.0968V43.6643L251.438 42.9123L251.137 43.251L250.986 43.1004L252.68 41.2582L254.187 42.6118L254.563 42.1982L254.733 42.3298L254.262 42.8373V48.3265L255.166 49.1723L255.58 48.7398L255.73 48.8904L253.942 50.8073V50.8073ZM252.831 48.9654V43.3635L251.853 42.4612L251.589 42.7621L252.436 43.5704V49.1535L253.942 50.5068L254.225 50.206L252.831 48.9654V48.9654ZM253.396 41.1079L251.853 39.6982L253.265 38.1943L254.808 39.604L253.396 41.1079ZM252.436 39.3971L252.154 39.679L253.377 40.8257L253.66 40.5062L252.436 39.3971V39.3971ZM261.903 50.8073L260.265 49.3223V43.8335L259.267 42.9312L258.74 43.4951V48.5704L259.323 49.1154V49.1907L257.78 50.8073L256.029 49.2096V49.1532L256.707 48.439V43.7018L255.822 42.8935L255.464 43.2882L255.313 43.1379L257.027 41.2768L258.74 42.7996V43.1754L260.528 41.2768L262.203 42.7807L262.58 42.386L262.749 42.5362L262.298 43.0062V48.3823L263.145 49.1718L263.559 48.7207L263.709 48.871L261.903 50.8073V50.8073ZM256.932 49.1721V49.1346C256.932 49.1721 257.309 48.7585 257.309 48.7585V43.4196L256.236 42.4421L255.972 42.724L256.914 43.5887V48.5512L256.33 49.1529V49.1904L257.78 50.5062L258.081 50.1868L256.932 49.1721V49.1721ZM260.867 49.0218V43.514L259.7 42.4612L259.399 42.7807L260.472 43.7393V49.2096L261.883 50.5254L262.185 50.2057L260.867 49.0218V49.0218ZM267.211 54.191C266.59 53.5143 266.157 53.2323 265.573 53.2323C264.952 53.2323 264.237 53.4768 263.503 53.8715L263.446 53.8154L266.044 50.8076L264.199 49.3415L263.842 49.7176L263.691 49.586L264.105 49.1348V43.8148L267.682 41.2582L269.677 42.8373L270.016 42.4612L270.167 42.6118L269.772 43.044V49.4732C269.772 50.4507 270.317 50.4132 270.317 51.146C270.317 51.9918 269.094 52.7812 267.211 54.191ZM264.708 48.984V43.6643L264.312 43.9465V49.1535L266.176 50.6573L266.458 50.3187L264.708 48.984V48.984ZM266.025 52.7437C265.404 52.7437 264.839 52.9318 264.312 53.2887V53.3265C264.651 53.1948 265.027 53.0257 265.668 53.0257C266.251 53.0257 266.74 53.3451 267.23 53.9093L267.607 53.6085C267.136 53.0635 266.571 52.7437 266.025 52.7437ZM268.322 50.939C267.852 50.6382 267.738 50.3187 267.738 49.5104V49.1718L264.613 52.781L264.632 52.7996C265.234 52.4426 265.78 52.1796 266.665 52.1796C267.418 52.1796 267.927 52.4801 268.51 52.969C268.868 52.6682 269.113 52.3676 269.113 51.8976C269.113 51.5218 268.792 51.2398 268.322 50.939V50.939ZM267.738 43.7771L266.176 42.5554L266.138 42.5929V48.3637L267.343 49.3037L267.738 48.8526V43.7771V43.7771ZM268.887 50.676C268.397 50.2998 268.341 49.9804 268.341 49.1721V43.4576L266.759 42.1793L266.402 42.4237L267.945 43.6454V49.4351C267.945 50.2435 267.983 50.4693 268.491 50.8073C268.943 51.1082 269.301 51.4276 269.301 51.8601C269.301 51.9726 269.282 52.1607 269.282 52.1607L269.301 52.1796C269.395 52.0854 269.508 51.9351 269.508 51.6907C269.508 51.2773 269.301 50.9954 268.887 50.676V50.676ZM273.405 50.8073L271.673 49.454L271.315 49.8487L271.165 49.6982L271.579 49.2471V42.6679H270.487L270.449 42.6304L271.108 41.6526H271.578V40.3935L273.574 38.2693L273.612 38.3071V41.6529H275.118L275.156 41.6907L274.497 42.6682H273.612V48.364L274.647 49.1537L275.043 48.7212L275.193 48.8715L273.405 50.8073V50.8073ZM272.181 40.0737L271.786 40.5062V41.6529H272.181V40.0737ZM272.181 49.0593V42.6679H271.786V49.2848L273.386 50.5257L273.668 50.2248L272.181 49.0593V49.0593ZM281.349 43.2132V48.4765L278.168 50.8262L275.777 49.0218L275.494 49.3412L275.344 49.1907L275.682 48.8148V43.6643L279.015 41.2768L281.236 43.0065L281.594 42.6304L281.744 42.7807L281.349 43.2132V43.2132ZM276.285 48.6271V43.4951L275.89 43.7771V48.8337L278.149 50.5632L278.507 50.3001L276.285 48.6271V48.6271ZM279.316 43.8335L277.735 42.5926L277.716 42.6115V48.2132L279.316 49.4162V43.8335ZM279.919 43.4951L278.168 42.1415L277.81 42.4046L279.523 43.7204V49.5668L279.919 49.2662V43.4951ZM288.541 50.8073L286.903 49.3223V43.8335L285.905 42.9312L285.378 43.4951V48.5704L285.961 49.1154V49.1907L284.418 50.8073L282.667 49.2096V49.1532L283.345 48.439V43.7018L282.46 42.8935L282.102 43.2882L281.952 43.1379L283.665 41.2768L285.378 42.7996V43.1754L287.166 41.2768L288.842 42.7807L289.218 42.386L289.388 42.5362L288.936 43.0062V48.3823L289.783 49.1718L290.197 48.7207L290.348 48.871L288.541 50.8073V50.8073ZM283.57 49.1721V49.1346C283.57 49.1721 283.947 48.7585 283.947 48.7585V43.4196L282.874 42.4421L282.611 42.724L283.552 43.5887V48.5512L282.968 49.1529V49.1904L284.418 50.5062L284.719 50.1868L283.57 49.1721V49.1721ZM287.505 49.0218V43.514L286.338 42.4612L286.037 42.7807L287.11 43.7393V49.2096L288.522 50.5254L288.823 50.2057L287.505 49.0218V49.0218ZM300.171 50.8073C299.643 50.2435 299.455 50.0554 298.834 49.8862V53.5707L298.796 53.5893L298.043 52.9123L295.859 54.9237L295.821 54.9051V49.8487C295.163 49.999 294.466 50.3376 293.788 51.014L293.751 50.9954C293.883 49.5479 294.598 48.4765 295.821 48.0629V44.3973H295.426C294.88 44.3973 294.579 44.6793 294.315 45.1868H294.259C294.202 45.0179 294.165 44.7543 294.165 44.3223C294.165 43.5326 294.748 42.7057 295.709 42.7057H295.821V40.6754L295.05 39.9798L294.673 40.356L294.541 40.2243L296.442 38.2129L298.212 39.8296V41.5401L298.626 41.089V38.9271H298.833V40.901L301.337 38.2126L303.464 40.149V48.3262L300.171 50.8073V50.8073ZM295.822 49.1532C295.05 49.3035 294.505 49.7735 294.147 50.3937L294.165 50.4315C294.693 49.9804 295.182 49.7737 295.822 49.6232V49.1532V49.1532ZM296.425 43.7585H295.389C294.674 43.7585 294.391 44.2096 294.373 44.736L294.391 44.7546C294.617 44.3785 294.843 44.2471 295.295 44.191H296.029V54.4357L296.425 54.0596V43.7585V43.7585ZM296.425 40.3746L295.483 39.5101L295.182 39.8296L296.029 40.5812V42.7054H296.425V40.3746V40.3746ZM298.627 41.446L298.213 41.8785V52.7626L298.627 53.1387V41.446V41.446ZM301.093 41.0137L299.983 39.9987L298.834 41.2396V47.8562C299.813 47.9504 300.491 48.2323 301.074 48.8712L301.093 48.8526V41.0137V41.0137ZM298.834 49.1532V49.6421C299.474 49.7923 299.738 49.9804 300.19 50.5065L300.623 50.1682C300.171 49.6043 299.719 49.2662 298.834 49.1532V49.1532ZM301.696 40.7132L300.415 39.5287L300.114 39.8482L301.3 40.9385V49.6796L301.696 49.3787V40.7132V40.7132ZM310.035 43.2132V48.4765L306.853 50.8262L304.463 49.0218L304.18 49.3412L304.03 49.1907L304.368 48.8148V43.6643L307.701 41.2768L309.922 43.0065L310.28 42.6304L310.43 42.7807L310.035 43.2132V43.2132ZM304.971 48.6271V43.4951L304.576 43.7771V48.8337L306.835 50.5632L307.193 50.3001L304.971 48.6271V48.6271ZM308.002 43.8335L306.421 42.5926L306.402 42.6115V48.2132L308.002 49.4162V43.8335ZM308.605 43.4951L306.854 42.1415L306.496 42.4046L308.209 43.7204V49.5668L308.605 49.2662V43.4951ZM314.403 44.6793H316.342V48.7021L313.349 50.8073C312.953 50.3562 312.389 50.0368 311.692 50.0368C311.127 50.0368 310.675 50.2248 310.073 50.7323L309.979 50.6946L312.539 46.9726H310.958V43.4762L314.102 41.2957C314.478 41.5965 314.76 41.7654 315.25 41.7654C315.627 41.7654 316.172 41.6901 316.587 41.3521L316.662 41.3896L314.403 44.6793ZM312.294 49.4915C311.748 49.4915 311.315 49.6796 310.939 49.9426V49.9804C311.24 49.8487 311.541 49.8112 311.824 49.8112C312.257 49.8112 312.934 50.0182 313.386 50.5446L313.819 50.2251C313.462 49.8112 313.029 49.4915 312.294 49.4915V49.4915ZM314.309 46.3335H313.255L311.052 49.5107L311.071 49.5482C311.617 49.1535 312.144 48.8904 312.784 48.8904C313.349 48.8904 313.932 49.1535 314.29 49.6046L314.309 49.586V46.3335H314.309ZM311.56 46.3335V43.3073L311.165 43.5893V46.7473H312.69L312.991 46.3337H311.56V46.3335ZM315.495 42.649C315.099 42.9312 314.874 43.0815 314.214 43.0815C313.838 43.0815 313.386 42.9123 313.028 42.5362L312.991 42.5551V45.2996H313.706L315.513 42.6676L315.495 42.649V42.649ZM314.591 42.4798C314.252 42.4798 313.819 42.311 313.537 41.9348L313.066 42.2543C313.424 42.6868 313.763 42.8746 314.29 42.8746C314.629 42.8746 315.118 42.7804 315.627 42.3479L315.645 42.2918C315.325 42.4237 314.93 42.4798 314.591 42.4798V42.4798ZM314.911 45.7135H313.688L313.405 46.1082H314.516V49.7548L314.911 49.4729V45.7135ZM319.467 50.8073L317.735 49.454L317.377 49.8487L317.227 49.6982L317.641 49.2471V42.6679H316.549L316.511 42.6304L317.17 41.6526H317.64V40.3935L319.636 38.2693L319.674 38.3071V41.6529H321.18L321.218 41.6907L320.559 42.6682H319.674V48.364L320.709 49.1537L321.105 48.7212L321.255 48.8715L319.467 50.8073V50.8073ZM318.243 40.0737L317.848 40.5062V41.6529H318.243V40.0737ZM318.243 49.0593V42.6679H317.848V49.2848L319.448 50.5257L319.73 50.2248L318.243 49.0593Z" fill="white"/>
</g>
<g clip-path="url(#clip5_816_15561)">
<path d="M0.25 77.5V92.5H15.25V77.5H0.25ZM4.45461 80.8647H7.64717C8.58797 80.8647 9.31673 81.0498 9.8334 81.42C10.3501 81.7824 10.6084 82.3067 10.6084 82.993C10.6084 83.3863 10.5158 83.7295 10.3307 84.0225C10.1456 84.3078 9.87192 84.5353 9.50948 84.705C10.0107 84.8669 10.3924 85.1253 10.6546 85.48C10.9245 85.827 11.0595 86.2511 11.0595 86.7524C11.0595 87.2459 10.9284 87.6701 10.6662 88.0248C10.4117 88.3795 10.0454 88.6532 9.56731 88.846C9.0892 89.0388 8.51474 89.1352 7.84384 89.1352H4.45461V80.8647ZM6.17809 82.2064V84.2654H7.48526C7.93252 84.2654 8.27182 84.1729 8.50316 83.9878C8.74222 83.7951 8.86174 83.529 8.86174 83.1897C8.86174 82.5342 8.40292 82.2064 7.48526 82.2064H6.17809ZM6.17809 85.561V87.7935H7.68183C8.1985 87.7935 8.59572 87.7009 8.87333 87.5158C9.15094 87.323 9.28974 87.0493 9.28974 86.6946C9.28974 85.9388 8.76147 85.561 7.705 85.561H6.17809ZM37.75 77.5V92.5H52.75V77.5H37.75ZM45.866 80.6911C46.321 80.6911 46.749 80.7413 47.15 80.8415C47.5587 80.9341 47.9366 81.0729 48.2836 81.2579V82.9005C47.9674 82.6846 47.6243 82.5226 47.2541 82.4147C46.884 82.299 46.4946 82.2412 46.0859 82.2412C45.5229 82.2412 45.041 82.3491 44.64 82.565C44.2467 82.7809 43.9421 83.0933 43.7262 83.502C43.5179 83.9107 43.4138 84.4081 43.4138 84.9942C43.4138 85.5802 43.5141 86.0815 43.7146 86.4979C43.9228 86.9066 44.2196 87.2189 44.6052 87.4348C44.9985 87.6507 45.4727 87.7587 46.0279 87.7587C46.8762 87.7587 47.659 87.5312 48.3762 87.0762V88.6841C48.0369 88.8769 47.6435 89.0272 47.1963 89.1352C46.749 89.2509 46.2787 89.3087 45.7851 89.3087C45.1297 89.3087 44.5397 89.2123 44.0153 89.0195C43.4909 88.819 43.0475 88.5337 42.6851 88.1635C42.3226 87.7934 42.045 87.3423 41.8522 86.8102C41.6595 86.2704 41.5631 85.6651 41.5631 84.9942C41.5631 84.3387 41.6633 83.7487 41.8638 83.2243C42.0643 82.6922 42.3535 82.2373 42.7313 81.8594C43.1092 81.4816 43.5603 81.1924 44.0847 80.9919C44.6168 80.7914 45.2106 80.6911 45.866 80.6911V80.6911ZM19 77.5V92.5H34V77.5H19ZM23.2046 80.8647H26.3972C27.338 80.8647 28.0667 81.0498 28.5834 81.42C29.1001 81.7824 29.3584 82.3067 29.3584 82.993C29.3584 83.3863 29.2658 83.7295 29.0807 84.0225C28.8956 84.3078 28.6219 84.5353 28.2595 84.705C28.7607 84.8669 29.1424 85.1253 29.4046 85.48C29.6745 85.827 29.8094 86.2511 29.8094 86.7524C29.8094 87.2459 29.6784 87.6701 29.4162 88.0248C29.1617 88.3795 28.7954 88.6532 28.3173 88.846C27.8392 89.0388 27.2647 89.1352 26.5938 89.1352H23.2046V80.8647ZM24.9281 82.2064V84.2654H26.2352C26.6825 84.2654 27.0218 84.1729 27.2531 83.9878C27.4922 83.7951 27.6117 83.529 27.6117 83.1897C27.6117 82.5342 27.1529 82.2064 26.2352 82.2064H24.9281ZM24.9281 85.561V87.7935H26.4318C26.9485 87.7935 27.3457 87.7009 27.6233 87.5158C27.9009 87.323 28.0397 87.0493 28.0397 86.6946C28.0397 85.9388 27.5115 85.561 26.455 85.561H24.9281Z" fill="white"/>
</g>
<g clip-path="url(#clip6_816_15561)">
<path d="M88.1143 80.1571H86.7429V92.1143H84.1714L77.9143 83.9714V89.4571H79.2857V92.1143H73.5V89.4571H74.8714V80.1571H73.5V77.5H77.9143L83.7429 85.0857V80.1571H82.3714V77.5H88.1571C88.1143 77.5 88.1143 80.1571 88.1143 80.1571ZM97.2857 86.9714C97.2857 87.1857 97.2857 87.4 97.2857 87.6571H90.9C90.7286 89.7143 91.5 90.3143 92.6571 90.3143C93.6429 90.3143 94.3714 89.6714 94.3714 88.6429H97.1143C97.0714 90.4429 96.1286 92.5 92.4857 92.5C88.8857 92.5 87.2143 89.8857 87.2143 86.9714C87.2143 84.3571 88.9286 81.5714 92.4429 81.5714C95.7857 81.5714 97.2857 83.9286 97.2857 86.9714ZM113.057 84.3571H112.114L109.757 92.2857H106.629L105.171 87.9571L103.843 92.2857H100.671L98.0571 84.3571H97.1143V81.6571H102.643V84.3571H101.271L102.729 88.5571L104.614 81.6571H106.329L108.643 88.5571L109.886 84.3571H108.514V81.6571H113.143C113.057 81.6571 113.057 84.3571 113.057 84.3571ZM116.957 84.4429C116.957 84.8286 117.257 85.0857 118.286 85.3857L119.786 85.8571C121.157 86.3286 122.829 87.3143 122.829 89.2C122.829 91.3857 121.2 92.4571 119.143 92.4571C117.514 92.4571 116.271 91.6857 115.929 91.3V92.2H113.229V88.5143H115.886C115.971 89.7143 117.043 90.3571 117.986 90.3571C118.757 90.3571 119.143 90.0143 119.143 89.6286C119.143 89.1571 118.843 88.8571 117.514 88.4286L116.186 88C114.857 87.5714 113.357 86.5857 113.357 84.7857C113.357 82.6 115.286 81.5286 116.914 81.5286C118.629 81.5286 119.443 82 119.871 82.4714V81.6571H122.571V84.9571H119.786C119.743 84.0571 118.886 83.6714 117.986 83.6714C117.257 83.7143 116.957 84.0143 116.957 84.4429ZM138.986 84.3571H138.043L135.686 92.2857H132.557L131.1 87.9571L129.771 92.2857H126.6L123.986 84.3571H123.043V81.6571H128.571V84.3571H127.2L128.657 88.5571L130.5 81.6571H132.214L134.529 88.5571L135.771 84.3571H134.357V81.6571H138.986V84.3571ZM148.757 86.9714C148.757 87.1857 148.757 87.4 148.757 87.6571H142.414C142.243 89.7143 143.014 90.3143 144.171 90.3143C145.157 90.3143 145.886 89.6714 145.886 88.6429H148.629C148.586 90.4429 147.6 92.5 144 92.5C140.357 92.5 138.686 89.8857 138.686 86.9714C138.686 84.3571 140.443 81.5714 143.957 81.5714C147.3 81.5714 148.757 83.8857 148.757 86.9714ZM159.214 86.9286C159.214 87.1429 159.214 87.3571 159.214 87.6143H152.871C152.7 89.6714 153.471 90.2714 154.629 90.2714C155.614 90.2714 156.343 89.6286 156.343 88.6H159.086C159.043 90.4 158.057 92.4571 154.457 92.4571C150.814 92.4571 149.143 89.8429 149.143 86.9286C149.143 84.3143 150.9 81.5286 154.414 81.5286C157.757 81.5286 159.214 83.8429 159.214 86.9286ZM170.743 92.2429H167.571L164.271 87.9143L163.2 88.7286V89.5857H164.143V92.2857H159.214V89.6286H160.157V80.2H158.786V77.5H163.2V85.9857L165.429 84.3571H164.057V81.6571H169.929V84.3571H168.986L166.671 86.0714L169.329 89.5429H170.7C170.743 89.5857 170.743 92.2429 170.743 92.2429ZM152.871 85.9H156.343C156.343 84.4 155.357 83.8 154.671 83.8C153.814 83.8 152.914 84.4857 152.871 85.9ZM142.414 85.9H145.886C145.886 84.4 144.9 83.8 144.171 83.8C143.357 83.8429 142.457 84.5286 142.414 85.9ZM90.9429 85.9429H94.4143C94.4143 84.4429 93.4286 83.8429 92.7 83.8429C91.8429 83.8429 90.9857 84.5286 90.9429 85.9429Z" fill="white"/>
</g>
<g clip-path="url(#clip7_816_15561)">
<path d="M202.79 77.3198C202.79 75.7198 201.27 75.3198 200.07 75.3198V75.5598C200.79 75.5598 201.35 75.7998 201.35 76.3598C201.35 76.6798 201.11 77.1598 200.39 77.1598C199.83 77.1598 198.63 76.8398 197.75 76.5198C196.71 76.1198 195.75 75.7998 194.95 75.7998C193.35 75.7998 192.23 76.9998 192.23 78.3598C192.23 79.5598 193.11 79.9598 193.43 80.1198L193.51 79.9598C193.35 79.7998 193.11 79.6398 193.11 79.1598C193.11 78.8398 193.43 78.2798 194.23 78.2798C194.95 78.2798 195.91 78.5998 197.19 78.9998C198.31 79.3198 199.51 79.5598 200.15 79.6398V82.1198L198.95 83.1598V83.2398L200.15 84.2798V87.7198C199.51 88.1198 198.79 88.1998 198.15 88.1998C196.95 88.1998 195.91 87.8798 195.03 86.9198L198.31 85.3198V79.7998L194.31 81.5598C194.63 80.5198 195.51 79.7998 196.39 79.3198L196.31 79.0798C193.91 79.7198 191.75 81.9598 191.75 84.6798C191.75 87.8798 194.39 90.2798 197.35 90.2798C200.55 90.2798 202.63 87.7198 202.63 85.0798H202.47C201.99 86.1198 201.27 87.0798 200.39 87.5598V84.2798L201.67 83.2398V83.1598L200.39 82.1198V79.6398C201.59 79.6398 202.79 78.8398 202.79 77.3198ZM195.83 86.1198L194.87 86.5998C194.31 85.8798 193.99 84.9198 193.99 83.5598C193.99 82.9998 193.99 82.3598 194.15 81.8798L195.83 81.1598V86.1198V86.1198ZM204.31 87.9598L203.27 88.7598L203.43 88.9198L203.91 88.5198L205.67 90.1198L208.07 88.5198L207.99 88.3598L207.35 88.7598L206.55 87.9598V82.5198L207.19 82.0398L208.55 83.1598V88.0398C208.55 91.0798 207.91 91.5598 206.55 92.0398V92.2798C208.79 92.3598 210.87 91.6398 210.87 87.7198V82.4398L211.59 81.8798L211.43 81.7198L210.79 82.1998L208.79 80.5198L206.55 82.1998V75.6398H206.39L203.59 77.5598V77.7198C203.91 77.8798 204.39 78.0398 204.39 78.9198L204.31 87.9598V87.9598ZM218.95 87.0798L216.95 88.5998L214.95 86.9998V86.0398L218.71 83.4798V83.3998L216.79 80.5198L212.63 82.7598V88.0398L211.83 88.6798L211.99 88.8398L212.71 88.2798L215.43 90.2798L219.03 87.3998L218.95 87.0798V87.0798ZM214.95 85.7198V81.7998L215.11 81.7198L216.87 84.5198L214.95 85.7198ZM234.23 76.5998C234.23 76.3598 234.15 76.1198 234.07 75.8798H233.91C233.67 76.5198 233.35 76.8398 232.55 76.8398C231.83 76.8398 231.35 76.4398 231.03 76.1198L228.71 78.7598L228.87 78.9198L229.67 78.1998C230.15 78.5998 230.55 78.9198 231.67 78.9998V85.6398L226.95 77.5598C226.55 76.9198 225.99 76.0398 224.87 76.0398C223.59 76.0398 222.47 77.1598 222.63 78.9198H222.87C222.95 78.4398 223.19 77.8798 223.75 77.8798C224.15 77.8798 224.55 78.2798 224.79 78.6798V81.3198C223.35 81.3198 222.39 81.9598 222.39 83.1598C222.39 83.7998 222.71 84.7598 223.67 84.9998V84.8398C223.51 84.6798 223.43 84.5198 223.43 84.2798C223.43 83.8798 223.75 83.5598 224.31 83.5598H224.71V86.9198C223.03 86.9198 221.67 87.8798 221.67 89.4798C221.67 90.9998 222.95 91.7198 224.39 91.6398V91.4798C223.51 91.3998 223.11 90.9998 223.11 90.4398C223.11 89.7198 223.59 89.3998 224.23 89.3998C224.87 89.3998 225.43 89.7998 225.83 90.2798L228.15 87.7198L227.99 87.5598L227.43 88.1998C226.55 87.3998 226.07 87.1598 225.03 86.9998V78.9998L231.43 90.1998H231.91V78.9998C233.11 78.9198 234.23 77.9598 234.23 76.5998V76.5998ZM240.07 87.0798L238.07 88.5998L236.07 86.9998V86.0398L239.83 83.4798V83.3998L237.91 80.5198L233.75 82.7598V88.0398L232.95 88.6798L233.11 88.8398L233.83 88.2798L236.55 90.2798L240.15 87.3998L240.07 87.0798V87.0798ZM236.07 85.7198V81.7998L236.23 81.7198L237.99 84.5198L236.07 85.7198V85.7198ZM253.11 81.3998L252.55 81.7998L251.03 80.5198L249.27 82.1198L249.99 82.8398V88.8398L248.07 87.6398V82.6798L248.71 82.2798L246.87 80.5198L245.11 82.1198L245.83 82.8398V88.5998L245.59 88.7598L243.91 87.5598V82.7598C243.91 81.6398 243.35 81.3198 242.71 80.9198C242.15 80.5198 241.83 80.2798 241.83 79.7198C241.83 79.2398 242.31 78.9998 242.55 78.8398V78.6798C241.91 78.6798 240.23 79.3198 240.23 80.8398C240.23 81.6398 240.63 81.9598 241.03 82.3598C241.43 82.7598 241.83 83.0798 241.83 83.7998V88.4398L240.95 89.0798L241.11 89.2398L241.91 88.5998L243.75 90.1998L245.75 88.8398L247.99 90.1998L252.23 87.7198V82.3598L253.27 81.5598L253.11 81.3998V81.3998ZM267.99 76.9998L267.19 77.7198L265.43 76.1198L262.79 78.0398V76.2798H262.55L262.63 89.2398C262.39 89.2398 261.67 89.0798 261.11 88.9198L260.95 78.1198C260.95 77.3198 260.39 76.1998 258.95 76.1998C257.51 76.1998 256.55 77.3198 256.55 78.4398H256.79C256.87 77.9598 257.11 77.5598 257.59 77.5598C258.07 77.5598 258.47 77.8798 258.47 78.9198V82.0398C257.03 82.1198 256.15 82.9198 256.15 83.9598C256.15 84.5998 256.47 85.5598 257.43 85.5598V85.3998C257.11 85.2398 257.03 84.9998 257.03 84.8398C257.03 84.3598 257.43 84.1998 258.07 84.1998H258.39V89.1598C257.19 89.5598 256.71 90.4398 256.71 91.3998C256.71 92.7598 257.75 93.7198 259.35 93.7198C260.47 93.7198 261.43 93.5598 262.39 93.3198C263.19 93.1598 264.23 92.9198 264.71 92.9198C265.35 92.9198 265.59 93.2398 265.59 93.6398C265.59 94.1998 265.35 94.4398 265.03 94.5198V94.6798C266.31 94.4398 267.11 93.6398 267.11 92.4398C267.11 91.2398 265.91 90.5198 264.63 90.5198C263.99 90.5198 262.63 90.7598 261.67 90.9198C260.55 91.1598 259.43 91.3198 259.11 91.3198C258.55 91.3198 257.91 91.0798 257.91 90.2798C257.91 89.6398 258.47 89.0798 259.83 89.0798C260.55 89.0798 261.43 89.1598 262.31 89.3998C263.27 89.6398 264.15 89.8798 264.95 89.8798C266.15 89.8798 267.19 89.4798 267.19 87.7998V77.9598L268.15 77.1598L267.99 76.9998V76.9998ZM264.71 81.8798C264.47 82.1198 264.15 82.3598 263.75 82.3598C263.35 82.3598 262.95 82.1198 262.79 81.8798V78.3598L263.59 77.7998L264.71 78.8398V81.8798ZM264.71 84.2798C264.55 84.1198 264.15 83.8798 263.75 83.8798C263.35 83.8798 262.95 84.1198 262.79 84.2798V82.1998C262.95 82.3598 263.35 82.5998 263.75 82.5998C264.15 82.5998 264.55 82.3598 264.71 82.1998V84.2798ZM264.71 88.0398C264.71 88.6798 264.31 89.3198 263.43 89.3198H262.79V84.5998C262.95 84.4398 263.35 84.1998 263.75 84.1998C264.15 84.1998 264.47 84.4398 264.71 84.5998V88.0398V88.0398ZM275.67 82.3598L273.11 80.5198L269.19 82.7598V87.9598L268.39 88.5998L268.47 88.7598L269.11 88.2798L271.67 90.1998L275.67 87.7998V82.3598V82.3598ZM271.35 87.3998V81.6398L273.35 83.0798V88.7598L271.35 87.3998V87.3998ZM283.27 80.6798H283.11C282.87 80.8398 282.63 80.9998 282.39 80.9998C282.07 80.9998 281.67 80.8398 281.51 80.5998H281.35L279.99 82.1198L278.63 80.5998L276.23 82.1998L276.31 82.3598L276.95 81.9598L277.75 82.8398V87.8798L276.71 88.6798L276.87 88.8398L277.35 88.4398L279.27 90.0398L281.75 88.3598L281.67 88.1998L280.95 88.5998L279.99 87.7998V82.1998C280.39 82.5998 280.87 82.9998 281.43 82.9998C282.55 83.0798 283.19 81.9598 283.27 80.6798V80.6798ZM292.87 88.3598L290.15 90.1998L286.47 84.5998L289.11 80.5198H289.27C289.59 80.8398 290.07 81.1598 290.63 81.1598C291.19 81.1598 291.59 80.8398 291.83 80.5198H291.99C291.91 82.1198 290.79 83.0798 289.99 83.0798C289.19 83.0798 288.79 82.6798 288.31 82.4398L288.07 82.8398L292.07 88.7598L292.87 88.2798V88.3598V88.3598ZM284.07 87.9598L283.03 88.7598L283.19 88.9198L283.67 88.5198L285.43 90.1198L287.83 88.5198L287.67 88.3598L287.03 88.7598L286.23 87.9598V75.6398H286.15L283.27 77.5598V77.7198C283.59 77.8798 284.07 77.9598 284.07 78.9198V87.9598V87.9598ZM306.15 77.3198C306.15 75.7198 304.63 75.3198 303.43 75.3198V75.5598C304.15 75.5598 304.71 75.7998 304.71 76.3598C304.71 76.6798 304.47 77.1598 303.75 77.1598C303.19 77.1598 301.99 76.8398 301.11 76.5198C300.07 76.1998 299.11 75.8798 298.31 75.8798C296.71 75.8798 295.59 77.0798 295.59 78.4398C295.59 79.6398 296.47 80.0398 296.79 80.1998L296.87 80.0398C296.63 79.8798 296.39 79.7198 296.39 79.2398C296.39 78.9198 296.71 78.3598 297.51 78.3598C298.23 78.3598 299.19 78.6798 300.47 79.0798C301.59 79.3998 302.79 79.6398 303.43 79.7198V82.1998L302.23 83.2398V83.3198L303.43 84.3598V87.7998C302.79 88.1998 302.07 88.2798 301.43 88.2798C300.23 88.2798 299.19 87.9598 298.31 86.9998L301.59 85.3998V79.7998L297.59 81.5598C297.99 80.5198 298.87 79.7998 299.67 79.2398L299.59 79.0798C297.19 79.7198 295.03 81.8798 295.03 84.5998C295.03 87.7998 297.67 90.1998 300.63 90.1998C303.83 90.1998 305.91 87.6398 305.91 84.9998H305.75C305.27 86.0398 304.55 86.9998 303.67 87.4798V84.1998L304.95 83.1598V83.0798L303.75 82.0398V79.6398C304.95 79.6398 306.15 78.8398 306.15 77.3198V77.3198ZM299.19 86.1198L298.23 86.5998C297.67 85.8798 297.35 84.9198 297.35 83.5598C297.35 82.9998 297.43 82.3598 297.59 81.8798L299.27 81.1598L299.19 86.1198V86.1198ZM308.95 76.5198H308.87L307.27 77.8798V77.9598L308.63 79.4798H308.79L310.39 78.1198V78.0398L308.95 76.5198V76.5198ZM311.35 88.3598L310.71 88.7598L309.91 87.9598V82.4398L310.71 81.8798L310.55 81.7198L309.99 82.1998L308.55 80.5198L306.23 82.1198L306.39 82.3598L306.95 81.9598L307.67 82.8398V88.0398L306.63 88.8398L306.71 88.9998L307.27 88.5998L309.03 90.1998L311.43 88.5998L311.35 88.3598V88.3598ZM324.71 88.2798L324.15 88.6798L323.27 87.8798V82.4398L324.07 81.7998L323.91 81.6398L323.27 82.1998L321.43 80.5198L319.03 82.1998L317.19 80.5198L314.95 82.1998L313.51 80.5198L311.19 82.1198L311.27 82.3598L311.83 81.9598L312.63 82.8398V88.0398L311.99 88.6798L313.83 90.1998L315.59 88.5998L314.87 87.8798V82.4398L315.59 81.9598L316.79 83.0798V87.8798L316.15 88.5198L317.99 90.0398L319.75 88.4398L319.03 87.7198V82.4398L319.67 82.0398L320.95 83.1598V87.9598L320.39 88.5198L322.23 90.1998L324.71 88.5198V88.2798V88.2798ZM331.67 87.0798L329.67 88.5998L327.67 86.9998V86.0398L331.43 83.4798V83.3998L329.51 80.5198L325.35 82.7598V88.1998L328.15 90.1998L331.75 87.3198L331.67 87.0798V87.0798ZM327.67 85.7198V81.7998L327.83 81.7198L329.59 84.5198L327.67 85.7198V85.7198ZM338.95 84.9998L337.43 83.7998C338.47 82.9198 338.87 81.7198 338.87 80.9198V80.4398H338.71C338.55 80.8398 338.23 81.2398 337.59 81.2398C336.95 81.2398 336.55 80.9198 336.15 80.4398L332.55 82.4398V85.3198L333.91 86.3598C332.55 87.5598 332.31 88.3598 332.31 88.9998C332.31 89.7998 332.71 90.3598 333.35 90.5998L333.43 90.4398C333.27 90.2798 333.11 90.1998 333.11 89.7998C333.11 89.5598 333.43 89.1598 334.07 89.1598C334.87 89.1598 335.35 89.7198 335.59 89.9598L339.03 87.8798V84.9998H338.95V84.9998ZM338.07 82.5998C337.51 83.5598 336.31 84.5198 335.59 84.9998L334.71 84.2798V81.4798C335.03 82.2798 335.91 82.9198 336.79 82.9198C337.35 82.9198 337.67 82.8398 338.07 82.5998V82.5998ZM336.71 88.9998C336.31 88.1198 335.35 87.4798 334.39 87.4798C334.15 87.4798 333.51 87.4798 332.87 87.8798C333.27 87.2398 334.31 86.1198 335.67 85.3198L336.63 86.1198L336.71 88.9998V88.9998Z" fill="white"/>
</g>
<g clip-path="url(#clip8_816_15561)">
<path d="M35.718 123.939V123.692L35.686 120.381C35.686 120.381 35.6061 120.072 36.1177 120.226L36.1337 123.939H35.718ZM35.9578 129.137C35.9578 129.137 35.7819 129.183 35.734 128.998V126.584H36.1497V129.276L35.9578 129.137ZM31.5288 123.939L30.0258 126.105L30.0098 120.412L31.6247 121.232C31.6247 121.232 31.7686 121.124 31.8486 121.48V123.924H31.5288V123.939ZM29.4022 129.555C29.4022 129.555 29.2903 129.663 29.2583 129.477L29.2903 120.691C29.2903 120.691 29.3223 120.397 29.77 120.381L29.802 129.802L29.4022 129.555ZM42.9931 129.972C42.9931 129.972 42.0657 129.555 41.9538 128.503V119.994C41.9538 119.994 42.0657 119.948 41.8099 119.778L38.5641 117.937C38.5641 117.937 38.4841 117.767 38.1643 118.03L35.4142 119.7L32.664 118.231C32.664 118.231 32.5521 118.123 32.4082 118.2C32.1844 118.324 28.9385 120.01 28.9385 120.01L26.5242 118.649C26.5242 118.649 26.4122 118.478 26.2683 118.587L23.6301 120.226C23.6301 120.226 23.2623 120.366 23.774 120.644L23.8699 120.675L25.7087 121.959V129.493L24.7653 130.019C24.7653 130.019 24.4456 130.158 24.7334 130.359L28.0911 132.061L30.6494 130.668C30.6494 130.668 30.8732 130.529 30.6814 130.328L30.0738 129.957L30.0578 126.6H31.8806V129.214L31.0491 129.709C31.0491 129.709 30.7933 129.849 31.1291 130.065L34.9825 132.045L37.5727 130.483C37.5727 130.483 37.8286 130.452 37.6527 130.266L36.4215 129.446V126.461L38.1963 123.97H36.4055L36.3895 120.366L38.0524 121.201C38.0524 121.201 38.2603 121.139 38.3082 121.526V129.678C38.3082 129.678 38.5161 131.38 40.6587 132.076L43.153 130.359C43.137 130.297 43.2489 130.158 42.9931 129.972Z" fill="white"/>
<path d="M48.8611 129.771C48.8611 129.771 47.4061 129.06 46.6386 127.791C46.4467 127.405 46.031 126.415 46.3348 125.347C46.3348 125.347 46.3987 124.156 47.8218 123.537L49.7725 124.806L49.7405 129.617C49.7405 129.632 49.4847 130.05 48.8611 129.771ZM55.4966 129.911L53.9137 128.874V124.682C53.9137 124.682 53.8817 124.481 54.0256 124.465L54.6332 124.001C54.6332 124.001 54.7451 123.831 54.5373 123.615C54.3294 123.398 50.6359 121.619 50.6359 121.619C50.6359 121.619 50.492 121.418 50.1562 121.65C50.1562 121.65 46.1109 123.243 44.496 125.27C44.496 125.27 43.2489 126.043 43.4567 129.122V129.168V129.184C43.5207 129.555 44.0163 131.659 47.0383 132.045L49.2608 130.328C49.2608 130.328 49.3727 130.127 49.5486 130.297L53.2901 132.045L55.5606 130.328C55.5446 130.297 55.6565 130.112 55.4966 129.911Z" fill="white"/>
<path d="M57.5274 122.021C57.5274 122.021 55.3209 123.321 55.145 123.584C54.9692 123.831 55.1131 123.939 55.1131 123.939C55.1131 123.939 56.0564 124.527 56.3123 124.605C56.5681 124.682 56.4881 124.821 56.4881 124.821L56.5521 129.106C56.5841 129.215 56.5521 129.508 56.5521 129.508C56.5521 129.508 56.1683 129.787 55.9765 129.957C55.7366 130.158 55.9285 130.344 55.9285 130.344L59.3502 132.015C59.3502 132.015 61.6687 130.406 61.8605 130.313C62.0684 130.236 61.8605 130.065 61.8605 130.065C61.8605 130.065 60.8692 129.508 60.6933 129.431C60.5174 129.338 60.5814 129.184 60.5814 129.184C60.5814 129.184 60.4535 124.96 60.5494 124.589C60.6294 124.249 60.7573 124.357 60.7573 124.357C60.7573 124.357 61.0771 124.28 61.3329 124.11C61.5887 123.939 61.3649 123.8 61.3649 123.8C61.3649 123.8 58.183 122.191 57.9432 121.99C57.7033 121.82 57.5274 122.021 57.5274 122.021Z" fill="white"/>
<path d="M58.1348 121.464C58.2468 121.743 58.5665 121.681 58.5665 121.681C59.9096 121.155 60.4693 119.902 60.4693 119.902C60.821 118.68 60.0056 118.355 60.0056 118.355C59.302 117.937 58.7744 118.278 58.7744 118.278C57.9589 118.711 57.7351 119.531 57.7351 119.531C57.5272 120.598 58.1348 121.464 58.1348 121.464Z" fill="white"/>
<path d="M62.324 119.716C62.324 119.716 66.0495 118.556 66.5451 118.432C67.0408 118.324 67.0088 118.54 67.0088 118.54C67.0088 118.54 66.8969 128.828 66.9769 129.184C67.0728 129.539 67.2327 129.462 67.2327 129.462C67.2327 129.462 68.0961 130.05 68.288 130.127C68.4958 130.205 68.3839 130.406 68.3839 130.406L66.2893 131.984C66.2893 131.984 62.8516 130.514 62.5798 130.344C62.228 130.127 62.4679 129.988 62.4679 129.988L63.0755 129.4C63.0755 129.4 63.1874 120.985 63.0275 120.536C62.8516 120.087 62.308 119.933 62.308 119.933C62.1801 119.747 62.324 119.716 62.324 119.716Z" fill="white"/>
<path d="M80.3921 125.486C80.3921 121.774 79.1449 119.979 76.4268 119.979C73.8685 119.979 72.4614 121.634 72.4614 125.486V125.796C72.4614 129.57 73.8845 131.226 76.4268 131.226C78.985 131.226 80.3921 129.802 80.3921 125.827V125.486ZM76.4268 132.061C73.4208 132.061 71.3741 130.158 71.3741 126.028V125.316C71.3741 121.325 73.2449 119.159 76.4268 119.159C79.7845 119.159 81.4794 121.34 81.4794 125.316V125.997C81.4954 130.065 79.6566 132.061 76.4268 132.061Z" fill="#7F8399"/>
<path d="M90.1933 131.844V124.697C90.1933 123.661 89.3459 122.934 87.9388 122.934C86.5317 122.934 85.2366 123.692 84.645 124.976V131.86H83.6057V122.423H84.5651L84.597 124.156C85.0128 123.166 86.3559 122.114 88.2266 122.114C90.0334 122.114 91.2166 123.088 91.2166 124.883V131.844H90.1933Z" fill="#7F8399"/>
<path d="M94.7982 119.33H93.7749V131.845H94.7982V119.33Z" fill="#7F8399"/>
<path d="M97.5003 131.844H98.5396V122.315H97.5003V131.844ZM97.3405 121.248H98.6516V119.809H97.3405V121.248Z" fill="#7F8399"/>
<path d="M107.766 131.844V124.697C107.766 123.661 106.918 122.934 105.511 122.934C104.104 122.934 102.809 123.692 102.217 124.976V131.86H101.178V122.423H102.137L102.169 124.156C102.585 123.166 103.928 122.114 105.799 122.114C107.606 122.114 108.789 123.088 108.789 124.883V131.844H107.766Z" fill="#7F8399"/>
<path d="M115.249 122.965C113.426 122.965 112.003 124.156 111.971 126.631H118.367C118.351 124.156 117.167 122.965 115.249 122.965ZM111.955 127.42C111.955 130.05 113.426 131.21 115.504 131.21C117.087 131.21 118.175 130.762 118.718 130.483V131.319C118.031 131.798 116.72 132.046 115.313 132.046C113.298 132.046 110.9 130.947 110.9 127.451V126.77C110.9 123.816 112.722 122.099 115.201 122.099C117.839 122.099 119.39 123.862 119.39 126.74V127.42H111.955Z" fill="#7F8399"/>
</g>
<g clip-path="url(#clip9_816_15561)">
<path d="M148.442 120.088L148.48 122.675H148.556C149.088 121.213 150.416 120.012 152.351 120.012C154.855 120.012 155.614 121.25 155.614 123.612V128.263C155.614 129.688 155.69 131.15 156.031 132.237H151.971C152.313 131.187 152.351 129.912 152.351 128.375V123.95C152.351 122.863 151.933 122.375 150.719 122.375C149.808 122.375 149.125 122.637 148.594 123.087V128.413C148.594 129.95 148.632 131.225 148.974 132.275H144.952C145.331 131.188 145.369 129.687 145.369 128.3V123.95C145.369 122.788 144.952 121.737 144.458 121.212L148.442 120.088V120.088ZM163.013 129.95V125.6C162.747 125.975 162.444 126.2 161.571 126.575C160.433 127.138 160.015 127.738 160.015 128.975C160.015 130.025 160.622 130.7 161.533 130.7C162.444 130.738 162.747 130.4 163.013 129.95ZM161.95 120.05C165.062 120.05 166.238 121.287 166.238 123.8V129.05C166.238 129.987 166.617 130.287 167.376 130.287C167.49 130.287 167.908 130.212 168.021 130.1C167.946 130.475 167.908 130.662 167.832 130.85C167.452 131.9 166.807 132.5 165.517 132.5C163.961 132.5 163.203 131.413 163.165 130.325H163.127C162.595 131.863 161.609 132.5 160.015 132.5C158.08 132.5 156.828 131.337 156.828 129.537C156.828 127.625 158.573 126.8 160.395 126.125C162.14 125.45 163.051 124.963 163.051 123.725V123.462C163.051 122.112 162.633 121.438 161.343 121.438C160.547 121.438 160.243 121.812 160.091 122.562C159.826 123.725 159.37 124.138 158.611 124.138C157.928 124.138 157.283 123.687 157.283 122.825C157.207 121.175 159.56 120.05 161.95 120.05V120.05ZM175.079 130.925C174.662 131.862 173.637 132.5 172.195 132.5C169.729 132.5 168.742 131.263 168.742 129.013V121.962H167.566V121.887L171.854 117.5L171.93 117.538V120.312H175.041L174.737 122H171.968V128.525C171.968 129.762 172.499 130.287 173.637 130.287C174.51 130.287 174.965 130.175 175.382 129.95C175.269 130.363 175.231 130.587 175.079 130.925V130.925ZM179.518 120.238V128.487C179.518 129.725 180.012 130.4 181.226 130.4C182.25 130.4 183.009 130.062 183.464 129.5V123.913C183.464 122.675 183.351 121.663 182.933 120.613L186.652 120.238V128.675C186.652 130.55 186.841 131.375 187.145 132.275H183.502V129.875H183.464C182.933 131.412 181.947 132.5 179.86 132.5C177.242 132.5 176.255 130.925 176.255 128.6V123.913C176.255 122.675 176.141 121.663 175.724 120.613L179.518 120.238V120.238ZM191.736 123.087C192.267 120.875 193.292 120.012 194.658 120.012C195.91 120.012 196.555 120.65 196.555 121.663C196.555 122.563 196.024 123.312 195.075 123.312C194.506 123.312 194.165 123.05 193.937 122.825C193.671 122.562 193.482 122.3 193.178 122.3C192.533 122.3 191.812 123.387 191.812 125.188V128.188C191.812 129.65 191.926 131.112 192.229 132.237H188.207C188.587 131.15 188.625 129.65 188.625 128.263V123.95C188.625 122.788 188.207 121.737 187.714 121.212L191.66 120.088L191.698 120.125V123.125L191.736 123.087V123.087ZM199.363 124.85L203.423 124.475C203.385 122.563 203.081 121.438 201.753 121.438C200.387 121.475 199.591 122.563 199.363 124.85V124.85ZM201.791 132.5C198.68 132.5 196.138 130.475 196.138 126.575C196.138 122.638 198.566 119.975 201.867 119.975C204.979 119.975 206.458 121.925 206.458 125.638H199.363V126.013C199.363 128.975 200.919 130.175 203.043 130.175C204.979 130.175 205.813 129.425 206.382 128.862L206.458 129.05C205.927 130.85 204.485 132.5 201.791 132.5V132.5Z" fill="white"/>
</g>
<g clip-path="url(#clip10_816_15561)">
<path d="M226.458 130.456H230.56V124.742C230.56 123.891 230.711 123.281 231.014 122.907C231.317 122.535 231.703 122.349 232.175 122.349C232.463 122.349 232.716 122.435 232.93 122.606C233.145 122.779 233.296 123.006 233.385 123.287C233.438 123.462 233.466 123.797 233.466 124.289V130.456H237.567V124.679C237.567 123.871 237.714 123.284 238.008 122.918C238.301 122.553 238.689 122.37 239.17 122.37C239.578 122.37 239.917 122.564 240.191 122.95C240.379 123.196 240.472 123.572 240.472 124.079V130.456H244.574V123.424C244.574 121.906 244.252 120.791 243.61 120.077C242.969 119.363 242.073 119.007 240.93 119.007C240.153 119.007 239.5 119.139 238.971 119.402C238.442 119.665 237.858 120.162 237.214 120.894C236.9 120.269 236.493 119.798 235.997 119.481C235.5 119.165 234.826 119.007 233.973 119.007C233.18 119.007 232.506 119.15 231.945 119.439C231.384 119.728 230.829 120.213 230.278 120.894V119.26H226.458V130.456ZM249.321 121.896C249.657 121.671 250.158 121.559 250.83 121.559C251.351 121.559 251.716 121.663 251.924 121.874C252.132 122.086 252.236 122.454 252.236 122.981C251.727 123.193 251.244 123.363 250.789 123.494C250.333 123.623 249.337 123.849 247.802 124.173C246.522 124.44 245.645 124.848 245.169 125.395C244.693 125.943 244.455 126.644 244.455 127.494C244.455 128.401 244.785 129.164 245.445 129.782C246.105 130.401 247.072 130.71 248.346 130.71C249.304 130.71 250.146 130.555 250.868 130.245C251.398 130.013 251.931 129.627 252.467 129.087C252.514 129.409 252.561 129.647 252.608 129.797C252.655 129.948 252.755 130.168 252.91 130.456H256.75C256.534 129.993 256.397 129.611 256.333 129.312C256.269 129.014 256.237 128.601 256.237 128.074V123.128C256.237 122.601 256.137 122.049 255.935 121.469C255.734 120.889 255.46 120.441 255.111 120.125C254.615 119.669 253.995 119.367 253.252 119.223C252.507 119.08 251.523 119.007 250.296 119.007C249.532 119.007 248.822 119.066 248.164 119.186C247.508 119.306 246.992 119.474 246.616 119.691C246.094 119.994 245.694 120.352 245.415 120.762C245.137 121.174 244.923 121.737 244.777 122.454L248.688 122.887C248.848 122.401 249.059 122.071 249.321 121.896ZM252.236 125.828C252.236 126.362 252.155 126.796 251.99 127.13C251.826 127.465 251.547 127.747 251.155 127.979C250.764 128.211 250.338 128.326 249.884 128.326C249.448 128.326 249.118 128.22 248.894 128.006C248.669 127.791 248.557 127.515 248.557 127.178C248.557 126.883 248.671 126.619 248.899 126.387C249.119 126.162 249.645 125.934 250.477 125.702C251.087 125.541 251.673 125.354 252.236 125.144V125.828ZM256.772 130.456H260.874V115H256.772V130.456ZM265.792 121.896C266.127 121.671 266.63 121.559 267.3 121.559C267.822 121.559 268.187 121.663 268.395 121.874C268.603 122.086 268.706 122.454 268.706 122.981C268.197 123.193 267.715 123.363 267.259 123.494C266.803 123.623 265.809 123.849 264.274 124.173C262.994 124.44 262.115 124.848 261.64 125.395C261.163 125.943 260.926 126.644 260.926 127.494C260.926 128.401 261.256 129.164 261.916 129.782C262.577 130.401 263.543 130.71 264.816 130.71C265.774 130.71 266.616 130.555 267.34 130.245C267.869 130.013 268.402 129.627 268.939 129.087C268.985 129.409 269.032 129.647 269.079 129.797C269.126 129.948 269.225 130.168 269.381 130.456H273.221C273.006 129.993 272.867 129.611 272.803 129.312C272.739 129.014 272.708 128.601 272.708 128.074V123.128C272.708 122.601 272.608 122.049 272.406 121.469C272.206 120.889 271.93 120.441 271.582 120.125C271.086 119.669 270.466 119.367 269.723 119.223C268.979 119.08 267.993 119.007 266.767 119.007C266.002 119.007 265.292 119.066 264.636 119.186C263.979 119.306 263.463 119.474 263.087 119.691C262.565 119.994 262.164 120.352 261.886 120.762C261.608 121.174 261.395 121.737 261.247 122.454L265.157 122.887C265.32 122.401 265.53 122.071 265.792 121.896ZM268.706 125.828C268.706 126.362 268.625 126.796 268.461 127.13C268.297 127.465 268.018 127.747 267.626 127.979C267.234 128.211 266.81 128.326 266.354 128.326C265.919 128.326 265.588 128.22 265.365 128.006C265.139 127.791 265.028 127.515 265.028 127.178C265.028 126.883 265.142 126.619 265.37 126.387C265.591 126.162 266.116 125.934 266.947 125.702C267.557 125.541 268.144 125.354 268.706 125.144V125.828ZM276.406 130.455C276.198 131.053 275.946 131.468 275.648 131.7C275.349 131.932 274.96 132.049 274.478 132.049C273.754 132.049 273.098 131.95 272.508 131.754L272.83 134.748C274.063 134.916 274.974 135 275.563 135C277.016 135 278.1 134.662 278.809 133.987C279.311 133.509 279.803 132.588 280.286 131.224L284.522 119.26H280.49L278.445 126.713L276.244 119.26H271.926" fill="white"/>
<path d="M280.58 130.456H284.681V124.742C284.681 123.891 284.834 123.281 285.136 122.907C285.438 122.535 285.825 122.349 286.296 122.349C286.585 122.349 286.837 122.435 287.053 122.606C287.268 122.779 287.419 123.006 287.508 123.287C287.559 123.462 287.586 123.797 287.586 124.289V130.456H291.689V124.679C291.689 123.871 291.835 123.284 292.13 122.918C292.424 122.553 292.811 122.37 293.292 122.37C293.698 122.37 294.04 122.564 294.313 122.95C294.501 123.196 294.594 123.572 294.594 124.079V130.456H298.696V123.424C298.696 121.906 298.375 120.791 297.734 120.077C297.09 119.363 296.197 119.007 295.052 119.007C294.275 119.007 293.623 119.139 293.093 119.402C292.565 119.665 291.98 120.162 291.337 120.894C291.022 120.269 290.615 119.798 290.119 119.481C289.623 119.165 288.948 119.007 288.095 119.007C287.303 119.007 286.627 119.15 286.067 119.439C285.505 119.728 284.952 120.213 284.4 120.894V119.26L280.58 120.305V130.456ZM303.443 121.896C303.778 121.671 304.281 121.559 304.951 121.559C305.474 121.559 305.838 121.663 306.047 121.874C306.254 122.086 306.359 122.454 306.359 122.981C305.849 123.193 305.367 123.363 304.912 123.494C304.455 123.623 303.46 123.849 301.925 124.173C300.644 124.44 299.767 124.848 299.291 125.395C298.816 125.943 298.577 126.644 298.577 127.494C298.577 128.401 298.908 129.164 299.568 129.782C300.228 130.401 301.194 130.71 302.469 130.71C303.427 130.71 304.268 130.555 304.991 130.245C305.521 130.013 306.054 129.627 306.589 129.087C306.636 129.409 306.683 129.647 306.731 129.797C306.778 129.948 306.877 130.168 307.031 130.456H310.873C310.657 129.993 310.519 129.611 310.456 129.312C310.392 129.014 310.359 128.601 310.359 128.074V123.128C310.359 122.601 310.258 122.049 310.057 121.469C309.856 120.889 309.581 120.441 309.234 120.125C308.738 119.669 308.117 119.367 307.374 119.223C306.63 119.08 305.644 119.007 304.418 119.007C303.655 119.007 302.944 119.066 302.287 119.186C301.63 119.306 301.115 119.474 300.739 119.691C300.216 119.994 299.817 120.352 299.537 120.762C299.258 121.174 299.046 121.737 298.898 122.454L302.81 122.887C302.97 122.401 303.182 122.071 303.443 121.896ZM306.359 125.828C306.359 126.362 306.276 126.796 306.112 127.13C305.948 127.465 305.67 127.747 305.277 127.979C304.885 128.211 304.461 128.326 304.006 128.326C303.571 128.326 303.24 128.22 303.015 128.006C302.791 127.791 302.679 127.515 302.679 127.178C302.679 126.883 302.793 126.619 303.022 126.387C303.242 126.162 303.767 125.934 304.599 125.702C305.209 125.541 305.795 125.354 306.359 125.144V125.828ZM310.904 117.921H314.995V115H310.904V117.921ZM310.904 130.456H314.995V119.26H310.904V130.456ZM315.693 130.456H319.793V115H315.693V130.456Z" fill="#7F8399"/>
<path d="M300.304 116.917C300.379 116.99 300.514 117.026 300.708 117.026C300.818 117.026 300.911 117.01 300.984 116.979C301.057 116.948 301.113 116.903 301.154 116.843C301.194 116.784 301.215 116.718 301.215 116.648C301.215 116.587 301.2 116.532 301.169 116.484C301.139 116.435 301.09 116.395 301.024 116.362C300.956 116.329 300.845 116.296 300.692 116.265C300.629 116.251 300.59 116.237 300.573 116.223C300.555 116.208 300.546 116.193 300.546 116.177C300.546 116.152 300.557 116.131 300.579 116.115C300.598 116.098 300.629 116.089 300.67 116.089C300.72 116.089 300.759 116.101 300.788 116.123C300.816 116.145 300.835 116.182 300.845 116.232L301.177 116.214C301.163 116.098 301.117 116.015 301.04 115.963C300.963 115.91 300.852 115.884 300.706 115.884C300.587 115.884 300.494 115.898 300.425 115.927C300.357 115.955 300.305 115.995 300.271 116.046C300.236 116.096 300.22 116.151 300.22 116.207C300.22 116.293 300.253 116.364 300.319 116.42C300.386 116.476 300.496 116.521 300.652 116.553C300.746 116.574 300.806 116.595 300.833 116.619C300.857 116.641 300.872 116.667 300.872 116.696C300.872 116.725 300.857 116.752 300.83 116.775C300.803 116.797 300.764 116.808 300.715 116.808C300.647 116.808 300.594 116.787 300.559 116.741C300.536 116.714 300.52 116.674 300.514 116.621L300.176 116.641C300.186 116.752 300.23 116.845 300.304 116.917ZM301.383 116.111H301.701V115.903H301.383V116.111ZM301.383 117.006H301.701V116.207H301.383V117.006ZM301.905 117.006H302.222V116.623C302.222 116.549 302.233 116.499 302.257 116.471C302.28 116.443 302.314 116.429 302.351 116.429C302.386 116.429 302.413 116.44 302.432 116.46C302.453 116.482 302.462 116.517 302.462 116.567V117.006H302.781V116.498C302.781 116.393 302.756 116.315 302.706 116.265C302.656 116.215 302.588 116.189 302.499 116.189C302.434 116.189 302.38 116.2 302.334 116.223C302.288 116.246 302.244 116.284 302.2 116.337V116.207H301.905V117.006ZM303.525 116.788C303.496 116.809 303.462 116.819 303.42 116.819C303.371 116.819 303.329 116.802 303.296 116.767C303.264 116.734 303.248 116.685 303.248 116.619C303.248 116.545 303.265 116.49 303.296 116.453C303.329 116.417 303.373 116.399 303.424 116.399C303.466 116.399 303.499 116.407 303.525 116.424C303.549 116.442 303.566 116.467 303.575 116.502L303.873 116.463C303.846 116.374 303.796 116.306 303.724 116.259C303.653 116.211 303.549 116.189 303.415 116.189C303.318 116.189 303.24 116.2 303.178 116.226C303.138 116.241 303.1 116.266 303.064 116.296C303.026 116.329 302.997 116.365 302.976 116.405C302.947 116.459 302.932 116.528 302.932 116.611C302.932 116.689 302.943 116.752 302.967 116.8C302.991 116.847 303.024 116.889 303.068 116.924C303.109 116.96 303.159 116.986 303.218 117.001C303.276 117.016 303.35 117.024 303.438 117.024C303.528 117.024 303.603 117.012 303.663 116.988C303.722 116.963 303.771 116.928 303.808 116.884C303.846 116.84 303.873 116.788 303.89 116.726L303.588 116.693C303.575 116.737 303.553 116.767 303.525 116.788ZM304.957 116.649C304.957 116.542 304.939 116.457 304.903 116.392C304.867 116.326 304.814 116.276 304.746 116.241C304.677 116.206 304.583 116.189 304.464 116.189C304.318 116.189 304.204 116.228 304.121 116.305C304.037 116.382 303.996 116.483 303.996 116.608C303.996 116.697 304.018 116.773 304.059 116.838C304.1 116.903 304.152 116.95 304.216 116.979C304.278 117.009 304.363 117.024 304.474 117.024C304.601 117.024 304.698 117.008 304.766 116.972C304.833 116.937 304.891 116.88 304.939 116.8L304.625 116.771C304.606 116.796 304.588 116.813 304.571 116.823C304.543 116.837 304.512 116.845 304.482 116.845C304.431 116.845 304.392 116.828 304.361 116.793C304.339 116.767 304.326 116.733 304.32 116.682H304.957V116.649ZM304.32 116.536C304.326 116.488 304.338 116.452 304.357 116.429C304.388 116.39 304.427 116.37 304.477 116.37C304.521 116.37 304.557 116.383 304.583 116.409C304.611 116.435 304.628 116.477 304.633 116.536H304.32ZM306.063 115.884C306.03 115.953 305.982 116.011 305.922 116.058C305.861 116.105 305.778 116.146 305.67 116.181V116.432C305.744 116.41 305.804 116.388 305.853 116.364C305.901 116.339 305.952 116.309 306.005 116.27V117.006H306.325V115.884H306.063ZM306.718 116.519C306.687 116.562 306.671 116.617 306.671 116.682C306.671 116.749 306.688 116.808 306.721 116.862C306.755 116.916 306.804 116.956 306.867 116.984C306.931 117.012 307.025 117.026 307.145 117.026C307.209 117.026 307.27 117.019 307.328 117.008C307.385 116.995 307.431 116.975 307.47 116.95C307.508 116.923 307.542 116.886 307.567 116.838C307.594 116.791 307.606 116.738 307.606 116.682C307.606 116.626 307.591 116.574 307.56 116.527C307.53 116.48 307.484 116.442 307.422 116.413C307.469 116.383 307.504 116.352 307.525 116.319C307.554 116.277 307.568 116.23 307.568 116.181C307.568 116.096 307.533 116.024 307.458 115.968C307.386 115.911 307.274 115.884 307.12 115.884C307.006 115.884 306.911 115.906 306.842 115.951C306.752 116.011 306.707 116.086 306.707 116.178C306.707 116.234 306.722 116.284 306.752 116.327C306.776 116.359 306.813 116.388 306.862 116.413C306.798 116.438 306.75 116.473 306.718 116.519ZM307.042 116.105C307.066 116.081 307.097 116.07 307.137 116.07C307.174 116.07 307.205 116.082 307.23 116.107C307.253 116.13 307.266 116.16 307.266 116.2C307.266 116.236 307.253 116.266 307.23 116.289C307.207 116.312 307.177 116.324 307.141 116.324C307.099 116.324 307.066 116.312 307.042 116.289C307.018 116.266 307.006 116.234 307.006 116.196C307.006 116.159 307.018 116.13 307.042 116.105ZM307.033 116.549C307.062 116.519 307.097 116.504 307.137 116.504C307.176 116.504 307.211 116.52 307.24 116.55C307.271 116.582 307.286 116.623 307.286 116.671C307.286 116.719 307.271 116.759 307.243 116.789C307.211 116.822 307.177 116.837 307.141 116.837C307.099 116.837 307.064 116.822 307.035 116.791C307.004 116.76 306.988 116.719 306.988 116.671C306.988 116.62 307.004 116.579 307.033 116.549ZM307.832 116.906C307.866 116.945 307.91 116.974 307.964 116.995C308.015 117.015 308.088 117.026 308.178 117.026C308.333 117.026 308.453 116.979 308.54 116.886C308.627 116.793 308.67 116.649 308.67 116.448C308.67 116.313 308.649 116.204 308.609 116.122C308.568 116.038 308.512 115.978 308.441 115.94C308.372 115.903 308.281 115.884 308.167 115.884C308.071 115.884 307.992 115.899 307.929 115.93C307.866 115.961 307.818 116.007 307.782 116.067C307.746 116.126 307.727 116.193 307.727 116.267C307.727 116.374 307.762 116.463 307.834 116.534C307.903 116.604 307.99 116.638 308.093 116.638C308.145 116.638 308.191 116.63 308.231 116.614C308.272 116.594 308.311 116.568 308.348 116.53C308.339 116.649 308.323 116.726 308.302 116.763C308.273 116.813 308.234 116.837 308.182 116.837C308.154 116.837 308.129 116.829 308.11 116.81C308.09 116.793 308.075 116.763 308.067 116.719L307.751 116.759C307.77 116.818 307.797 116.867 307.832 116.906ZM308.292 116.402C308.262 116.434 308.226 116.449 308.181 116.449C308.138 116.449 308.102 116.433 308.073 116.4C308.044 116.368 308.03 116.321 308.03 116.259C308.03 116.197 308.042 116.152 308.071 116.121C308.099 116.09 308.134 116.075 308.175 116.075C308.221 116.075 308.258 116.092 308.289 116.126C308.322 116.159 308.337 116.207 308.337 116.267C308.337 116.325 308.322 116.37 308.292 116.402ZM309.645 116.004C309.609 115.965 309.566 115.935 309.513 115.915C309.459 115.894 309.388 115.884 309.296 115.884C309.143 115.884 309.022 115.93 308.935 116.022C308.849 116.115 308.806 116.262 308.806 116.46C308.806 116.597 308.826 116.706 308.867 116.789C308.908 116.871 308.964 116.931 309.033 116.969C309.101 117.006 309.193 117.026 309.31 117.026C309.405 117.026 309.483 117.01 309.546 116.979C309.609 116.948 309.66 116.903 309.695 116.842C309.73 116.783 309.748 116.715 309.748 116.644C309.748 116.535 309.712 116.446 309.643 116.375C309.571 116.306 309.486 116.27 309.384 116.27C309.331 116.27 309.285 116.279 309.245 116.296C309.204 116.315 309.166 116.343 309.128 116.379C309.137 116.261 309.152 116.184 309.173 116.148C309.203 116.097 309.243 116.072 309.294 116.072C309.322 116.072 309.347 116.08 309.365 116.098C309.385 116.115 309.401 116.146 309.407 116.189L309.725 116.152C309.705 116.092 309.679 116.043 309.645 116.004ZM309.183 116.508C309.212 116.476 309.25 116.46 309.295 116.46C309.337 116.46 309.374 116.477 309.403 116.508C309.432 116.541 309.447 116.589 309.447 116.652C309.447 116.712 309.433 116.758 309.405 116.788C309.376 116.819 309.341 116.834 309.3 116.834C309.256 116.834 309.216 116.818 309.185 116.784C309.154 116.75 309.139 116.703 309.139 116.644C309.139 116.584 309.154 116.539 309.183 116.508Z" fill="#0A0A0A"/>
</g>
<defs>
<clipPath id="clip0_816_15561">
<rect width="127.5" height="15" fill="white" transform="translate(25)"/>
</clipPath>
<clipPath id="clip1_816_15561">
<rect width="76" height="15" fill="white" transform="translate(172.5)"/>
</clipPath>
<clipPath id="clip2_816_15561">
<rect width="46.5" height="15" fill="white" transform="translate(268.5)"/>
</clipPath>
<clipPath id="clip3_816_15561">
<rect width="76.5" height="15" fill="white" transform="translate(96.0166 37.5)"/>
</clipPath>
<clipPath id="clip4_816_15561">
<rect width="128.8" height="20" fill="white" transform="translate(192.517 35)"/>
</clipPath>
<clipPath id="clip5_816_15561">
<rect width="52.5" height="15" fill="white" transform="translate(0.25 77.5)"/>
</clipPath>
<clipPath id="clip6_816_15561">
<rect width="99" height="15" fill="white" transform="translate(72.75 77.5)"/>
</clipPath>
<clipPath id="clip7_816_15561">
<rect width="148" height="20" fill="white" transform="translate(191.75 75)"/>
</clipPath>
<clipPath id="clip8_816_15561">
<rect width="104.25" height="15" fill="white" transform="translate(20.2084 117.5)"/>
</clipPath>
<clipPath id="clip9_816_15561">
<rect width="62" height="15" fill="white" transform="translate(144.458 117.5)"/>
</clipPath>
<clipPath id="clip10_816_15561">
<rect width="93.3333" height="20" fill="white" transform="translate(226.458 115)"/>
</clipPath>
</defs>
</svg>
