<svg xmlns="http://www.w3.org/2000/svg" width="30" height="31" viewBox="0 0 30 31" fill="none">
<path d="M22.5 8C21.7375 8 21.0375 7.5625 20.6875 6.8875L19.7875 5.075C19.2125 3.9375 17.7125 3 16.4375 3H13.575C12.2875 3 10.7875 3.9375 10.2125 5.075L9.31246 6.8875C8.96246 7.5625 8.26247 8 7.49997 8C4.78747 8 2.63747 10.2875 2.81247 12.9875L3.46247 23.3125C3.61247 25.8875 4.99997 28 8.44997 28H21.55C25 28 26.375 25.8875 26.5375 23.3125L27.1875 12.9875C27.3625 10.2875 25.2125 8 22.5 8ZM13.125 9.5625H16.875C17.3875 9.5625 17.8125 9.9875 17.8125 10.5C17.8125 11.0125 17.3875 11.4375 16.875 11.4375H13.125C12.6125 11.4375 12.1875 11.0125 12.1875 10.5C12.1875 9.9875 12.6125 9.5625 13.125 9.5625ZM15 23.15C12.675 23.15 10.775 21.2625 10.775 18.925C10.775 16.5875 12.6625 14.7 15 14.7C17.3375 14.7 19.225 16.5875 19.225 18.925C19.225 21.2625 17.325 23.15 15 23.15Z" fill="#0160D2"/>
</svg>