
<svg width="309" height="186" viewBox="0 0 309 186" fill="none" xmlns="http://www.w3.org/2000/svg">
<g clip-path="url(#clip0_208_9896)">
<rect width="309" height="186" fill="#0160D2"/>
<path d="M258.619 134.877C258.22 136.085 251.7 141.448 251.7 141.448L247.385 145.122V161.188L243.83 165.14L250.987 185.553H169.51L169.494 173.947C178.568 172.575 181.417 166.234 183.042 161.133C183.397 160.024 183.693 158.968 183.983 158.039C184.716 155.672 185.142 152.775 185.481 149.123C185.886 144.766 186.176 139.322 186.728 132.401C187.018 128.749 187.494 125.458 188.03 122.627C189.348 115.591 191 111.365 191 111.365C191.645 111.048 192.313 110.759 192.996 110.491C201.419 107.173 212.014 107.424 212.014 107.424L247.385 106.041L254.331 123.08C254.331 123.08 255.119 124.862 256.027 127.044C256.754 128.809 257.558 130.837 258.078 132.401C258.078 132.401 258.078 132.401 258.078 132.406C258.488 133.631 258.723 134.566 258.619 134.877Z" fill="#6666FF"/>
<path d="M260.999 87.0636C258.195 89.2969 254.374 89.6668 250.798 90.083C247.222 90.4992 242.457 92.1037 240.028 94.7347L239.907 94.7486C239.033 90.5269 238.806 84.7563 239.954 76.9048L237.474 67.2871C237.474 67.2871 236.021 59.7177 232.376 57.9699C228.73 56.2175 227.999 58.5526 224.936 55.6394C221.878 52.7264 221.878 51.4132 218.089 52.1391C215.351 52.6662 212.69 55.3204 211.423 56.7538C210.932 57.3133 210.659 58.0161 210.636 58.7606C210.581 60.601 210.4 64.5776 209.78 68.8963C207.588 81.3671 211.372 86.7955 216.836 87.0961C216.836 87.0961 216.854 87.1423 216.877 87.2302C217.104 88.0717 217.414 92.3859 216.1 97.7635C212.751 99.6177 208.739 99.7611 205.061 98.4941C201.037 97.1023 197.756 93.7453 196.489 89.7179C195.378 86.1991 195.776 82.3335 197.035 78.8656C198.293 75.393 200.37 72.2765 202.642 69.3541C204.793 66.5844 207.208 63.8239 208.004 60.4207C208.49 58.3492 208.337 56.1944 208.36 54.0721C208.392 51.2514 208.763 48.3846 209.989 45.8368C211.215 43.2937 213.389 41.0973 216.128 40.3343C218.871 39.5667 222.175 40.3805 223.724 42.7434C224.923 39.0859 228.383 36.2653 232.237 35.803C236.091 35.336 240.13 37.2549 242.179 40.5193C243.262 42.2395 243.84 44.3063 245.293 45.7397C247.731 48.1534 252.112 48.2644 253.851 51.2098C255.378 53.7853 254.013 57.1099 254.693 60.0184C255.29 62.5523 257.335 64.4481 259.088 66.3809C261.712 69.2709 263.904 72.6925 264.548 76.5211C265.195 80.3543 264.052 84.6267 260.999 87.0636Z" fill="#2E3E56"/>
<path d="M209.914 99.6734C208.281 99.6734 206.603 99.3909 204.947 98.8194C200.824 97.3971 197.456 93.9487 196.157 89.8202C195.118 86.518 195.314 82.5847 196.707 78.7449C197.801 75.7316 199.547 72.7694 202.369 69.1403C202.609 68.8317 202.852 68.5231 203.096 68.2135C205.004 65.7929 206.977 63.2898 207.668 60.3395C208.037 58.7631 208.026 57.0892 208.014 55.4706C208.011 55.0023 208.008 54.5345 208.013 54.0681C208.053 50.623 208.58 47.9599 209.675 45.6874C211.057 42.8151 213.376 40.7417 216.036 39.9994C218.879 39.2047 221.951 40.0538 223.619 42.0217C225.031 38.5186 228.4 35.914 232.195 35.4564C236.211 34.9736 240.339 36.9327 242.475 40.3324C242.877 40.9735 243.213 41.6623 243.537 42.3288C244.111 43.5076 244.654 44.6211 245.536 45.4935C246.564 46.5109 248.005 47.1214 249.398 47.7115C251.229 48.4873 253.121 49.2893 254.152 51.0317C255.096 52.6281 254.995 54.4852 254.897 56.281C254.83 57.5094 254.762 58.7797 255.033 59.939C255.524 62.0311 257.088 63.7131 258.601 65.3397C258.853 65.61 259.103 65.8792 259.348 66.1493C262.449 69.5703 264.314 73.041 264.891 76.4648C265.608 80.7153 264.166 84.9812 261.216 87.3328C258.435 89.5499 254.77 89.9733 251.227 90.3828L250.837 90.428C247.288 90.8408 242.648 92.4049 240.282 94.9688C240.152 95.1099 239.933 95.1192 239.791 94.9887C239.651 94.8588 239.642 94.6394 239.771 94.4988C242.258 91.8041 247.08 90.1665 250.757 89.739L251.147 89.6938C254.594 89.2957 258.158 88.8839 260.783 86.7905C263.538 84.5937 264.882 80.5857 264.207 76.58C263.652 73.289 261.844 69.9362 258.834 66.6149C258.591 66.3471 258.342 66.08 258.093 65.812C256.518 64.1192 254.89 62.3686 254.357 60.0971C254.063 58.8413 254.135 57.5206 254.205 56.2435C254.301 54.4728 254.392 52.8002 253.555 51.3848C252.64 49.8389 250.934 49.1157 249.127 48.3501C247.674 47.7344 246.171 47.0975 245.048 45.9867C244.081 45.031 243.488 43.8116 242.914 42.6324C242.597 41.9826 242.27 41.3107 241.888 40.7015C239.923 37.5736 235.973 35.6981 232.279 36.1451C228.586 36.5903 225.204 39.3473 224.055 42.8498C224.014 42.9762 223.903 43.0679 223.771 43.0855C223.635 43.1033 223.508 43.0428 223.435 42.9319C221.876 40.5588 218.626 39.9966 216.223 40.6674C213.791 41.3461 211.577 43.3352 210.3 45.9883C209.252 48.1659 208.746 50.736 208.708 54.0762C208.702 54.5386 208.705 55.0021 208.709 55.4658C208.72 57.1253 208.732 58.841 208.344 60.4978C207.617 63.5982 205.596 66.1627 203.642 68.6429C203.399 68.9513 203.156 69.2586 202.917 69.5661C200.142 73.1357 198.428 76.0394 197.36 78.9817C196.018 82.679 195.826 86.4544 196.819 89.6121C198.053 93.5351 201.254 96.8119 205.174 98.1639C209.302 99.5883 213.553 99.1321 216.84 96.9127C216.999 96.8054 217.214 96.8474 217.322 97.0059C217.429 97.1646 217.387 97.3802 217.228 97.4875C215.085 98.9348 212.556 99.6734 209.914 99.6734Z" fill="#252525"/>
<path d="M211.474 56.6976C211.455 56.7161 211.437 56.7346 211.423 56.753C210.932 57.3125 210.66 58.0154 210.636 58.7598C210.618 59.3609 210.585 60.1887 210.53 61.1874C210.414 63.2359 210.197 65.987 209.78 68.8955C209.558 70.1578 209.397 71.3462 209.295 72.4652C209.137 74.1668 209.11 75.7066 209.198 77.0892C209.096 77.0984 208.994 77.0984 208.888 77.0984C203.863 77.0984 199.788 72.4282 199.788 66.6807C199.788 60.9238 203.863 56.2676 208.888 56.2676C209.785 56.2676 210.655 56.4155 211.474 56.6976Z" fill="#F7D43D"/>
<path d="M210.53 61.1887C210.414 63.2371 210.197 65.9883 209.78 68.8968C209.558 70.1591 209.396 71.3474 209.295 72.4665C209.16 72.4804 209.026 72.485 208.887 72.485C206.088 72.485 203.817 69.8863 203.817 66.6819C203.817 63.4729 206.088 60.8789 208.887 60.8789C209.461 60.8789 210.016 60.9899 210.53 61.1887Z" fill="#E53C6D"/>
<path d="M208.888 77.4461C203.679 77.4461 199.441 72.6171 199.441 66.6817C199.441 60.7487 203.679 55.9219 208.888 55.9219C209.814 55.9219 210.722 56.073 211.587 56.3707C211.7 56.4095 211.785 56.5041 211.812 56.6207C211.839 56.7371 211.804 56.8593 211.719 56.9438L211.697 56.9668C211.247 57.4816 211.004 58.1005 210.983 58.7717C210.967 59.2887 210.936 60.1316 210.876 61.2076C210.723 63.9286 210.469 66.532 210.124 68.9458C209.902 70.2036 209.741 71.3948 209.64 72.4975C209.488 74.1455 209.456 75.683 209.544 77.068C209.556 77.2556 209.416 77.4186 209.229 77.4356C209.117 77.4456 209.005 77.4461 208.888 77.4461ZM208.888 56.6154C204.061 56.6154 200.135 61.1312 200.135 66.6817C200.135 72.213 204.03 76.7173 208.831 76.7523C208.767 75.4272 208.807 73.9766 208.949 72.4343C209.051 71.3128 209.216 70.1022 209.439 68.8365C209.78 66.4533 210.031 63.8698 210.184 61.1686C210.243 60.1002 210.274 59.2637 210.289 58.7502C210.311 58.0684 210.517 57.4301 210.888 56.8806C210.24 56.7046 209.57 56.6154 208.888 56.6154Z" fill="#252525"/>
<path d="M208.888 72.8309C205.9 72.8309 203.47 70.0721 203.47 66.6812C203.47 63.2901 205.9 60.5312 208.888 60.5312C209.489 60.5312 210.084 60.6432 210.655 60.8645C210.796 60.9187 210.885 61.0571 210.876 61.2075C210.723 63.9281 210.469 66.5316 210.124 68.9453C209.902 70.2031 209.741 71.3943 209.64 72.4971C209.625 72.6621 209.496 72.7935 209.331 72.8107C209.184 72.8257 209.038 72.8309 208.888 72.8309ZM208.888 61.2249C206.283 61.2249 204.164 63.6725 204.164 66.6812C204.164 69.6897 206.283 72.1374 208.888 72.1374C208.918 72.1374 208.948 72.1372 208.978 72.1367C209.081 71.0993 209.235 69.9907 209.439 68.8361C209.769 66.5293 210.015 64.0347 210.168 61.4276C209.751 61.2931 209.321 61.2249 208.888 61.2249Z" fill="#252525"/>
<path d="M224.418 38.9056C221.171 39.7379 218.311 41.5875 215.878 44.0012C213.343 46.5259 211.326 49.6285 209.757 53.115C209.281 54.1369 208.85 55.1957 208.443 56.2824C207.374 56.3379 206.352 56.6107 205.408 57.0593C205.533 55.2929 205.815 53.5359 206.26 51.7926C207.328 47.6125 209.47 43.5527 212.616 40.4501C212.797 40.2698 212.986 40.094 213.176 39.9183C216.854 38.1936 220.606 38.0225 224.025 38.8086C224.155 38.8408 224.289 38.8686 224.418 38.9056Z" fill="#EF603F"/>
<path d="M205.408 57.406C205.34 57.406 205.272 57.3857 205.213 57.3457C205.111 57.2761 205.054 57.1576 205.062 57.0347C205.189 55.2432 205.479 53.4507 205.924 51.7068C207.058 47.2719 209.348 43.1866 212.373 40.2032C212.551 40.0244 212.741 39.8485 212.931 39.6724C212.957 39.648 212.996 39.6193 213.029 39.6039C216.473 37.9892 220.302 37.5972 224.103 38.4702L224.247 38.5048C224.336 38.5256 224.426 38.5468 224.514 38.5718C224.664 38.6149 224.768 38.7533 224.765 38.91C224.763 39.0665 224.657 39.2024 224.505 39.2412C221.521 40.0059 218.701 41.6902 216.122 44.247C213.723 46.6362 211.688 49.6674 210.074 53.2569C209.641 54.1855 209.214 55.2134 208.768 56.4038C208.72 56.5329 208.599 56.6212 208.462 56.6285C207.463 56.6804 206.486 56.9306 205.557 57.3722C205.51 57.3949 205.459 57.406 205.408 57.406ZM213.372 40.2094C213.194 40.3744 213.024 40.5329 212.862 40.6951C209.924 43.5932 207.699 47.5641 206.596 51.8783C206.209 53.396 205.942 54.9518 205.801 56.5106C206.577 56.204 207.38 56.0164 208.198 55.9511C208.622 54.832 209.03 53.8543 209.443 52.9684C211.09 49.3061 213.173 46.205 215.633 43.7555C217.925 41.4822 220.409 39.874 223.033 38.9616C219.711 38.3811 216.388 38.8071 213.372 40.2094Z" fill="#252525"/>
<path d="M244.218 57.0982C243.282 57.0982 242.385 57.2622 241.538 57.5629C240.974 56.0268 240.373 54.5397 239.684 53.113C238.048 49.6254 235.948 46.5258 233.311 44.0002C230.675 41.4855 227.558 39.5887 224.008 38.8069C220.447 38.0198 216.542 38.1947 212.713 39.9166C213.353 39.0803 214.125 38.3204 215 37.6753C215.88 37.0412 216.854 36.5164 217.877 36.0899C218.905 35.6799 219.988 35.3848 221.093 35.1879C222.203 35.0075 223.335 34.9474 224.473 34.9803C225.605 35.0349 226.743 35.1934 227.864 35.4612C228.991 35.7401 230.063 36.1391 231.107 36.6039C232.146 37.0849 233.131 37.6698 234.077 38.2984C235.007 38.9546 235.882 39.6815 236.708 40.4469C239.984 43.5518 242.21 47.6135 243.326 51.7901C243.791 53.5504 244.086 55.3216 244.218 57.0982Z" fill="#EF603F"/>
<path d="M241.538 57.9106C241.397 57.9106 241.264 57.8234 241.212 57.6832C240.59 55.9865 239.988 54.5413 239.371 53.2648C237.688 49.6747 235.569 46.6433 233.072 44.2515C230.275 41.5837 227.2 39.8661 223.934 39.1467C220.136 38.307 216.305 38.6827 212.856 40.2337C212.713 40.2987 212.541 40.2572 212.442 40.1328C212.343 40.0084 212.342 39.833 212.438 39.7067C213.106 38.8343 213.898 38.0572 214.794 37.3972C215.663 36.7717 216.654 36.225 217.743 35.7707C218.76 35.3655 219.864 35.0555 221.032 34.8475C222.117 34.6711 223.279 34.5997 224.483 34.6346C225.657 34.691 226.819 34.8558 227.945 35.1247C228.99 35.3834 230.07 35.7637 231.248 36.2879C232.199 36.7277 233.186 37.2904 234.269 38.0104C235.159 38.6381 236.056 39.3707 236.944 40.1935C240.091 43.1756 242.475 47.2617 243.662 51.7016C244.127 53.4631 244.431 55.2703 244.564 57.0735C244.571 57.1696 244.538 57.2643 244.472 57.3349C244.406 57.4056 244.315 57.4458 244.218 57.4458C243.348 57.4458 242.486 57.5955 241.654 57.8906C241.616 57.9043 241.576 57.9106 241.538 57.9106ZM219.98 38.0159C221.34 38.0159 222.714 38.1665 224.083 38.4693C227.475 39.2162 230.661 40.993 233.551 43.7502C236.111 46.202 238.28 49.3027 239.998 52.9667C240.584 54.1804 241.158 55.5457 241.747 57.1286C242.432 56.9162 243.134 56.7929 243.843 56.7608C243.7 55.121 243.414 53.4807 242.991 51.8796C241.838 47.5627 239.521 43.592 236.47 40.6996C235.607 39.9001 234.734 39.1871 233.877 38.5827C232.831 37.888 231.875 37.3423 230.961 36.9196C229.826 36.4143 228.783 36.047 227.781 35.7988C226.7 35.5407 225.58 35.3818 224.456 35.3276C223.302 35.2944 222.185 35.3628 221.148 35.5313C220.032 35.7302 218.973 36.0273 218.006 36.4131C216.97 36.8448 216.025 37.3653 215.203 37.9576C214.749 38.2922 214.322 38.6596 213.927 39.0563C215.87 38.365 217.91 38.0159 219.98 38.0159Z" fill="#252525"/>
<path d="M247.385 106.041C237.195 119.603 225.288 119.1 212.014 107.424C213.278 105.559 213.852 103.99 214.661 102.361C215.317 101.043 215.616 99.6482 215.95 98.3635C217.437 92.7111 217.111 88.105 216.876 87.2304C216.854 87.1429 216.838 87.0937 216.838 87.0937C211.374 86.7929 207.589 81.3646 209.782 68.8955C210.4 64.5768 210.581 60.6026 210.635 58.7604C210.657 58.0168 210.931 57.3116 211.423 56.7542C212.692 55.3219 215.35 52.665 218.09 52.1403C221.881 51.4134 221.881 52.7253 224.938 55.639C228.001 58.5526 228.729 56.2184 232.377 57.9676C236.019 59.717 237.474 67.2881 237.474 67.2881L239.952 76.9039C236.167 102.865 247.385 106.041 247.385 106.041Z" fill="#EDA5A5"/>
<path d="M216.805 98.7167C218.293 93.0644 217.111 88.1061 216.876 87.2316C220.601 87.1058 224.812 85.9741 227.777 82.3389C227 83.312 220.015 92.0968 216.805 98.7167Z" fill="#CB8383"/>
<path d="M230.572 116.545C224.787 116.545 218.476 113.571 211.786 107.683C211.655 107.569 211.63 107.376 211.726 107.231C217.287 98.8674 216.688 89.1826 216.524 87.4209C215.48 87.3281 214.5 87.0511 213.613 86.581C209.308 84.2995 207.825 77.9967 209.44 68.8338C210.045 64.5991 210.231 60.6974 210.287 58.7497C210.311 57.9281 210.622 57.1381 211.164 56.5258C212.517 54.9932 215.209 52.341 218.024 51.8003C221.185 51.1925 221.935 51.9922 223.574 53.7461C224.021 54.224 224.528 54.7657 225.18 55.3859C226.795 56.9232 227.685 56.9104 228.813 56.8883C229.767 56.872 230.851 56.8531 232.524 57.6552C236.282 59.4582 237.755 66.9096 237.816 67.2259L240.29 76.8199C240.301 76.8644 240.304 76.9109 240.297 76.9563C236.599 102.319 247.372 105.678 247.482 105.709C247.592 105.74 247.679 105.824 247.716 105.932C247.752 106.04 247.733 106.16 247.664 106.251C243.002 112.454 237.818 115.889 232.257 116.46C231.7 116.516 231.139 116.545 230.572 116.545ZM212.471 107.361C219.58 113.554 226.211 116.381 232.186 115.769C237.436 115.23 242.361 112.013 246.828 106.204C244.685 105.28 236.239 100.108 239.6 76.9253L237.139 67.3778C237.12 67.2828 235.667 59.9326 232.224 58.2806C230.699 57.5493 229.745 57.5654 228.824 57.5818C227.642 57.6035 226.522 57.6218 224.701 55.888C224.035 55.254 223.521 54.7045 223.068 54.2198C221.477 52.5188 220.942 51.9455 218.155 52.4813C215.542 52.9834 212.979 55.5184 211.684 56.9852C211.249 57.4762 211 58.11 210.981 58.7699C210.924 60.7325 210.736 64.6636 210.124 68.943C208.565 77.7968 209.92 83.8391 213.938 85.9681C214.802 86.4263 215.766 86.6837 216.797 86.7502C216.839 86.745 216.881 86.7479 216.92 86.7572C220.368 86.9301 224.551 84.9939 228.342 81.3191C228.48 81.1866 228.7 81.189 228.833 81.3268C228.966 81.4643 228.963 81.6838 228.826 81.8172C225.058 85.469 220.882 87.4561 217.33 87.4563C217.294 87.4563 217.259 87.4561 217.224 87.4556C217.401 89.5173 217.871 99.0338 212.471 107.361Z" fill="#252525"/>
<path d="M228.596 60.6281C228.418 60.839 227.767 60.6127 226.894 60.5239C226.021 60.4147 224.945 60.5085 224.075 60.8125C223.205 61.1057 222.709 61.3825 222.353 61.4454C222.002 61.52 221.793 61.404 221.641 61.1771C221.493 60.9554 221.417 60.661 221.668 60.2365C221.917 59.8283 222.516 59.2421 223.731 58.8858C224.945 58.5115 226.484 58.7141 227.418 59.2497C228.382 59.767 228.768 60.4404 228.596 60.6281ZM210.831 63.0439C210.681 62.878 211.059 62.1104 211.909 61.4774C212.742 60.8315 214.012 60.4452 215.016 60.4869C216.026 60.5218 216.542 60.8149 216.766 61.0428C216.991 61.281 216.947 61.4811 216.837 61.6887C216.726 61.8992 216.569 62.0574 216.283 62.1298C215.995 62.2012 215.588 62.1695 214.85 62.1644C214.116 62.1606 213.153 62.2908 212.374 62.5843C211.585 62.8447 210.99 63.2304 210.831 63.0439ZM218.573 74.7318C218.258 74.7318 217.959 74.6751 217.689 74.5618C216.992 74.2683 216.538 73.5844 216.584 72.8987C216.622 72.3381 216.961 71.8962 217.259 71.5063L217.4 71.3214C217.894 70.6547 218.244 69.8618 218.41 69.0282C218.533 68.4157 218.556 67.7986 218.479 67.1942C218.455 67.0041 218.589 66.8305 218.78 66.8063C218.973 66.7832 219.144 66.917 219.168 67.1065C219.254 67.7856 219.228 68.4779 219.091 69.164C218.904 70.0972 218.512 70.986 217.957 71.7343L217.81 71.9282C217.548 72.2705 217.3 72.5936 217.276 72.9453C217.25 73.3339 217.537 73.745 217.958 73.9225C218.351 74.0875 218.852 74.076 219.368 73.8906C219.865 73.712 220.326 73.4009 220.773 73.1005C220.932 72.993 221.147 73.0357 221.255 73.194C221.362 73.3529 221.32 73.5683 221.161 73.6754C220.679 74.0001 220.182 74.3356 219.603 74.5432C219.254 74.669 218.905 74.7318 218.573 74.7318ZM216.212 65.8742C216.237 66.7561 215.541 67.4894 214.658 67.5147C213.776 67.54 213.042 66.8476 213.017 65.9657C212.992 65.0837 213.684 64.3505 214.567 64.3252C215.449 64.2999 216.187 64.9922 216.212 65.8742ZM225.77 65.0408C225.795 65.9228 225.099 66.6561 224.216 66.6814C223.334 66.7067 222.6 66.0143 222.575 65.1323C222.55 64.2504 223.242 63.5172 224.125 63.4919C225.007 63.4666 225.745 64.1589 225.77 65.0408ZM218.355 79.0965C218.022 79.0965 217.689 79.0733 217.357 79.0266C217.168 78.9996 217.036 78.8243 217.063 78.6346C217.089 78.4449 217.263 78.3131 217.455 78.3397C218.835 78.5364 220.268 78.2743 221.489 77.6064C222.711 76.9377 223.703 75.8723 224.282 74.6063C224.362 74.4322 224.569 74.3557 224.742 74.4352C224.916 74.5149 224.993 74.7206 224.913 74.8948C224.273 76.2958 223.175 77.4748 221.822 78.2147C220.763 78.7939 219.56 79.0965 218.355 79.0965Z" fill="#252525"/>
<path d="M244.224 77.9313C249.25 77.9313 253.324 73.2679 253.324 67.5154C253.324 61.7629 249.25 57.0996 244.224 57.0996C239.198 57.0996 235.124 61.7629 235.124 67.5154C235.124 73.2679 239.198 77.9313 244.224 77.9313Z" fill="#F7D43D"/>
<path d="M244.224 73.3191C247.025 73.3191 249.295 70.7203 249.295 67.5145C249.295 64.3087 247.025 61.71 244.224 61.71C241.423 61.71 239.153 64.3087 239.153 67.5145C239.153 70.7203 241.423 73.3191 244.224 73.3191Z" fill="#E53C6D"/>
<path d="M244.224 78.2781C239.015 78.2781 234.777 73.45 234.777 67.5155C234.777 61.581 239.015 56.7529 244.224 56.7529C249.433 56.7529 253.671 61.581 253.671 67.5155C253.671 73.45 249.433 78.2781 244.224 78.2781ZM244.224 57.4464C239.397 57.4464 235.471 61.9634 235.471 67.5154C235.471 73.0674 239.397 77.5844 244.224 77.5844C249.05 77.5844 252.977 73.0674 252.977 67.5154C252.977 61.9634 249.05 57.4464 244.224 57.4464Z" fill="#252525"/>
<path d="M244.224 73.6659C241.236 73.6659 238.806 70.9064 238.806 67.5146C238.806 64.1227 241.236 61.3633 244.224 61.3633C247.212 61.3633 249.642 64.1227 249.642 67.5146C249.642 70.9064 247.212 73.6659 244.224 73.6659ZM244.224 62.0568C241.619 62.0568 239.499 64.5051 239.499 67.5145C239.499 70.5239 241.619 72.9722 244.224 72.9722C246.829 72.9722 248.948 70.5239 248.948 67.5145C248.948 64.5051 246.829 62.0568 244.224 62.0568Z" fill="#252525"/>
<path d="M204.581 33.7946V44.6223C204.581 46.0966 203.381 47.2956 201.906 47.2956H201.08V54.1732L192.71 47.2956H159.369C157.894 47.2956 156.694 46.0966 156.694 44.6223V33.7946C156.694 32.3203 157.894 31.1211 159.369 31.1211H201.906C203.381 31.1211 204.581 32.3203 204.581 33.7946Z" fill="#D9E7F8"/>
<path d="M201.08 54.5199C201.001 54.5199 200.923 54.493 200.86 54.4411L192.585 47.6425H159.369C157.703 47.6425 156.347 46.2876 156.347 44.6222V33.7947C156.347 32.1293 157.703 30.7744 159.369 30.7744H201.906C203.572 30.7744 204.928 32.1293 204.928 33.7947V44.6222C204.928 46.2876 203.572 47.6425 201.906 47.6425H201.427V54.1732C201.427 54.3073 201.35 54.4294 201.228 54.4868C201.181 54.509 201.13 54.5199 201.08 54.5199ZM159.369 31.468C158.085 31.468 157.041 32.5118 157.041 33.7947V44.6222C157.041 45.9051 158.085 46.9489 159.369 46.9489H192.71C192.79 46.9489 192.868 46.9769 192.93 47.0277L200.733 53.4391V47.2957C200.733 47.1042 200.888 46.949 201.08 46.949H201.906C203.189 46.949 204.233 45.9052 204.233 44.6223V33.7947C204.233 32.5118 203.189 31.468 201.906 31.468H159.369Z" fill="#252525"/>
<path d="M198.875 35.6828H162.916C162.724 35.6828 162.569 35.5274 162.569 35.336C162.569 35.1445 162.725 34.9893 162.916 34.9893H198.875C199.067 34.9893 199.222 35.1446 199.222 35.336C199.222 35.5274 199.067 35.6828 198.875 35.6828ZM187.583 39.5544H162.916C162.724 39.5544 162.569 39.3991 162.569 39.2077C162.569 39.0162 162.725 38.8609 162.916 38.8609H187.583C187.774 38.8609 187.93 39.0163 187.93 39.2077C187.93 39.3991 187.774 39.5544 187.583 39.5544ZM193.935 43.4261H162.916C162.724 43.4261 162.569 43.2707 162.569 43.0793C162.569 42.8878 162.725 42.7326 162.916 42.7326H193.935C194.127 42.7326 194.282 42.8879 194.282 43.0793C194.282 43.2707 194.126 43.4261 193.935 43.4261Z" fill="#252525"/>
<path d="M279.956 145.012L273.562 145.275L260.014 145.832L247.385 146.352L245.503 146.428L244.951 134.648L247.385 106.041C247.385 106.041 248.966 106.287 251.443 107.194C253.686 108.009 256.661 109.37 259.872 111.579C267.403 116.75 276.231 126.573 279.956 145.012Z" fill="#6666FF"/>
<path opacity="0.5" d="M214.996 160.846C204.105 161.837 194.469 153.815 193.477 142.93C192.486 132.045 200.513 122.419 211.404 121.428C222.295 120.436 231.93 128.454 232.922 139.339C233.913 150.225 225.887 159.855 214.996 160.846ZM207.979 119.136C205.931 119.323 204.118 117.814 203.931 115.766C203.744 113.718 205.255 111.907 207.304 111.72C209.353 111.534 211.165 113.042 211.352 115.09C211.539 117.138 210.028 118.95 207.979 119.136ZM222.139 177.702C220.09 177.889 218.277 176.379 218.09 174.332C217.904 172.284 219.414 170.473 221.463 170.286C223.512 170.1 225.325 171.608 225.511 173.656C225.698 175.704 224.188 177.516 222.139 177.702ZM237.974 128.341C235.925 128.528 234.112 127.019 233.925 124.971C233.739 122.923 235.249 121.112 237.298 120.925C239.347 120.739 241.16 122.247 241.346 124.295C241.533 126.343 240.023 128.155 237.974 128.341ZM273.562 145.276L260.014 145.833C260.293 142.602 262.852 139.929 266.205 139.623C269.782 139.295 272.971 141.793 273.562 145.276ZM259.872 111.58C259.418 113.613 257.7 115.209 255.518 115.406C252.811 115.652 250.42 113.662 250.174 110.962C250.043 109.53 250.541 108.185 251.443 107.195C253.686 108.01 256.661 109.371 259.872 111.58ZM253.77 136.042C251.066 136.289 248.674 134.297 248.427 131.594C248.181 128.892 250.174 126.502 252.878 126.256C255.582 126.01 257.974 128 258.22 130.703C258.467 133.405 256.474 135.796 253.77 136.042ZM247.385 154.913V161.189L243.83 165.141C243.184 165.404 242.495 165.573 241.768 165.639C237.808 165.999 234.302 163.08 233.941 159.122C233.58 155.159 236.501 151.655 240.466 151.294C243.37 151.032 246.028 152.53 247.385 154.913ZM188.402 122.6C188.276 122.611 188.156 122.622 188.03 122.628C189.348 115.592 191 111.366 191 111.366C191.645 111.049 192.313 110.76 192.996 110.492C194.068 111.623 194.774 113.105 194.927 114.772C195.288 118.735 192.367 122.239 188.402 122.6ZM191.498 182.438H177.457C177.37 182.098 177.315 181.754 177.282 181.399C176.921 177.43 179.848 173.921 183.818 173.554C187.789 173.194 191.301 176.118 191.662 180.087C191.733 180.896 191.673 181.688 191.498 182.438ZM183.042 161.134C183.397 160.024 183.693 158.969 183.983 158.04C184.715 155.673 185.142 152.776 185.481 149.124C186.723 150.288 187.554 151.89 187.718 153.716C188.019 157.034 186.028 160.03 183.042 161.134Z" fill="white"/>
<path d="M190.999 111.714C190.871 111.714 190.748 111.643 190.688 111.52C190.603 111.348 190.674 111.14 190.846 111.056C199.454 106.831 211.897 107.074 212.023 107.076C212.215 107.081 212.367 107.24 212.362 107.431C212.358 107.623 212.209 107.77 212.007 107.77C211.887 107.767 199.605 107.529 191.152 111.678C191.103 111.703 191.051 111.714 190.999 111.714Z" fill="#252525"/>
<path d="M220.968 94.6651C219.792 96.7316 217.495 94.4137 217.495 94.4137C219.555 96.6187 218.425 99.854 215.703 98.3638C216.836 100.581 214.266 102.673 212.015 99.9077C213.325 102.601 209.958 103.943 208.104 99.6821C207.561 98.5559 203.616 103.918 195.764 106.669C194.196 107.219 192.94 108.413 192.34 109.963C190.683 114.25 187.545 123.743 186.346 136.725C186.1 139.354 185.887 142.153 185.712 145.122C184.334 168.415 177.103 173.46 167.81 173.92C158.512 174.379 149.219 168.415 153.349 151.556C154.684 146.117 157.796 139.01 161.4 131.887C165.874 123.053 171.103 114.186 174.631 108.408C178.552 101.99 183.765 96.4308 190.044 92.2872C193.397 90.0788 197.149 88.1873 200.797 87.5531C211.418 85.7217 212.868 86.1865 214.52 86.6128C216.171 87.0338 222.139 92.6042 220.968 94.6651Z" fill="#EDA5A5"/>
<path d="M186.346 136.726C186.1 139.355 185.887 142.154 185.712 145.122C184.333 168.415 177.103 173.461 167.81 173.92C158.512 174.379 149.219 168.415 153.349 151.556C154.683 146.117 157.796 139.011 161.4 131.888C159.776 135.807 158.419 139.842 157.364 143.947C156.078 148.954 155.236 154.295 156.713 159.248C158.189 164.206 162.554 168.618 167.728 168.651C171.901 168.672 175.686 165.884 177.983 162.397C180.281 158.915 181.353 154.787 182.392 150.747C183.415 146.746 184.443 142.744 185.466 138.748C185.646 138.065 185.925 137.299 186.346 136.726Z" fill="#CB8383"/>
<path d="M166.831 174.291C162.01 174.291 157.817 172.531 155.219 169.384C151.892 165.355 151.128 159.162 153.012 151.474C154.205 146.607 156.923 139.964 161.09 131.731C165.536 122.952 170.746 114.104 174.334 108.228C178.346 101.662 183.712 96.05 189.852 91.9979C193.813 89.389 197.475 87.7785 200.737 87.2117C211.232 85.4022 212.825 85.8159 214.512 86.253L214.606 86.2774C216.044 86.6436 220.105 90.308 221.176 92.8227C221.528 93.6488 221.559 94.3264 221.27 94.8364C221.27 94.8366 221.27 94.8366 221.27 94.8366C220.928 95.4363 220.466 95.7788 219.896 95.8542C219.477 95.9111 219.048 95.8048 218.663 95.6357C219.059 96.7032 218.927 97.7601 218.431 98.399C217.934 99.0374 217.161 99.2373 216.282 98.9821C216.469 99.9708 216.036 100.829 215.388 101.251C214.749 101.668 213.728 101.776 212.659 101.007C212.67 101.42 212.569 101.796 212.355 102.104C212.027 102.578 211.484 102.818 210.859 102.758C210.31 102.706 208.922 102.323 207.82 99.8995C207.575 99.8674 206.598 100.613 205.749 101.279C203.803 102.805 200.547 105.361 195.879 106.997C194.394 107.517 193.222 108.643 192.664 110.088C190.942 114.542 187.876 123.928 186.692 136.757C186.442 139.418 186.229 142.239 186.058 145.142C185.409 156.11 183.43 163.681 180.007 168.29C177.181 172.096 173.31 173.995 167.827 174.266C167.492 174.282 167.16 174.291 166.831 174.291ZM211.614 86.577C209.79 86.577 206.738 86.8807 200.855 87.8951C197.688 88.4455 194.114 90.0208 190.234 92.5768C184.179 96.5731 178.885 102.11 174.926 108.589C171.345 114.455 166.145 123.286 161.709 132.044C157.566 140.231 154.867 146.823 153.685 151.639C151.856 159.106 152.572 165.089 155.754 168.942C158.389 172.133 162.777 173.819 167.792 173.573C176.069 173.164 183.925 169.432 185.365 145.101C185.537 142.191 185.75 139.361 186 136.693C187.193 123.781 190.281 114.325 192.016 109.838C192.648 108.204 193.972 106.929 195.649 106.342C200.209 104.744 203.285 102.33 205.32 100.733C206.925 99.4737 207.809 98.7798 208.371 99.4619C208.391 99.486 208.408 99.5129 208.42 99.5414C209.406 101.759 210.586 102.035 210.924 102.067C211.296 102.102 211.6 101.975 211.785 101.709C212.053 101.321 212.024 100.72 211.702 100.06C211.625 99.901 211.679 99.7102 211.828 99.6154C211.975 99.5204 212.172 99.5524 212.283 99.6888C213.366 101.019 214.428 101.049 215.009 100.67C215.545 100.321 215.893 99.4997 215.393 98.5217C215.324 98.3863 215.351 98.2212 215.46 98.1151C215.569 98.0088 215.735 97.9866 215.869 98.0597C216.737 98.5347 217.471 98.5027 217.883 97.9732C218.42 97.2814 218.328 95.8143 217.241 94.6505C217.111 94.5121 217.117 94.2958 217.254 94.1644C217.391 94.033 217.607 94.0355 217.741 94.1696C218.052 94.482 219.032 95.2698 219.806 95.1664C220.154 95.1201 220.435 94.9 220.666 94.4938C220.887 94.105 220.717 93.518 220.537 93.0942C219.491 90.6384 215.599 87.2461 214.433 86.949L214.338 86.9244C213.672 86.752 212.997 86.577 211.614 86.577ZM220.967 94.6653H220.972H220.967Z" fill="#252525"/>
<path d="M217.495 94.7608C217.405 94.7608 217.316 94.7265 217.248 94.6582L214.575 91.9645C213.49 90.872 211.985 90.2453 210.445 90.2453H208.53C208.338 90.2453 208.183 90.0899 208.183 89.8985C208.183 89.707 208.339 89.5518 208.53 89.5518H210.445C212.168 89.5518 213.853 90.2533 215.067 91.476L217.741 94.1697C217.876 94.3057 217.875 94.5253 217.739 94.6602C217.671 94.7274 217.583 94.7608 217.495 94.7608ZM215.702 98.7107C215.608 98.7107 215.513 98.6724 215.445 98.5967L212.758 95.6327C211.627 94.3846 210.157 93.54 208.508 93.1905L208.031 93.0888C207.843 93.0491 207.724 92.8649 207.764 92.6777C207.804 92.4899 207.987 92.3707 208.175 92.4107L208.652 92.512C210.445 92.892 212.042 93.8103 213.272 95.1671L215.959 98.1312C216.088 98.2729 216.077 98.4924 215.935 98.6209C215.869 98.6812 215.786 98.7107 215.702 98.7107ZM212.015 100.255C211.911 100.255 211.81 100.209 211.741 100.121L210.289 98.2657C209.459 97.2065 208.279 96.4685 206.963 96.1876L206.311 96.0483C206.124 96.0083 206.005 95.8239 206.045 95.6367C206.085 95.4492 206.265 95.3294 206.457 95.37L207.108 95.5093C208.583 95.8241 209.906 96.6513 210.835 97.8384L212.288 99.6941C212.406 99.8449 212.379 100.063 212.228 100.181C212.165 100.231 212.089 100.255 212.015 100.255Z" fill="#252525"/>
<path d="M166.853 145.44C166.862 145.413 166.845 145.406 166.835 145.434C166.826 145.461 166.843 145.467 166.853 145.44ZM169.317 140.438C169.382 140.27 169.287 140.193 169.221 140.362C169.156 140.531 169.251 140.607 169.317 140.438ZM166.198 146.755C166.275 146.538 166.13 146.506 166.053 146.723C165.976 146.941 166.121 146.972 166.198 146.755ZM166.086 147.521L166.39 147.797C166.44 147.842 166.489 147.89 166.54 147.932C166.568 147.955 166.601 147.971 166.631 147.99C166.659 148.007 166.683 148.021 166.72 148.007C166.765 147.989 166.818 147.879 166.809 147.81C166.799 147.74 166.77 147.714 166.741 147.678C166.717 147.649 166.694 147.621 166.668 147.599L166.523 147.476L166.228 147.225C166.198 147.2 166.149 147.225 166.108 147.311C166.072 147.385 166.056 147.494 166.086 147.521ZM168.929 146.501C168.951 146.438 168.911 146.421 168.889 146.484C168.866 146.547 168.906 146.564 168.929 146.501ZM168.218 149.372L168.834 148.177C169.033 147.796 169.236 147.413 169.418 147.012C169.472 146.893 169.423 146.794 169.358 146.904C169.139 147.273 168.933 147.677 168.728 148.074L168.131 149.243C168.045 149.415 168.132 149.543 168.218 149.372ZM171.118 143.951C171.232 143.658 171.063 143.523 170.947 143.821C170.836 144.116 171.007 144.251 171.118 143.951ZM169.253 144.439C169.358 144.156 169.165 144.116 169.06 144.399C168.955 144.682 169.148 144.721 169.253 144.439ZM169.042 144.147L168.913 143.967L168.87 143.908L168.849 143.879C168.828 143.849 168.799 143.848 168.767 143.844L168.796 143.849C168.761 143.841 168.727 143.829 168.684 143.849C168.628 143.874 168.559 143.988 168.552 144.093C168.549 144.143 168.547 144.153 168.552 144.196L168.561 144.27C168.565 144.298 168.568 144.329 168.575 144.353C168.583 144.379 168.602 144.398 168.614 144.418L168.638 144.457L168.753 144.646C168.775 144.682 168.804 144.699 168.847 144.679C168.883 144.661 168.933 144.61 168.968 144.548C169.005 144.48 169.038 144.399 169.05 144.323C169.061 144.256 169.065 144.176 169.042 144.147ZM169.616 141.455C169.727 141.167 169.527 141.134 169.415 141.422C169.303 141.711 169.504 141.742 169.616 141.455ZM170.968 140.572L171.192 140.282L171.207 140.255C171.215 140.241 171.221 140.226 171.225 140.211C171.233 140.186 171.238 140.158 171.236 140.139C171.232 140.101 171.211 140.085 171.181 140.107L171.099 140.168L171.12 140.153L170.957 140.273C170.928 140.295 170.898 140.344 170.876 140.391C170.862 140.423 170.851 140.456 170.845 140.488C170.839 140.513 170.838 140.535 170.84 140.554C170.839 140.576 170.843 140.593 170.85 140.605C170.856 140.618 170.864 140.625 170.876 140.626C170.886 140.631 170.898 140.63 170.911 140.622C170.93 140.613 170.949 140.596 170.968 140.572Z" fill="#EF7E60"/>
<path d="M170.927 140.555L171.365 140.258L171.576 140.114L171.682 140.043C171.736 140.006 171.785 139.957 171.84 139.898C171.936 139.796 171.958 139.584 171.876 139.603C171.834 139.613 171.791 139.624 171.744 139.656L171.638 139.727L171.42 139.875L170.989 140.167C170.927 140.209 170.862 140.32 170.845 140.429C170.828 140.53 170.865 140.597 170.927 140.555ZM171.316 141.879L172.117 141.003C172.255 140.856 172.392 140.715 172.53 140.578C172.603 140.505 172.678 140.438 172.75 140.356C172.829 140.268 172.922 140.164 172.992 140.038C173.034 139.962 173.028 139.861 172.982 139.881C172.913 139.912 172.837 139.998 172.765 140.071C172.69 140.147 172.615 140.245 172.542 140.334L172.14 140.811L171.307 141.775C171.257 141.833 171.267 141.933 171.316 141.879ZM174.126 138.632C174.226 138.396 174.084 138.297 173.984 138.536C173.884 138.772 174.026 138.871 174.126 138.632ZM172.965 142.487C173.06 142.242 172.909 142.153 172.813 142.401C172.718 142.646 172.869 142.734 172.965 142.487ZM174.421 142.488L174.145 143.258C174.126 143.312 174.121 143.391 174.129 143.425C174.138 143.462 174.153 143.485 174.178 143.49C174.231 143.502 174.309 143.425 174.359 143.306C174.341 143.349 174.364 143.294 174.366 143.289L174.383 143.248L174.421 143.157L174.494 142.982L174.669 142.562C174.739 142.393 174.743 142.227 174.667 142.204C174.632 142.193 174.594 142.211 174.548 142.259C174.49 142.318 174.456 142.393 174.421 142.488ZM174.139 144.989L174.204 144.975L174.18 144.98L174.262 144.966C174.279 144.963 174.295 144.952 174.314 144.931C174.331 144.911 174.349 144.883 174.361 144.853C174.371 144.828 174.378 144.803 174.382 144.779C174.388 144.746 174.385 144.708 174.374 144.694L174.289 144.584C174.266 144.555 174.221 144.566 174.181 144.611C174.149 144.648 174.119 144.696 174.098 144.753C174.078 144.806 174.068 144.865 174.07 144.907C174.072 144.938 174.079 144.961 174.092 144.975C174.104 144.989 174.119 144.993 174.139 144.989Z" fill="#EF7E60"/>
<path d="M174.164 144.796L174.081 145.364C174.074 145.411 174.115 145.388 174.123 145.341L174.217 144.763C174.227 144.704 174.172 144.737 174.164 144.796ZM172.739 147.891C172.824 147.652 172.678 147.56 172.592 147.802C172.507 148.041 172.654 148.132 172.739 147.891ZM171.845 151.054L172.27 150.778L172.469 150.649L172.573 150.582L172.618 150.553C172.656 150.528 172.682 150.499 172.721 150.445C172.792 150.347 172.828 150.135 172.761 150.124C172.727 150.118 172.701 150.118 172.659 150.148L172.611 150.186L172.506 150.266L172.271 150.449L171.87 150.764C171.764 150.848 171.737 151.124 171.845 151.054ZM173.743 149.134C173.858 148.809 173.643 148.73 173.527 149.056C173.412 149.381 173.628 149.46 173.743 149.134ZM175.594 145.604C175.632 145.508 175.56 145.503 175.523 145.599C175.486 145.696 175.558 145.7 175.594 145.604ZM176.33 142.531L176.357 142.421L176.374 142.347L176.366 142.384L176.395 142.266C176.406 142.22 176.402 142.176 176.38 142.171C176.371 142.17 176.361 142.172 176.35 142.179C176.333 142.189 176.317 142.213 176.302 142.238L176.299 142.244L176.314 142.219L176.223 142.373L176.245 142.337L176.176 142.454C176.143 142.511 176.118 142.592 176.119 142.646C176.12 142.689 176.13 142.721 176.152 142.732C176.172 142.742 176.202 142.732 176.23 142.705C176.251 142.686 176.271 142.66 176.289 142.628C176.306 142.598 176.32 142.565 176.33 142.531Z" fill="#EF7E60"/>
<path d="M176.429 142.282L176.255 141.126L176.172 140.564C176.154 140.443 176.128 140.336 176.103 140.223C176.086 140.145 176.054 140.092 176.03 140.024C175.997 139.932 175.861 140.071 175.861 140.218C175.859 140.297 175.856 140.373 175.853 140.451C175.853 140.513 175.861 140.57 175.866 140.628C175.874 140.728 175.883 140.825 175.896 140.919L175.98 141.509L176.147 142.664C176.161 142.762 176.257 142.733 176.328 142.637C176.41 142.526 176.443 142.38 176.429 142.282ZM175.612 139.35L175.853 139.107L175.951 139.008C175.993 138.965 176.034 138.915 176.077 138.866C176.104 138.834 176.122 138.774 176.119 138.741C176.116 138.703 176.093 138.701 176.064 138.723C176.024 138.755 175.985 138.785 175.945 138.823L175.846 138.914L175.627 139.118C175.585 139.156 175.543 139.235 175.541 139.3C175.54 139.329 175.544 139.355 175.559 139.363C175.572 139.37 175.592 139.371 175.612 139.35Z" fill="#EF7E60"/>
<path d="M175.786 139.059L175.778 138.302L175.774 137.934L175.761 137.767C175.755 137.681 175.751 137.604 175.73 137.537C175.701 137.442 175.576 137.569 175.551 137.717C175.522 137.886 175.523 138.035 175.517 138.187C175.512 138.323 175.518 138.45 175.519 138.58L175.527 139.337C175.528 139.43 175.601 139.443 175.667 139.368C175.74 139.284 175.787 139.159 175.786 139.059ZM175.171 136.797L175.217 136.608L175.207 136.648L175.234 136.544C175.246 136.496 175.243 136.458 175.223 136.448C175.205 136.437 175.173 136.454 175.146 136.495L175.084 136.591L175.106 136.558L174.987 136.748C174.969 136.783 174.955 136.82 174.944 136.858C174.935 136.895 174.93 136.929 174.931 136.96C174.934 137.004 174.948 137.035 174.974 137.042C174.998 137.048 175.032 137.032 175.064 136.999C175.087 136.974 175.109 136.943 175.128 136.907C175.147 136.871 175.161 136.835 175.171 136.797ZM175.174 136.139C175.242 135.795 175.196 135.527 175.076 135.403C174.959 135.282 174.711 135.308 174.494 135.592C174.414 135.696 174.398 135.874 174.483 135.828C174.568 135.781 174.64 135.739 174.704 135.735L174.728 135.735C174.728 135.735 174.757 135.739 174.742 135.736C174.756 135.739 174.771 135.744 174.784 135.75C174.812 135.762 174.836 135.781 174.859 135.803C174.903 135.844 174.932 135.902 174.948 135.988L174.954 136.026C174.951 136.004 174.953 136.017 174.954 136.032L174.956 136.112C174.955 136.164 174.948 136.218 174.937 136.278C174.917 136.384 174.959 136.439 175.022 136.402C175.088 136.363 175.153 136.245 175.174 136.139ZM173.416 135.495C173.442 135.434 173.404 135.415 173.377 135.476C173.35 135.537 173.389 135.557 173.416 135.495ZM170.56 137.817L170.525 137.821L170.554 137.818L170.43 137.825C170.42 137.823 170.408 137.826 170.395 137.835C170.383 137.84 170.37 137.852 170.356 137.868L170.33 137.904C170.317 137.923 170.306 137.945 170.297 137.968C170.282 138.004 170.269 138.045 170.267 138.079C170.264 138.122 170.269 138.153 170.285 138.17L170.315 138.202L170.299 138.183L170.373 138.268C170.393 138.289 170.426 138.28 170.459 138.256C170.483 138.237 170.505 138.211 170.528 138.176C170.545 138.15 170.559 138.122 170.571 138.091C170.584 138.062 170.594 138.032 170.6 138.002C170.607 137.972 170.611 137.945 170.61 137.921C170.611 137.894 170.609 137.872 170.601 137.855C170.592 137.832 170.579 137.819 170.56 137.817ZM168.887 140.245C168.968 140.036 168.832 139.992 168.751 140.2C168.67 140.409 168.806 140.453 168.887 140.245ZM170.507 137.181L170.572 137.076L170.549 137.113L170.835 136.652C170.865 136.605 170.872 136.539 170.861 136.514C170.847 136.485 170.816 136.499 170.784 136.54C170.801 136.519 170.778 136.549 170.775 136.553L170.755 136.578L170.711 136.635L170.611 136.764L170.442 136.983C170.419 137.013 170.395 137.071 170.385 137.109C170.374 137.151 170.371 137.199 170.38 137.222C170.399 137.269 170.456 137.264 170.507 137.181ZM172.405 134.596L172.505 134.482L172.59 134.381L172.563 134.415L172.653 134.304C172.672 134.281 172.688 134.25 172.7 134.219C172.713 134.188 172.722 134.154 172.723 134.128C172.723 134.106 172.721 134.089 172.714 134.076C172.707 134.059 172.685 134.052 172.666 134.065L172.61 134.102L172.527 134.162L172.412 134.252C172.394 134.268 172.378 134.288 172.363 134.314C172.347 134.336 172.333 134.361 172.322 134.39C172.309 134.417 172.301 134.443 172.295 134.469C172.288 134.496 172.284 134.521 172.284 134.544C172.284 134.587 172.295 134.624 172.319 134.631L172.344 134.632C172.363 134.629 172.383 134.617 172.405 134.596ZM166.93 140.486C167.296 140.097 167.654 139.705 168.027 139.322C168.071 139.276 168.067 139.183 168.024 139.228L166.927 140.358C166.863 140.425 166.865 140.556 166.93 140.486ZM166.03 143.882C166.061 143.798 166.006 143.786 165.975 143.869C165.944 143.952 166 143.965 166.03 143.882ZM164.406 147.654L164.517 147.656L164.493 147.656L164.593 147.662C164.615 147.663 164.64 147.655 164.666 147.646C164.699 147.633 164.741 147.588 164.766 147.516C164.79 147.446 164.795 147.378 164.774 147.347C164.761 147.328 164.749 147.306 164.733 147.293L164.704 147.272L164.647 147.232L164.666 147.247L164.572 147.177C164.519 147.139 164.427 147.235 164.377 147.378C164.326 147.522 164.341 147.651 164.406 147.654ZM166.718 142.563C166.82 142.289 166.644 142.227 166.542 142.503C166.44 142.778 166.616 142.838 166.718 142.563Z" fill="#EF7E60"/>
<path d="M166.742 142.26C166.752 142.233 166.735 142.226 166.725 142.253C166.714 142.28 166.731 142.287 166.742 142.26ZM167.044 139.327C167.266 138.972 167.491 138.619 167.706 138.252C167.785 138.116 167.747 137.998 167.661 138.113L166.985 139.057C166.925 139.141 166.88 139.282 166.9 139.352C166.918 139.414 166.983 139.426 167.044 139.327ZM169.785 134.567C169.873 134.359 169.738 134.311 169.65 134.519C169.563 134.726 169.698 134.774 169.785 134.567ZM172.101 132.354C172.225 132.076 172.034 132.023 171.911 132.302C171.789 132.581 171.979 132.632 172.101 132.354ZM173.437 132.546L173.557 132.458L173.526 132.481C173.614 132.419 173.701 132.36 173.79 132.288C173.824 132.261 173.862 132.201 173.875 132.145C173.888 132.093 173.884 132.039 173.854 132.042C173.793 132.047 173.73 132.061 173.665 132.078L173.691 132.072L173.522 132.111C173.489 132.119 173.448 132.163 173.414 132.211C173.372 132.27 173.342 132.348 173.329 132.414C173.303 132.547 173.354 132.604 173.437 132.546ZM175.702 130.829C175.808 130.601 175.681 130.491 175.572 130.721C175.467 130.949 175.597 131.06 175.702 130.829ZM175.785 131.303L176.17 131.653L176.362 131.828C176.423 131.883 176.491 131.968 176.586 131.941C176.622 131.932 176.664 131.84 176.658 131.798C176.64 131.676 176.553 131.627 176.492 131.575L176.297 131.409L175.908 131.078C175.853 131.032 175.731 131.253 175.785 131.303ZM178.069 131.173L178.357 130.952C178.455 130.876 178.555 130.807 178.655 130.712C178.689 130.678 178.724 130.596 178.727 130.551C178.731 130.498 178.712 130.474 178.677 130.484C178.71 130.474 178.651 130.492 178.642 130.495L178.612 130.508L178.548 130.54L178.401 130.611L178.147 130.736C178.064 130.776 177.973 130.916 177.949 131.051C177.925 131.183 177.981 131.24 178.069 131.173ZM179.705 134.54C179.78 134.376 179.682 134.299 179.607 134.465C179.532 134.63 179.63 134.706 179.705 134.54ZM179.903 136.668L180.448 136.606C180.548 136.595 180.64 136.296 180.541 136.307L179.996 136.368C179.896 136.38 179.804 136.679 179.903 136.668ZM179.196 139.559L179.183 139.596L179.176 139.614C179.173 139.625 179.171 139.63 179.167 139.644C179.162 139.661 179.159 139.677 179.158 139.692L179.152 139.732L179.16 139.694L179.128 139.821C179.117 139.867 179.12 139.91 179.142 139.915C179.151 139.917 179.161 139.915 179.172 139.909C179.189 139.899 179.205 139.875 179.22 139.851L179.271 139.768L179.251 139.798L179.299 139.731L179.272 139.767C179.28 139.757 179.286 139.749 179.294 139.738C179.309 139.717 179.31 139.717 179.323 139.692L179.347 139.645L179.372 139.593C179.395 139.545 179.405 139.491 179.408 139.45C179.408 139.42 179.403 139.397 179.394 139.38C179.387 139.368 179.377 139.361 179.365 139.361C179.354 139.357 179.341 139.359 179.327 139.367C179.312 139.374 179.297 139.386 179.282 139.404C179.267 139.419 179.252 139.439 179.238 139.463C179.221 139.493 179.207 139.525 179.196 139.559ZM181.3 139.468C181.441 139.134 181.193 139.088 181.052 139.422C180.911 139.757 181.16 139.802 181.3 139.468ZM177.84 134.924C177.954 134.667 177.781 134.595 177.667 134.854C177.554 135.112 177.726 135.183 177.84 134.924ZM180.096 132.056L180.189 131.932L180.151 131.983L180.639 131.346C180.681 131.289 180.712 131.223 180.71 131.163C180.709 131.113 180.676 131.087 180.633 131.129L180.116 131.635L180.155 131.597L180.067 131.682C179.973 131.774 179.896 131.94 179.905 132.057C179.913 132.164 180.004 132.177 180.096 132.056ZM177.329 134.06C177.479 133.731 177.251 133.658 177.1 133.987C176.95 134.317 177.179 134.39 177.329 134.06ZM180.705 130.689L181.172 129.923C181.244 129.799 181.194 129.709 181.113 129.812C180.939 130.029 180.774 130.268 180.611 130.502C180.554 130.584 180.525 130.714 180.551 130.758C180.577 130.802 180.648 130.784 180.705 130.689ZM178.61 129.295C178.766 128.967 178.54 128.888 178.384 129.217C178.228 129.546 178.455 129.624 178.61 129.295ZM178.238 128.848C178.199 128.558 178.074 128.359 177.876 128.327C177.771 128.31 177.647 128.338 177.518 128.394C177.367 128.459 177.205 128.62 177.048 128.803C176.939 128.93 176.961 129.098 177.057 129.028C177.182 128.936 177.304 128.903 177.413 128.88C177.503 128.861 177.579 128.871 177.649 128.903C177.68 128.916 177.709 128.931 177.736 128.953C177.75 128.964 177.764 128.976 177.776 128.99L177.795 129.011C177.786 129 177.787 129.002 177.797 129.016C177.818 129.053 177.838 129.088 177.853 129.132C177.856 129.138 177.874 129.202 177.867 129.173L177.88 129.251C177.896 129.359 177.982 129.369 178.081 129.257C178.175 129.151 178.253 128.956 178.238 128.848ZM174.498 129.564C174.694 129.15 174.397 129.091 174.202 129.503C174.006 129.917 174.303 129.975 174.498 129.564ZM171.937 131.33C171.949 131.304 171.932 131.296 171.92 131.322C171.908 131.349 171.925 131.356 171.937 131.33ZM166.989 138.223L166.883 138.498C166.874 138.521 166.871 138.547 166.881 138.551C166.891 138.555 166.907 138.541 166.917 138.517L167.033 138.241C167.045 138.212 167.045 138.181 167.033 138.177C167.021 138.174 167.001 138.192 166.989 138.223ZM165.456 142.088L165.369 142.338L165.378 142.314L165.353 142.386C165.345 142.407 165.343 142.438 165.346 142.451C165.349 142.464 165.354 142.472 165.363 142.474C165.381 142.479 165.41 142.45 165.428 142.406L165.54 142.123C165.561 142.069 165.56 142.008 165.537 142.001C165.526 141.998 165.511 142.002 165.495 142.02C165.481 142.037 165.465 142.061 165.456 142.088ZM163.995 147.577C164.08 147.326 163.933 147.235 163.847 147.488C163.762 147.739 163.909 147.83 163.995 147.577ZM163.448 152.618L164.04 152.142C164.135 152.066 164.229 151.971 164.324 151.886L164.63 151.618C164.702 151.556 164.727 151.34 164.654 151.383L164.362 151.556C164.261 151.614 164.163 151.659 164.06 151.729L163.484 152.116C163.408 152.167 163.334 152.346 163.325 152.477C163.315 152.61 163.372 152.68 163.448 152.618ZM167.315 149.752L167.989 148.891L168.326 148.47C168.443 148.325 168.565 148.193 168.671 148.005C168.716 147.926 168.724 147.797 168.663 147.843C168.602 147.889 168.555 147.933 168.494 148.006L168.328 148.208L167.974 148.638L167.288 149.492C167.174 149.635 167.201 149.898 167.315 149.752Z" fill="#EF7E60"/>
<path d="M167.17 149.66L166.878 151.091L166.742 151.794C166.693 152.051 166.603 152.413 166.639 152.601C166.658 152.699 166.754 152.636 166.806 152.522C166.741 152.663 166.855 152.397 166.86 152.379C166.88 152.318 166.891 152.26 166.903 152.199L166.981 151.809L167.126 151.076L167.433 149.583C167.504 149.241 167.24 149.316 167.17 149.66ZM169.227 149.792L169.736 149.055C169.912 148.804 170.082 148.521 170.253 148.256C170.314 148.162 170.293 148.02 170.226 148.106L169.955 148.455C169.86 148.578 169.763 148.695 169.67 148.828L169.182 149.528C169.132 149.602 169.097 149.712 169.109 149.787C169.121 149.854 169.176 149.866 169.227 149.792ZM170.621 147.411L170.525 147.69C170.513 147.722 170.537 147.73 170.549 147.698L170.647 147.428C170.654 147.409 170.655 147.391 170.648 147.386C170.641 147.382 170.628 147.392 170.621 147.411ZM168.512 151.971L168.882 151.263L169.054 150.933L169.175 150.686C169.213 150.604 169.251 150.521 169.238 150.447C169.223 150.364 169.167 150.4 169.116 150.478L169.015 150.642C168.95 150.749 168.888 150.866 168.826 150.98L168.42 151.715C168.366 151.812 168.332 151.951 168.361 152.02C168.386 152.078 168.458 152.079 168.512 151.971ZM172.377 144.374C172.487 144.091 172.286 144.059 172.177 144.342C172.071 144.626 172.271 144.656 172.377 144.374ZM172.747 143.664L173.094 143.08C173.23 142.852 173.374 142.624 173.489 142.368C173.553 142.226 173.489 142.149 173.416 142.239C173.271 142.417 173.136 142.657 173.003 142.876L172.632 143.488C172.577 143.58 172.564 143.71 172.593 143.754C172.626 143.805 172.692 143.756 172.747 143.664ZM170.783 150.213L171.148 149.887L171.113 149.919C171.179 149.86 171.246 149.813 171.311 149.723C171.339 149.685 171.361 149.651 171.381 149.599C171.398 149.554 171.412 149.503 171.414 149.461C171.418 149.372 171.389 149.323 171.338 149.337C171.367 149.329 171.321 149.342 171.316 149.343C171.297 149.349 171.279 149.354 171.258 149.368L171.198 149.41L171.083 149.492L170.845 149.662L170.884 149.635L170.82 149.68C170.776 149.71 170.739 149.749 170.701 149.817C170.657 149.897 170.631 149.997 170.625 150.079C170.614 150.244 170.688 150.297 170.783 150.213ZM168.328 156.643C168.422 156.338 168.236 156.224 168.14 156.534C168.047 156.841 168.233 156.953 168.328 156.643ZM167.11 158.967C167.179 158.729 167.035 158.639 166.964 158.881C166.895 159.12 167.04 159.209 167.11 158.967ZM164.729 161.868C164.749 161.797 164.703 161.785 164.683 161.856C164.664 161.927 164.71 161.939 164.729 161.868ZM164.568 161.747C164.599 161.484 164.53 161.328 164.426 161.288C164.384 161.272 164.326 161.278 164.274 161.324C164.189 161.399 164.115 161.517 164.058 161.683C164.036 161.746 164.042 161.827 164.063 161.849C164.086 161.872 164.124 161.856 164.155 161.799L164.166 161.781C164.17 161.773 164.175 161.77 164.169 161.776C164.16 161.784 164.17 161.775 164.174 161.77L164.182 161.758C164.185 161.755 164.201 161.736 164.184 161.756C164.168 161.775 164.183 161.758 164.186 161.755L164.199 161.742C164.203 161.739 164.218 161.726 164.201 161.741C164.183 161.755 164.206 161.738 164.211 161.735C164.215 161.733 164.239 161.721 164.221 161.73C164.202 161.739 164.225 161.73 164.23 161.729L164.252 161.725L164.269 161.72L164.277 161.719C164.288 161.717 164.251 161.719 164.265 161.72C164.276 161.721 164.287 161.722 164.298 161.726L164.306 161.729C164.315 161.731 164.282 161.714 164.295 161.724L164.309 161.734C164.319 161.742 164.327 161.752 164.336 161.764L164.317 161.737C164.328 161.754 164.337 161.773 164.344 161.796L164.332 161.756L164.342 161.796L164.345 161.821C164.336 161.763 164.342 161.783 164.343 161.802L164.343 161.827C164.343 161.836 164.342 161.874 164.344 161.829C164.346 161.785 164.344 161.823 164.343 161.833L164.338 161.866C164.321 161.989 164.369 162.071 164.429 162.035C164.492 161.997 164.553 161.875 164.568 161.747ZM161.674 161.357C161.748 161.09 161.581 161.027 161.507 161.296C161.433 161.564 161.601 161.626 161.674 161.357ZM161.612 160.408L161.878 158.961C161.885 158.921 161.858 158.923 161.851 158.963L161.57 160.418C161.558 160.477 161.601 160.467 161.612 160.408ZM161.687 157.455L162.314 157.02C162.343 157 162.348 156.916 162.319 156.934L161.698 157.33C161.651 157.36 161.639 157.488 161.687 157.455ZM164.756 156.788L164.728 156.92L164.743 156.847L164.659 157.236L164.671 157.179L164.648 157.29C164.645 157.312 164.64 157.345 164.638 157.36L164.637 157.407L164.644 157.447C164.652 157.476 164.668 157.491 164.687 157.493C164.722 157.497 164.768 157.453 164.801 157.378C164.782 157.419 164.779 157.427 164.79 157.403L164.801 157.378L164.817 157.34L164.848 157.26L164.928 157.04L164.903 157.106L164.992 156.866C165.02 156.791 165.032 156.713 165.033 156.644C165.034 156.562 165.009 156.514 164.972 156.502C164.94 156.491 164.904 156.508 164.863 156.556C164.818 156.609 164.775 156.696 164.756 156.788Z" fill="#EF7E60"/>
<path d="M180.139 121.05L179.954 120.622C179.887 120.465 179.829 120.286 179.699 120.227C179.617 120.19 179.465 120.406 179.47 120.552C179.472 120.625 179.472 120.705 179.49 120.761C179.506 120.811 179.521 120.864 179.54 120.91L179.624 121.104L179.792 121.491C179.823 121.564 179.911 121.563 180.01 121.432C180.096 121.319 180.173 121.129 180.139 121.05ZM175.865 127.35C175.957 127.162 175.84 127.096 175.748 127.284C175.656 127.471 175.773 127.537 175.865 127.35ZM172.725 127.139C172.789 127.003 172.702 126.964 172.638 127.1C172.573 127.236 172.661 127.275 172.725 127.139ZM170.048 130.512C170.217 130.141 170.009 129.973 169.838 130.349C169.669 130.721 169.877 130.887 170.048 130.512ZM166.348 136.686C166.51 136.284 166.264 136.163 166.101 136.567C165.938 136.97 166.185 137.089 166.348 136.686Z" fill="#EF7E60"/>
<path d="M169.508 182.786C169.326 182.786 169.173 182.644 169.162 182.46C168.862 177.348 169.16 173.785 169.163 173.749C169.18 173.559 169.346 173.418 169.539 173.434C169.729 173.45 169.871 173.618 169.854 173.809C169.851 173.844 169.558 177.361 169.855 182.419C169.866 182.61 169.721 182.775 169.529 182.786C169.522 182.786 169.515 182.786 169.508 182.786Z" fill="#252525"/>
<path d="M164.957 170.73L161.004 171.719C160.802 171.77 160.587 171.711 160.439 171.564L159.95 171.08C159.802 170.934 159.741 170.72 159.789 170.517L160.738 166.557C160.881 165.962 161.19 165.421 161.63 164.998L198.286 129.702C199.156 128.869 200.534 128.877 201.394 129.727C201.82 130.148 202.044 130.707 202.05 131.263C202.057 131.827 201.857 132.392 201.446 132.828L166.508 169.823C166.088 170.267 165.55 170.582 164.957 170.73Z" fill="#E53C6D"/>
<path d="M160.862 172.082C160.615 172.082 160.373 171.986 160.195 171.81L159.706 171.326C159.473 171.096 159.376 170.754 159.452 170.436L160.401 166.475C160.559 165.815 160.901 165.217 161.39 164.747L198.045 129.452C199.06 128.478 200.638 128.49 201.638 129.48C202.113 129.949 202.389 130.598 202.397 131.259C202.405 131.936 202.158 132.578 201.7 133.065L166.76 170.06C166.294 170.554 165.7 170.901 165.041 171.066L161.089 172.055C161.014 172.073 160.938 172.082 160.862 172.082ZM199.827 129.425C199.36 129.425 198.893 129.6 198.527 129.951L161.871 165.246C161.478 165.625 161.203 166.106 161.076 166.637L160.127 170.597C160.107 170.681 160.133 170.772 160.194 170.833L160.683 171.317C160.745 171.378 160.835 171.403 160.92 171.382L164.873 170.393C165.403 170.261 165.881 169.981 166.256 169.584L201.195 132.59C201.528 132.234 201.709 131.764 201.703 131.267C201.698 130.787 201.496 130.315 201.15 129.973C200.781 129.608 200.304 129.425 199.827 129.425Z" fill="#252525"/>
<path d="M158.38 173.501C158.292 173.501 158.203 173.467 158.136 173.4C158 173.265 157.999 173.046 158.133 172.91L159.947 171.078C160.082 170.942 160.301 170.941 160.438 171.076C160.574 171.211 160.575 171.43 160.44 171.567L158.627 173.398C158.559 173.466 158.469 173.501 158.38 173.501Z" fill="#252525"/>
<path d="M267.496 183.323C255.797 188.631 229.871 183.459 212.856 178.299C207.058 176.539 202.294 174.784 199.477 173.445C188.402 168.175 184.447 165.403 183.528 165.337C182.604 165.272 178.376 167.142 178.524 163.698C178.524 163.698 173.733 166.3 173.995 162.746C173.995 162.746 168.34 163.692 168.471 161.057C168.471 161.057 166.125 163.43 164.412 163.823C162.701 164.222 161.114 162.112 165.862 156.58C170.609 151.048 176.276 146.303 180.099 145.778C183.922 145.248 189.988 144.854 193.018 147.227C196.048 149.594 197.497 153.021 200.795 154.47C204.088 155.919 247.385 161.188 247.385 161.188V146.429L277.253 145.122C277.253 145.122 277.833 148.167 278.15 152.573C278.845 162.238 278.271 178.435 267.496 183.323Z" fill="#EDA5A5"/>
<path d="M267.496 183.323C255.797 188.631 229.872 183.459 212.856 178.299C218.528 178.971 224.2 179.644 229.872 180.322C237.233 181.202 244.656 182.076 252.045 181.486C259.812 180.863 267.945 178.266 272.714 172.111C275.197 168.907 276.526 165.021 277.243 161.068C277.724 158.434 277.538 155.307 278.151 152.573C278.845 162.238 278.271 178.436 267.496 183.323Z" fill="#CB8383"/>
<path d="M253.894 185.909C246.569 185.909 238.444 184.704 231.689 183.368C218.172 180.695 204.927 176.421 199.328 173.756C192.952 170.722 188.909 168.502 186.493 167.175C184.883 166.291 183.819 165.706 183.503 165.684C183.349 165.676 182.973 165.756 182.607 165.836C181.429 166.091 179.816 166.442 178.862 165.64C178.482 165.32 178.258 164.853 178.194 164.248C177.294 164.663 175.451 165.36 174.388 164.674C173.918 164.371 173.668 163.858 173.642 163.145C172.598 163.274 169.872 163.491 168.699 162.447C168.479 162.251 168.322 162.024 168.227 161.768C167.429 162.501 165.811 163.859 164.491 164.163C163.715 164.342 163.005 164.079 162.64 163.476C162.248 162.829 161.752 160.84 165.599 156.353C169.798 151.458 175.799 146.018 180.052 145.432C184.41 144.831 190.234 144.607 193.231 146.952C194.511 147.953 195.507 149.127 196.47 150.263C197.809 151.843 199.073 153.335 200.935 154.154C203.982 155.494 242.712 160.268 247.04 160.799V146.427C247.04 146.235 247.195 146.08 247.387 146.08C247.578 146.08 247.734 146.235 247.734 146.427V161.19C247.734 161.29 247.691 161.384 247.617 161.45C247.543 161.516 247.443 161.545 247.345 161.535C245.575 161.319 203.96 156.242 200.655 154.789C198.647 153.905 197.332 152.354 195.941 150.712C195 149.602 194.028 148.455 192.804 147.498C189.998 145.303 184.373 145.537 180.147 146.119C176.75 146.587 171.377 150.682 166.126 156.805C163.224 160.189 162.729 162.284 163.233 163.117C163.441 163.46 163.853 163.599 164.335 163.487C165.93 163.12 168.201 160.835 168.224 160.812C168.325 160.709 168.479 160.681 168.611 160.738C168.742 160.796 168.825 160.929 168.818 161.073C168.8 161.428 168.912 161.708 169.16 161.929C170.146 162.806 172.945 162.569 173.94 162.403C174.046 162.386 174.152 162.417 174.231 162.488C174.309 162.56 174.351 162.664 174.343 162.77C174.294 163.435 174.435 163.88 174.764 164.092C175.629 164.65 177.653 163.776 178.359 163.391C178.469 163.332 178.602 163.336 178.708 163.402C178.814 163.468 178.877 163.586 178.872 163.711C178.843 164.371 178.991 164.841 179.309 165.109C180.002 165.692 181.481 165.37 182.46 165.158C182.93 165.056 183.301 164.975 183.551 164.993C184.019 165.025 184.899 165.508 186.827 166.567C189.236 167.89 193.269 170.104 199.626 173.13C210.498 178.304 251.829 190.049 267.353 183.009C282.61 176.089 276.969 145.496 276.911 145.188C276.874 145 276.998 144.818 277.186 144.782C277.374 144.748 277.556 144.87 277.592 145.058C277.607 145.136 279.077 152.971 278.603 161.575C277.97 173.044 274.179 180.675 267.639 183.64C264.011 185.286 259.159 185.909 253.894 185.909Z" fill="#252525"/>
<path d="M178.525 164.043C178.483 164.043 178.441 164.035 178.4 164.02C178.221 163.951 178.132 163.75 178.201 163.571C178.233 163.488 179.024 161.51 182.135 160.221C185.213 158.945 188.241 159.66 188.368 159.692C188.554 159.737 188.668 159.924 188.622 160.11C188.577 160.296 188.388 160.41 188.204 160.365C188.174 160.358 185.263 159.676 182.4 160.862C179.562 162.038 178.856 163.803 178.849 163.82C178.796 163.958 178.664 164.043 178.525 164.043Z" fill="#252525"/>
<path d="M173.997 163.092C173.947 163.092 173.897 163.081 173.85 163.059C173.676 162.977 173.601 162.771 173.683 162.598C173.744 162.467 175.203 159.398 177.621 158.04C180.017 156.692 183.26 156.605 183.397 156.602C183.581 156.603 183.747 156.749 183.752 156.94C183.756 157.132 183.604 157.291 183.413 157.295C183.381 157.296 180.204 157.383 177.961 158.644C175.74 159.893 174.325 162.862 174.311 162.892C174.252 163.018 174.127 163.092 173.997 163.092Z" fill="#252525"/>
<path d="M168.471 161.402C168.404 161.402 168.336 161.383 168.277 161.343C168.118 161.235 168.076 161.02 168.184 160.861C168.33 160.645 171.797 155.552 174.365 154.57C176.853 153.619 181.127 152.618 181.308 152.576C181.495 152.534 181.681 152.649 181.725 152.835C181.768 153.022 181.652 153.208 181.466 153.252C181.422 153.262 177.057 154.284 174.613 155.218C172.248 156.122 168.793 161.199 168.758 161.25C168.691 161.349 168.582 161.402 168.471 161.402Z" fill="#252525"/>
<path d="M245.503 146.774C245.319 146.774 245.166 146.629 245.157 146.443L244.602 134.664C244.593 134.473 244.74 134.311 244.932 134.302C245.106 134.295 245.286 134.44 245.295 134.632L245.834 146.067L279.533 144.682C275.857 126.978 267.353 117.52 260.841 112.696C253.733 107.431 247.397 106.396 247.334 106.386C247.144 106.356 247.015 106.179 247.044 105.99C247.073 105.801 247.249 105.672 247.44 105.7C247.504 105.71 253.98 106.762 261.223 112.115C267.893 117.046 276.616 126.744 280.295 144.943C280.315 145.043 280.291 145.146 280.228 145.226C280.165 145.306 280.07 145.354 279.969 145.358L245.518 146.774C245.513 146.774 245.508 146.774 245.503 146.774Z" fill="#252525"/>
<path d="M134.314 81.3756L134.314 0.489258L0.533691 0.489252L0.533688 81.3756L134.314 81.3756Z" fill="#95BBE8"/>
<path d="M129.489 76.5533L129.489 5.3125L5.21073 5.31249L5.21073 76.5532L129.489 76.5533Z" fill="#F2F7FD"/>
<path d="M4.86387 76.5526L4.86388 5.31159C4.86388 5.12009 5.01931 4.96484 5.21082 4.96484L129.489 4.96484C129.681 4.96484 129.836 5.1202 129.836 5.3116L129.836 76.5526C129.836 76.7441 129.681 76.8993 129.489 76.8993L5.21081 76.8993C5.01931 76.8993 4.86387 76.7441 4.86387 76.5526ZM5.55785 5.65845L5.55785 76.2058L129.142 76.2058L129.142 5.65846L5.55785 5.65845Z" fill="#252525"/>
<path d="M0.0384486 81.3754L0.0384521 0.489327C0.0384521 0.297826 0.193893 0.142572 0.385391 0.142572L134.314 0.142578C134.506 0.142578 134.661 0.297933 134.661 0.489333L134.661 81.3755C134.661 81.5669 134.506 81.7222 134.314 81.7222L0.385479 81.7222C0.19389 81.7223 0.0384486 81.5669 0.0384486 81.3754ZM0.732437 0.836082L0.732434 81.0287L133.967 81.0287L133.967 0.836088L0.732437 0.836082Z" fill="#252525"/>
<path d="M290.277 35.3572C299.898 35.3572 307.697 27.5618 307.697 17.9457C307.697 8.32959 299.898 0.53418 290.277 0.53418C280.656 0.53418 272.856 8.32959 272.856 17.9457C272.856 27.5618 280.656 35.3572 290.277 35.3572Z" fill="#2B8941"/>
<path d="M290.277 32.8233C298.498 32.8233 305.163 26.1622 305.163 17.9453C305.163 9.72846 298.498 3.06738 290.277 3.06738C282.056 3.06738 275.391 9.72846 275.391 17.9453C275.391 26.1622 282.056 32.8233 290.277 32.8233Z" fill="white"/>
<path d="M290.277 19.6613C291.225 19.6613 291.993 18.8932 291.993 17.9459C291.993 16.9985 291.225 16.2305 290.277 16.2305C289.329 16.2305 288.56 16.9985 288.56 17.9459C288.56 18.8932 289.329 19.6613 290.277 19.6613Z" fill="#F9D95A"/>
<path d="M290.277 35.7038C280.48 35.7038 272.509 27.7375 272.509 17.9458C272.509 8.15381 280.48 0.1875 290.277 0.1875C300.074 0.1875 308.044 8.15381 308.044 17.9458C308.044 27.7375 300.074 35.7038 290.277 35.7038ZM290.277 0.88101C280.862 0.88101 273.203 8.5362 273.203 17.9457C273.203 27.3551 280.862 35.0101 290.277 35.0101C299.691 35.0101 307.35 27.3551 307.35 17.9457C307.35 8.5362 299.691 0.88101 290.277 0.88101Z" fill="#252525"/>
<path d="M290.277 33.1702C281.877 33.1702 275.044 26.3404 275.044 17.9456C275.044 9.55049 281.877 2.7207 290.277 2.7207C298.676 2.7207 305.51 9.55049 305.51 17.9456C305.51 26.3405 298.676 33.1702 290.277 33.1702ZM290.277 3.41431C282.26 3.41431 275.738 9.93299 275.738 17.9456C275.738 25.958 282.26 32.4767 290.277 32.4767C298.294 32.4767 304.816 25.958 304.816 17.9456C304.816 9.93299 298.294 3.41431 290.277 3.41431Z" fill="#252525"/>
<path d="M290.276 20.0083C289.139 20.0083 288.214 19.0833 288.214 17.946C288.214 16.8088 289.139 15.8838 290.276 15.8838C291.414 15.8838 292.34 16.8088 292.34 17.946C292.34 19.0833 291.414 20.0083 290.276 20.0083ZM290.276 16.5774C289.521 16.5774 288.907 17.1913 288.907 17.946C288.907 18.7008 289.521 19.3147 290.276 19.3147C291.031 19.3147 291.646 18.7008 291.646 17.946C291.646 17.1913 291.031 16.5774 290.276 16.5774Z" fill="#252525"/>
<path d="M284.369 24.1967C284.28 24.1967 284.192 24.1628 284.124 24.0951C283.988 23.9596 283.988 23.7402 284.124 23.6047L288.814 18.9166C288.95 18.7812 289.169 18.7812 289.305 18.9166C289.441 19.0521 289.441 19.2715 289.305 19.4071L284.615 24.0951C284.547 24.1628 284.458 24.1967 284.369 24.1967ZM290.277 16.5758C290.085 16.5758 289.93 16.4204 289.93 16.229V6.70499C289.93 6.51349 290.085 6.35824 290.277 6.35824C290.468 6.35824 290.624 6.51359 290.624 6.70499V16.229C290.624 16.4204 290.469 16.5758 290.277 16.5758ZM300.438 24.1967C300.379 24.1967 300.318 24.1816 300.264 24.1497L291.585 19.1074C291.42 19.0113 291.364 18.7987 291.46 18.6333C291.557 18.4683 291.769 18.4121 291.934 18.5078L300.613 23.5501C300.778 23.6463 300.834 23.8588 300.738 24.0242C300.674 24.1348 300.558 24.1967 300.438 24.1967ZM290.277 5.11785C290.085 5.11785 289.93 4.96249 289.93 4.77109V4.35163C289.93 4.16013 290.085 4.00488 290.277 4.00488C290.468 4.00488 290.624 4.16023 290.624 4.35163V4.77109C290.623 4.96249 290.468 5.11785 290.277 5.11785ZM290.277 31.8869C290.085 31.8869 289.93 31.7315 289.93 31.5401V31.1206C289.93 30.9291 290.085 30.7739 290.277 30.7739C290.468 30.7739 290.624 30.9292 290.624 31.1206V31.5401C290.623 31.7316 290.468 31.8869 290.277 31.8869ZM299.597 8.97661C299.508 8.97661 299.42 8.9428 299.352 8.87497C299.217 8.73952 299.217 8.5201 299.352 8.38454L299.649 8.08785C299.784 7.9524 300.004 7.9524 300.14 8.08785C300.275 8.2233 300.275 8.44272 300.14 8.57828L299.843 8.87497C299.775 8.9427 299.687 8.97661 299.597 8.97661ZM280.659 27.9051C280.57 27.9051 280.482 27.8712 280.414 27.8035C280.278 27.668 280.278 27.4483 280.414 27.3129L280.711 27.0164C280.847 26.8809 281.066 26.8816 281.201 27.0166C281.337 27.152 281.337 27.3717 281.201 27.5072L280.905 27.8037C280.837 27.8712 280.748 27.9051 280.659 27.9051ZM303.878 18.2926H303.459C303.267 18.2926 303.112 18.1372 303.112 17.9458C303.112 17.7543 303.267 17.5991 303.459 17.5991H303.878C304.07 17.5991 304.225 17.7544 304.225 17.9458C304.225 18.1373 304.07 18.2926 303.878 18.2926ZM277.095 18.2926H276.675C276.484 18.2926 276.328 18.1372 276.328 17.9458C276.328 17.7543 276.484 17.5991 276.675 17.5991H277.095C277.286 17.5991 277.442 17.7544 277.442 17.9458C277.442 18.1373 277.286 18.2926 277.095 18.2926Z" fill="#252525"/>
<path d="M299.894 27.9052C299.806 27.9052 299.717 27.8713 299.649 27.8039L299.352 27.5074C299.217 27.3719 299.217 27.1522 299.352 27.0167C299.487 26.8817 299.707 26.8811 299.843 27.0165L300.14 27.313C300.275 27.4485 300.275 27.6682 300.14 27.8037C300.072 27.8713 299.983 27.9052 299.894 27.9052ZM280.956 8.97668C280.867 8.97668 280.778 8.94287 280.711 8.87504L280.414 8.57834C280.278 8.44289 280.278 8.22347 280.414 8.08792C280.549 7.95247 280.769 7.95247 280.904 8.08792L281.201 8.38461C281.337 8.52007 281.337 8.73949 281.201 8.87504C281.133 8.94277 281.045 8.97668 280.956 8.97668Z" fill="#252525"/>
<path d="M10 35.3468C10 35.2581 10.0339 35.1693 10.1017 35.1016C10.2372 34.9661 10.4568 34.9661 10.5924 35.1016L45.8859 70.3764C46.0214 70.5118 46.0214 70.7313 45.8859 70.8668C45.7504 71.0023 45.5309 71.0023 45.3952 70.8668L10.1017 35.592C10.0339 35.5243 10 35.4356 10 35.3468ZM12.3067 48.5851C12.3067 48.4963 12.3405 48.4076 12.4083 48.3399C12.5438 48.2044 12.7633 48.2044 12.899 48.3399L33.2313 68.6614C33.3668 68.7968 33.3668 69.0163 33.2313 69.1518C33.0957 69.2873 32.8762 69.2873 32.7406 69.1518L12.4083 48.8303C12.3405 48.7626 12.3067 48.6738 12.3067 48.5851Z" fill="#252525"/>
<path d="M123.988 45.6229C123.988 45.7117 123.954 45.8004 123.886 45.8681C123.75 46.0036 123.531 46.0036 123.395 45.8681L88.1016 10.5933C87.9661 10.4579 87.9661 10.2385 88.1016 10.1029C88.2372 9.96746 88.4567 9.96746 88.5923 10.1029L123.886 45.3777C123.954 45.4454 123.988 45.5342 123.988 45.6229ZM121.681 32.3846C121.681 32.4734 121.647 32.5621 121.579 32.6298C121.444 32.7653 121.224 32.7653 121.089 32.6298L100.756 12.3083C100.621 12.1729 100.621 11.9534 100.756 11.8179C100.892 11.6824 101.111 11.6824 101.247 11.8179L121.579 32.1394C121.647 32.2071 121.681 32.2959 121.681 32.3846Z" fill="#252525"/>
<path d="M72.6723 146.47C78.031 154.411 75.9399 165.193 67.9873 170.554C60.0348 175.914 49.2425 173.817 43.8838 165.876C38.5203 157.928 40.6185 147.141 48.5711 141.78C56.5236 136.419 67.3088 138.522 72.6723 146.47Z" fill="#B9D3F2"/>
<path d="M60.4784 176.265V181.145H56.0719V176.273C57.5351 176.438 59.0154 176.438 60.4784 176.265Z" fill="#2E3E56"/>
<path d="M69.1862 185.554H47.366V183.286C47.366 182.102 48.3265 181.142 49.5113 181.142H67.0408C68.2256 181.142 69.1861 182.102 69.1861 183.286V185.554H69.1862Z" fill="#EF603F"/>
<path d="M58.2639 176.747C53.3633 176.747 48.4564 175.006 44.5441 171.498C44.2551 171.239 44.0836 170.871 44.0733 170.487C44.0629 170.107 44.2052 169.751 44.4738 169.482L45.7584 168.198C45.8939 168.063 46.1135 168.063 46.2491 168.198C46.3847 168.334 46.3846 168.553 46.2491 168.689L44.9645 169.973C44.8321 170.105 44.7618 170.281 44.7671 170.468C44.7722 170.665 44.8577 170.848 45.0076 170.982C52.8632 178.026 64.8712 177.693 72.345 170.223C79.8145 162.757 80.1444 150.76 73.0959 142.909C72.9615 142.759 72.7792 142.674 72.5822 142.668C72.3891 142.655 72.2183 142.733 72.086 142.866L70.8013 144.15C70.6658 144.285 70.4463 144.285 70.3106 144.15C70.1751 144.014 70.1751 143.795 70.3106 143.659L71.5953 142.375C71.8641 142.107 72.2174 141.968 72.6012 141.975C72.9849 141.985 73.3534 142.157 73.6124 142.445C80.9073 150.57 80.5662 162.987 72.8357 170.713C68.823 174.724 63.5471 176.747 58.2639 176.747Z" fill="#252525"/>
<path d="M58.3114 173.873C57.177 173.873 56.0351 173.764 54.8968 173.543C50.2532 172.642 46.24 169.987 43.5963 166.069C38.1348 157.976 40.2794 146.951 48.3769 141.492C52.2994 138.848 57.0161 137.889 61.6588 138.794C66.3004 139.697 70.3139 142.355 72.9597 146.276C78.4185 154.365 76.275 165.385 68.1814 170.841C65.2203 172.837 61.8052 173.873 58.3114 173.873ZM58.2477 139.168C54.9774 139.168 51.6741 140.106 48.765 142.067C40.9847 147.312 38.9241 157.906 44.1714 165.682C46.7116 169.446 50.5677 171.996 55.0292 172.862C59.4909 173.729 64.0244 172.806 67.7933 170.266C75.5698 165.024 77.6292 154.436 72.3846 146.664C69.1 141.796 63.7201 139.168 58.2477 139.168Z" fill="#252525"/>
<path d="M64.9927 171.752C60.6146 171.752 54.7922 167.778 50.499 161.416C47.8742 157.527 46.1947 153.332 45.7698 149.606C45.3354 145.8 46.2607 142.919 48.3751 141.494C50.4892 140.068 53.5081 140.291 56.8758 142.12C60.1715 143.91 63.4321 147.039 66.0569 150.928C68.6798 154.815 70.3587 159.007 70.7838 162.73C71.2184 166.536 70.2934 169.417 68.1795 170.842C67.2635 171.459 66.1813 171.752 64.9927 171.752ZM51.6045 141.259C50.5254 141.259 49.5655 141.528 48.7632 142.068C46.8739 143.342 46.0558 145.991 46.4592 149.528C46.8717 153.145 48.5108 157.229 51.0741 161.028C56.319 168.801 63.8193 172.945 67.7914 170.267C69.6803 168.993 70.4981 166.345 70.0944 162.809C69.6814 159.194 68.0435 155.112 65.4818 151.316C62.9179 147.517 59.744 144.467 56.5444 142.729C54.7447 141.752 53.0656 141.259 51.6045 141.259Z" fill="#252525"/>
<path d="M40.9852 154.963C40.8894 154.963 40.7977 154.924 40.7319 154.853C40.6644 154.781 40.6307 154.684 40.6396 154.585C41.1207 149.255 43.9408 144.482 48.3771 141.492C52.8161 138.5 58.2972 137.676 63.4153 139.233C63.51 139.262 63.5877 139.329 63.6292 139.419C63.6708 139.509 63.6719 139.612 63.6326 139.703C62.0411 143.371 58.6046 147.176 54.2039 150.142C49.8079 153.106 44.9931 154.863 40.9941 154.963C40.991 154.963 40.9881 154.963 40.9852 154.963ZM58.2511 139.156C54.9106 139.156 51.6145 140.146 48.765 142.067C44.6119 144.867 41.933 149.291 41.3707 154.254C45.162 154.056 49.6713 152.361 53.8156 149.567C57.9648 146.77 61.2291 143.225 62.8341 139.786C61.3229 139.364 59.7825 139.156 58.2511 139.156ZM58.2882 173.874C56.5673 173.874 54.8354 173.623 53.1418 173.112C53.0472 173.083 52.9692 173.016 52.9275 172.926C52.8859 172.837 52.8843 172.733 52.9236 172.643C54.5071 168.973 57.9392 165.166 62.3401 162.2C66.7458 159.23 71.5653 157.474 75.563 157.382C75.659 157.383 75.7568 157.42 75.8244 157.492C75.8919 157.564 75.9254 157.661 75.9165 157.76C75.4376 163.082 72.6182 167.85 68.1814 170.841C65.2129 172.842 61.774 173.874 58.2882 173.874ZM53.7219 172.558C58.5356 173.89 63.6424 173.064 67.7933 170.266C71.9471 167.465 74.6254 163.045 75.1856 158.09C71.3957 158.281 66.8818 159.975 62.7282 162.775C58.5792 165.572 55.3195 169.118 53.7219 172.558Z" fill="#252525"/>
<path d="M67.9857 170.901C67.8743 170.901 67.7647 170.848 67.6979 170.749L48.2815 141.975C48.1742 141.817 48.2162 141.601 48.3751 141.494C48.5332 141.387 48.7499 141.429 48.8567 141.587L68.2731 170.361C68.3804 170.519 68.3384 170.735 68.1795 170.842C68.1201 170.882 68.0526 170.901 67.9857 170.901Z" fill="#252525"/>
<path d="M43.8834 166.218C43.772 166.218 43.6624 166.164 43.5956 166.065C43.4883 165.906 43.5302 165.69 43.6891 165.583L72.4777 146.177C72.6363 146.071 72.8519 146.112 72.9593 146.271C73.0666 146.43 73.0247 146.645 72.8658 146.752L44.0772 166.158C44.0178 166.198 43.9502 166.218 43.8834 166.218ZM60.4785 181.492H56.0719C55.8803 181.492 55.725 181.336 55.725 181.145V176.273C55.725 176.175 55.7671 176.08 55.8406 176.015C55.9143 175.949 56.0121 175.917 56.1107 175.929C57.558 176.091 59.0139 176.088 60.4378 175.92C60.536 175.91 60.635 175.94 60.7088 176.006C60.7829 176.071 60.8253 176.166 60.8253 176.265V181.145C60.8254 181.336 60.67 181.492 60.4785 181.492ZM56.4189 180.798H60.1315V176.651C58.9065 176.771 57.6608 176.773 56.4189 176.658V180.798Z" fill="#252525"/>
<path d="M69.186 185.901H47.366C47.1744 185.901 47.019 185.746 47.019 185.554V183.286C47.019 181.912 48.137 180.795 49.5114 180.795H67.0408C68.4151 180.795 69.5331 181.912 69.5331 183.286V185.554C69.533 185.746 69.3776 185.901 69.186 185.901ZM47.7129 185.207H68.8391V183.286C68.8391 182.295 68.0324 181.489 67.0407 181.489H49.5113C48.5197 181.489 47.7129 182.295 47.7129 183.286V185.207Z" fill="#252525"/>
<path d="M202.825 181.738V185.553H144.681V181.901C144.681 181.846 144.681 181.792 144.675 181.738H202.825Z" fill="#BDC0D2"/>
<path d="M202.825 185.9H144.681C144.49 185.9 144.334 185.745 144.334 185.553V181.901C144.334 181.859 144.335 181.817 144.33 181.776C144.32 181.678 144.351 181.58 144.417 181.507C144.483 181.434 144.577 181.392 144.675 181.392H202.825C203.017 181.392 203.172 181.547 203.172 181.738V185.553C203.172 185.745 203.017 185.9 202.825 185.9ZM145.028 185.207H202.478V182.085H145.028V185.207Z" fill="#252525"/>
<path d="M179.657 166.958H140.4L143.961 141.667H131.689C127.687 149.138 124.729 157.658 122.551 166.958H101.522C99.7441 166.958 98.2629 165.58 98.1375 163.807L94.6087 113.822C94.474 111.859 96.0295 110.193 97.9935 110.193H176.129C177.912 110.193 179.388 111.572 179.513 113.344L183.042 163.329C183.182 165.292 181.626 166.958 179.657 166.958ZM150.412 182.73V185.554H107.756V182.73C107.756 181.526 108.732 180.551 109.936 180.551H148.232C149.436 180.551 150.412 181.526 150.412 182.73Z" fill="#2E3E56"/>
<path d="M138.486 180.551L143.962 141.669L131.687 141.669C125.808 152.645 122.179 165.881 119.979 180.551H138.486Z" fill="#BDC0D2"/>
<path d="M179.657 167.305H140.4C140.299 167.305 140.203 167.261 140.138 167.186C140.072 167.11 140.042 167.009 140.056 166.91L143.562 142.013H131.897C128.115 149.12 125.167 157.309 122.889 167.037C122.852 167.194 122.712 167.305 122.551 167.305H101.522C99.5679 167.305 97.9292 165.779 97.7915 163.832L94.2628 113.847C94.1909 112.799 94.5458 111.8 95.2623 111.034C95.9773 110.268 96.9473 109.847 97.9936 109.847H176.129C178.083 109.847 179.722 111.372 179.859 113.32L183.388 163.305C183.463 164.35 183.11 165.348 182.395 166.115C181.69 166.871 180.692 167.305 179.657 167.305ZM140.799 166.611H179.657C180.513 166.611 181.305 166.267 181.888 165.642C182.469 165.018 182.756 164.205 182.696 163.354L179.167 113.369C179.055 111.783 177.72 110.54 176.129 110.54H97.9936C97.1418 110.54 96.3518 110.883 95.7695 111.507C95.1857 112.132 94.8964 112.946 94.9549 113.799L98.4836 163.783C98.5959 165.369 99.9305 166.611 101.522 166.611H122.276C124.579 156.856 127.559 148.641 131.383 141.503C131.443 141.39 131.561 141.32 131.689 141.32H143.961C144.061 141.32 144.157 141.363 144.223 141.439C144.289 141.515 144.318 141.616 144.304 141.715L140.799 166.611ZM150.412 185.9H107.756C107.565 185.9 107.409 185.745 107.409 185.554V182.73C107.409 181.337 108.543 180.204 109.936 180.204H148.232C149.626 180.204 150.759 181.337 150.759 182.73V185.554C150.759 185.745 150.604 185.9 150.412 185.9ZM108.103 185.207H150.065V182.73C150.065 181.719 149.243 180.898 148.232 180.898H109.936C108.926 180.898 108.103 181.719 108.103 182.73V185.207Z" fill="#252525"/>
<path d="M138.486 180.898H119.979C119.878 180.898 119.782 180.854 119.716 180.778C119.65 180.701 119.621 180.6 119.636 180.5C122.027 164.551 125.869 151.796 131.381 141.505C131.442 141.393 131.559 141.322 131.687 141.322H143.962C144.063 141.322 144.159 141.366 144.224 141.441C144.29 141.517 144.32 141.618 144.306 141.717L138.829 180.6C138.805 180.771 138.659 180.898 138.486 180.898ZM120.382 180.204H138.184L143.563 142.016H131.895C126.52 152.118 122.751 164.616 120.382 180.204Z" fill="#252525"/>
<path d="M251.699 162.102C251.684 162.102 251.669 162.101 251.654 162.099L247.342 161.535C247.152 161.51 247.018 161.336 247.043 161.146C247.068 160.956 247.24 160.821 247.432 160.847L251.744 161.412C251.934 161.436 252.068 161.61 252.043 161.8C252.02 161.975 251.871 162.102 251.699 162.102Z" fill="#252525"/>
<path d="M37.4385 34.6709L36 35.6736C36.2162 36.1285 36.5171 36.551 36.9026 36.9409C37.2881 37.3309 37.7394 37.6419 38.2565 37.874C38.783 38.0968 39.3471 38.2083 39.9488 38.2083C40.4001 38.2083 40.8279 38.1386 41.2322 37.9994C41.6458 37.8694 42.0172 37.679 42.3463 37.4284C42.6754 37.1684 42.9339 36.8527 43.1219 36.4814C43.31 36.11 43.404 35.6875 43.404 35.214C43.404 34.7962 43.3335 34.4295 43.1925 34.1138C43.0608 33.7889 42.8728 33.5103 42.6283 33.2782C42.3933 33.0368 42.1253 32.8326 41.8245 32.6654C41.533 32.4983 41.2275 32.3591 40.9078 32.2476C40.4095 32.0805 39.9958 31.918 39.6667 31.7602C39.3377 31.5931 39.0932 31.4213 38.9334 31.2449C38.7736 31.0592 38.6936 30.8457 38.6936 30.6043C38.6936 30.3629 38.7924 30.154 38.9898 29.9776C39.1872 29.7919 39.4834 29.6991 39.8783 29.6991C40.1791 29.6991 40.4471 29.7594 40.6821 29.8801C40.9172 29.9915 41.124 30.1447 41.3027 30.3397C41.4907 30.5254 41.6505 30.7343 41.7822 30.9664L43.3617 30.1029C43.1925 29.7594 42.9527 29.4298 42.6424 29.1141C42.3416 28.7892 41.9608 28.5246 41.5001 28.3203C41.0488 28.1068 40.5082 28 39.8783 28C39.2672 28 38.7124 28.1114 38.2141 28.3342C37.7252 28.5478 37.3351 28.8588 37.0436 29.2673C36.7616 29.6666 36.6205 30.1447 36.6205 30.7018C36.6205 31.166 36.7098 31.5652 36.8885 31.8995C37.0671 32.2244 37.2928 32.503 37.5654 32.7351C37.8381 32.9579 38.1248 33.1436 38.4257 33.2921C38.736 33.4314 39.0086 33.5428 39.2437 33.6264C39.6855 33.7935 40.0569 33.9513 40.3578 34.0999C40.668 34.2392 40.8984 34.4016 41.0488 34.5873C41.2087 34.773 41.2886 35.019 41.2886 35.3254C41.2886 35.6782 41.1616 35.9568 40.9078 36.161C40.6539 36.3653 40.3249 36.4674 39.9206 36.4674C39.5727 36.4674 39.2484 36.3931 38.9475 36.2446C38.6466 36.096 38.3693 35.8871 38.1154 35.6179C37.871 35.3486 37.6453 35.033 37.4385 34.6709Z" fill="#252525"/>
<path d="M44.9777 28.195V34.7405C44.9777 35.3162 45.0717 35.8222 45.2597 36.2585C45.4478 36.6949 45.711 37.0616 46.0495 37.3587C46.388 37.6558 46.7875 37.8787 47.2482 38.0272C47.7089 38.185 48.2119 38.264 48.7572 38.264C49.2932 38.264 49.7915 38.185 50.2521 38.0272C50.7128 37.8787 51.1124 37.6558 51.4509 37.3587C51.7988 37.0616 52.0667 36.6949 52.2548 36.2585C52.4428 35.8222 52.5368 35.3162 52.5368 34.7405V28.195H50.5201V34.6152C50.5201 35.1722 50.3697 35.6225 50.0688 35.9661C49.7773 36.3003 49.3402 36.4674 48.7572 36.4674C48.1743 36.4674 47.7324 36.3003 47.4316 35.9661C47.1401 35.6225 46.9944 35.1722 46.9944 34.6152V28.195H44.9777Z" fill="#252525"/>
<path d="M54.5924 28.195V37.9437H56.6091V28.195H54.5924ZM55.8194 29.8801H57.7797C58.3156 29.8801 58.7386 30.0008 59.0489 30.2422C59.3592 30.4743 59.5143 30.8271 59.5143 31.3006C59.5143 31.7648 59.3592 32.1177 59.0489 32.3591C58.7386 32.6004 58.3156 32.7211 57.7797 32.7211H55.8194V34.4063H57.7797C58.56 34.4063 59.2228 34.2809 59.7682 34.0303C60.3229 33.7796 60.746 33.4221 61.0374 32.9579C61.3289 32.4844 61.4746 31.932 61.4746 31.3006C61.4746 30.66 61.3289 30.1076 61.0374 29.6433C60.746 29.1791 60.3229 28.8217 59.7682 28.571C59.2228 28.3203 58.56 28.195 57.7797 28.195H55.8194V29.8801Z" fill="#252525"/>
<path d="M63.0348 28.195V37.9437H65.0515V28.195H63.0348ZM64.2618 29.8801H66.2221C66.758 29.8801 67.1811 30.0008 67.4913 30.2422C67.8016 30.4743 67.9567 30.8271 67.9567 31.3006C67.9567 31.7648 67.8016 32.1177 67.4913 32.3591C67.1811 32.6004 66.758 32.7211 66.2221 32.7211H64.2618V34.4063H66.2221C67.0024 34.4063 67.6653 34.2809 68.2106 34.0303C68.7653 33.7796 69.1884 33.4221 69.4798 32.9579C69.7713 32.4844 69.917 31.932 69.917 31.3006C69.917 30.66 69.7713 30.1076 69.4798 29.6433C69.1884 29.1791 68.7653 28.8217 68.2106 28.571C67.6653 28.3203 67.0024 28.195 66.2221 28.195H64.2618V29.8801Z" fill="#252525"/>
<path d="M73.0427 33.0693C73.0427 32.4473 73.1743 31.8948 73.4376 31.412C73.7008 30.9292 74.0628 30.5486 74.5235 30.2701C74.9842 29.9915 75.5201 29.8522 76.1312 29.8522C76.7517 29.8522 77.2923 29.9915 77.753 30.2701C78.2137 30.5486 78.571 30.9292 78.8249 31.412C79.0787 31.8948 79.2056 32.4473 79.2056 33.0693C79.2056 33.6914 79.074 34.2438 78.8108 34.7266C78.5569 35.2094 78.1996 35.59 77.7389 35.8686C77.2782 36.1471 76.7423 36.2864 76.1312 36.2864C75.5201 36.2864 74.9842 36.1471 74.5235 35.8686C74.0628 35.59 73.7008 35.2094 73.4376 34.7266C73.1743 34.2438 73.0427 33.6914 73.0427 33.0693ZM70.9132 33.0693C70.9132 33.8028 71.0401 34.4852 71.2939 35.1165C71.5478 35.7386 71.9098 36.2817 72.3799 36.746C72.8499 37.2102 73.4 37.5723 74.0299 37.8322C74.6692 38.0829 75.3697 38.2083 76.1312 38.2083C76.8928 38.2083 77.5885 38.0829 78.2184 37.8322C78.8578 37.5723 79.4078 37.2102 79.8685 36.746C80.3386 36.2817 80.7005 35.7386 80.9544 35.1165C81.2176 34.4852 81.3493 33.8028 81.3493 33.0693C81.3493 32.3266 81.2176 31.6488 80.9544 31.036C80.7005 30.414 80.3339 29.8755 79.8544 29.4205C79.3843 28.9656 78.8343 28.6174 78.2043 28.376C77.5744 28.1253 76.8834 28 76.1312 28C75.3885 28 74.6974 28.1253 74.0581 28.376C73.4282 28.6174 72.8782 28.9656 72.4081 29.4205C71.938 29.8755 71.5713 30.414 71.308 31.036C71.0448 31.6488 70.9132 32.3266 70.9132 33.0693Z" fill="#252525"/>
<path d="M85.1507 33.4036L88.1122 37.9437H90.4956L87.2802 33.4036H85.1507ZM82.9083 28.195V37.9437H84.925V28.195H82.9083ZM84.1352 29.894H86.0955C86.4528 29.894 86.7584 29.9544 87.0122 30.0751C87.2755 30.1865 87.4776 30.3536 87.6187 30.5764C87.7597 30.79 87.8302 31.0499 87.8302 31.3563C87.8302 31.6627 87.7597 31.9273 87.6187 32.1502C87.4776 32.3637 87.2755 32.5308 87.0122 32.6515C86.7584 32.7629 86.4528 32.8186 86.0955 32.8186H84.1352V34.4063H86.2225C87.0028 34.4063 87.6657 34.2763 88.211 34.0163C88.7563 33.7564 89.1747 33.3943 89.4661 32.93C89.7576 32.4565 89.9033 31.9134 89.9033 31.3006C89.9033 30.6786 89.7576 30.1354 89.4661 29.6712C89.1747 29.207 88.7563 28.8449 88.211 28.5849C87.6657 28.325 87.0028 28.195 86.2225 28.195H84.1352V29.894Z" fill="#252525"/>
<path d="M90.6665 29.9915H93.3179V37.9437H95.3346V29.9915H98V28.195H90.6665V29.9915Z" fill="#252525"/>
<path d="M42.6347 51.6382C42.6347 50.9883 42.7805 50.4266 43.0719 49.9531C43.3728 49.4796 43.763 49.1175 44.2425 48.8668C44.722 48.6068 45.2438 48.4769 45.8079 48.4769C46.278 48.4769 46.6964 48.5372 47.063 48.6579C47.4297 48.7786 47.7588 48.9411 48.0502 49.1454C48.3511 49.3496 48.6096 49.5724 48.8259 49.8138V47.5716C48.4216 47.256 47.9797 47.0099 47.5002 46.8335C47.0301 46.6571 46.4331 46.5689 45.7092 46.5689C44.957 46.5689 44.2566 46.6896 43.6078 46.931C42.9685 47.1724 42.4091 47.5206 41.9296 47.9755C41.4595 48.4304 41.0928 48.9689 40.8296 49.591C40.5757 50.2038 40.4488 50.8862 40.4488 51.6382C40.4488 52.3903 40.5757 53.0773 40.8296 53.6994C41.0928 54.3122 41.4595 54.846 41.9296 55.3009C42.4091 55.7559 42.9685 56.1041 43.6078 56.3454C44.2566 56.5868 44.957 56.7075 45.7092 56.7075C46.4331 56.7075 47.0301 56.6193 47.5002 56.4429C47.9797 56.2665 48.4216 56.0205 48.8259 55.7048V53.4626C48.6096 53.704 48.3511 53.9268 48.0502 54.1311C47.7588 54.3354 47.4297 54.4978 47.063 54.6185C46.6964 54.7392 46.278 54.7996 45.8079 54.7996C45.2438 54.7996 44.722 54.6742 44.2425 54.4236C43.763 54.1636 43.3728 53.7969 43.0719 53.3234C42.7805 52.8406 42.6347 52.2789 42.6347 51.6382Z" fill="#252525"/>
<path d="M52.13 56.5126H57.1083V54.8274H52.13V56.5126ZM52.13 48.449H57.1083V46.7639H52.13V48.449ZM52.13 52.1674H56.8263V50.5102H52.13V52.1674ZM50.8326 46.7639V56.5126H52.7788V46.7639H50.8326Z" fill="#252525"/>
<path d="M66.1192 46.7639V52.8081L59.096 46.2765V56.5126H61.0422V50.4684L68.0654 57V46.7639H66.1192Z" fill="#252525"/>
<path d="M69.223 48.5604H71.8744V56.5126H73.8911V48.5604H76.5565V46.7639H69.223V48.5604Z" fill="#252525"/>
<path d="M78.9998 56.5126H83.9781V54.8274H78.9998V56.5126ZM78.9998 48.449H83.9781V46.7639H78.9998V48.449ZM78.9998 52.1674H83.6961V50.5102H78.9998V52.1674ZM77.7024 46.7639V56.5126H79.6486V46.7639H77.7024Z" fill="#252525"/>
<path d="M88.2081 51.9725L91.1697 56.5126H93.5531L90.3376 51.9725H88.2081ZM85.9657 46.7639V56.5126H87.9825V46.7639H85.9657ZM87.1927 48.4629H89.153C89.5103 48.4629 89.8158 48.5233 90.0697 48.644C90.3329 48.7554 90.5351 48.9225 90.6761 49.1454C90.8171 49.3589 90.8876 49.6189 90.8876 49.9252C90.8876 50.2316 90.8171 50.4962 90.6761 50.7191C90.5351 50.9326 90.3329 51.0997 90.0697 51.2204C89.8158 51.3318 89.5103 51.3875 89.153 51.3875H87.1927V52.9752H89.2799C90.0603 52.9752 90.7231 52.8452 91.2684 52.5852C91.8137 52.3253 92.2321 51.9632 92.5236 51.499C92.815 51.0255 92.9608 50.4823 92.9608 49.8695C92.9608 49.2475 92.815 48.7043 92.5236 48.2401C92.2321 47.7759 91.8137 47.4138 91.2684 47.1538C90.7231 46.8939 90.0603 46.7639 89.2799 46.7639H87.1927V48.4629Z" fill="#252525"/>
<rect x="30" y="185" width="259" height="1" rx="0.5" fill="#252525"/>
</g>
<defs>
<clipPath id="clip0_208_9896">
<rect width="309" height="186" fill="white"/>
</clipPath>
</defs>
</svg>
