
<svg width="519" height="318" viewBox="0 0 519 318" fill="none" xmlns="http://www.w3.org/2000/svg">
<path d="M434.38 232.246C433.709 234.273 422.759 243.269 422.759 243.269L415.51 249.431V276.38L409.539 283.01L421.561 317.251H284.712L284.684 297.783C299.925 295.481 304.711 284.844 307.439 276.289C308.036 274.427 308.532 272.658 309.019 271.099C310.25 267.128 310.967 262.268 311.537 256.143C312.216 248.835 312.703 239.701 313.631 228.093C314.118 221.967 314.917 216.447 315.817 211.697C318.031 199.896 320.806 192.807 320.806 192.807C321.89 192.275 323.011 191.789 324.159 191.34C338.306 185.774 356.101 186.196 356.101 186.196L415.511 183.876L427.178 212.458C427.178 212.458 428.501 215.447 430.025 219.106C431.247 222.068 432.598 225.47 433.47 228.092C433.47 228.092 433.47 228.092 433.47 228.102C434.159 230.156 434.554 231.724 434.38 232.246Z" fill="#6666FF"/>
<path d="M438.377 152.044C433.668 155.79 427.25 156.41 421.243 157.109C415.236 157.807 407.233 160.498 403.153 164.911L402.951 164.935C401.483 157.853 401.102 148.173 403.029 135.003L398.864 118.87C398.864 118.87 396.424 106.173 390.301 103.241C384.177 100.302 382.95 104.219 377.806 99.3322C372.669 94.4458 372.669 92.243 366.305 93.4606C361.705 94.3448 357.237 98.797 355.108 101.201C354.284 102.14 353.826 103.319 353.787 104.568C353.694 107.655 353.391 114.325 352.349 121.569C348.666 142.488 355.023 151.594 364.199 152.098C364.199 152.098 364.231 152.176 364.269 152.323C364.65 153.735 365.171 160.971 362.964 169.992C357.338 173.102 350.601 173.343 344.423 171.217C337.663 168.883 332.154 163.252 330.025 156.496C328.16 150.594 328.828 144.109 330.942 138.292C333.055 132.467 336.544 127.24 340.36 122.337C343.973 117.691 348.029 113.061 349.366 107.352C350.182 103.878 349.925 100.263 349.964 96.7031C350.018 91.9717 350.64 87.1628 352.699 82.889C354.759 78.6231 358.411 74.9389 363.011 73.6591C367.619 72.3714 373.167 73.7366 375.77 77.7002C377.783 71.565 383.595 66.8336 390.068 66.0581C396.541 65.2748 403.324 68.4935 406.767 73.9694C408.585 76.8548 409.557 80.3218 411.996 82.7262C416.091 86.7749 423.45 86.9611 426.372 91.9018C428.936 96.2221 426.644 101.799 427.786 106.677C428.788 110.928 432.223 114.108 435.168 117.35C439.574 122.198 443.257 127.937 444.337 134.36C445.425 140.789 443.505 147.956 438.377 152.044Z" fill="#2E3E56"/>
<path d="M352.574 173.196C349.83 173.196 347.014 172.722 344.231 171.764C337.306 169.378 331.649 163.593 329.468 156.668C327.723 151.129 328.051 144.531 330.392 138.09C332.229 133.036 335.162 128.067 339.902 121.979C340.305 121.462 340.713 120.944 341.123 120.425C344.327 116.364 347.64 112.166 348.801 107.217C349.422 104.572 349.402 101.765 349.383 99.0495C349.378 98.264 349.373 97.4793 349.382 96.6968C349.448 90.918 350.334 86.4509 352.172 82.6389C354.494 77.8208 358.388 74.343 362.857 73.0978C367.631 71.7647 372.791 73.1891 375.593 76.4901C377.964 70.6138 383.623 66.2448 389.998 65.4772C396.743 64.6675 403.677 67.9537 407.263 73.6564C407.939 74.7317 408.503 75.8872 409.048 77.0052C410.012 78.9824 410.923 80.8504 412.404 82.3138C414.132 84.0202 416.551 85.0444 418.892 86.0343C421.967 87.3356 425.145 88.6808 426.876 91.6035C428.462 94.2815 428.292 97.3965 428.129 100.409C428.016 102.469 427.901 104.6 428.357 106.545C429.18 110.054 431.808 112.876 434.35 115.604C434.772 116.057 435.193 116.509 435.604 116.962C440.812 122.701 443.944 128.522 444.914 134.266C446.118 141.395 443.695 148.551 438.742 152.496C434.071 156.215 427.915 156.925 421.963 157.612L421.309 157.688C415.348 158.38 407.554 161.004 403.58 165.305C403.363 165.541 402.994 165.557 402.756 165.338C402.52 165.12 402.505 164.752 402.723 164.516C406.899 159.996 414.998 157.249 421.174 156.532L421.83 156.456C427.619 155.788 433.605 155.098 438.015 151.586C442.642 147.901 444.899 141.178 443.765 134.459C442.833 128.938 439.796 123.314 434.74 117.743C434.332 117.294 433.915 116.846 433.496 116.396C430.851 113.557 428.116 110.62 427.222 106.81C426.728 104.704 426.848 102.488 426.965 100.346C427.127 97.3757 427.279 94.57 425.873 92.1959C424.338 89.6027 421.471 88.3897 418.437 87.1055C415.995 86.0726 413.472 85.0044 411.585 83.141C409.962 81.5379 408.965 79.4924 408 77.5144C407.469 76.4245 406.919 75.2973 406.277 74.2756C402.978 69.0288 396.343 65.8827 390.138 66.6325C383.936 67.3794 378.256 72.004 376.326 77.8791C376.256 78.0911 376.07 78.2449 375.848 78.2744C375.621 78.3044 375.407 78.2029 375.284 78.0169C372.666 74.0361 367.207 73.093 363.171 74.2183C359.086 75.3568 355.367 78.6934 353.223 83.1437C351.461 86.7965 350.612 91.1075 350.548 96.7105C350.539 97.4861 350.544 98.2636 350.549 99.0415C350.569 101.825 350.589 104.703 349.937 107.482C348.716 112.683 345.322 116.985 342.039 121.145C341.63 121.662 341.224 122.178 340.822 122.694C336.16 128.681 333.282 133.552 331.488 138.487C329.233 144.689 328.912 151.022 330.58 156.319C332.653 162.9 338.029 168.396 344.612 170.664C351.546 173.053 358.687 172.288 364.207 168.565C364.474 168.385 364.836 168.456 365.016 168.722C365.196 168.988 365.126 169.35 364.859 169.529C361.259 171.957 357.011 173.196 352.574 173.196Z" fill="#252525"/>
<path d="M355.194 101.106C355.163 101.137 355.131 101.168 355.108 101.199C354.285 102.138 353.826 103.317 353.787 104.565C353.756 105.574 353.702 106.962 353.609 108.637C353.414 112.074 353.049 116.688 352.35 121.567C351.977 123.685 351.705 125.678 351.534 127.555C351.27 130.409 351.223 132.992 351.371 135.311C351.2 135.327 351.029 135.327 350.85 135.327C342.411 135.327 335.565 127.493 335.565 117.852C335.565 108.195 342.411 100.385 350.85 100.385C352.357 100.385 353.818 100.633 355.194 101.106Z" fill="#F7D43D"/>
<path d="M353.608 108.639C353.414 112.075 353.049 116.69 352.349 121.569C351.976 123.686 351.705 125.679 351.534 127.556C351.308 127.58 351.083 127.587 350.85 127.587C346.149 127.587 342.333 123.228 342.333 117.853C342.333 112.47 346.149 108.119 350.85 108.119C351.813 108.119 352.746 108.305 353.608 108.639Z" fill="#E53C6D"/>
<path d="M350.85 135.91C342.101 135.91 334.983 127.81 334.983 117.853C334.983 107.901 342.101 99.8047 350.85 99.8047C352.407 99.8047 353.932 100.058 355.383 100.558C355.574 100.623 355.717 100.781 355.761 100.977C355.807 101.172 355.748 101.377 355.606 101.519L355.568 101.557C354.812 102.421 354.405 103.459 354.37 104.585C354.343 105.452 354.291 106.866 354.191 108.671C353.933 113.235 353.507 117.602 352.926 121.651C352.554 123.761 352.283 125.759 352.114 127.609C351.859 130.373 351.804 132.952 351.952 135.276C351.972 135.59 351.738 135.864 351.423 135.892C351.235 135.909 351.047 135.91 350.85 135.91ZM350.85 100.968C342.743 100.968 336.148 108.543 336.148 117.853C336.148 127.132 342.692 134.687 350.755 134.746C350.647 132.523 350.714 130.09 350.953 127.503C351.125 125.622 351.401 123.591 351.776 121.468C352.349 117.47 352.771 113.137 353.027 108.606C353.127 106.813 353.178 105.41 353.204 104.549C353.241 103.405 353.586 102.335 354.21 101.413C353.121 101.118 351.995 100.968 350.85 100.968Z" fill="#252525"/>
<path d="M350.85 128.168C345.833 128.168 341.751 123.54 341.751 117.852C341.751 112.164 345.833 107.536 350.85 107.536C351.86 107.536 352.859 107.724 353.819 108.095C354.055 108.186 354.205 108.418 354.19 108.67C353.932 113.234 353.507 117.601 352.926 121.65C352.554 123.76 352.283 125.758 352.114 127.608C352.089 127.885 351.872 128.105 351.595 128.134C351.349 128.159 351.104 128.168 350.85 128.168ZM350.85 108.7C346.475 108.7 342.916 112.805 342.916 117.852C342.916 122.899 346.475 127.005 350.85 127.005C350.901 127.005 350.951 127.004 351.001 127.003C351.174 125.263 351.434 123.404 351.776 121.467C352.33 117.597 352.744 113.413 353.002 109.04C352.3 108.814 351.578 108.7 350.85 108.7Z" fill="#252525"/>
<path d="M376.935 71.261C371.48 72.6571 366.678 75.7597 362.591 79.8085C358.333 84.0434 354.945 89.2477 352.31 95.0961C351.51 96.8102 350.787 98.5864 350.103 100.409C348.308 100.502 346.591 100.96 345.006 101.712C345.216 98.7494 345.69 95.8021 346.436 92.8778C348.231 85.8662 351.829 79.0561 357.112 73.8518C357.416 73.5493 357.734 73.2544 358.053 72.9598C364.23 70.0667 370.532 69.7797 376.275 71.0983C376.492 71.1523 376.718 71.199 376.935 71.261Z" fill="#EF603F"/>
<path d="M345.007 102.293C344.891 102.293 344.777 102.259 344.678 102.191C344.507 102.075 344.411 101.876 344.425 101.67C344.639 98.6648 345.125 95.6581 345.872 92.7328C347.776 85.2936 351.623 78.4408 356.704 73.4364C357.004 73.1365 357.322 72.8415 357.641 72.546C357.685 72.5051 357.751 72.4569 357.806 72.4312C363.591 69.7225 370.022 69.0651 376.406 70.5295L376.648 70.5874C376.798 70.6223 376.948 70.6579 377.096 70.6998C377.349 70.7722 377.523 71.0044 377.519 71.2672C377.515 71.5296 377.336 71.7577 377.081 71.8228C372.069 73.1055 367.332 75.9308 363.001 80.2195C358.972 84.2272 355.554 89.3118 352.842 95.3329C352.115 96.8905 351.399 98.6149 350.65 100.612C350.569 100.828 350.366 100.976 350.135 100.988C348.458 101.076 346.817 101.495 345.257 102.236C345.177 102.274 345.092 102.293 345.007 102.293ZM358.383 73.4468C358.084 73.7236 357.797 73.9894 357.525 74.2614C352.59 79.1228 348.854 85.7838 347.001 93.0205C346.351 95.5663 345.903 98.176 345.666 100.791C346.969 100.276 348.317 99.9618 349.692 99.8523C350.403 97.975 351.089 96.3351 351.783 94.849C354.55 88.7058 358.049 83.504 362.18 79.3951C366.03 75.5818 370.202 72.8842 374.61 71.3537C369.029 70.38 363.449 71.0946 358.383 73.4468Z" fill="#252525"/>
<path d="M410.191 101.78C408.62 101.78 407.113 102.055 405.689 102.559C404.743 99.9823 403.733 97.4879 402.575 95.0947C399.828 89.2444 396.301 84.0452 391.873 79.8087C387.445 75.5905 382.208 72.4087 376.246 71.0974C370.266 69.7771 363.706 70.0704 357.276 72.9587C358.351 71.5559 359.646 70.2812 361.116 69.1992C362.595 68.1355 364.23 67.2553 365.948 66.5397C367.675 65.852 369.494 65.357 371.35 65.0268C373.215 64.7241 375.116 64.6233 377.027 64.6785C378.929 64.7701 380.84 65.036 382.723 65.4853C384.615 65.953 386.416 66.6223 388.17 67.4019C389.916 68.2087 391.569 69.19 393.159 70.2444C394.721 71.3451 396.19 72.5644 397.578 73.8483C403.081 79.0566 406.819 85.8697 408.693 92.8755C409.474 95.8284 409.97 98.7994 410.191 101.78Z" fill="#EF603F"/>
<path d="M405.69 103.139C405.452 103.139 405.229 102.993 405.143 102.758C404.098 99.9116 403.086 97.4874 402.05 95.3461C399.223 89.324 395.664 84.2392 391.47 80.2271C386.772 75.752 381.608 72.8709 376.122 71.6641C369.742 70.2557 363.309 70.8859 357.516 73.4876C357.274 73.5966 356.987 73.5269 356.82 73.3183C356.654 73.1096 356.651 72.8153 356.814 72.6036C357.934 71.1402 359.266 69.8367 360.77 68.7296C362.229 67.6803 363.894 66.7633 365.724 66.0012C367.431 65.3215 369.287 64.8015 371.248 64.4527C373.071 64.1568 375.021 64.0369 377.044 64.0955C379.016 64.1902 380.968 64.4666 382.859 64.9176C384.615 65.3516 386.428 65.9895 388.407 66.8689C390.005 67.6065 391.662 68.5505 393.482 69.7582C394.976 70.8111 396.483 72.04 397.974 73.4201C403.259 78.4224 407.264 85.2765 409.257 92.724C410.039 95.6788 410.549 98.7102 410.773 101.735C410.785 101.896 410.729 102.055 410.619 102.174C410.508 102.292 410.354 102.36 410.191 102.36C408.73 102.36 407.282 102.611 405.885 103.106C405.82 103.129 405.754 103.139 405.69 103.139ZM369.48 69.7674C371.765 69.7674 374.072 70.02 376.373 70.5279C382.07 71.7808 387.421 74.7613 392.275 79.3862C396.575 83.4988 400.217 88.7001 403.103 94.8461C404.088 96.8821 405.052 99.1723 406.041 101.827C407.191 101.471 408.371 101.264 409.561 101.211C409.322 98.4598 408.841 95.7084 408.13 93.0226C406.194 85.7813 402.303 79.1209 397.177 74.269C395.728 72.9279 394.262 71.7319 392.823 70.7181C391.066 69.5528 389.46 68.6375 387.925 67.9284C386.017 67.0809 384.267 66.4647 382.583 66.0484C380.767 65.6155 378.887 65.3489 376.999 65.2579C375.06 65.2022 373.185 65.317 371.443 65.5996C369.569 65.9333 367.789 66.4316 366.165 67.0789C364.425 67.8029 362.839 68.676 361.457 69.6696C360.694 70.2309 359.978 70.8471 359.314 71.5125C362.578 70.353 366.003 69.7674 369.48 69.7674Z" fill="#252525"/>
<path d="M415.51 183.875C398.396 206.625 378.397 205.782 356.101 186.195C358.223 183.066 359.188 180.434 360.547 177.702C361.65 175.492 362.151 173.152 362.711 170.997C365.21 161.516 364.663 153.789 364.268 152.322C364.231 152.175 364.203 152.093 364.203 152.093C355.026 151.588 348.669 142.483 352.352 121.567C353.391 114.323 353.694 107.656 353.786 104.566C353.822 103.319 354.282 102.136 355.108 101.201C357.24 98.7981 361.704 94.3414 366.307 93.4612C372.673 92.2419 372.673 94.4424 377.809 99.33C382.953 104.217 384.175 100.302 390.302 103.236C396.421 106.171 398.864 118.87 398.864 118.87L403.026 135C396.669 178.547 415.51 183.875 415.51 183.875Z" fill="#EDA5A5"/>
<path d="M364.148 171.591C366.647 162.109 364.662 153.792 364.267 152.325C370.523 152.114 377.597 150.216 382.576 144.118C381.272 145.751 369.54 160.486 364.148 171.591Z" fill="#CB8383"/>
<path d="M387.272 201.493C377.554 201.493 366.956 196.504 355.718 186.628C355.499 186.436 355.456 186.112 355.617 185.87C364.958 171.84 363.952 155.595 363.677 152.64C361.922 152.484 360.277 152.02 358.787 151.231C351.556 147.404 349.066 136.831 351.777 121.461C352.794 114.358 353.106 107.813 353.201 104.546C353.24 103.168 353.763 101.843 354.673 100.816C356.947 98.2449 361.468 93.796 366.196 92.8891C371.504 91.8695 372.765 93.211 375.518 96.153C376.269 96.9547 377.12 97.8634 378.215 98.9037C380.927 101.482 382.422 101.461 384.317 101.424C385.919 101.397 387.74 101.365 390.55 102.71C396.863 105.735 399.336 118.234 399.439 118.764L403.593 134.857C403.612 134.932 403.617 135.01 403.606 135.086C397.394 177.629 415.49 183.264 415.673 183.316C415.858 183.369 416.005 183.509 416.067 183.69C416.128 183.872 416.095 184.072 415.98 184.226C408.149 194.631 399.442 200.392 390.102 201.35C389.167 201.445 388.224 201.493 387.272 201.493ZM356.868 186.088C368.809 196.475 379.947 201.218 389.982 200.192C398.8 199.288 407.072 193.89 414.575 184.147C410.977 182.597 396.789 173.921 402.435 135.034L398.302 119.019C398.27 118.86 395.829 106.53 390.046 103.759C387.485 102.533 385.883 102.559 384.336 102.587C382.351 102.624 380.47 102.654 377.41 99.7459C376.292 98.6824 375.429 97.7606 374.667 96.9475C371.995 94.0943 371.097 93.1326 366.416 94.0314C362.028 94.8737 357.722 99.126 355.546 101.586C354.817 102.41 354.397 103.473 354.366 104.58C354.27 107.872 353.955 114.466 352.928 121.644C350.309 136.496 352.585 146.632 359.333 150.203C360.785 150.971 362.403 151.403 364.134 151.515C364.205 151.506 364.275 151.511 364.341 151.526C370.133 151.816 377.158 148.569 383.526 142.404C383.758 142.182 384.127 142.186 384.35 142.417C384.575 142.648 384.569 143.016 384.338 143.24C378.01 149.366 370.996 152.699 365.03 152.699C364.97 152.699 364.91 152.699 364.851 152.698C365.15 156.156 365.939 172.119 356.868 186.088Z" fill="#252525"/>
<path d="M383.952 107.697C383.653 108.051 382.56 107.671 381.094 107.522C379.627 107.339 377.82 107.496 376.359 108.006C374.899 108.498 374.065 108.962 373.467 109.068C372.877 109.193 372.526 108.998 372.272 108.618C372.022 108.246 371.895 107.752 372.317 107.04C372.735 106.355 373.741 105.372 375.781 104.774C377.821 104.146 380.405 104.486 381.973 105.385C383.593 106.252 384.242 107.382 383.952 107.697ZM354.114 111.749C353.863 111.471 354.497 110.183 355.925 109.122C357.324 108.038 359.458 107.39 361.144 107.46C362.84 107.518 363.707 108.01 364.083 108.392C364.461 108.792 364.387 109.128 364.203 109.476C364.015 109.829 363.751 110.094 363.272 110.216C362.788 110.336 362.105 110.282 360.865 110.274C359.633 110.268 358.014 110.486 356.707 110.978C355.38 111.415 354.381 112.062 354.114 111.749ZM367.118 131.355C366.589 131.355 366.086 131.26 365.633 131.07C364.463 130.577 363.7 129.43 363.777 128.28C363.841 127.339 364.41 126.598 364.911 125.944L365.147 125.634C365.977 124.516 366.565 123.186 366.845 121.787C367.05 120.76 367.089 119.725 366.96 118.711C366.92 118.392 367.145 118.101 367.465 118.06C367.79 118.022 368.076 118.246 368.117 118.564C368.261 119.703 368.218 120.864 367.988 122.015C367.674 123.58 367.015 125.071 366.084 126.327L365.836 126.652C365.396 127.226 364.979 127.768 364.939 128.358C364.896 129.01 365.378 129.699 366.085 129.997C366.745 130.274 367.586 130.255 368.454 129.944C369.288 129.644 370.063 129.122 370.813 128.618C371.08 128.438 371.442 128.51 371.622 128.775C371.802 129.042 371.731 129.403 371.464 129.583C370.656 130.127 369.819 130.69 368.848 131.038C368.262 131.249 367.676 131.355 367.118 131.355ZM363.153 116.497C363.195 117.976 362.025 119.206 360.543 119.249C359.06 119.291 357.828 118.13 357.786 116.65C357.743 115.171 358.907 113.941 360.389 113.898C361.871 113.856 363.11 115.017 363.153 116.497ZM379.206 115.099C379.249 116.578 378.078 117.808 376.596 117.851C375.114 117.893 373.882 116.732 373.839 115.252C373.797 113.773 374.961 112.543 376.443 112.501C377.925 112.458 379.164 113.619 379.206 115.099ZM366.752 138.676C366.192 138.676 365.632 138.637 365.076 138.559C364.757 138.514 364.536 138.22 364.581 137.901C364.626 137.583 364.917 137.362 365.24 137.407C367.558 137.737 369.965 137.297 372.015 136.177C374.068 135.055 375.735 133.268 376.708 131.144C376.841 130.852 377.189 130.724 377.479 130.857C377.772 130.991 377.901 131.336 377.767 131.628C376.691 133.978 374.847 135.956 372.575 137.197C370.796 138.169 368.776 138.676 366.752 138.676Z" fill="#252525"/>
<path d="M410.201 136.724C418.642 136.724 425.486 128.901 425.486 119.252C425.486 109.603 418.642 101.78 410.201 101.78C401.76 101.78 394.917 109.603 394.917 119.252C394.917 128.901 401.76 136.724 410.201 136.724Z" fill="#F7D43D"/>
<path d="M410.201 128.988C414.906 128.988 418.719 124.629 418.719 119.251C418.719 113.874 414.906 109.515 410.201 109.515C405.497 109.515 401.684 113.874 401.684 119.251C401.684 124.629 405.497 128.988 410.201 128.988Z" fill="#E53C6D"/>
<path d="M410.201 137.307C401.452 137.307 394.334 129.208 394.334 119.254C394.334 109.299 401.452 101.2 410.201 101.2C418.951 101.2 426.069 109.299 426.069 119.254C426.069 129.208 418.951 137.307 410.201 137.307ZM410.201 102.363C402.095 102.363 395.5 109.94 395.5 119.253C395.5 128.566 402.095 136.143 410.201 136.143C418.308 136.143 424.903 128.566 424.903 119.253C424.903 109.94 418.308 102.363 410.201 102.363Z" fill="#252525"/>
<path d="M410.201 129.569C405.183 129.569 401.101 124.94 401.101 119.251C401.101 113.561 405.183 108.933 410.201 108.933C415.22 108.933 419.302 113.561 419.302 119.251C419.302 124.94 415.22 129.569 410.201 129.569ZM410.201 110.096C405.826 110.096 402.266 114.203 402.266 119.251C402.266 124.299 405.826 128.406 410.201 128.406C414.577 128.406 418.136 124.299 418.136 119.251C418.136 114.203 414.577 110.096 410.201 110.096Z" fill="#252525"/>
<path d="M343.616 62.6877V80.8503C343.616 83.3233 341.601 85.3345 339.123 85.3345H337.736V96.8712L323.677 85.3345H267.678C265.2 85.3345 263.185 83.3233 263.185 80.8503V62.6877C263.185 60.2146 265.2 58.2031 267.678 58.2031H339.123C341.601 58.2031 343.616 60.2146 343.616 62.6877Z" fill="#D9E7F8"/>
<path d="M337.736 97.4513C337.604 97.4513 337.472 97.4061 337.366 97.3191L323.469 85.915H267.678C264.88 85.915 262.603 83.6422 262.603 80.8487V62.6864C262.603 59.8929 264.88 57.6201 267.678 57.6201H339.124C341.922 57.6201 344.199 59.8929 344.199 62.6864V80.8487C344.199 83.6422 341.922 85.915 339.124 85.915H338.319V96.8696C338.319 97.0946 338.19 97.2995 337.985 97.3957C337.905 97.433 337.821 97.4513 337.736 97.4513ZM267.678 58.7836C265.522 58.7836 263.768 60.5345 263.768 62.6864V80.8487C263.768 83.0006 265.522 84.7515 267.678 84.7515H323.677C323.812 84.7515 323.943 84.7985 324.047 84.8837L337.153 95.6384V85.3333C337.153 85.0121 337.414 84.7517 337.736 84.7517H339.123C341.279 84.7517 343.033 83.0008 343.033 80.8489V62.6864C343.033 60.5345 341.279 58.7836 339.123 58.7836H267.678Z" fill="#252525"/>
<path d="M334.033 65.8537H273.635C273.314 65.8537 273.053 65.5931 273.053 65.2721C273.053 64.9509 273.314 64.6904 273.635 64.6904H334.033C334.355 64.6904 334.616 64.951 334.616 65.2721C334.616 65.5931 334.355 65.8537 334.033 65.8537ZM315.066 72.3481H273.635C273.314 72.3481 273.053 72.0876 273.053 71.7665C273.053 71.4453 273.314 71.1848 273.635 71.1848H315.066C315.387 71.1848 315.649 71.4454 315.649 71.7665C315.649 72.0876 315.388 72.3481 315.066 72.3481ZM325.735 78.8425H273.635C273.314 78.8425 273.053 78.5819 273.053 78.2609C273.053 77.9397 273.314 77.6792 273.635 77.6792H325.735C326.057 77.6792 326.318 77.9398 326.318 78.2609C326.318 78.5819 326.057 78.8425 325.735 78.8425Z" fill="#252525"/>
<path d="M470.217 249.247L459.478 249.687L436.722 250.622L415.51 251.494L412.35 251.622L411.422 231.861L415.51 183.876C415.51 183.876 418.166 184.288 422.327 185.811C426.093 187.177 431.091 189.461 436.483 193.165C449.134 201.84 463.961 218.317 470.217 249.247Z" fill="#6666FF"/>
<path opacity="0.5" d="M361.109 275.806C342.816 277.469 326.633 264.012 324.967 245.753C323.301 227.494 336.784 211.348 355.076 209.685C373.369 208.022 389.552 221.472 391.218 239.731C392.884 257.99 379.401 274.144 361.109 275.806ZM349.325 205.842C345.883 206.155 342.838 203.623 342.525 200.188C342.211 196.753 344.748 193.715 348.189 193.402C351.631 193.089 354.676 195.619 354.989 199.055C355.302 202.49 352.766 205.529 349.325 205.842ZM373.107 304.081C369.665 304.394 366.621 301.862 366.307 298.427C365.994 294.992 368.53 291.954 371.972 291.642C375.413 291.329 378.458 293.859 378.771 297.294C379.085 300.729 376.548 303.769 373.107 304.081ZM399.703 221.282C396.262 221.595 393.217 219.063 392.904 215.628C392.59 212.193 395.127 209.156 398.568 208.843C402.01 208.53 405.054 211.06 405.368 214.495C405.681 217.93 403.144 220.97 399.703 221.282ZM459.477 249.688L436.722 250.623C437.191 245.204 441.49 240.72 447.121 240.206C453.129 239.656 458.485 243.847 459.477 249.688ZM436.483 193.166C435.721 196.577 432.836 199.255 429.171 199.585C424.623 199.997 420.609 196.659 420.195 192.13C419.975 189.727 420.811 187.471 422.327 185.812C426.093 187.178 431.091 189.461 436.483 193.166ZM426.235 234.2C421.693 234.613 417.675 231.272 417.261 226.739C416.848 222.205 420.195 218.197 424.737 217.784C429.279 217.371 433.296 220.71 433.71 225.243C434.124 229.777 430.776 233.787 426.235 234.2ZM415.51 265.854V276.381L409.539 283.011C408.455 283.451 407.297 283.735 406.076 283.845C399.424 284.451 393.536 279.554 392.93 272.915C392.323 266.267 397.229 260.389 403.889 259.784C408.767 259.344 413.232 261.856 415.51 265.854ZM316.442 211.652C316.23 211.67 316.028 211.689 315.817 211.698C318.031 199.896 320.805 192.808 320.805 192.808C321.89 192.276 323.01 191.79 324.159 191.341C325.959 193.239 327.144 195.724 327.402 198.521C328.008 205.169 323.102 211.047 316.442 211.652ZM321.641 312.024H298.059C297.912 311.456 297.821 310.878 297.765 310.282C297.159 303.625 302.074 297.738 308.743 297.123C315.413 296.518 321.311 301.424 321.917 308.081C322.036 309.438 321.935 310.768 321.641 312.024ZM307.439 276.29C308.036 274.428 308.532 272.658 309.019 271.099C310.25 267.129 310.967 262.269 311.536 256.144C313.621 258.097 315.018 260.783 315.293 263.846C315.799 269.412 312.455 274.437 307.439 276.29Z" fill="white"/>
<path d="M320.805 193.393C320.59 193.393 320.382 193.273 320.282 193.067C320.14 192.779 320.259 192.43 320.547 192.289C335.006 185.202 355.905 185.61 356.117 185.614C356.439 185.621 356.694 185.888 356.686 186.209C356.679 186.53 356.428 186.778 356.09 186.777C355.887 186.772 335.26 186.374 321.062 193.333C320.979 193.374 320.891 193.393 320.805 193.393Z" fill="#252525"/>
<path d="M371.141 164.793C369.166 168.259 365.307 164.371 365.307 164.371C368.766 168.07 366.87 173.497 362.297 170.997C364.201 174.716 359.884 178.225 356.102 173.587C358.304 178.104 352.649 180.356 349.533 173.208C348.621 171.319 341.996 180.314 328.808 184.928C326.173 185.85 324.064 187.854 323.057 190.454C320.273 197.645 315.003 213.568 312.989 235.345C312.576 239.755 312.218 244.45 311.924 249.43C309.609 288.502 297.464 296.965 281.856 297.736C266.239 298.506 250.631 288.502 257.567 260.222C259.808 251.098 265.036 239.178 271.09 227.23C278.604 212.411 287.387 197.538 293.312 187.845C299.899 177.08 308.653 167.754 319.2 160.804C324.831 157.099 331.133 153.927 337.261 152.863C355.101 149.791 357.535 150.57 360.31 151.286C363.084 151.992 373.107 161.336 371.141 164.793Z" fill="#EDA5A5"/>
<path d="M312.989 235.345C312.576 239.755 312.218 244.45 311.924 249.429C309.609 288.502 297.464 296.965 281.856 297.736C266.239 298.506 250.631 288.502 257.567 260.222C259.808 251.098 265.036 239.177 271.09 227.229C268.361 233.804 266.083 240.571 264.31 247.458C262.151 255.858 260.736 264.816 263.217 273.124C265.697 281.441 273.028 288.841 281.718 288.896C288.728 288.933 295.085 284.256 298.943 278.406C302.802 272.565 304.602 265.642 306.348 258.865C308.066 252.153 309.793 245.441 311.511 238.738C311.813 237.591 312.282 236.307 312.989 235.345Z" fill="#CB8383"/>
<path d="M280.211 298.359C272.114 298.359 265.072 295.406 260.707 290.128C255.119 283.37 253.837 272.981 257 260.085C259.005 251.921 263.571 240.779 270.569 226.968C278.036 212.242 286.788 197.401 292.814 187.543C299.553 176.53 308.565 167.116 318.878 160.319C325.53 155.943 331.681 153.242 337.16 152.291C354.788 149.255 357.464 149.949 360.298 150.683L360.455 150.723C362.869 151.338 369.691 157.484 371.49 161.703C372.081 163.088 372.133 164.225 371.647 165.08C371.647 165.081 371.647 165.081 371.647 165.081C371.074 166.087 370.298 166.661 369.341 166.788C368.636 166.883 367.915 166.705 367.268 166.421C367.935 168.212 367.713 169.985 366.879 171.056C366.045 172.127 364.747 172.463 363.27 172.035C363.584 173.693 362.857 175.133 361.769 175.84C360.695 176.54 358.98 176.722 357.185 175.431C357.203 176.124 357.033 176.755 356.674 177.272C356.123 178.067 355.212 178.469 354.161 178.368C353.239 178.281 350.909 177.638 349.058 173.573C348.645 173.52 347.004 174.769 345.579 175.887C342.311 178.448 336.842 182.734 329 185.478C326.506 186.351 324.539 188.241 323.6 190.664C320.708 198.134 315.559 213.88 313.57 235.399C313.151 239.863 312.793 244.595 312.505 249.464C311.415 267.862 308.091 280.562 302.342 288.293C297.595 294.678 291.094 297.863 281.885 298.317C281.322 298.345 280.764 298.359 280.211 298.359ZM355.429 151.226C352.367 151.226 347.239 151.736 337.359 153.437C332.039 154.36 326.036 157.003 319.52 161.29C309.349 167.994 300.458 177.282 293.809 188.15C287.793 197.989 279.059 212.802 271.608 227.494C264.65 241.226 260.116 252.284 258.132 260.362C255.06 272.887 256.261 282.924 261.606 289.387C266.032 294.74 273.403 297.568 281.826 297.156C295.727 296.469 308.923 290.209 311.341 249.396C311.63 244.513 311.989 239.768 312.408 235.291C314.411 213.633 319.598 197.771 322.513 190.244C323.574 187.503 325.798 185.365 328.614 184.38C336.274 181.7 341.44 177.651 344.859 174.972C347.554 172.859 349.038 171.695 349.982 172.839C350.016 172.88 350.044 172.925 350.065 172.973C351.72 176.693 353.702 177.156 354.27 177.209C354.896 177.268 355.406 177.055 355.716 176.609C356.168 175.958 356.118 174.949 355.577 173.842C355.448 173.576 355.538 173.256 355.788 173.097C356.036 172.937 356.367 172.991 356.554 173.22C358.373 175.451 360.157 175.502 361.133 174.866C362.032 174.28 362.617 172.903 361.777 171.262C361.661 171.035 361.706 170.758 361.89 170.58C362.073 170.402 362.351 170.365 362.576 170.487C364.034 171.284 365.268 171.23 365.958 170.342C366.861 169.182 366.706 166.721 364.881 164.769C364.663 164.536 364.673 164.174 364.902 163.953C365.132 163.733 365.496 163.737 365.72 163.962C366.243 164.486 367.889 165.807 369.189 165.634C369.773 165.556 370.245 165.187 370.633 164.506C371.004 163.854 370.72 162.869 370.416 162.158C368.66 158.039 362.123 152.348 360.164 151.85L360.004 151.809C358.887 151.52 357.752 151.226 355.429 151.226ZM371.14 164.793H371.147H371.14Z" fill="#252525"/>
<path d="M365.307 164.952C365.157 164.952 365.007 164.894 364.893 164.78L360.402 160.261C358.58 158.428 356.052 157.377 353.466 157.377H350.25C349.928 157.377 349.667 157.117 349.667 156.796C349.667 156.474 349.928 156.214 350.25 156.214H353.466C356.361 156.214 359.19 157.391 361.23 159.442L365.72 163.96C365.947 164.188 365.946 164.557 365.717 164.783C365.603 164.896 365.456 164.952 365.307 164.952ZM362.296 171.577C362.138 171.577 361.979 171.513 361.865 171.386L357.351 166.414C355.451 164.321 352.982 162.904 350.213 162.318L349.411 162.147C349.096 162.08 348.896 161.771 348.963 161.457C349.029 161.142 349.338 160.942 349.654 161.009L350.455 161.179C353.466 161.817 356.149 163.357 358.214 165.633L362.728 170.605C362.944 170.843 362.926 171.211 362.688 171.427C362.576 171.528 362.436 171.577 362.296 171.577ZM356.103 174.167C355.929 174.167 355.758 174.091 355.643 173.944L353.203 170.831C351.811 169.054 349.827 167.816 347.618 167.345L346.523 167.111C346.209 167.044 346.008 166.735 346.076 166.421C346.142 166.106 346.446 165.905 346.768 165.974L347.862 166.207C350.338 166.735 352.561 168.123 354.122 170.114L356.561 173.227C356.759 173.48 356.714 173.845 356.461 174.043C356.355 174.127 356.228 174.167 356.103 174.167Z" fill="#252525"/>
<path d="M280.248 249.966C280.264 249.92 280.235 249.91 280.219 249.955C280.202 250.001 280.232 250.012 280.248 249.966ZM284.387 241.575C284.496 241.293 284.337 241.164 284.226 241.449C284.117 241.731 284.276 241.859 284.387 241.575ZM279.148 252.173C279.277 251.808 279.034 251.754 278.905 252.118C278.775 252.483 279.018 252.536 279.148 252.173ZM278.96 253.456L279.471 253.919C279.555 253.994 279.636 254.076 279.722 254.146C279.77 254.185 279.824 254.212 279.876 254.244C279.922 254.271 279.963 254.296 280.026 254.271C280.1 254.242 280.19 254.057 280.174 253.942C280.158 253.823 280.109 253.78 280.059 253.719C280.02 253.671 279.981 253.624 279.937 253.587L279.694 253.381L279.199 252.961C279.149 252.918 279.066 252.96 278.998 253.104C278.937 253.229 278.91 253.411 278.96 253.456ZM283.735 251.746C283.772 251.64 283.705 251.612 283.667 251.718C283.63 251.824 283.697 251.852 283.735 251.746ZM282.541 256.561L283.576 254.557C283.911 253.919 284.25 253.276 284.557 252.602C284.647 252.404 284.565 252.237 284.456 252.422C284.087 253.04 283.741 253.718 283.397 254.384L282.395 256.345C282.251 256.633 282.396 256.848 282.541 256.561ZM287.412 247.469C287.603 246.977 287.319 246.75 287.125 247.25C286.938 247.744 287.226 247.971 287.412 247.469ZM284.279 248.287C284.455 247.812 284.132 247.745 283.955 248.219C283.779 248.694 284.103 248.76 284.279 248.287ZM283.925 247.796L283.708 247.496L283.636 247.397L283.601 247.347C283.565 247.297 283.517 247.295 283.463 247.289L283.512 247.297C283.452 247.284 283.396 247.264 283.323 247.297C283.229 247.34 283.114 247.53 283.102 247.707C283.096 247.791 283.094 247.807 283.102 247.88L283.117 248.003C283.124 248.051 283.129 248.102 283.141 248.142C283.154 248.186 283.186 248.218 283.207 248.251L283.247 248.317L283.439 248.634C283.476 248.695 283.525 248.724 283.597 248.689C283.658 248.66 283.742 248.574 283.8 248.469C283.862 248.356 283.918 248.219 283.938 248.093C283.956 247.98 283.963 247.846 283.925 247.796ZM284.889 243.281C285.076 242.798 284.739 242.743 284.552 243.226C284.364 243.71 284.702 243.763 284.889 243.281ZM287.161 241.8L287.536 241.313L287.562 241.269C287.575 241.245 287.585 241.22 287.592 241.195C287.605 241.152 287.614 241.106 287.61 241.074C287.604 241.009 287.569 240.983 287.518 241.02L287.38 241.123L287.416 241.097L287.141 241.298C287.093 241.335 287.042 241.418 287.005 241.497C286.981 241.551 286.964 241.605 286.953 241.659C286.944 241.701 286.941 241.738 286.944 241.77C286.943 241.806 286.949 241.835 286.961 241.855C286.971 241.877 286.986 241.889 287.005 241.891C287.022 241.899 287.042 241.897 287.065 241.884C287.096 241.869 287.128 241.841 287.161 241.8Z" fill="#EF7E60"/>
<path d="M287.091 241.77L287.827 241.271L288.182 241.031L288.359 240.911C288.449 240.849 288.533 240.766 288.624 240.668C288.786 240.496 288.823 240.14 288.685 240.173C288.613 240.19 288.542 240.209 288.463 240.261L288.286 240.381L287.918 240.629L287.195 241.119C287.091 241.19 286.982 241.376 286.952 241.559C286.925 241.727 286.986 241.841 287.091 241.77ZM287.744 243.99L289.089 242.522C289.321 242.274 289.552 242.039 289.783 241.808C289.906 241.687 290.031 241.573 290.153 241.437C290.285 241.288 290.442 241.114 290.559 240.903C290.63 240.775 290.619 240.606 290.543 240.64C290.427 240.69 290.299 240.835 290.177 240.959C290.052 241.085 289.926 241.25 289.803 241.399L289.128 242.199L287.728 243.816C287.645 243.913 287.661 244.082 287.744 243.99ZM292.464 238.544C292.631 238.148 292.394 237.982 292.225 238.383C292.058 238.779 292.295 238.944 292.464 238.544ZM290.514 245.01C290.674 244.599 290.419 244.451 290.258 244.866C290.098 245.278 290.353 245.425 290.514 245.01ZM292.96 245.013L292.496 246.304C292.464 246.394 292.456 246.527 292.469 246.585C292.483 246.646 292.51 246.684 292.551 246.693C292.64 246.713 292.772 246.583 292.855 246.384C292.825 246.456 292.864 246.364 292.867 246.356L292.896 246.287L292.959 246.134L293.081 245.841L293.376 245.137C293.493 244.852 293.501 244.575 293.372 244.535C293.314 244.518 293.249 244.548 293.173 244.628C293.076 244.727 293.019 244.852 292.96 245.013ZM292.485 249.207L292.595 249.184L292.554 249.193L292.692 249.169C292.72 249.164 292.748 249.146 292.78 249.11C292.809 249.076 292.839 249.03 292.859 248.979C292.875 248.937 292.887 248.896 292.894 248.856C292.905 248.799 292.898 248.737 292.88 248.713L292.737 248.527C292.699 248.48 292.624 248.497 292.557 248.574C292.502 248.635 292.452 248.716 292.417 248.812C292.384 248.901 292.366 248.999 292.37 249.07C292.373 249.122 292.385 249.16 292.406 249.185C292.426 249.207 292.453 249.215 292.485 249.207Z" fill="#EF7E60"/>
<path d="M292.527 248.885L292.388 249.838C292.377 249.917 292.446 249.879 292.458 249.799L292.617 248.83C292.633 248.731 292.542 248.786 292.527 248.885ZM290.135 254.076C290.277 253.675 290.031 253.521 289.887 253.927C289.745 254.328 289.991 254.481 290.135 254.076ZM288.632 259.382L289.346 258.919L289.681 258.704L289.856 258.591L289.931 258.542C289.996 258.5 290.038 258.451 290.103 258.36C290.223 258.196 290.284 257.841 290.171 257.822C290.114 257.812 290.071 257.812 290 257.863L289.919 257.925L289.743 258.061L289.349 258.368L288.675 258.895C288.496 259.037 288.452 259.499 288.632 259.382ZM291.821 256.161C292.014 255.617 291.652 255.484 291.458 256.031C291.264 256.576 291.627 256.707 291.821 256.161ZM294.93 250.241C294.993 250.079 294.872 250.071 294.81 250.231C294.749 250.394 294.868 250.401 294.93 250.241ZM296.166 245.086L296.212 244.9L296.24 244.777L296.226 244.839L296.275 244.641C296.293 244.564 296.287 244.49 296.249 244.482C296.235 244.479 296.218 244.484 296.199 244.495C296.171 244.512 296.143 244.552 296.119 244.594L296.114 244.603L296.139 244.562L295.987 244.821L296.023 244.761L295.907 244.956C295.851 245.052 295.809 245.188 295.811 245.278C295.813 245.35 295.83 245.404 295.866 245.422C295.9 245.439 295.95 245.422 295.998 245.378C296.033 245.345 296.066 245.302 296.096 245.249C296.125 245.197 296.148 245.143 296.166 245.086Z" fill="#EF7E60"/>
<path d="M296.331 244.666L296.04 242.727L295.9 241.785C295.871 241.582 295.827 241.401 295.785 241.213C295.757 241.082 295.702 240.993 295.662 240.879C295.607 240.724 295.378 240.957 295.379 241.205C295.374 241.336 295.369 241.465 295.364 241.595C295.365 241.699 295.379 241.794 295.386 241.891C295.399 242.059 295.415 242.222 295.437 242.38L295.578 243.369L295.858 245.308C295.882 245.472 296.043 245.423 296.162 245.262C296.3 245.075 296.356 244.83 296.331 244.666ZM294.96 239.749L295.364 239.34L295.529 239.174C295.6 239.102 295.669 239.019 295.741 238.937C295.787 238.883 295.816 238.782 295.811 238.727C295.806 238.663 295.767 238.66 295.72 238.697C295.652 238.75 295.587 238.8 295.519 238.863L295.353 239.017L294.984 239.358C294.915 239.422 294.844 239.556 294.84 239.664C294.838 239.713 294.846 239.756 294.87 239.77C294.892 239.782 294.926 239.784 294.96 239.749Z" fill="#EF7E60"/>
<path d="M295.252 239.26L295.238 237.99L295.232 237.373L295.211 237.093C295.2 236.949 295.194 236.819 295.159 236.706C295.109 236.547 294.9 236.76 294.858 237.008C294.809 237.292 294.81 237.543 294.8 237.797C294.792 238.025 294.802 238.239 294.805 238.457L294.818 239.726C294.82 239.883 294.941 239.905 295.052 239.778C295.176 239.638 295.253 239.428 295.252 239.26ZM294.22 235.465L294.296 235.149L294.28 235.215L294.326 235.041C294.346 234.96 294.34 234.898 294.307 234.879C294.276 234.862 294.222 234.89 294.178 234.959L294.074 235.121L294.111 235.064L293.911 235.383C293.88 235.442 293.856 235.504 293.839 235.567C293.822 235.63 293.815 235.687 293.816 235.738C293.822 235.813 293.844 235.866 293.888 235.877C293.929 235.887 293.986 235.859 294.04 235.804C294.079 235.763 294.115 235.711 294.148 235.649C294.179 235.59 294.203 235.529 294.22 235.465ZM294.225 234.361C294.338 233.784 294.261 233.335 294.06 233.128C293.863 232.924 293.447 232.969 293.083 233.444C292.949 233.618 292.922 233.917 293.063 233.84C293.207 233.761 293.328 233.69 293.435 233.685L293.476 233.684C293.476 233.684 293.523 233.691 293.498 233.686C293.523 233.691 293.547 233.699 293.57 233.709C293.616 233.729 293.657 233.761 293.695 233.798C293.769 233.868 293.817 233.964 293.845 234.108L293.855 234.172C293.85 234.135 293.853 234.157 293.855 234.182L293.858 234.316C293.857 234.404 293.845 234.495 293.826 234.596C293.793 234.773 293.863 234.866 293.969 234.803C294.08 234.738 294.189 234.54 294.225 234.361ZM291.271 233.282C291.316 233.18 291.251 233.147 291.206 233.25C291.161 233.352 291.226 233.385 291.271 233.282ZM286.475 237.177L286.417 237.183L286.464 237.178L286.257 237.19C286.24 237.186 286.22 237.192 286.198 237.207C286.177 237.216 286.155 237.234 286.132 237.263L286.088 237.323C286.066 237.355 286.048 237.39 286.033 237.429C286.008 237.49 285.987 237.56 285.982 237.616C285.977 237.688 285.987 237.74 286.014 237.769L286.063 237.822L286.037 237.791L286.161 237.934C286.194 237.969 286.25 237.953 286.305 237.913C286.345 237.882 286.383 237.837 286.42 237.779C286.449 237.735 286.473 237.688 286.493 237.636C286.515 237.587 286.531 237.537 286.542 237.487C286.555 237.436 286.56 237.391 286.558 237.351C286.561 237.305 286.557 237.268 286.544 237.241C286.529 237.202 286.506 237.181 286.475 237.177ZM283.665 241.249C283.801 240.899 283.572 240.824 283.436 241.174C283.3 241.524 283.529 241.598 283.665 241.249ZM286.386 236.109L286.494 235.934L286.457 235.995L286.937 235.222C286.986 235.143 286.999 235.033 286.98 234.991C286.957 234.942 286.905 234.966 286.851 235.035C286.88 234.998 286.841 235.049 286.835 235.056L286.802 235.099L286.729 235.193L286.56 235.41L286.276 235.777C286.238 235.827 286.198 235.926 286.181 235.989C286.162 236.06 286.157 236.14 286.173 236.179C286.204 236.258 286.3 236.249 286.386 236.109ZM289.574 231.773L289.742 231.582L289.884 231.412L289.839 231.47L289.99 231.284C290.021 231.245 290.049 231.194 290.07 231.142C290.09 231.09 290.106 231.032 290.107 230.988C290.108 230.952 290.104 230.923 290.093 230.901C290.081 230.874 290.044 230.862 290.012 230.883L289.917 230.945L289.779 231.045L289.585 231.197C289.556 231.223 289.528 231.258 289.503 231.3C289.476 231.338 289.453 231.38 289.433 231.427C289.413 231.473 289.398 231.517 289.389 231.561C289.376 231.606 289.37 231.648 289.37 231.686C289.371 231.759 289.388 231.82 289.429 231.831L289.471 231.835C289.503 231.829 289.537 231.808 289.574 231.773ZM280.377 241.654C280.992 241.001 281.593 240.344 282.22 239.7C282.294 239.624 282.288 239.469 282.215 239.542L280.372 241.439C280.265 241.551 280.268 241.771 280.377 241.654ZM278.867 247.35C278.919 247.21 278.826 247.189 278.774 247.328C278.722 247.467 278.815 247.489 278.867 247.35ZM276.138 253.677L276.326 253.681L276.284 253.681L276.452 253.69C276.49 253.692 276.532 253.679 276.574 253.663C276.63 253.643 276.701 253.567 276.743 253.445C276.784 253.328 276.791 253.214 276.757 253.163C276.735 253.131 276.714 253.094 276.688 253.072L276.639 253.036L276.542 252.97L276.576 252.995L276.417 252.877C276.329 252.813 276.174 252.975 276.09 253.215C276.004 253.456 276.03 253.671 276.138 253.677ZM280.022 245.137C280.193 244.677 279.897 244.575 279.725 245.037C279.554 245.497 279.851 245.599 280.022 245.137Z" fill="#EF7E60"/>
<path d="M280.061 244.629C280.079 244.584 280.05 244.572 280.032 244.618C280.015 244.663 280.044 244.674 280.061 244.629ZM280.569 239.709C280.942 239.114 281.319 238.522 281.681 237.906C281.814 237.679 281.749 237.48 281.605 237.674L280.47 239.256C280.369 239.398 280.293 239.634 280.327 239.752C280.357 239.856 280.467 239.876 280.569 239.709ZM285.173 231.725C285.32 231.377 285.094 231.296 284.947 231.644C284.8 231.992 285.027 232.073 285.173 231.725ZM289.063 228.013C289.271 227.546 288.951 227.458 288.744 227.925C288.538 228.394 288.858 228.48 289.063 228.013ZM291.306 228.334L291.509 228.187L291.456 228.225C291.604 228.121 291.751 228.023 291.9 227.902C291.956 227.857 292.02 227.756 292.043 227.662C292.064 227.574 292.057 227.485 292.008 227.489C291.905 227.497 291.799 227.522 291.69 227.55L291.733 227.541L291.449 227.605C291.395 227.618 291.325 227.693 291.268 227.773C291.197 227.872 291.147 228.003 291.125 228.113C291.081 228.337 291.167 228.432 291.306 228.334ZM295.112 225.454C295.29 225.073 295.075 224.887 294.892 225.273C294.717 225.656 294.935 225.842 295.112 225.454ZM295.251 226.249L295.897 226.837L296.22 227.13C296.322 227.223 296.437 227.365 296.596 227.321C296.656 227.304 296.727 227.151 296.716 227.08C296.687 226.876 296.54 226.793 296.438 226.706L296.111 226.428L295.457 225.873C295.365 225.795 295.16 226.167 295.251 226.249ZM299.086 226.031L299.57 225.661C299.736 225.534 299.903 225.417 300.07 225.258C300.129 225.202 300.186 225.064 300.191 224.988C300.198 224.899 300.166 224.859 300.108 224.877C300.164 224.859 300.065 224.89 300.049 224.895L299.999 224.917L299.891 224.97L299.644 225.09L299.217 225.299C299.079 225.366 298.926 225.601 298.885 225.828C298.845 226.048 298.939 226.144 299.086 226.031ZM301.835 231.68C301.96 231.405 301.796 231.276 301.669 231.554C301.543 231.83 301.708 231.958 301.835 231.68ZM302.168 235.248L303.083 235.145C303.25 235.126 303.405 234.626 303.238 234.644L302.323 234.747C302.156 234.766 302 235.268 302.168 235.248ZM300.98 240.098L300.957 240.161L300.946 240.191C300.941 240.209 300.938 240.218 300.932 240.241C300.922 240.27 300.917 240.297 300.915 240.322L300.905 240.389L300.92 240.325L300.865 240.538C300.846 240.615 300.851 240.688 300.889 240.696C300.904 240.7 300.921 240.696 300.939 240.685C300.968 240.668 300.995 240.629 301.02 240.588L301.106 240.449L301.072 240.5L301.152 240.387L301.107 240.447C301.12 240.43 301.131 240.417 301.144 240.399C301.17 240.364 301.171 240.363 301.193 240.321L301.233 240.243L301.276 240.155C301.314 240.076 301.331 239.985 301.335 239.915C301.336 239.865 301.328 239.827 301.311 239.799C301.3 239.778 301.284 239.767 301.263 239.767C301.245 239.76 301.224 239.763 301.199 239.777C301.174 239.788 301.149 239.809 301.124 239.839C301.098 239.864 301.074 239.897 301.05 239.938C301.021 239.988 300.998 240.042 300.98 240.098ZM304.514 239.946C304.751 239.386 304.334 239.309 304.098 239.869C303.861 240.431 304.278 240.505 304.514 239.946ZM298.701 232.325C298.893 231.893 298.603 231.773 298.411 232.206C298.221 232.64 298.511 232.758 298.701 232.325ZM302.491 227.513L302.648 227.305L302.583 227.391L303.403 226.322C303.473 226.227 303.526 226.115 303.523 226.015C303.521 225.932 303.466 225.888 303.393 225.958L302.526 226.806L302.59 226.744L302.443 226.886C302.285 227.04 302.156 227.319 302.171 227.515C302.184 227.694 302.336 227.716 302.491 227.513ZM297.844 230.875C298.096 230.323 297.712 230.199 297.46 230.753C297.207 231.306 297.592 231.428 297.844 230.875ZM303.515 225.22L304.299 223.936C304.42 223.726 304.336 223.576 304.199 223.749C303.908 224.112 303.63 224.514 303.357 224.907C303.26 225.044 303.211 225.261 303.256 225.336C303.3 225.409 303.418 225.379 303.515 225.22ZM299.996 222.882C300.258 222.332 299.878 222.199 299.616 222.751C299.354 223.302 299.735 223.433 299.996 222.882ZM299.37 222.131C299.305 221.646 299.094 221.312 298.762 221.258C298.586 221.23 298.378 221.276 298.16 221.371C297.908 221.479 297.635 221.75 297.372 222.056C297.188 222.27 297.226 222.551 297.386 222.433C297.596 222.28 297.802 222.224 297.984 222.185C298.135 222.153 298.264 222.171 298.382 222.224C298.433 222.247 298.482 222.272 298.527 222.307C298.551 222.326 298.574 222.347 298.595 222.37L298.627 222.406C298.611 222.387 298.612 222.39 298.63 222.415C298.664 222.475 298.699 222.535 298.725 222.608C298.728 222.618 298.758 222.726 298.747 222.676L298.77 222.807C298.796 222.988 298.941 223.005 299.107 222.818C299.264 222.641 299.395 222.312 299.37 222.131ZM293.088 223.333C293.417 222.639 292.919 222.54 292.592 223.23C292.262 223.925 292.762 224.022 293.088 223.333ZM288.787 226.295C288.807 226.251 288.779 226.238 288.759 226.283C288.739 226.327 288.767 226.34 288.787 226.295ZM280.477 237.857L280.298 238.319C280.283 238.358 280.278 238.401 280.295 238.408C280.311 238.415 280.338 238.391 280.356 238.35L280.551 237.887C280.571 237.84 280.571 237.787 280.551 237.781C280.53 237.775 280.496 237.806 280.477 237.857ZM277.901 244.341L277.756 244.761L277.77 244.72L277.728 244.841C277.716 244.876 277.712 244.927 277.717 244.949C277.722 244.971 277.731 244.985 277.745 244.988C277.776 244.996 277.825 244.949 277.855 244.874L278.043 244.4C278.079 244.309 278.077 244.207 278.038 244.195C278.019 244.189 277.994 244.197 277.968 244.227C277.943 244.255 277.917 244.296 277.901 244.341ZM275.448 253.548C275.591 253.128 275.344 252.975 275.199 253.4C275.056 253.821 275.304 253.973 275.448 253.548ZM274.529 262.005L275.523 261.205C275.682 261.078 275.841 260.919 276 260.776L276.514 260.327C276.635 260.222 276.678 259.86 276.554 259.932L276.065 260.223C275.894 260.321 275.729 260.396 275.557 260.513L274.589 261.162C274.462 261.248 274.338 261.548 274.323 261.767C274.307 261.992 274.401 262.109 274.529 262.005ZM281.024 257.197L282.156 255.753L282.723 255.046C282.919 254.804 283.123 254.581 283.302 254.266C283.377 254.133 283.392 253.917 283.288 253.995C283.186 254.071 283.107 254.145 283.005 254.268L282.726 254.607L282.131 255.327L280.979 256.761C280.787 257 280.833 257.442 281.024 257.197Z" fill="#EF7E60"/>
<path d="M280.78 257.045L280.29 259.444L280.061 260.623C279.98 261.055 279.828 261.662 279.888 261.978C279.92 262.141 280.081 262.036 280.168 261.845C280.06 262.081 280.251 261.635 280.26 261.606C280.294 261.503 280.312 261.405 280.333 261.304L280.463 260.649L280.706 259.419L281.222 256.916C281.341 256.342 280.898 256.468 280.78 257.045ZM284.235 257.266L285.09 256.03C285.385 255.608 285.672 255.134 285.959 254.69C286.061 254.532 286.025 254.293 285.913 254.437L285.458 255.023C285.298 255.23 285.136 255.426 284.979 255.649L284.16 256.824C284.076 256.947 284.017 257.132 284.038 257.257C284.057 257.37 284.15 257.39 284.235 257.266ZM286.577 253.272L286.415 253.74C286.396 253.794 286.436 253.808 286.456 253.753L286.621 253.3C286.632 253.269 286.634 253.238 286.621 253.23C286.61 253.223 286.588 253.241 286.577 253.272ZM283.035 260.922L283.656 259.733L283.945 259.18L284.147 258.765C284.213 258.628 284.276 258.488 284.253 258.364C284.228 258.226 284.134 258.286 284.049 258.416L283.88 258.691C283.77 258.872 283.667 259.068 283.562 259.258L282.88 260.492C282.789 260.654 282.731 260.887 282.781 261.003C282.823 261.1 282.944 261.102 283.035 260.922ZM289.527 248.177C289.711 247.702 289.373 247.649 289.19 248.123C289.012 248.601 289.348 248.651 289.527 248.177ZM290.147 246.986L290.731 246.006C290.958 245.625 291.201 245.243 291.394 244.813C291.501 244.574 291.394 244.445 291.271 244.596C291.028 244.895 290.8 245.297 290.578 245.665L289.955 246.692C289.862 246.845 289.84 247.065 289.888 247.138C289.944 247.224 290.055 247.141 290.147 246.986ZM286.848 257.972L287.462 257.425L287.402 257.478C287.513 257.38 287.626 257.301 287.736 257.15C287.782 257.087 287.819 257.029 287.853 256.942C287.882 256.867 287.905 256.781 287.908 256.711C287.915 256.561 287.866 256.479 287.781 256.503C287.829 256.489 287.752 256.51 287.744 256.513C287.712 256.522 287.681 256.531 287.647 256.555L287.547 256.626L287.352 256.763L286.952 257.048L287.019 257.002L286.91 257.078C286.837 257.128 286.775 257.193 286.711 257.309C286.637 257.441 286.593 257.61 286.584 257.748C286.565 258.024 286.689 258.112 286.848 257.972ZM282.726 268.759C282.883 268.246 282.57 268.055 282.41 268.576C282.253 269.09 282.566 269.278 282.726 268.759ZM280.679 272.657C280.796 272.256 280.553 272.106 280.435 272.512C280.318 272.913 280.561 273.062 280.679 272.657ZM276.681 277.523C276.714 277.404 276.636 277.383 276.603 277.502C276.571 277.621 276.648 277.641 276.681 277.523ZM276.411 277.319C276.463 276.879 276.347 276.617 276.172 276.55C276.101 276.523 276.004 276.532 275.916 276.61C275.773 276.736 275.649 276.934 275.553 277.212C275.517 277.318 275.526 277.454 275.561 277.49C275.601 277.53 275.664 277.503 275.717 277.407L275.735 277.376C275.742 277.364 275.751 277.358 275.739 277.368C275.724 277.381 275.742 277.366 275.747 277.358L275.762 277.339C275.767 277.332 275.793 277.3 275.765 277.334C275.738 277.367 275.763 277.339 275.768 277.333L275.791 277.312C275.797 277.306 275.822 277.285 275.793 277.309C275.763 277.334 275.801 277.305 275.81 277.3C275.818 277.295 275.858 277.275 275.827 277.291C275.795 277.306 275.834 277.291 275.842 277.289L275.879 277.282L275.908 277.274L275.921 277.272C275.94 277.268 275.877 277.273 275.901 277.275C275.92 277.276 275.938 277.278 275.956 277.284L275.97 277.289C275.985 277.293 275.93 277.265 275.952 277.281L275.975 277.298C275.991 277.311 276.006 277.328 276.02 277.347L275.989 277.303C276.006 277.331 276.022 277.363 276.034 277.401L276.014 277.335L276.03 277.401L276.035 277.443C276.02 277.346 276.03 277.379 276.032 277.411L276.033 277.453C276.033 277.469 276.03 277.532 276.033 277.457C276.037 277.383 276.033 277.446 276.032 277.464L276.024 277.52C275.995 277.725 276.076 277.863 276.176 277.803C276.283 277.739 276.385 277.535 276.411 277.319ZM271.55 276.665C271.673 276.217 271.393 276.112 271.268 276.563C271.145 277.012 271.426 277.116 271.55 276.665ZM271.445 275.073L271.892 272.645C271.904 272.58 271.859 272.582 271.846 272.649L271.374 275.09C271.355 275.189 271.427 275.172 271.445 275.073ZM271.571 270.12L272.623 269.39C272.673 269.356 272.682 269.216 272.633 269.247L271.589 269.911C271.511 269.961 271.491 270.176 271.571 270.12ZM276.725 269.001L276.679 269.222L276.704 269.101L276.563 269.753L276.583 269.657L276.544 269.844C276.539 269.88 276.531 269.936 276.527 269.96L276.526 270.039L276.537 270.107C276.552 270.156 276.578 270.181 276.61 270.185C276.669 270.191 276.746 270.116 276.801 269.991C276.77 270.059 276.764 270.073 276.782 270.032L276.801 269.991L276.828 269.927L276.88 269.792L277.014 269.423L276.973 269.534L277.123 269.133C277.169 269.006 277.189 268.875 277.19 268.76C277.193 268.623 277.15 268.541 277.089 268.521C277.034 268.502 276.974 268.532 276.906 268.612C276.831 268.7 276.758 268.846 276.725 269.001Z" fill="#EF7E60"/>
<path d="M302.564 209.052L302.254 208.335C302.14 208.071 302.043 207.77 301.824 207.671C301.688 207.609 301.431 207.971 301.44 208.217C301.444 208.339 301.444 208.473 301.474 208.566C301.501 208.651 301.526 208.739 301.558 208.817L301.698 209.142L301.98 209.791C302.033 209.914 302.181 209.912 302.347 209.693C302.491 209.503 302.621 209.184 302.564 209.052ZM295.385 219.619C295.54 219.305 295.343 219.194 295.188 219.509C295.034 219.823 295.231 219.933 295.385 219.619ZM290.111 219.266C290.219 219.037 290.072 218.973 289.964 219.201C289.856 219.429 290.003 219.493 290.111 219.266ZM285.615 224.924C285.899 224.302 285.549 224.02 285.262 224.65C284.977 225.274 285.328 225.553 285.615 224.924ZM279.4 235.28C279.673 234.606 279.26 234.403 278.985 235.081C278.712 235.756 279.125 235.957 279.4 235.28Z" fill="#EF7E60"/>
<path d="M284.708 312.611C284.401 312.611 284.145 312.372 284.127 312.063C283.622 303.489 284.122 297.512 284.128 297.452C284.156 297.132 284.435 296.897 284.759 296.923C285.079 296.95 285.317 297.232 285.289 297.552C285.284 297.611 284.791 303.511 285.29 311.995C285.309 312.316 285.064 312.591 284.743 312.61C284.731 312.61 284.719 312.611 284.708 312.611Z" fill="#252525"/>
<path d="M277.063 292.384L270.425 294.043C270.084 294.128 269.724 294.029 269.475 293.783L268.654 292.972C268.405 292.725 268.302 292.367 268.384 292.027L269.978 285.383C270.217 284.387 270.737 283.479 271.476 282.768L333.044 223.563C334.504 222.165 336.819 222.178 338.263 223.604C338.979 224.311 339.355 225.249 339.366 226.182C339.377 227.127 339.041 228.074 338.352 228.807L279.668 290.862C278.963 291.607 278.059 292.136 277.063 292.384Z" fill="#E53C6D"/>
<path d="M270.185 294.656C269.771 294.656 269.365 294.494 269.065 294.198L268.244 293.387C267.853 293.001 267.689 292.428 267.817 291.893L269.411 285.25C269.677 284.142 270.251 283.14 271.072 282.351L332.639 223.146C334.344 221.513 336.994 221.533 338.673 223.193C339.471 223.981 339.936 225.069 339.949 226.177C339.962 227.314 339.546 228.391 338.777 229.208L280.092 291.263C279.31 292.091 278.311 292.675 277.205 292.951L270.566 294.609C270.441 294.64 270.312 294.656 270.185 294.656ZM335.632 223.101C334.848 223.101 334.063 223.395 333.447 223.984L271.881 283.189C271.22 283.824 270.758 284.63 270.545 285.521L268.951 292.164C268.917 292.306 268.961 292.457 269.064 292.56L269.885 293.372C269.989 293.474 270.14 293.515 270.284 293.48L276.922 291.822C277.812 291.6 278.615 291.13 279.245 290.465L337.929 228.41C338.489 227.814 338.793 227.025 338.783 226.19C338.774 225.385 338.435 224.594 337.854 224.02C337.234 223.407 336.433 223.101 335.632 223.101Z" fill="#252525"/>
<path d="M266.017 297.034C265.868 297.034 265.721 296.978 265.607 296.866C265.378 296.64 265.376 296.272 265.602 296.043L268.649 292.971C268.876 292.743 269.244 292.741 269.473 292.967C269.702 293.193 269.704 293.562 269.478 293.79L266.431 296.862C266.317 296.977 266.167 297.034 266.017 297.034Z" fill="#252525"/>
<path d="M449.289 313.511C429.639 322.415 386.095 313.74 357.515 305.084C347.777 302.131 339.776 299.188 335.045 296.941C316.442 288.102 309.8 283.453 308.256 283.342C306.704 283.232 299.603 286.368 299.851 280.591C299.851 280.591 291.803 284.956 292.244 278.996C292.244 278.996 282.745 280.582 282.966 276.162C282.966 276.162 279.025 280.142 276.149 280.802C273.274 281.472 270.61 277.932 278.584 268.652C286.558 259.372 296.075 251.413 302.496 250.533C308.918 249.643 319.106 248.983 324.195 252.963C329.284 256.933 331.719 262.683 337.258 265.113C342.789 267.543 415.51 276.382 415.51 276.382V251.624L465.678 249.433C465.678 249.433 466.652 254.54 467.185 261.931C468.351 278.143 467.387 305.313 449.289 313.511Z" fill="#EDA5A5"/>
<path d="M449.289 313.511C429.639 322.414 386.095 313.74 357.515 305.084C367.042 306.212 376.568 307.339 386.095 308.476C398.46 309.953 410.926 311.42 423.337 310.43C436.382 309.384 450.043 305.028 458.053 294.703C462.224 289.33 464.456 282.81 465.66 276.181C466.468 271.761 466.156 266.516 467.185 261.931C468.351 278.143 467.387 305.313 449.289 313.511Z" fill="#CB8383"/>
<path d="M426.443 317.846C414.14 317.846 400.494 315.824 389.148 313.583C366.444 309.1 344.198 301.93 334.794 297.46C324.085 292.37 317.293 288.646 313.236 286.421C310.531 284.937 308.744 283.957 308.214 283.92C307.955 283.907 307.323 284.04 306.71 284.174C304.731 284.602 302.021 285.192 300.42 283.845C299.781 283.309 299.404 282.526 299.296 281.511C297.785 282.208 294.689 283.376 292.904 282.226C292.115 281.718 291.695 280.856 291.651 279.66C289.898 279.877 285.32 280.241 283.349 278.49C282.98 278.161 282.715 277.781 282.557 277.351C281.216 278.58 278.499 280.858 276.281 281.369C274.977 281.668 273.786 281.227 273.172 280.216C272.514 279.131 271.68 275.794 278.143 268.268C285.194 260.057 295.274 250.932 302.418 249.948C309.737 248.94 319.519 248.564 324.554 252.497C326.704 254.177 328.376 256.147 329.993 258.053C332.242 260.702 334.366 263.205 337.492 264.578C342.611 266.826 407.662 274.835 414.931 275.725V251.617C414.931 251.296 415.192 251.035 415.514 251.035C415.836 251.035 416.097 251.296 416.097 251.617V276.382C416.097 276.548 416.025 276.707 415.9 276.817C415.776 276.928 415.609 276.977 415.443 276.959C412.471 276.598 342.573 268.081 337.023 265.643C333.65 264.162 331.442 261.56 329.104 258.805C327.525 256.944 325.891 255.019 323.836 253.414C319.123 249.733 309.674 250.124 302.577 251.101C296.871 251.887 287.847 258.755 279.027 269.026C274.153 274.702 273.322 278.217 274.169 279.613C274.518 280.188 275.209 280.421 276.019 280.235C278.697 279.618 282.513 275.785 282.551 275.747C282.721 275.575 282.979 275.527 283.201 275.623C283.422 275.721 283.56 275.944 283.548 276.185C283.518 276.78 283.706 277.249 284.124 277.62C285.78 279.093 290.48 278.694 292.152 278.415C292.33 278.387 292.509 278.439 292.64 278.559C292.772 278.679 292.842 278.854 292.829 279.032C292.746 280.147 292.984 280.893 293.536 281.248C294.989 282.185 298.388 280.718 299.574 280.074C299.759 279.974 299.982 279.981 300.161 280.091C300.339 280.202 300.444 280.4 300.435 280.609C300.387 281.717 300.635 282.506 301.17 282.955C302.333 283.932 304.818 283.393 306.462 283.037C307.251 282.866 307.875 282.73 308.294 282.76C309.08 282.814 310.559 283.624 313.797 285.401C317.844 287.62 324.616 291.334 335.295 296.41C353.555 305.089 422.976 324.79 449.049 312.98C474.676 301.373 465.201 250.056 465.102 249.539C465.042 249.223 465.25 248.919 465.565 248.858C465.88 248.801 466.187 249.005 466.247 249.321C466.272 249.452 468.742 262.594 467.944 277.027C466.881 296.266 460.514 309.065 449.53 314.04C443.436 316.8 435.286 317.846 426.443 317.846Z" fill="#252525"/>
<path d="M299.852 281.17C299.783 281.17 299.712 281.157 299.643 281.131C299.343 281.016 299.193 280.679 299.308 280.379C299.363 280.239 300.691 276.922 305.916 274.76C311.087 272.619 316.171 273.819 316.385 273.871C316.697 273.947 316.889 274.262 316.813 274.573C316.737 274.886 316.419 275.076 316.109 275.002C316.059 274.989 311.169 273.844 306.362 275.835C301.595 277.808 300.408 280.767 300.397 280.797C300.307 281.028 300.087 281.17 299.852 281.17Z" fill="#252525"/>
<path d="M292.247 279.573C292.164 279.573 292.08 279.555 292 279.518C291.709 279.381 291.583 279.035 291.72 278.744C291.822 278.526 294.274 273.378 298.334 271.099C302.359 268.839 307.806 268.692 308.036 268.687C308.345 268.69 308.625 268.934 308.632 269.255C308.639 269.576 308.384 269.842 308.063 269.85C308.009 269.851 302.673 269.998 298.906 272.113C295.175 274.207 292.799 279.188 292.775 279.238C292.676 279.449 292.466 279.573 292.247 279.573Z" fill="#252525"/>
<path d="M282.965 276.741C282.853 276.741 282.739 276.709 282.639 276.641C282.373 276.461 282.302 276.099 282.483 275.833C282.729 275.471 288.552 266.927 292.865 265.281C297.044 263.685 304.223 262.006 304.527 261.936C304.841 261.864 305.154 262.057 305.227 262.37C305.3 262.683 305.105 262.996 304.792 263.069C304.718 263.086 297.386 264.801 293.282 266.367C289.31 267.883 283.507 276.399 283.448 276.485C283.336 276.651 283.152 276.741 282.965 276.741Z" fill="#252525"/>
<path d="M412.351 252.203C412.042 252.203 411.784 251.96 411.769 251.649L410.836 231.89C410.821 231.57 411.069 231.297 411.391 231.282C411.683 231.27 411.985 231.514 412 231.836L412.906 251.017L469.508 248.694C463.333 218.997 449.05 203.131 438.113 195.041C426.173 186.208 415.531 184.472 415.425 184.455C415.107 184.406 414.889 184.108 414.938 183.791C414.988 183.474 415.283 183.257 415.604 183.306C415.712 183.322 426.589 185.087 438.753 194.066C449.956 202.337 464.608 218.604 470.787 249.132C470.821 249.3 470.78 249.473 470.674 249.607C470.569 249.741 470.41 249.822 470.24 249.829L412.376 252.203C412.367 252.203 412.359 252.203 412.351 252.203Z" fill="#252525"/>
<path d="M225.596 136.5L225.596 0.819336L0.896484 0.819326L0.896478 136.5L225.596 136.5Z" fill="#95BBE8"/>
<path d="M217.491 128.412L217.491 8.91113L8.75175 8.91112L8.75175 128.412L217.491 128.412Z" fill="#F2F7FD"/>
<path d="M8.16947 128.411L8.16948 8.90977C8.16948 8.58854 8.43056 8.32812 8.7522 8.32812L217.491 8.32812C217.813 8.32812 218.074 8.58872 218.074 8.90978L218.074 128.411C218.074 128.732 217.813 128.992 217.491 128.992L8.75219 128.992C8.43055 128.992 8.16947 128.732 8.16947 128.411ZM9.3351 9.49159L9.33509 127.829L216.909 127.829L216.909 9.4916L9.3351 9.49159Z" fill="#252525"/>
<path d="M0.0642335 136.501L0.0642395 0.820901C0.0642395 0.499673 0.325333 0.239248 0.646973 0.239248L225.595 0.239258C225.917 0.239258 226.178 0.499853 226.178 0.820911L226.178 136.501C226.178 136.822 225.917 137.082 225.595 137.082L0.647135 137.082C0.325311 137.083 0.0642335 136.822 0.0642335 136.501ZM1.22987 1.40256L1.22987 135.919L225.013 135.919L225.013 1.40256L1.22987 1.40256Z" fill="#252525"/>
<path d="M487.552 65.3103C503.712 65.3103 516.812 52.2342 516.812 36.1039C516.812 19.9736 503.712 6.89746 487.552 6.89746C471.392 6.89746 458.292 19.9736 458.292 36.1039C458.292 52.2342 471.392 65.3103 487.552 65.3103Z" fill="#2B8941"/>
<path d="M487.552 61.0596C501.361 61.0596 512.555 49.8861 512.555 36.103C512.555 22.3199 501.361 11.1465 487.552 11.1465C473.744 11.1465 462.55 22.3199 462.55 36.103C462.55 49.8861 473.744 61.0596 487.552 61.0596Z" fill="white"/>
<path d="M487.552 38.9805C489.144 38.9805 490.435 37.6922 490.435 36.103C490.435 34.5139 489.144 33.2256 487.552 33.2256C485.96 33.2256 484.669 34.5139 484.669 36.103C484.669 37.6922 485.96 38.9805 487.552 38.9805Z" fill="#F9D95A"/>
<path d="M487.552 65.8903C471.097 65.8903 457.709 52.5274 457.709 36.1025C457.709 19.6773 471.097 6.31445 487.552 6.31445C504.007 6.31445 517.394 19.6773 517.394 36.1025C517.394 52.5274 504.007 65.8903 487.552 65.8903ZM487.552 7.47776C471.74 7.47776 458.875 20.3187 458.875 36.1024C458.875 51.886 471.739 64.7266 487.552 64.7266C503.364 64.7266 516.229 51.886 516.229 36.1024C516.229 20.3187 503.364 7.47776 487.552 7.47776Z" fill="#252525"/>
<path d="M487.552 61.641C473.444 61.641 461.966 50.1846 461.966 36.103C461.966 22.0209 473.444 10.5645 487.552 10.5645C501.66 10.5645 513.137 22.0209 513.137 36.103C513.137 50.1848 501.66 61.641 487.552 61.641ZM487.552 11.7279C474.087 11.7279 463.132 22.6625 463.132 36.103C463.132 49.5432 474.087 60.4777 487.552 60.4777C501.017 60.4777 511.971 49.5432 511.971 36.103C511.972 22.6625 501.017 11.7279 487.552 11.7279Z" fill="#252525"/>
<path d="M487.552 39.5601C485.641 39.5601 484.087 38.0085 484.087 36.1009C484.087 34.1932 485.641 32.6416 487.552 32.6416C489.462 32.6416 491.017 34.1932 491.017 36.1009C491.017 38.0085 489.462 39.5601 487.552 39.5601ZM487.552 33.8051C486.284 33.8051 485.252 34.8348 485.252 36.1009C485.252 37.3669 486.283 38.3966 487.552 38.3966C488.82 38.3966 489.852 37.3669 489.852 36.1009C489.852 34.8348 488.82 33.8051 487.552 33.8051Z" fill="#252525"/>
<path d="M477.629 46.586C477.48 46.586 477.331 46.5291 477.217 46.4155C476.99 46.1883 476.99 45.8202 477.217 45.5929L485.096 37.7291C485.323 37.5019 485.692 37.5019 485.92 37.7291C486.147 37.9563 486.147 38.3244 485.92 38.5517L478.041 46.4155C477.928 46.5291 477.779 46.586 477.629 46.586ZM487.552 33.8024C487.23 33.8024 486.969 33.5419 486.969 33.2208V17.245C486.969 16.9238 487.23 16.6634 487.552 16.6634C487.874 16.6634 488.135 16.924 488.135 17.245V33.2208C488.135 33.5419 487.874 33.8024 487.552 33.8024ZM504.618 46.586C504.519 46.586 504.418 46.5606 504.326 46.5072L489.75 38.0491C489.471 37.8878 489.377 37.5313 489.539 37.2539C489.702 36.9771 490.058 36.8827 490.335 37.0434L504.912 45.5014C505.19 45.6627 505.285 46.0192 505.123 46.2966C505.014 46.4821 504.82 46.586 504.618 46.586ZM487.551 14.5827C487.23 14.5827 486.969 14.3221 486.969 14.0011V13.2975C486.969 12.9762 487.23 12.7158 487.551 12.7158C487.873 12.7158 488.134 12.9764 488.134 13.2975V14.0011C488.134 14.3221 487.873 14.5827 487.551 14.5827ZM487.551 59.4856C487.23 59.4856 486.969 59.225 486.969 58.9039V58.2003C486.969 57.8791 487.23 57.6187 487.551 57.6187C487.873 57.6187 488.134 57.8793 488.134 58.2003V58.9039C488.134 59.2252 487.873 59.4856 487.551 59.4856ZM503.207 21.0555C503.057 21.0555 502.909 20.9988 502.795 20.885C502.567 20.6578 502.567 20.2897 502.795 20.0623L503.293 19.5647C503.521 19.3375 503.89 19.3375 504.118 19.5647C504.345 19.7919 504.345 20.1599 504.118 20.3873L503.619 20.885C503.505 20.9986 503.356 21.0555 503.207 21.0555ZM471.398 52.8065C471.248 52.8065 471.1 52.7497 470.986 52.6361C470.758 52.4088 470.758 52.0403 470.986 51.8131L471.484 51.3157C471.713 51.0885 472.082 51.0897 472.309 51.3161C472.536 51.5433 472.536 51.9118 472.309 52.1391L471.81 52.6364C471.696 52.7497 471.547 52.8065 471.398 52.8065ZM510.397 36.6823H509.692C509.37 36.6823 509.109 36.4217 509.109 36.1006C509.109 35.7794 509.37 35.519 509.692 35.519H510.397C510.719 35.519 510.98 35.7796 510.98 36.1006C510.98 36.4218 510.719 36.6823 510.397 36.6823ZM465.411 36.6823H464.706C464.385 36.6823 464.124 36.4217 464.124 36.1006C464.124 35.7794 464.385 35.519 464.706 35.519H465.411C465.733 35.519 465.994 35.7796 465.994 36.1006C465.994 36.4218 465.733 36.6823 465.411 36.6823Z" fill="#252525"/>
<path d="M503.706 52.8088C503.557 52.8088 503.408 52.7519 503.294 52.6388L502.795 52.1414C502.568 51.9142 502.568 51.5457 502.795 51.3185C503.022 51.0919 503.391 51.0909 503.619 51.3181L504.118 51.8154C504.346 52.0427 504.346 52.4112 504.118 52.6385C504.004 52.7519 503.855 52.8088 503.706 52.8088ZM471.897 21.0577C471.747 21.0577 471.599 21.001 471.485 20.8872L470.986 20.3895C470.759 20.1623 470.759 19.7943 470.986 19.5669C471.214 19.3397 471.583 19.3397 471.81 19.5669L472.309 20.0646C472.537 20.2918 472.537 20.6598 472.309 20.8872C472.195 21.0008 472.046 21.0577 471.897 21.0577Z" fill="#252525"/>
<path d="M16.7961 59.2917C16.7961 59.1428 16.8529 58.994 16.9669 58.8804C17.1946 58.6532 17.5633 58.6532 17.7911 58.8804L77.0705 118.051C77.2981 118.278 77.2981 118.646 77.0705 118.874C76.8429 119.101 76.4741 119.101 76.2463 118.874L16.9669 59.703C16.8529 59.5894 16.7961 59.4406 16.7961 59.2917ZM20.6704 81.4979C20.6704 81.349 20.7272 81.2001 20.841 81.0865C21.0687 80.8593 21.4374 80.8593 21.6652 81.0865L55.8156 115.174C56.0432 115.401 56.0432 115.77 55.8156 115.997C55.5879 116.224 55.2192 116.224 54.9914 115.997L20.841 81.9092C20.7272 81.7956 20.6704 81.6467 20.6704 81.4979Z" fill="#252525"/>
<path d="M208.251 76.5306C208.251 76.6794 208.194 76.8283 208.08 76.9419C207.852 77.1691 207.484 77.1691 207.256 76.9419L147.976 17.7713C147.749 17.5441 147.749 17.176 147.976 16.9486C148.204 16.7214 148.573 16.7214 148.801 16.9486L208.08 76.1192C208.194 76.2328 208.251 76.3817 208.251 76.5306ZM204.376 54.3244C204.376 54.4733 204.32 54.6221 204.206 54.7357C203.978 54.9629 203.609 54.9629 203.382 54.7357L169.231 20.648C169.004 20.4208 169.004 20.0527 169.231 19.8254C169.459 19.5981 169.828 19.5981 170.055 19.8254L204.206 53.9131C204.32 54.0267 204.376 54.1755 204.376 54.3244Z" fill="#252525"/>
<path d="M122.061 251.688C131.061 265.009 127.549 283.094 114.192 292.087C100.835 301.079 82.7081 297.561 73.7075 284.24C64.699 270.908 68.2231 252.814 81.5803 243.822C94.9375 234.83 113.052 238.356 122.061 251.688Z" fill="#B9D3F2"/>
<path d="M101.58 301.668V309.854H94.1787V301.682C96.6362 301.958 99.1225 301.958 101.58 301.668Z" fill="#2E3E56"/>
<path d="M116.206 317.25H79.5562V313.445C79.5562 311.459 81.1695 309.849 83.1595 309.849H112.602C114.592 309.849 116.205 311.459 116.205 313.445V317.25H116.206Z" fill="#EF603F"/>
<path d="M97.8605 302.475C89.6294 302.475 81.3877 299.556 74.8165 293.671C74.3312 293.237 74.0432 292.618 74.0258 291.975C74.0084 291.338 74.2474 290.739 74.6984 290.289L76.8561 288.135C77.0838 287.908 77.4525 287.908 77.6803 288.135C77.9081 288.363 77.9079 288.731 77.6803 288.958L75.5226 291.112C75.3003 291.334 75.1822 291.629 75.1911 291.943C75.1998 292.274 75.3433 292.58 75.5951 292.805C88.7894 304.621 108.958 304.062 121.511 291.531C134.057 279.009 134.611 258.884 122.773 245.714C122.547 245.463 122.241 245.32 121.91 245.311C121.585 245.289 121.299 245.42 121.076 245.642L118.919 247.796C118.691 248.023 118.322 248.023 118.094 247.796C117.867 247.569 117.867 247.201 118.094 246.973L120.252 244.82C120.704 244.369 121.297 244.137 121.942 244.148C122.586 244.165 123.205 244.453 123.64 244.937C135.893 258.566 135.32 279.395 122.336 292.354C115.596 299.081 106.734 302.475 97.8605 302.475Z" fill="#252525"/>
<path d="M97.9404 297.656C96.0349 297.656 94.117 297.474 92.2052 297.103C84.4058 295.59 77.6651 291.138 73.2247 284.566C64.0515 270.991 67.6536 252.497 81.2543 243.34C87.8425 238.905 95.7648 237.297 103.563 238.813C111.359 240.329 118.1 244.786 122.544 251.364C131.712 264.933 128.112 283.418 114.518 292.57C109.545 295.918 103.809 297.656 97.9404 297.656ZM97.8334 239.441C92.3405 239.441 86.7923 241.015 81.9061 244.305C68.8381 253.102 65.3771 270.872 74.1906 283.916C78.4572 290.23 84.9339 294.508 92.4275 295.961C99.9215 297.415 107.536 295.867 113.866 291.606C126.928 282.812 130.387 265.052 121.578 252.015C116.061 243.85 107.025 239.441 97.8334 239.441Z" fill="#252525"/>
<path d="M109.162 294.098C101.809 294.098 92.0292 287.432 84.8183 276.76C80.4098 270.236 77.5888 263.201 76.8752 256.951C76.1456 250.566 77.6997 245.732 81.251 243.342C84.8019 240.951 89.8726 241.324 95.529 244.393C101.064 247.396 106.541 252.643 110.95 259.168C115.355 265.688 118.175 272.719 118.889 278.965C119.619 285.349 118.065 290.181 114.515 292.571C112.976 293.607 111.159 294.098 109.162 294.098ZM86.6752 242.948C84.8627 242.948 83.2505 243.399 81.9028 244.306C78.7297 246.442 77.3556 250.886 78.0332 256.819C78.7259 262.887 81.479 269.738 85.7843 276.11C94.5937 289.148 107.191 296.1 113.863 291.607C117.036 289.471 118.409 285.028 117.731 279.097C117.037 273.033 114.286 266.186 109.984 259.819C105.677 253.446 100.346 248.33 94.9724 245.415C91.9495 243.775 89.1293 242.948 86.6752 242.948Z" fill="#252525"/>
<path d="M68.8392 265.936C68.6783 265.936 68.5242 265.87 68.4138 265.752C68.3003 265.631 68.2438 265.467 68.2587 265.302C69.0668 256.361 73.8035 248.356 81.2547 243.34C88.7106 238.32 97.9166 236.939 106.513 239.55C106.672 239.599 106.803 239.712 106.872 239.863C106.942 240.013 106.944 240.186 106.878 240.338C104.205 246.491 98.4329 252.874 91.0415 257.849C83.6579 262.82 75.5709 265.768 68.8542 265.936C68.8489 265.936 68.8441 265.936 68.8392 265.936ZM97.8393 239.421C92.2284 239.421 86.6923 241.082 81.9063 244.304C74.9307 249.001 70.4312 256.422 69.4868 264.748C75.8545 264.414 83.4286 261.572 90.3893 256.885C97.3584 252.194 102.841 246.246 105.537 240.478C102.999 239.77 100.411 239.421 97.8393 239.421ZM97.9015 297.658C95.0111 297.658 92.1021 297.236 89.2576 296.38C89.0986 296.332 88.9677 296.218 88.8976 296.068C88.8278 295.918 88.8251 295.745 88.8911 295.592C91.5508 289.436 97.3154 283.052 104.707 278.076C112.107 273.094 120.202 270.148 126.916 269.993C127.078 269.995 127.242 270.057 127.356 270.178C127.469 270.299 127.525 270.462 127.51 270.627C126.706 279.555 121.97 287.552 114.518 292.569C109.532 295.926 103.756 297.658 97.9015 297.658ZM90.232 295.45C98.317 297.685 106.895 296.299 113.866 291.605C120.843 286.908 125.342 279.493 126.283 271.181C119.917 271.502 112.335 274.344 105.359 279.04C98.3902 283.731 92.9152 289.679 90.232 295.45Z" fill="#252525"/>
<path d="M114.189 292.672C114.002 292.672 113.818 292.582 113.706 292.415L81.094 244.15C80.9138 243.884 80.9842 243.522 81.2511 243.343C81.5166 243.163 81.8806 243.233 82.0601 243.5L114.672 291.765C114.852 292.031 114.782 292.393 114.515 292.572C114.415 292.639 114.302 292.672 114.189 292.672Z" fill="#252525"/>
<path d="M73.7068 284.815C73.5198 284.815 73.3356 284.725 73.2234 284.558C73.0432 284.292 73.1136 283.93 73.3805 283.751L121.734 251.199C122 251.02 122.363 251.089 122.543 251.356C122.723 251.622 122.653 251.984 122.386 252.163L74.0323 284.716C73.9325 284.783 73.8191 284.815 73.7068 284.815ZM101.58 310.436H94.1788C93.857 310.436 93.5961 310.175 93.5961 309.854V301.682C93.5961 301.517 93.6667 301.359 93.7903 301.249C93.914 301.139 94.0783 301.084 94.244 301.104C96.6749 301.377 99.1202 301.372 101.512 301.09C101.677 301.073 101.843 301.123 101.967 301.233C102.091 301.343 102.163 301.502 102.163 301.668V309.854C102.163 310.175 101.902 310.436 101.58 310.436ZM94.7615 309.272H100.997V302.316C98.9397 302.516 96.8476 302.521 94.7615 302.327V309.272Z" fill="#252525"/>
<path d="M116.206 317.83H79.5564C79.2345 317.83 78.9736 317.57 78.9736 317.249V313.444C78.9736 311.14 80.8513 309.266 83.1598 309.266H112.602C114.911 309.266 116.789 311.14 116.789 313.444V317.249C116.788 317.57 116.527 317.83 116.206 317.83ZM80.1391 316.667H115.623V313.444C115.623 311.782 114.268 310.429 112.602 310.429H83.1597C81.4941 310.429 80.1391 311.782 80.1391 313.444V316.667Z" fill="#252525"/>
<path d="M340.668 310.852V317.251H243.009V311.124C243.009 311.033 243.009 310.942 242.999 310.852H340.668Z" fill="#BDC0D2"/>
<path d="M340.668 317.831H243.008C242.686 317.831 242.425 317.571 242.425 317.25V311.123C242.425 311.053 242.427 310.983 242.419 310.913C242.401 310.749 242.454 310.585 242.565 310.462C242.675 310.339 242.833 310.269 242.998 310.269H340.668C340.99 310.269 341.251 310.529 341.251 310.85V317.25C341.251 317.571 340.99 317.831 340.668 317.831ZM243.591 316.668H340.085V311.432H243.591V316.668Z" fill="#252525"/>
<path d="M301.755 286.062H235.817L241.798 243.637H221.186C214.464 256.17 209.496 270.462 205.839 286.062H170.518C167.531 286.062 165.043 283.75 164.833 280.777L158.906 196.931C158.679 193.638 161.292 190.844 164.591 190.844H295.828C298.822 190.844 301.302 193.156 301.513 196.129L307.44 279.975C307.674 283.268 305.061 286.062 301.755 286.062ZM252.634 312.518V317.254H180.989V312.518C180.989 310.499 182.628 308.863 184.65 308.863H248.973C250.995 308.863 252.634 310.499 252.634 312.518Z" fill="#2E3E56"/>
<path d="M232.602 308.862L241.801 243.64L221.183 243.64C211.308 262.052 205.213 284.253 201.518 308.862H232.602Z" fill="#BDC0D2"/>
<path d="M301.755 286.642H235.817C235.648 286.642 235.487 286.569 235.377 286.442C235.266 286.315 235.216 286.146 235.24 285.98L241.128 244.218H221.536C215.183 256.139 210.232 269.874 206.406 286.193C206.344 286.456 206.109 286.642 205.838 286.642H170.518C167.235 286.642 164.483 284.083 164.252 280.816L158.325 196.971C158.204 195.213 158.8 193.538 160.004 192.252C161.205 190.968 162.834 190.261 164.591 190.261H295.828C299.11 190.261 301.863 192.82 302.094 196.087L308.021 279.933C308.146 281.686 307.554 283.36 306.353 284.646C305.169 285.915 303.493 286.642 301.755 286.642ZM236.487 285.479H301.755C303.192 285.479 304.522 284.902 305.5 283.853C306.478 282.806 306.96 281.443 306.858 280.015L300.932 196.169C300.743 193.508 298.501 191.424 295.828 191.424H164.591C163.161 191.424 161.834 192 160.856 193.046C159.875 194.094 159.389 195.459 159.487 196.89L165.414 280.734C165.603 283.395 167.844 285.479 170.518 285.479H205.377C209.245 269.116 214.25 255.336 220.673 243.362C220.774 243.173 220.972 243.054 221.186 243.054H241.798C241.967 243.054 242.128 243.128 242.238 243.254C242.349 243.382 242.399 243.551 242.375 243.717L236.487 285.479ZM252.634 317.835H180.989C180.667 317.835 180.406 317.574 180.406 317.253V312.516C180.406 310.18 182.31 308.279 184.651 308.279H248.973C251.313 308.279 253.217 310.18 253.217 312.516V317.253C253.217 317.574 252.956 317.835 252.634 317.835ZM181.571 316.671H252.052V312.516C252.052 310.821 250.671 309.443 248.973 309.443H184.65C182.953 309.443 181.571 310.821 181.571 312.516V316.671Z" fill="#252525"/>
<path d="M232.602 309.446H201.518C201.348 309.446 201.187 309.372 201.076 309.244C200.965 309.115 200.916 308.945 200.941 308.778C204.959 282.025 211.412 260.63 220.67 243.368C220.771 243.179 220.969 243.061 221.184 243.061H241.801C241.97 243.061 242.13 243.134 242.241 243.261C242.352 243.388 242.402 243.557 242.378 243.723L233.18 308.945C233.139 309.232 232.893 309.446 232.602 309.446ZM202.195 308.282H232.096L241.131 244.224H221.533C212.504 261.169 206.175 282.134 202.195 308.282Z" fill="#252525"/>
<path d="M422.757 277.914C422.732 277.914 422.706 277.912 422.68 277.909L415.438 276.962C415.119 276.92 414.894 276.628 414.936 276.309C414.978 275.991 415.266 275.765 415.59 275.808L422.832 276.755C423.151 276.797 423.376 277.089 423.334 277.408C423.296 277.7 423.045 277.914 422.757 277.914Z" fill="#252525"/>
<path d="M62.8819 58.1576L60.4658 59.8396C60.829 60.6027 61.3344 61.3114 61.9818 61.9655C62.6293 62.6196 63.3873 63.1413 64.2558 63.5306C65.1401 63.9044 66.0876 64.0913 67.0983 64.0913C67.8563 64.0913 68.5748 63.9745 69.2538 63.7409C69.9486 63.5229 70.5724 63.2036 71.1251 62.7831C71.6778 62.347 72.1121 61.8175 72.4279 61.1946C72.7437 60.5716 72.9017 59.863 72.9017 59.0687C72.9017 58.3679 72.7832 57.7527 72.5464 57.2232C72.3253 56.6781 72.0094 56.2109 71.5989 55.8216C71.2041 55.4166 70.754 55.074 70.2487 54.7937C69.7591 54.5133 69.2459 54.2797 68.709 54.0928C67.8721 53.8125 67.1772 53.54 66.6245 53.2752C66.0718 52.9949 65.6612 52.7068 65.3928 52.4109C65.1243 52.0994 64.9901 51.7412 64.9901 51.3363C64.9901 50.9313 65.1559 50.5809 65.4875 50.285C65.8192 49.9735 66.3166 49.8178 66.9798 49.8178C67.4852 49.8178 67.9352 49.919 68.33 50.1215C68.7248 50.3084 69.0722 50.5654 69.3723 50.8924C69.6881 51.2039 69.9565 51.5543 70.1776 51.9436L72.8306 50.4953C72.5464 49.919 72.1437 49.3662 71.6225 48.8366C71.1172 48.2916 70.4777 47.8477 69.7039 47.5051C68.9459 47.1469 68.0379 46.9678 66.9798 46.9678C65.9534 46.9678 65.0217 47.1547 64.1847 47.5284C63.3636 47.8866 62.7082 48.4084 62.2187 49.0936C61.7449 49.7633 61.5081 50.5654 61.5081 51.4998C61.5081 52.2785 61.6581 52.9482 61.9581 53.5088C62.2582 54.0539 62.6372 54.5211 63.0951 54.9105C63.5531 55.2843 64.0347 55.5957 64.54 55.8449C65.0612 56.0785 65.5191 56.2654 65.9139 56.4056C66.6561 56.6859 67.2799 56.9507 67.7852 57.1998C68.3063 57.4335 68.6932 57.706 68.9459 58.0175C69.2143 58.329 69.3486 58.7417 69.3486 59.2556C69.3486 59.8474 69.1354 60.3146 68.709 60.6573C68.2826 60.9999 67.7299 61.1712 67.0509 61.1712C66.4666 61.1712 65.9218 61.0466 65.4165 60.7974C64.9111 60.5482 64.4453 60.1978 64.0189 59.7462C63.6083 59.2945 63.2293 58.765 62.8819 58.1576Z" fill="#252525"/>
<path d="M75.5448 47.2948V58.2744C75.5448 59.24 75.7027 60.0888 76.0186 60.8208C76.3344 61.5528 76.7766 62.1679 77.3451 62.6663C77.9136 63.1647 78.5847 63.5384 79.3585 63.7876C80.1323 64.0524 80.9771 64.1847 81.893 64.1847C82.7932 64.1847 83.6301 64.0524 84.4039 63.7876C85.1777 63.5384 85.8488 63.1647 86.4173 62.6663C87.0016 62.1679 87.4517 61.5528 87.7675 60.8208C88.0833 60.0888 88.2412 59.24 88.2412 58.2744V47.2948H84.8539V58.0642C84.8539 58.9986 84.6013 59.754 84.096 60.3302C83.6064 60.8909 82.8721 61.1712 81.893 61.1712C80.914 61.1712 80.1718 60.8909 79.6664 60.3302C79.1769 59.754 78.9321 58.9986 78.9321 58.0642V47.2948H75.5448Z" fill="#252525"/>
<path d="M91.6938 47.2948V63.6474H95.0811V47.2948H91.6938ZM93.7546 50.1215H97.0472C97.9473 50.1215 98.6579 50.324 99.179 50.7289C99.7002 51.1182 99.9607 51.71 99.9607 52.5043C99.9607 53.283 99.7002 53.8748 99.179 54.2797C98.6579 54.6847 97.9473 54.8871 97.0472 54.8871H93.7546V57.7138H97.0472C98.3579 57.7138 99.4712 57.5035 100.387 57.083C101.319 56.6625 102.029 56.0629 102.519 55.2843C103.008 54.49 103.253 53.5633 103.253 52.5043C103.253 51.4297 103.008 50.5031 102.519 49.7244C102.029 48.9457 101.319 48.3461 100.387 47.9256C99.4712 47.5051 98.3579 47.2948 97.0472 47.2948H93.7546V50.1215Z" fill="#252525"/>
<path d="M105.874 47.2948V63.6474H109.261V47.2948H105.874ZM107.935 50.1215H111.227C112.127 50.1215 112.838 50.324 113.359 50.7289C113.88 51.1182 114.141 51.71 114.141 52.5043C114.141 53.283 113.88 53.8748 113.359 54.2797C112.838 54.6847 112.127 54.8871 111.227 54.8871H107.935V57.7138H111.227C112.538 57.7138 113.651 57.5035 114.567 57.083C115.499 56.6625 116.209 56.0629 116.699 55.2843C117.188 54.49 117.433 53.5633 117.433 52.5043C117.433 51.4297 117.188 50.5031 116.699 49.7244C116.209 48.9457 115.499 48.3461 114.567 47.9256C113.651 47.5051 112.538 47.2948 111.227 47.2948H107.935V50.1215Z" fill="#252525"/>
<path d="M122.683 55.4711C122.683 54.4277 122.904 53.501 123.346 52.6912C123.789 51.8813 124.397 51.2428 125.17 50.7756C125.944 50.3084 126.844 50.0748 127.871 50.0748C128.913 50.0748 129.821 50.3084 130.595 50.7756C131.368 51.2428 131.969 51.8813 132.395 52.6912C132.821 53.501 133.035 54.4277 133.035 55.4711C133.035 56.5146 132.813 57.4412 132.371 58.2511C131.945 59.0609 131.345 59.6995 130.571 60.1667C129.797 60.6339 128.897 60.8675 127.871 60.8675C126.844 60.8675 125.944 60.6339 125.17 60.1667C124.397 59.6995 123.789 59.0609 123.346 58.2511C122.904 57.4412 122.683 56.5146 122.683 55.4711ZM119.106 55.4711C119.106 56.7015 119.32 57.8462 119.746 58.9052C120.172 59.9486 120.78 60.8597 121.57 61.6384C122.359 62.4171 123.283 63.0245 124.341 63.4606C125.415 63.8811 126.592 64.0913 127.871 64.0913C129.15 64.0913 130.318 63.8811 131.376 63.4606C132.45 63.0245 133.374 62.4171 134.148 61.6384C134.937 60.8597 135.545 59.9486 135.972 58.9052C136.414 57.8462 136.635 56.7015 136.635 55.4711C136.635 54.2252 136.414 53.0883 135.972 52.0604C135.545 51.017 134.929 50.1137 134.124 49.3506C133.335 48.5875 132.411 48.0034 131.353 47.5985C130.295 47.178 129.134 46.9678 127.871 46.9678C126.623 46.9678 125.462 47.178 124.389 47.5985C123.331 48.0034 122.407 48.5875 121.617 49.3506C120.828 50.1137 120.212 51.017 119.77 52.0604C119.327 53.0883 119.106 54.2252 119.106 55.4711Z" fill="#252525"/>
<path d="M143.02 56.0318L147.994 63.6474H151.997L146.597 56.0318H143.02ZM139.254 47.2948V63.6474H142.641V47.2948H139.254ZM141.314 50.1449H144.607C145.207 50.1449 145.72 50.2461 146.147 50.4485C146.589 50.6354 146.928 50.9158 147.165 51.2895C147.402 51.6477 147.52 52.0838 147.52 52.5977C147.52 53.1117 147.402 53.5555 147.165 53.9293C146.928 54.2875 146.589 54.5679 146.147 54.7703C145.72 54.9572 145.207 55.0506 144.607 55.0506H141.314V57.7138H144.82C146.131 57.7138 147.244 57.4957 148.16 57.0597C149.076 56.6236 149.779 56.0162 150.268 55.2375C150.758 54.4433 151.002 53.5322 151.002 52.5043C151.002 51.4609 150.758 50.5498 150.268 49.7711C149.779 48.9924 149.076 48.385 148.16 47.9489C147.244 47.5129 146.131 47.2948 144.82 47.2948H141.314V50.1449Z" fill="#252525"/>
<path d="M152.284 50.3084H156.738V63.6474H160.125V50.3084H164.602V47.2948H152.284V50.3084Z" fill="#252525"/>
<path d="M71.6096 86.619C71.6096 85.5288 71.8544 84.5866 72.3439 83.7923C72.8492 82.9981 73.5046 82.3907 74.3099 81.9702C75.1153 81.5341 75.9917 81.3161 76.9392 81.3161C77.7288 81.3161 78.4315 81.4173 79.0474 81.6198C79.6633 81.8222 80.216 82.0948 80.7055 82.4374C81.2109 82.78 81.6451 83.1538 82.0083 83.5587V79.7976C81.3293 79.2681 80.5871 78.8554 79.7817 78.5595C78.9921 78.2636 77.9894 78.1156 76.7734 78.1156C75.5101 78.1156 74.3336 78.3181 73.244 78.723C72.1702 79.1279 71.2306 79.712 70.4252 80.4751C69.6356 81.2382 69.0198 82.1415 68.5776 83.1849C68.1512 84.2128 67.9381 85.3575 67.9381 86.619C67.9381 87.8805 68.1512 89.0329 68.5776 90.0764C69.0198 91.1043 69.6356 91.9998 70.4252 92.7629C71.2306 93.526 72.1702 94.1101 73.244 94.515C74.3336 94.9199 75.5101 95.1224 76.7734 95.1224C77.9894 95.1224 78.9921 94.9744 79.7817 94.6785C80.5871 94.3826 81.3293 93.9699 82.0083 93.4404V89.6793C81.6451 90.0842 81.2109 90.458 80.7055 90.8006C80.216 91.1432 79.6633 91.4158 79.0474 91.6182C78.4315 91.8207 77.7288 91.9219 76.9392 91.9219C75.9917 91.9219 75.1153 91.7117 74.3099 91.2912C73.5046 90.8551 72.8492 90.2399 72.3439 89.4457C71.8544 88.6358 71.6096 87.6936 71.6096 86.619Z" fill="#252525"/>
<path d="M87.558 94.7953H95.9196V91.9686H87.558V94.7953ZM87.558 81.2693H95.9196V78.4427H87.558V81.2693ZM87.558 87.5067H95.4459V84.7268H87.558V87.5067ZM85.3788 78.4427V94.7953H88.6476V78.4427H85.3788Z" fill="#252525"/>
<path d="M111.054 78.4427V88.5813L99.2581 77.625V94.7953H102.527V84.6567L114.323 95.6129V78.4427H111.054Z" fill="#252525"/>
<path d="M116.268 81.4562H120.721V94.7953H124.108V81.4562H128.585V78.4427H116.268V81.4562Z" fill="#252525"/>
<path d="M132.689 94.7953H141.05V91.9686H132.689V94.7953ZM132.689 81.2693H141.05V78.4427H132.689V81.2693ZM132.689 87.5067H140.577V84.7268H132.689V87.5067ZM130.51 78.4427V94.7953H133.778V78.4427H130.51Z" fill="#252525"/>
<path d="M148.155 87.1796L153.13 94.7953H157.133L151.732 87.1796H148.155ZM144.389 78.4427V94.7953H147.776V78.4427H144.389ZM146.45 81.2927H149.742C150.342 81.2927 150.856 81.3939 151.282 81.5964C151.724 81.7833 152.064 82.0636 152.3 82.4374C152.537 82.7956 152.656 83.2317 152.656 83.7456C152.656 84.2595 152.537 84.7034 152.3 85.0772C152.064 85.4354 151.724 85.7157 151.282 85.9182C150.856 86.1051 150.342 86.1985 149.742 86.1985H146.45V88.8616H149.955C151.266 88.8616 152.379 88.6436 153.295 88.2075C154.211 87.7715 154.914 87.1641 155.403 86.3854C155.893 85.5911 156.138 84.68 156.138 83.6522C156.138 82.6087 155.893 81.6976 155.403 80.9189C154.914 80.1402 154.211 79.5329 153.295 79.0968C152.379 78.6607 151.266 78.4427 149.955 78.4427H146.45V81.2927Z" fill="#252525"/>
<rect x="206" y="316.8" width="293" height="1.2" rx="0.6" fill="#252525"/>
</svg>
