<svg width="24" height="24" viewBox="0 0 24 24" fill="none" xmlns="http://www.w3.org/2000/svg">
    <rect width="24" height="24" rx="12" fill="white"/>
    <path d="M6.2988 16.9805L6.34462 17.1102C6.33876 17.0953 6.32199 17.05 6.2988 16.9805ZM8.11233 14.0422C8.19281 13.3455 8.4661 12.9554 8.98109 12.5555C9.71796 12.0139 10.6384 12.3203 10.6384 12.3203V10.5029C10.8622 10.4969 11.0861 10.5108 11.3074 10.5443V12.8831C11.3074 12.8831 10.3872 12.5768 9.65034 13.1186C9.13562 13.5182 8.86178 13.9086 8.78158 14.6053C8.77906 14.9836 8.84697 15.4782 9.15965 15.9058C9.08234 15.8643 9.00354 15.8171 8.92325 15.7641C8.23444 15.2805 8.10898 14.5549 8.11233 14.0422ZM15.108 7.14251C14.6011 6.56172 14.4094 5.97534 14.3401 5.56342H14.9778C14.9778 5.56342 14.8506 6.64349 15.7772 7.70565L15.7901 7.71993C15.5404 7.55568 15.3113 7.3618 15.108 7.14251ZM18.1798 8.78908V11.0809C18.1798 11.0809 17.3661 11.0475 16.7639 10.8874C15.9231 10.6633 15.3827 10.3197 15.3827 10.3197C15.3827 10.3197 15.0093 10.0747 14.9792 10.0576V14.7901C14.9792 15.0536 14.9101 15.7117 14.6997 16.2606C14.425 16.9786 14.0011 17.4499 13.9232 17.5462C13.9232 17.5462 13.4076 18.1833 12.4981 18.6123C11.6782 18.9993 10.9584 18.9895 10.7432 18.9993C10.7432 18.9993 9.49889 19.0508 8.37919 18.29C8.13706 18.1223 7.91105 17.9323 7.70408 17.7226L7.70967 17.7268C8.82964 18.4877 10.0737 18.4361 10.0737 18.4361C10.2891 18.4263 11.009 18.4361 11.8285 18.0491C12.7373 17.6201 13.2537 16.9831 13.2537 16.9831C13.3308 16.8867 13.7566 16.4154 14.0302 15.6972C14.2401 15.1486 14.3096 14.4902 14.3096 14.2267V9.49476C14.3398 9.51212 14.7129 9.75715 14.7129 9.75715C14.7129 9.75715 15.2536 10.101 16.0944 10.3248C16.6969 10.4849 17.5103 10.5183 17.5103 10.5183V8.72244C17.7886 8.78768 18.0258 8.80533 18.1798 8.78908Z" fill="#EE1D52"/>
    <path d="M17.5105 8.72244V10.5177C17.5105 10.5177 16.6971 10.4844 16.0946 10.3242C15.2538 10.1002 14.7131 9.75659 14.7131 9.75659C14.7131 9.75659 14.34 9.51156 14.3099 9.4942V14.2273C14.3099 14.4908 14.2408 15.1491 14.0304 15.6977C13.7557 16.416 13.3318 16.8873 13.2539 16.9836C13.2539 16.9836 12.738 17.6207 11.8288 18.0497C11.0092 18.4367 10.2894 18.4269 10.0739 18.4367C10.0739 18.4367 8.82987 18.4882 7.70989 17.7274L7.7043 17.7232C7.58606 17.6035 7.47475 17.477 7.37094 17.3446C7.01354 16.889 6.79446 16.3502 6.73941 16.1964C6.73932 16.1958 6.73932 16.1951 6.73941 16.1945C6.65083 15.9273 6.46473 15.2858 6.49016 14.6644C6.53515 13.5681 6.904 12.8952 7.00152 12.7266C7.25981 12.2669 7.59573 11.8556 7.99436 11.511C8.34612 11.2136 8.74483 10.977 9.17413 10.8109C9.63822 10.6159 10.1352 10.5113 10.6384 10.5029V12.3203C10.6384 12.3203 9.71791 12.015 8.98132 12.5555C8.46632 12.9554 8.19303 13.3455 8.11256 14.0422C8.1092 14.5549 8.23467 15.2805 8.92292 15.7644C9.00321 15.8176 9.08201 15.8648 9.15932 15.9061C9.27956 16.0695 9.4259 16.2119 9.59245 16.3275C10.2648 16.7725 10.8281 16.8036 11.5485 16.5146C12.0288 16.3213 12.3904 15.8859 12.5581 15.4034C12.6634 15.1021 12.662 14.7988 12.662 14.4852V5.56342H14.3386C14.4079 5.97534 14.5996 6.56172 15.1065 7.14251C15.3099 7.3618 15.5389 7.55568 15.7886 7.71993C15.8624 7.79974 16.2396 8.1943 16.7239 8.43653C16.9743 8.56173 17.2382 8.65767 17.5105 8.72244Z" fill="black"/>
    <path d="M6.07217 15.6384V15.6398L6.11353 15.7577C6.10878 15.744 6.09341 15.7023 6.07217 15.6384Z" fill="#69C9D0"/>
    <path d="M9.17416 10.8109C8.74486 10.977 8.34615 11.2136 7.99439 11.511C7.59564 11.8563 7.25979 12.2685 7.00183 12.7291C6.90431 12.8971 6.53546 13.5706 6.49047 14.6669C6.46504 15.2883 6.65114 15.9298 6.73972 16.197C6.73963 16.1976 6.73963 16.1983 6.73972 16.1989C6.79561 16.3513 7.01385 16.8901 7.37125 17.3471C7.47506 17.4796 7.58637 17.606 7.70461 17.7257C7.32575 17.4631 6.98787 17.1456 6.702 16.7837C6.34768 16.332 6.12916 15.7988 6.07215 15.6414C6.07209 15.6403 6.07209 15.6392 6.07215 15.638V15.6361C5.98329 15.3692 5.79663 14.7274 5.82262 14.1052C5.86761 13.0088 6.23646 12.3359 6.33398 12.1674C6.59187 11.7067 6.92772 11.2945 7.32654 10.9492C7.67823 10.6518 8.07695 10.4152 8.50631 10.2491C8.77412 10.1378 9.05312 10.0556 9.33847 10.0041C9.76851 9.92889 10.2077 9.92237 10.6398 9.9848V10.5029C10.1361 10.5111 9.63869 10.6157 9.17416 10.8109Z" fill="#69C9D0"/>
    <path d="M14.3401 5.56342H12.6635V14.4855C12.6635 14.7991 12.6635 15.1015 12.5595 15.4037C12.3902 15.8859 12.03 16.3213 11.5499 16.5146C10.8293 16.8047 10.2659 16.7725 9.59388 16.3275C9.42705 16.2124 9.28033 16.0705 9.15964 15.9075C9.7322 16.2135 10.2447 16.2082 10.8796 15.9528C11.3593 15.7596 11.7201 15.3242 11.8889 14.8417C11.9945 14.5404 11.9931 14.2371 11.9931 13.9237V5H14.3082C14.3082 5 14.2822 5.22178 14.3401 5.56342ZM17.5106 8.22595V8.72244C17.2388 8.65757 16.9753 8.56164 16.7253 8.43653C16.2411 8.19431 15.8638 7.79974 15.7901 7.71993C15.8757 7.77626 15.9645 7.8275 16.0561 7.87339C16.6449 8.16798 17.2247 8.25591 17.5106 8.22595Z" fill="#69C9D0"/>
</svg>
