<svg width="240" height="195" viewBox="0 0 240 195" fill="none" xmlns="http://www.w3.org/2000/svg">
<g clip-path="url(#clip0_1013_22712)">
<rect width="240" height="195" fill="#F7F7F7"/>
<path d="M184.435 184.041V194.665H228.015C230.951 194.665 233.334 192.285 233.334 189.353C233.334 187.886 232.738 186.558 231.773 185.599C230.813 184.636 229.483 184.041 228.015 184.041H184.435V184.041Z" fill="#2B8941"/>
<path d="M184.435 184.041V194.665H208.568C211.505 194.665 213.887 192.285 213.887 189.353C213.887 187.886 213.291 186.558 212.326 185.599C211.366 184.636 210.036 184.041 208.568 184.041H184.435V184.041Z" fill="white"/>
<path d="M228.015 195.017H184.435C184.24 195.017 184.082 194.859 184.082 194.664V184.041C184.082 183.846 184.24 183.688 184.435 183.688H228.015C229.532 183.688 230.955 184.278 232.023 185.351C233.095 186.416 233.686 187.837 233.686 189.352C233.686 192.476 231.142 195.017 228.015 195.017ZM184.788 194.312H228.015C230.753 194.312 232.98 192.087 232.98 189.352C232.98 188.026 232.463 186.782 231.524 185.849C230.588 184.909 229.343 184.393 228.015 184.393H184.788V194.312H184.788Z" fill="#252525"/>
<path d="M208.567 195.017H184.434C184.239 195.017 184.081 194.859 184.081 194.664V184.041C184.081 183.846 184.239 183.688 184.434 183.688H208.567C210.084 183.688 211.507 184.278 212.576 185.351C213.648 186.416 214.239 187.837 214.239 189.352C214.239 192.476 211.694 195.017 208.567 195.017ZM184.787 194.312H208.567C211.305 194.312 213.533 192.087 213.533 189.352C213.533 188.026 213.016 186.782 212.077 185.849C211.141 184.909 209.895 184.393 208.567 184.393H184.787V194.312Z" fill="#252525"/>
<path d="M201.9 188.085H184.434C184.239 188.085 184.081 187.927 184.081 187.733C184.081 187.538 184.239 187.38 184.434 187.38H201.9C202.095 187.38 202.253 187.538 202.253 187.733C202.253 187.927 202.095 188.085 201.9 188.085ZM208.261 191.325H184.434C184.239 191.325 184.081 191.167 184.081 190.972C184.081 190.778 184.239 190.62 184.434 190.62H208.261C208.455 190.62 208.613 190.778 208.613 190.972C208.613 191.167 208.455 191.325 208.261 191.325Z" fill="#252525"/>
<path d="M212.103 164.899C212.103 165.872 211.317 166.658 210.342 166.658H193.46C192.485 166.658 191.699 165.872 191.699 164.899C191.699 164.415 191.894 163.975 192.215 163.661C192.536 163.341 192.976 163.146 193.46 163.146H210.342C211.317 163.146 212.103 163.931 212.103 164.899Z" fill="white"/>
<path d="M210.606 166.66L208.362 180.86C208.072 182.692 206.492 184.041 204.635 184.041H199.167C197.311 184.041 195.73 182.692 195.441 180.86L193.197 166.66H210.606Z" fill="#6666FF"/>
<path d="M208.427 157.738L205.826 163.148H201.838L205.188 156.187C205.424 155.709 205.999 155.508 206.471 155.736L207.976 156.457C208.455 156.685 208.656 157.26 208.427 157.738Z" fill="#CB8383"/>
<path d="M207.694 159.269L208.431 157.739C208.66 157.262 208.458 156.687 207.981 156.458L206.475 155.735C205.998 155.505 205.422 155.707 205.192 156.184L204.456 157.714L207.694 159.269Z" fill="#F9D95A"/>
<path d="M200.064 153.136V163.148H196.471V153.136C196.471 152.608 196.903 152.176 197.432 152.176H199.102C199.632 152.176 200.064 152.608 200.064 153.136Z" fill="#EDA5A5"/>
<path d="M200.064 154.834V153.137C200.064 152.608 199.632 152.177 199.102 152.177H197.432C196.903 152.177 196.471 152.608 196.471 153.137V154.834H200.064Z" fill="#2B8941"/>
<path d="M210.342 167.01H193.46C192.294 167.01 191.346 166.063 191.346 164.899C191.346 164.331 191.567 163.802 191.968 163.409C192.364 163.013 192.895 162.793 193.46 162.793H210.342C211.508 162.793 212.456 163.738 212.456 164.899C212.456 166.063 211.508 167.01 210.342 167.01ZM193.46 163.498C193.084 163.498 192.73 163.645 192.464 163.91C192.197 164.172 192.052 164.522 192.052 164.898C192.052 165.674 192.683 166.305 193.46 166.305H210.342C211.118 166.305 211.75 165.674 211.75 164.898C211.75 164.126 211.118 163.498 210.342 163.498H193.46Z" fill="#252525"/>
<path d="M204.635 184.393H199.167C197.124 184.393 195.411 182.93 195.092 180.915L192.848 166.715C192.832 166.613 192.861 166.51 192.928 166.431C192.995 166.353 193.093 166.308 193.197 166.308H210.606C210.709 166.308 210.807 166.353 210.874 166.431C210.941 166.51 210.97 166.613 210.954 166.715L208.71 180.915C208.392 182.93 206.678 184.393 204.635 184.393ZM193.61 167.013L195.789 180.805C196.053 182.476 197.474 183.688 199.167 183.688H204.635C206.329 183.688 207.749 182.476 208.013 180.805L210.193 167.013H193.61ZM205.827 163.501H201.839C201.717 163.501 201.605 163.439 201.54 163.336C201.475 163.234 201.468 163.105 201.521 162.996L204.871 156.034C205.193 155.381 205.98 155.107 206.626 155.419L208.13 156.139C208.446 156.29 208.684 156.556 208.801 156.887C208.917 157.218 208.898 157.574 208.746 157.89C208.746 157.89 208.746 157.89 208.746 157.891L206.145 163.301C206.086 163.423 205.963 163.501 205.827 163.501ZM202.4 162.796H205.605L208.109 157.586C208.18 157.439 208.189 157.274 208.135 157.12C208.081 156.967 207.971 156.844 207.825 156.775L206.319 156.054C206.02 155.909 205.655 156.038 205.505 156.342L202.4 162.796ZM208.428 157.738H208.432H208.428Z" fill="#252525"/>
<path d="M207.694 159.622C207.641 159.622 207.589 159.61 207.541 159.587L204.302 158.032C204.127 157.948 204.053 157.737 204.137 157.562L204.874 156.031C205.188 155.379 205.975 155.103 206.628 155.418L208.133 156.14C208.449 156.292 208.687 156.558 208.803 156.889C208.92 157.22 208.9 157.577 208.748 157.892L208.011 159.422C207.971 159.507 207.899 159.571 207.81 159.602C207.772 159.615 207.733 159.622 207.694 159.622ZM204.926 157.55L207.528 158.799L208.112 157.587C208.258 157.285 208.13 156.921 207.827 156.776L206.322 156.053C206.019 155.908 205.655 156.035 205.51 156.337L204.926 157.55ZM200.063 163.501H196.47C196.275 163.501 196.117 163.343 196.117 163.149V153.137C196.117 152.413 196.707 151.824 197.431 151.824H199.101C199.826 151.824 200.416 152.413 200.416 153.137V163.149C200.416 163.343 200.258 163.501 200.063 163.501ZM196.823 162.796H199.71V153.137C199.71 152.802 199.437 152.529 199.102 152.529H197.432C197.096 152.529 196.823 152.802 196.823 153.137V162.796H196.823Z" fill="#252525"/>
<path d="M200.063 155.187H196.47C196.275 155.187 196.117 155.029 196.117 154.835V153.137C196.117 152.413 196.707 151.824 197.431 151.824H199.101C199.826 151.824 200.416 152.413 200.416 153.137V154.835C200.416 155.029 200.258 155.187 200.063 155.187ZM196.823 154.482H199.71V153.137C199.71 152.802 199.437 152.529 199.102 152.529H197.432C197.096 152.529 196.823 152.802 196.823 153.137V154.482H196.823Z" fill="#252525"/>
<path d="M69.0877 105.003C68.9611 105.003 68.8387 104.935 68.7754 104.815C68.6844 104.643 68.7504 104.43 68.9227 104.339C69.1936 104.196 69.4603 104.044 69.7224 103.884C69.8878 103.782 70.1057 103.834 70.2076 104.001C70.3094 104.166 70.2572 104.384 70.0909 104.485C69.8158 104.653 69.5362 104.813 69.2521 104.962C69.1998 104.99 69.1433 105.003 69.0877 105.003ZM61.9172 106.853C61.7274 106.853 61.5705 106.702 61.5648 106.511C61.5588 106.317 61.7118 106.154 61.9067 106.148C62.5158 106.129 63.1285 106.078 63.7281 105.994C63.9189 105.967 64.0992 106.102 64.1263 106.295C64.1531 106.487 64.0185 106.665 63.8255 106.692C63.201 106.779 62.5625 106.833 61.9282 106.853C61.9245 106.853 61.9208 106.853 61.9172 106.853ZM60.0517 106.811C60.0427 106.811 60.0338 106.811 60.0249 106.81C59.3947 106.763 58.7594 106.681 58.1367 106.568C57.9452 106.533 57.8181 106.35 57.853 106.158C57.8879 105.966 58.072 105.84 58.2636 105.875C58.8619 105.983 59.4724 106.062 60.0778 106.107C60.2721 106.122 60.4178 106.291 60.4033 106.485C60.3893 106.67 60.2346 106.811 60.0517 106.811ZM65.6078 106.337C65.4504 106.337 65.3068 106.231 65.2662 106.072C65.2179 105.883 65.3319 105.691 65.5208 105.643C66.1136 105.492 66.6989 105.306 67.2607 105.091C67.4429 105.022 67.647 105.113 67.7166 105.295C67.7863 105.476 67.695 105.68 67.513 105.75C66.926 105.974 66.3146 106.168 65.6954 106.326C65.6661 106.334 65.6367 106.337 65.6078 106.337ZM56.3848 106.142C56.3515 106.142 56.318 106.137 56.2844 106.127C55.6753 105.947 55.0715 105.733 54.49 105.489C54.3103 105.414 54.2256 105.208 54.3009 105.028C54.3762 104.849 54.5831 104.764 54.763 104.839C55.3208 105.073 55.9 105.279 56.4847 105.451C56.6716 105.507 56.7784 105.702 56.723 105.889C56.6775 106.043 56.5372 106.142 56.3848 106.142ZM52.9488 104.7C52.8903 104.7 52.8313 104.685 52.7765 104.655C52.2196 104.343 51.6789 103.997 51.1703 103.627C51.0127 103.512 50.978 103.292 51.0926 103.134C51.2075 102.977 51.428 102.943 51.5856 103.057C52.072 103.411 52.5887 103.741 53.1216 104.04C53.2916 104.135 53.3522 104.35 53.257 104.52C53.1922 104.635 53.0722 104.7 52.9488 104.7ZM49.9404 102.506C49.8539 102.506 49.767 102.474 49.699 102.411C49.2399 101.98 48.7997 101.513 48.3905 101.022C48.2658 100.872 48.2859 100.65 48.4358 100.526C48.5856 100.401 48.8085 100.421 48.9328 100.571C49.3236 101.04 49.744 101.486 50.182 101.896C50.3242 102.03 50.3311 102.253 50.1978 102.395C50.1281 102.469 50.0344 102.506 49.9404 102.506ZM47.5557 99.6485C47.4404 99.6485 47.3272 99.592 47.2596 99.4881C46.9175 98.9622 46.599 98.406 46.3137 97.8353C46.2266 97.6614 46.2974 97.4495 46.4718 97.3625C46.6459 97.276 46.8581 97.346 46.9452 97.5204C47.2188 98.0673 47.5237 98.6001 47.8516 99.104C47.9577 99.2671 47.9113 99.4856 47.7479 99.5916C47.6883 99.6301 47.6217 99.6485 47.5557 99.6485ZM45.8884 96.3195C45.745 96.3195 45.6102 96.2316 45.5574 96.0894C45.4877 95.9007 45.4209 95.7103 45.357 95.518C44.961 95.4799 44.5634 95.4308 44.1689 95.3711C43.9761 95.342 43.8436 95.1623 43.8728 94.9698C43.9019 94.777 44.0831 94.6462 44.2746 94.674C44.5593 94.7171 44.8456 94.7546 45.1314 94.786C45.083 94.6155 45.037 94.4443 44.9936 94.2729C44.9458 94.0842 45.0602 93.8927 45.2493 93.8449C45.4394 93.7969 45.63 93.9119 45.6778 94.1003C45.7419 94.3532 45.8118 94.6056 45.8876 94.8559C45.9586 94.8612 46.0296 94.8661 46.1004 94.8706C46.2949 94.883 46.4425 95.0507 46.4301 95.2449C46.419 95.4168 46.2864 95.5519 46.1213 95.5723C46.1533 95.6635 46.1861 95.7543 46.2197 95.8447C46.2873 96.0273 46.1938 96.2299 46.0111 96.2976C45.9705 96.3127 45.929 96.3195 45.8884 96.3195ZM47.9436 95.6113C47.7529 95.6113 47.596 95.4594 47.5912 95.2681C47.5861 95.0735 47.7399 94.9116 47.9346 94.9065C48.5497 94.8907 49.165 94.8463 49.7637 94.775C49.9588 94.7501 50.1329 94.8898 50.156 95.0832C50.1792 95.2764 50.0411 95.4517 49.8474 95.4749C49.2274 95.549 48.5897 95.5949 47.9531 95.6112C47.9498 95.6114 47.9468 95.6113 47.9436 95.6113ZM51.6457 95.1663C51.4836 95.1663 51.3377 95.0543 51.3013 94.8898C51.2592 94.6998 51.3794 94.5117 51.5698 94.4697C52.1683 94.3375 52.762 94.1743 53.3336 93.9843C53.519 93.9228 53.7182 94.0231 53.78 94.2076C53.8414 94.3923 53.7414 94.5919 53.5564 94.6534C52.9615 94.8507 52.3442 95.0205 51.7218 95.158C51.6964 95.1635 51.6707 95.1663 51.6457 95.1663ZM42.3904 95.0168C42.363 95.0168 42.3355 95.0136 42.3077 95.0072C41.6956 94.8604 41.0819 94.6852 40.4838 94.487C40.2989 94.4255 40.1988 94.2261 40.26 94.0414C40.3214 93.8567 40.5206 93.7569 40.7062 93.8179C41.2855 94.0099 41.8796 94.1795 42.4726 94.3216C42.6621 94.3673 42.7789 94.5575 42.7334 94.7468C42.6943 94.9083 42.5498 95.0168 42.3904 95.0168ZM55.1814 93.9881C55.0476 93.9881 54.9199 93.912 54.8604 93.7828C54.7791 93.6059 54.8567 93.3966 55.0339 93.3154C55.5892 93.0607 56.1322 92.7734 56.6473 92.4615C56.8138 92.3615 57.0312 92.4138 57.1321 92.5804C57.2329 92.747 57.1796 92.9636 57.013 93.0646C56.4749 93.39 55.9082 93.6902 55.3285 93.9562C55.2809 93.9778 55.2305 93.9881 55.1814 93.9881ZM38.85 93.8426C38.8031 93.8426 38.7556 93.8335 38.7101 93.8137L38.6203 93.7745C38.0784 93.5388 37.5333 93.2773 37.0021 92.998C36.8295 92.9074 36.7634 92.6942 36.8541 92.522C36.9449 92.3495 37.1579 92.2833 37.3307 92.3742C37.8467 92.6454 38.3761 92.8993 38.9036 93.1289L38.9904 93.1666C39.1694 93.2442 39.2517 93.4516 39.1743 93.6302C39.1165 93.7633 38.9865 93.8426 38.85 93.8426ZM44.9736 92.7105C44.8008 92.7105 44.6498 92.5838 44.6245 92.408C44.5349 91.7818 44.4777 91.1445 44.455 90.5142C44.4478 90.3196 44.6001 90.1562 44.7948 90.1491C44.986 90.1388 45.1532 90.2941 45.1604 90.4885C45.1825 91.0943 45.2371 91.7065 45.3233 92.308C45.3511 92.5008 45.2169 92.6793 45.0242 92.7071C45.007 92.7093 44.9903 92.7105 44.9736 92.7105ZM35.5476 92.1097C35.4837 92.1097 35.4191 92.0925 35.3609 92.0563C34.8348 91.7284 34.3075 91.3729 33.7933 91.0002C33.6355 90.886 33.6005 90.6655 33.715 90.508C33.8292 90.3503 34.0504 90.315 34.2079 90.4298C34.709 90.7928 35.2225 91.1388 35.7347 91.4582C35.9001 91.5612 35.9504 91.7788 35.8473 91.9438C35.7802 92.051 35.6651 92.1097 35.5476 92.1097ZM58.3642 92.0537C58.2598 92.0537 58.1567 92.0078 58.087 91.9196C57.9661 91.767 57.9922 91.5453 58.1452 91.4247C58.628 91.0436 59.0819 90.634 59.4942 90.2069C59.6301 90.0666 59.8532 90.0632 59.9932 90.1977C60.1337 90.3329 60.1375 90.5561 60.0024 90.6961C59.5679 91.1459 59.0906 91.577 58.5828 91.9777C58.5179 92.0289 58.4409 92.0537 58.3642 92.0537ZM32.5272 89.9223C32.4477 89.9223 32.3677 89.8956 32.3018 89.8408C31.8262 89.4455 31.3509 89.0246 30.8886 88.5895C30.7468 88.456 30.7402 88.233 30.8739 88.0911C31.0081 87.9495 31.2312 87.9433 31.373 88.0764C31.8244 88.5016 32.2888 88.9129 32.7533 89.2988C32.9032 89.4234 32.9233 89.6456 32.7988 89.7952C32.7289 89.8791 32.6284 89.9223 32.5272 89.9223ZM60.9402 89.3711C60.8697 89.3711 60.7985 89.3499 60.7365 89.3064C60.5775 89.1937 60.5398 88.9739 60.6524 88.8148C61.0071 88.3146 61.3148 87.7923 61.5666 87.2622C61.6505 87.0869 61.8607 87.0121 62.037 87.0949C62.2129 87.1784 62.2878 87.3888 62.2045 87.5647C61.935 88.1312 61.6066 88.6888 61.2287 89.2224C61.1596 89.3192 61.0507 89.3711 60.9402 89.3711ZM44.8414 88.9906C44.8327 88.9906 44.8241 88.9904 44.8155 88.9897C44.6211 88.9756 44.475 88.8068 44.489 88.6127C44.5351 87.9773 44.617 87.3421 44.7321 86.7251C44.7679 86.5337 44.9538 86.4063 45.1435 86.443C45.3351 86.4786 45.4615 86.6628 45.4259 86.854C45.3157 87.4455 45.237 88.0543 45.1929 88.6635C45.1794 88.849 45.0245 88.9906 44.8414 88.9906ZM29.811 87.3668C29.7173 87.3668 29.6237 87.3297 29.5543 87.2562C29.1295 86.8067 28.7069 86.3337 28.2987 85.8508C28.1727 85.7021 28.1916 85.4798 28.3405 85.3542C28.4896 85.2284 28.7125 85.2473 28.8379 85.396C29.2379 85.8691 29.6517 86.3322 30.0676 86.7725C30.2013 86.9141 30.1949 87.1371 30.0532 87.2707C29.9849 87.335 29.8978 87.3668 29.811 87.3668ZM62.5207 86.016C62.4922 86.016 62.4631 86.0126 62.4342 86.0052C62.2451 85.9577 62.1307 85.7658 62.1784 85.5772C62.323 85.006 62.4043 84.4113 62.4206 83.81C62.4257 83.6152 62.5925 83.4578 62.7827 83.4672C62.9776 83.4723 63.1312 83.6343 63.1259 83.8288C63.1085 84.4822 63.0198 85.1283 62.8627 85.7497C62.8222 85.9095 62.6785 86.016 62.5207 86.016ZM45.5261 85.3322C45.4916 85.3322 45.4562 85.3271 45.4215 85.3164C45.2354 85.2588 45.1313 85.0612 45.189 84.8753C45.3783 84.2659 45.6053 83.6659 45.8638 83.0917C45.9438 82.9143 46.1519 82.8344 46.3305 82.9148C46.5081 82.9947 46.5875 83.2032 46.5076 83.3808C46.2608 83.929 46.0439 84.502 45.8631 85.0842C45.8163 85.2353 45.6768 85.3322 45.5261 85.3322ZM27.4015 84.5198C27.2948 84.5198 27.1894 84.4718 27.12 84.3803C26.7427 83.8837 26.3724 83.37 26.0187 82.8532C25.9087 82.6923 25.95 82.473 26.1111 82.3633C26.2719 82.2541 26.4914 82.2945 26.6014 82.4556C26.9484 82.9627 27.3121 83.467 27.6824 83.9544C27.8 84.1093 27.7697 84.3305 27.6144 84.4482C27.5508 84.4964 27.476 84.5198 27.4015 84.5198ZM62.622 82.317C62.4562 82.317 62.3082 82.1997 62.2758 82.0308C62.1618 81.4372 61.9826 80.866 61.743 80.3337C61.663 80.1561 61.7426 79.9475 61.9201 79.8677C62.0989 79.7876 62.3068 79.8669 62.3867 80.0445C62.6489 80.6269 62.8449 81.2506 62.9692 81.8982C63.0058 82.0893 62.8802 82.274 62.6889 82.3108C62.6664 82.3149 62.6441 82.317 62.622 82.317ZM47.0551 81.94C46.9924 81.94 46.9291 81.9235 46.8718 81.8886C46.7054 81.7873 46.6526 81.5705 46.7539 81.4042C47.091 80.8513 47.4611 80.3254 47.8545 79.8408C47.9769 79.6891 48.1988 79.666 48.3507 79.7889C48.5021 79.9114 48.5254 80.1334 48.4027 80.2846C48.0294 80.7449 47.6773 81.2449 47.3568 81.7708C47.2904 81.8798 47.1741 81.94 47.0551 81.94ZM25.2935 81.4425C25.1752 81.4425 25.0593 81.383 24.9927 81.2748L24.776 80.919C24.5235 80.5005 24.2793 80.0771 24.0429 79.6501C23.9487 79.4796 24.0108 79.2653 24.1812 79.171C24.3527 79.0766 24.5666 79.1389 24.661 79.3091C24.8929 79.7289 25.1329 80.1444 25.3808 80.5559L25.5937 80.9053C25.6959 81.0709 25.6443 81.2881 25.4782 81.3901C25.4206 81.4257 25.3566 81.4425 25.2935 81.4425ZM49.406 79.0579C49.3102 79.0579 49.2149 79.0191 49.1452 78.9429C49.0138 78.799 49.0241 78.5759 49.1682 78.445C49.6527 78.0039 50.1667 77.6102 50.6963 77.2745C50.8604 77.1706 51.079 77.2188 51.1834 77.3833C51.2877 77.5476 51.239 77.7653 51.0745 77.8697C50.5793 78.1837 50.098 78.5524 49.6438 78.9659C49.576 79.0275 49.491 79.0579 49.406 79.0579ZM61.0903 78.9576C60.988 78.9576 60.8867 78.9135 60.8169 78.8284C60.5395 78.4899 60.2289 78.1838 59.8935 77.9182C59.772 77.8221 59.6468 77.731 59.5188 77.645C59.3573 77.5362 59.3145 77.3171 59.4234 77.1555C59.5327 76.9942 59.752 76.952 59.9133 77.0603C60.0562 77.1564 60.1957 77.2581 60.3316 77.3657C60.7068 77.6624 61.0538 78.0043 61.3633 78.3818C61.4866 78.5326 61.4643 78.7545 61.3137 78.8779C61.2479 78.9314 61.1688 78.9576 61.0903 78.9576ZM23.4887 78.1787C23.3584 78.1787 23.2332 78.1065 23.1719 77.9818C22.8955 77.4205 22.6293 76.8461 22.3802 76.2748C22.3025 76.0963 22.3844 75.8886 22.5631 75.8108C22.7432 75.7339 22.95 75.8152 23.0277 75.9935C23.2722 76.555 23.5336 77.1193 23.8052 77.6707C23.8914 77.8453 23.8193 78.0566 23.6443 78.1425C23.5941 78.1673 23.5411 78.1787 23.4887 78.1787ZM52.5481 77.0833C52.4062 77.0833 52.2722 76.9972 52.2184 76.8567C52.1488 76.675 52.24 76.4712 52.422 76.4015C53.0242 76.1716 53.6555 76.0064 54.2988 75.9109C54.4941 75.8818 54.671 76.0154 54.6997 76.2076C54.7285 76.4001 54.5954 76.5794 54.4027 76.608C53.8101 76.6962 53.2287 76.8481 52.6742 77.06C52.6327 77.0759 52.5902 77.0833 52.5481 77.0833ZM58.0416 76.8946C58.0053 76.8946 57.9685 76.8891 57.9319 76.8772C57.3791 76.6968 56.7923 76.5833 56.1871 76.5392C55.9928 76.525 55.8467 76.3561 55.8609 76.1619C55.875 75.9678 56.0452 75.8239 56.2387 75.8361C56.9006 75.8843 57.5442 76.0092 58.1512 76.2071C58.3364 76.2675 58.4375 76.4665 58.3771 76.6516C58.3286 76.8003 58.1903 76.8946 58.0416 76.8946ZM21.998 74.7604C21.856 74.7604 21.7221 74.6741 21.6683 74.5336C21.4452 73.9501 21.2329 73.3542 21.0367 72.7624C20.9753 72.5774 21.0757 72.378 21.2607 72.317C21.4466 72.2557 21.6455 72.356 21.7066 72.5407C21.8994 73.1226 22.1085 73.7085 22.3276 74.2822C22.3973 74.4641 22.3058 74.6679 22.1239 74.7372C22.0826 74.7531 22.0399 74.7604 21.998 74.7604ZM20.824 71.2215C20.67 71.2215 20.5286 71.1203 20.4847 70.965C20.3153 70.3672 20.1566 69.7547 20.0126 69.1448C19.9677 68.9553 20.0854 68.7655 20.2752 68.7208C20.4647 68.676 20.6548 68.7936 20.6996 68.9828C20.8414 69.5829 20.9976 70.1852 21.164 70.7731C21.2171 70.9603 21.1078 71.1551 20.9204 71.2082C20.8881 71.2174 20.8559 71.2215 20.824 71.2215ZM19.9657 67.593C19.7998 67.593 19.6519 67.4754 19.6194 67.3066C19.503 66.6967 19.3972 66.0732 19.3058 65.4531C19.2776 65.2606 19.4108 65.0814 19.6036 65.0529C19.7948 65.0242 19.9756 65.1578 20.0043 65.3504C20.0941 65.9605 20.1979 66.5743 20.3128 67.1744C20.3494 67.3655 20.2237 67.5502 20.0323 67.5868C20.01 67.5909 19.9877 67.593 19.9657 67.593ZM19.4213 63.9042C19.243 63.9042 19.0897 63.7696 19.0707 63.5885C19.0057 62.9668 18.9528 62.3367 18.9141 61.7155C18.9019 61.5212 19.0499 61.3539 19.2442 61.3417C19.4442 61.3301 19.6063 61.4773 19.6185 61.6714C19.6566 62.283 19.7086 62.9032 19.7728 63.515C19.7931 63.7087 19.6525 63.882 19.4585 63.9023C19.4461 63.9035 19.4337 63.9042 19.4213 63.9042ZM19.1877 60.1834C18.9963 60.1834 18.8392 60.0306 18.835 59.8385C18.8281 59.5136 18.8247 59.1887 18.8247 58.8635C18.8247 58.562 18.8277 58.2604 18.8337 57.959C18.8378 57.7647 19.0113 57.6164 19.1937 57.6137C19.3886 57.6176 19.5434 57.7784 19.5394 57.9732C19.5334 58.2697 19.5304 58.5666 19.5304 58.8635C19.5304 59.1837 19.5338 59.5035 19.5408 59.8234C19.5449 60.018 19.3903 60.1793 19.1954 60.1834C19.193 60.1834 19.1904 60.1834 19.1877 60.1834ZM19.2617 56.4555C19.2546 56.4555 19.2474 56.4553 19.2401 56.4548C19.0455 56.4431 18.8972 56.276 18.9092 56.0816C18.9469 55.4605 18.9982 54.8303 19.0618 54.2085C19.0816 54.0148 19.2543 53.8764 19.4487 53.8936C19.6427 53.9133 19.7837 54.0864 19.764 54.28C19.7014 54.8922 19.6509 55.5127 19.6137 56.1242C19.6024 56.3113 19.4468 56.4555 19.2617 56.4555ZM19.641 52.746C19.6243 52.746 19.6074 52.7448 19.5905 52.7422C19.3975 52.7147 19.2635 52.5359 19.2913 52.3434C19.3805 51.7228 19.4834 51.099 19.5972 50.489C19.633 50.2974 19.8191 50.1709 20.0086 50.207C20.2002 50.2426 20.3266 50.4266 20.291 50.6179C20.1789 51.2184 20.0779 51.8324 19.9898 52.4433C19.9645 52.6192 19.8138 52.746 19.641 52.746ZM20.3236 49.0801C20.2976 49.0801 20.271 49.0774 20.2445 49.0712C20.0545 49.0278 19.9358 48.8388 19.9794 48.649C20.1191 48.0395 20.2735 47.4264 20.4378 46.8261C20.4892 46.6386 20.6832 46.5266 20.8715 46.5794C21.0595 46.6306 21.17 46.8245 21.1185 47.0125C20.9568 47.6031 20.8049 48.2066 20.6673 48.8065C20.6299 48.9696 20.4844 49.0801 20.3236 49.0801ZM21.309 45.484C21.2734 45.484 21.2373 45.4787 21.2015 45.4673C21.0158 45.408 20.9136 45.2096 20.9729 45.0241C21.1641 44.4266 21.3697 43.8284 21.5838 43.2462C21.6511 43.0638 21.8535 42.97 22.0369 43.037C22.2198 43.1041 22.3135 43.3068 22.2464 43.4895C22.0357 44.0622 21.8333 44.6508 21.6452 45.2389C21.5971 45.3885 21.4585 45.484 21.309 45.484ZM22.5961 41.9843C22.5508 41.9843 22.5048 41.9756 22.4605 41.9573C22.2806 41.8823 22.1956 41.6758 22.2705 41.4963C22.5129 40.9162 22.7696 40.3379 23.0335 39.7771C23.1164 39.6009 23.3257 39.5254 23.5031 39.6082C23.6793 39.6911 23.7551 39.901 23.6722 40.0772C23.4126 40.6284 23.1604 41.1973 22.9221 41.7675C22.8656 41.9029 22.7344 41.9843 22.5961 41.9843ZM24.1837 38.6101C24.1283 38.6101 24.0723 38.5972 24.0199 38.5697C23.8474 38.4791 23.7809 38.2659 23.8716 38.0938C24.1636 37.5389 24.4708 36.9854 24.7849 36.4492C24.8835 36.281 25.0999 36.2255 25.2678 36.323C25.4361 36.4212 25.4926 36.6371 25.3942 36.8053C25.0855 37.3324 24.7835 37.876 24.4966 38.4215C24.4333 38.5414 24.3105 38.6101 24.1837 38.6101ZM26.0684 35.3917C26.0025 35.3917 25.9361 35.3734 25.8765 35.3351C25.7132 35.2291 25.6666 35.0108 25.7725 34.8475C26.1128 34.3233 26.4698 33.8004 26.8338 33.2935C26.9475 33.1352 27.1676 33.0989 27.3261 33.2125C27.4844 33.3258 27.521 33.5459 27.4073 33.7042C27.0499 34.2022 26.6991 34.716 26.3649 35.2312C26.2973 35.3351 26.1839 35.3917 26.0684 35.3917ZM28.244 32.3623C28.1672 32.3623 28.09 32.3375 28.0253 32.2861C27.8724 32.1653 27.8465 31.9437 27.9676 31.7912C28.1154 31.6044 28.2652 31.4189 28.4166 31.2349C28.6642 30.9339 28.9163 30.6367 29.1725 30.3437C29.3007 30.1976 29.5236 30.1822 29.6703 30.3102C29.8172 30.4382 29.8324 30.661 29.7041 30.8077C29.4525 31.0952 29.2051 31.3868 28.962 31.6824C28.8133 31.8632 28.6663 32.0454 28.5209 32.2285C28.4513 32.3164 28.3481 32.3623 28.244 32.3623ZM30.6994 29.5529C30.6114 29.5529 30.5234 29.5203 30.4549 29.4546C30.3143 29.3198 30.3097 29.0967 30.4448 28.9562C30.8788 28.5048 31.3282 28.0588 31.7808 27.6303C31.9228 27.4968 32.1459 27.5024 32.2799 27.6436C32.4138 27.785 32.4079 28.008 32.2666 28.1421C31.8217 28.5629 31.3801 29.001 30.954 29.4445C30.8846 29.5167 30.792 29.5529 30.6994 29.5529ZM33.408 26.9866C33.309 26.9866 33.2107 26.9453 33.1408 26.8647C33.0133 26.7173 33.0296 26.4948 33.1769 26.3675C33.649 25.9599 34.1375 25.557 34.6288 25.1701C34.7816 25.0498 35.0037 25.0757 35.1243 25.2286C35.2449 25.3814 35.2188 25.6031 35.0657 25.7235C34.5828 26.104 34.1026 26.4998 33.6387 26.9007C33.5718 26.9584 33.4898 26.9866 33.408 26.9866ZM36.3383 24.6777C36.2287 24.6777 36.1205 24.6267 36.0516 24.5311C35.9378 24.373 35.9739 24.1526 36.132 24.0391C36.6399 23.6745 37.1622 23.3165 37.6842 22.9756C37.8468 22.8689 38.0661 22.9148 38.1726 23.0774C38.2794 23.2404 38.2337 23.4588 38.0706 23.5652C37.5571 23.9007 37.0436 24.2527 36.5441 24.6114C36.4817 24.6561 36.4098 24.6777 36.3383 24.6777ZM39.4612 22.6352C39.341 22.6352 39.2237 22.5737 39.1577 22.4629C39.058 22.2956 39.1132 22.0792 39.2807 21.9798C39.8162 21.6615 40.3672 21.3499 40.9184 21.0537C41.0897 20.9614 41.3042 21.0255 41.3963 21.1969C41.4889 21.3684 41.4245 21.582 41.2529 21.6742C40.7106 21.9661 40.1685 22.2727 39.6414 22.5857C39.5848 22.6193 39.5225 22.6352 39.4612 22.6352ZM42.7477 20.8669C42.6167 20.8669 42.491 20.7939 42.4299 20.6685C42.3449 20.4933 42.4179 20.2825 42.5933 20.1974C43.1536 19.9256 43.7288 19.6616 44.303 19.4121C44.4821 19.3354 44.6896 19.4167 44.7673 19.595C44.845 19.7733 44.763 19.981 44.5842 20.0588C44.0194 20.3041 43.4534 20.564 42.9017 20.8316C42.8519 20.8557 42.7993 20.8669 42.7477 20.8669ZM46.1708 19.3799C46.0293 19.3799 45.8958 19.2944 45.8416 19.1545C45.7714 18.973 45.8619 18.7688 46.0436 18.6986C46.6278 18.473 47.2232 18.2571 47.8125 18.0574C47.9975 17.9944 48.1973 18.0935 48.26 18.2778C48.3227 18.4623 48.224 18.6624 48.0394 18.725C47.459 18.9217 46.8734 19.1339 46.2981 19.3563C46.2563 19.3724 46.2133 19.3799 46.1708 19.3799ZM49.7049 18.1791C49.5525 18.1791 49.4119 18.0797 49.3667 17.9263C49.3115 17.7397 49.4183 17.5437 49.6053 17.4887C50.2048 17.312 50.8154 17.1457 51.4204 16.9942C51.6097 16.9477 51.8014 17.0615 51.8487 17.2503C51.896 17.4392 51.7811 17.6308 51.5922 17.6781C50.9965 17.8272 50.3952 17.9911 49.8048 18.1648C49.7715 18.1746 49.738 18.1791 49.7049 18.1791ZM73.6632 17.8533C73.6315 17.8533 73.5996 17.8492 73.5677 17.8402C72.9797 17.6752 72.3766 17.5212 71.7749 17.3826C71.5849 17.3388 71.4666 17.1495 71.5102 16.9597C71.5541 16.7705 71.7429 16.6536 71.9336 16.6956C72.546 16.837 73.16 16.9937 73.7584 17.1615C73.9462 17.2142 74.0555 17.4088 74.0029 17.596C73.959 17.7517 73.8174 17.8533 73.6632 17.8533ZM53.3259 17.272C53.1623 17.272 53.0155 17.1578 52.9808 16.9911C52.9413 16.8006 53.0637 16.6141 53.2546 16.5744C53.8703 16.4465 54.4928 16.3309 55.1044 16.2302C55.2969 16.2011 55.4784 16.3287 55.5101 16.5207C55.5417 16.7128 55.4116 16.8943 55.2193 16.926C54.6171 17.0248 54.0045 17.1389 53.398 17.2647C53.3739 17.2697 53.3498 17.272 53.3259 17.272ZM70.0264 17.0146C70.0052 17.0146 69.9836 17.0128 69.9623 17.0089C69.3636 16.8992 68.7488 16.8009 68.1344 16.7174C67.9413 16.691 67.8061 16.5134 67.8324 16.3204C67.8589 16.1274 68.0356 15.992 68.2299 16.0189C68.8547 16.104 69.4805 16.2038 70.0895 16.3154C70.2814 16.3504 70.4082 16.5342 70.3731 16.7257C70.3419 16.8957 70.1935 17.0146 70.0264 17.0146ZM57.0095 16.6647C56.8338 16.6647 56.6817 16.5339 56.6597 16.3554C56.636 16.1622 56.7734 15.9862 56.9669 15.9623C57.5902 15.886 58.2204 15.8219 58.8396 15.7721C59.0328 15.7611 59.204 15.9011 59.2196 16.0952C59.2352 16.2893 59.0905 16.4592 58.8961 16.4748C58.2868 16.5237 57.6667 16.5868 57.0532 16.6623C57.0385 16.6638 57.024 16.6647 57.0095 16.6647ZM66.3278 16.5098C66.3169 16.5098 66.3062 16.5094 66.2951 16.5084C65.6851 16.4527 65.0637 16.4096 64.4479 16.3804C64.2534 16.3712 64.103 16.2062 64.1122 16.0116C64.1214 15.8175 64.2797 15.6647 64.4814 15.6764C65.1073 15.706 65.7391 15.7495 66.3594 15.8063C66.5535 15.8241 66.6964 15.9955 66.6788 16.1895C66.6621 16.3723 66.5082 16.5098 66.3278 16.5098ZM60.7312 16.3647C60.5425 16.3647 60.3861 16.2158 60.3788 16.0258C60.3714 15.8312 60.523 15.6676 60.7179 15.66C61.2814 15.6385 61.8531 15.6274 62.4169 15.6274L62.5996 15.6279C62.7945 15.6286 62.9518 15.7871 62.9511 15.9817C62.9504 16.1758 62.7926 16.3328 62.5982 16.3328C62.5978 16.3328 62.5973 16.3328 62.5969 16.3328L62.417 16.3324C61.8621 16.3324 61.2997 16.3431 60.7451 16.3645C60.7403 16.3647 60.7358 16.3647 60.7312 16.3647ZM76.3965 18.728C76.3567 18.728 76.3163 18.7214 76.2765 18.7072C75.984 18.6016 75.6904 18.4995 75.3959 18.4011C75.2109 18.3392 75.1112 18.1395 75.173 17.955C75.2348 17.7702 75.4342 17.6699 75.6197 17.7324C75.9197 17.8327 76.2185 17.9366 76.5165 18.044C76.6998 18.1101 76.7947 18.3122 76.7285 18.4954C76.6765 18.6388 76.5409 18.728 76.3965 18.728Z" fill="#252525"/>
<path d="M74.8943 21.0935C74.7346 21.0935 74.5901 20.9847 74.5512 20.8229C74.506 20.6336 74.6229 20.4433 74.8124 20.3981L78.824 19.4404L77.0254 15.7333C76.9404 15.5579 77.0137 15.3473 77.189 15.2624C77.3648 15.1775 77.5756 15.2509 77.6605 15.4258L79.6504 19.5275C79.697 19.6236 79.6975 19.7356 79.6517 19.8322C79.6059 19.9286 79.5189 19.9993 79.4149 20.0241L74.9764 21.0837C74.9489 21.0905 74.9213 21.0935 74.8943 21.0935Z" fill="#252525"/>
<path d="M237.365 16.3675V105.913C237.365 111.262 233.025 115.597 227.669 115.597H98.8648C93.5095 115.597 89.1694 111.262 89.1694 105.913V16.3675C89.1694 11.0191 93.5095 6.68433 98.8648 6.68433H227.669C233.025 6.68433 237.365 11.0192 237.365 16.3675Z" fill="#F2F7FD"/>
<path d="M227.713 115.949H98.9081C93.3673 115.949 88.8596 111.447 88.8596 105.913V16.3676C88.8596 10.8338 93.3672 6.33179 98.9081 6.33179H227.713C233.253 6.33179 237.761 10.8337 237.761 16.3676V105.913C237.761 111.447 233.253 115.949 227.713 115.949ZM98.9081 7.03684C93.7564 7.03684 89.5654 11.2225 89.5654 16.3677V105.914C89.5654 111.059 93.7564 115.244 98.9081 115.244H227.713C232.864 115.244 237.055 111.059 237.055 105.914V16.3676C237.055 11.2224 232.864 7.03673 227.713 7.03673H98.9081V7.03684Z" fill="#252525"/>
<path d="M237.445 20.9614V16.3673C237.445 11.0188 233.105 6.68408 227.75 6.68408H98.9454C93.5901 6.68408 89.25 11.0188 89.25 16.3673V20.9614H237.445Z" fill="white"/>
<path d="M237.445 21.3144H89.2498C89.055 21.3144 88.897 21.1565 88.897 20.962V16.3678C88.897 10.834 93.4046 6.33203 98.9454 6.33203H227.75C233.29 6.33203 237.798 10.8339 237.798 16.3678V20.962C237.798 21.1565 237.64 21.3144 237.445 21.3144ZM89.6028 20.6095H237.092V16.3677C237.092 11.2226 232.901 7.03688 227.75 7.03688H98.9454C93.7938 7.03688 89.6028 11.2226 89.6028 16.3677V20.6095Z" fill="#252525"/>
<path d="M101.373 16.3767C102.786 16.3767 103.93 15.2333 103.93 13.8227C103.93 12.4122 102.786 11.2688 101.373 11.2688C99.961 11.2688 98.8162 12.4122 98.8162 13.8227C98.8162 15.2333 99.961 16.3767 101.373 16.3767Z" fill="#6CA8F5"/>
<path d="M101.373 16.7294C99.7687 16.7294 98.4631 15.4256 98.4631 13.823C98.4631 12.2203 99.7686 10.9165 101.373 10.9165C102.978 10.9165 104.283 12.2203 104.283 13.823C104.283 15.4256 102.978 16.7294 101.373 16.7294ZM101.373 11.6214C100.158 11.6214 99.169 12.6091 99.169 13.823C99.169 15.0369 100.158 16.0245 101.373 16.0245C102.589 16.0245 103.578 15.0369 103.578 13.823C103.578 12.6091 102.589 11.6214 101.373 11.6214Z" fill="#252525"/>
<path d="M110.314 16.3767C111.726 16.3767 112.871 15.2333 112.871 13.8227C112.871 12.4122 111.726 11.2688 110.314 11.2688C108.902 11.2688 107.757 12.4122 107.757 13.8227C107.757 15.2333 108.902 16.3767 110.314 16.3767Z" fill="#E53C6D"/>
<path d="M110.315 16.7294C108.71 16.7294 107.405 15.4256 107.405 13.823C107.405 12.2203 108.71 10.9165 110.315 10.9165C111.919 10.9165 113.225 12.2203 113.225 13.823C113.225 15.4256 111.919 16.7294 110.315 16.7294ZM110.315 11.6214C109.099 11.6214 108.11 12.6091 108.11 13.823C108.11 15.0369 109.099 16.0245 110.315 16.0245C111.53 16.0245 112.519 15.0369 112.519 13.823C112.519 12.6091 111.53 11.6214 110.315 11.6214Z" fill="#252525"/>
<path d="M119.255 16.3767C120.668 16.3767 121.813 15.2333 121.813 13.8227C121.813 12.4122 120.668 11.2688 119.255 11.2688C117.843 11.2688 116.698 12.4122 116.698 13.8227C116.698 15.2333 117.843 16.3767 119.255 16.3767Z" fill="#F9D95A"/>
<path d="M119.256 16.7294C117.651 16.7294 116.346 15.4256 116.346 13.823C116.346 12.2203 117.651 10.9165 119.256 10.9165C120.861 10.9165 122.166 12.2203 122.166 13.823C122.166 15.4256 120.861 16.7294 119.256 16.7294ZM119.256 11.6214C118.041 11.6214 117.052 12.6091 117.052 13.823C117.052 15.0369 118.041 16.0245 119.256 16.0245C120.472 16.0245 121.46 15.0369 121.46 13.823C121.46 12.6091 120.472 11.6214 119.256 11.6214Z" fill="#252525"/>
<path d="M108.92 62.2591C108.29 63.7347 107.405 65.1257 106.168 66.1455C104.93 67.1606 103.311 67.7762 101.716 67.5977L101.655 67.6494V67.6447C101.138 66.7189 98.2015 67.7057 91.7691 65.4829C89.3129 64.6323 86.4283 65.3842 84.3015 66.8645C82.6829 67.9829 81.5489 69.7029 80.8995 71.5545C80.2407 73.4109 80.0101 75.3894 79.9961 77.3537C79.4032 77.4759 78.7821 77.5935 78.1892 77.7062C78.0339 76.2493 76.5046 75.1402 75.0413 75.2624C73.5732 75.3846 72.3121 76.5642 71.8839 77.9741C71.4651 79.3792 71.7945 80.9441 72.5709 82.1989C73.3426 83.4489 74.5189 84.3231 75.7988 85.0563C75.9823 86.466 76.0576 87.8336 76.0434 89.1589L76.0293 89.1729C72.1474 88.3741 68.75 85.794 66.5479 82.4996C64.3458 79.2052 63.2683 75.2483 63.0142 71.296C62.8071 68.0064 63.1601 64.6321 64.4587 61.601C65.7573 58.5698 68.0584 55.9005 71.0604 54.5329C74.0625 53.1653 77.7657 53.358 80.523 55.172C80.3913 53.9266 80.8289 52.6578 81.5771 51.6521C82.3253 50.6417 83.3652 49.8804 84.485 49.3165C86.4707 48.3154 88.7528 47.9161 90.9643 48.1792C93.0629 48.4283 95.044 49.2507 96.9966 50.0637C98.9494 50.8767 100.935 51.6991 103.034 51.9435C105.137 52.1878 107.382 51.8682 108.972 50.4772C110.525 54.1994 110.506 58.5512 108.92 62.2591Z" fill="#0A0A0A"/>
<path d="M131.125 126.093C126.754 122.174 121.573 119.467 116.783 117.606C108.643 114.443 101.627 113.743 101.627 113.743L71.1592 113.062L40.2587 152.885C40.1222 153.223 39.9905 153.571 39.8634 153.919C37.6801 159.713 35.8496 165.818 34.3533 171.486C33.4123 175.056 32.6066 178.453 31.9343 181.492L34.6494 181.424L31.9343 195.206L137.266 194.664V133.471C135.577 130.628 133.464 128.185 131.125 126.093Z" fill="#95BBE8"/>
<path d="M71.159 113.062L40.2585 152.885L40.2349 152.913L30.2359 148.801L21.1921 145.075L12.9717 141.691C12.9717 141.691 17.3524 130.854 28.7208 122.423C33.2709 119.049 38.9409 116.06 45.9003 114.312C51.575 112.874 58.1155 112.263 65.5972 112.935L71.159 113.062Z" fill="#95BBE8"/>
<path d="M40.297 152.787C40.2829 152.82 40.2687 152.853 40.2592 152.886L40.2356 152.914L40.297 152.787Z" fill="#F9D95A"/>
<path opacity="0.5" d="M81.418 183.395C66.9962 183.395 55.3018 171.715 55.3018 157.311C55.3018 142.908 66.9962 131.234 81.418 131.234C95.8398 131.234 107.534 142.908 107.534 157.311C107.534 171.715 95.8399 183.395 81.418 183.395ZM102.56 130.296C99.8463 130.296 97.6462 128.099 97.6462 125.389C97.6462 122.679 99.8463 120.483 102.56 120.483C105.273 120.483 107.473 122.679 107.473 125.389C107.473 128.099 105.273 130.296 102.56 130.296ZM96.1572 194.098C96.1572 194.291 96.1442 194.477 96.1249 194.664H86.3636C86.3443 194.477 86.3314 194.291 86.3314 194.098C86.3314 191.389 88.5284 189.194 91.241 189.194C93.9536 189.194 96.1572 191.389 96.1572 194.098ZM57.7631 137.696C55.0499 137.696 52.8497 135.499 52.8497 132.789C52.8497 130.079 55.0499 127.883 57.7631 127.883C60.4764 127.883 62.6765 130.079 62.6765 132.789C62.6763 135.499 60.4763 137.696 57.7631 137.696ZM30.7982 146.53C30.7982 147.354 30.5984 148.126 30.2376 148.802L21.1915 145.076C21.8101 143.081 23.685 141.627 25.8885 141.627C28.6011 141.627 30.7982 143.821 30.7982 146.53ZM131.124 126.093C129.636 127.148 127.825 127.759 125.866 127.759C120.815 127.759 116.723 123.667 116.723 118.628C116.723 118.281 116.743 117.94 116.781 117.605C121.575 119.465 126.756 122.174 131.124 126.093ZM121.489 156.109C117.908 156.109 115.005 153.209 115.005 149.633C115.005 146.057 117.908 143.158 121.489 143.158C125.069 143.158 127.973 146.057 127.973 149.633C127.973 153.209 125.069 156.109 121.489 156.109ZM130.995 190.546C130.995 192.019 130.66 193.422 130.054 194.664H112.929C112.323 193.422 111.988 192.019 111.988 190.546C111.988 185.301 116.24 181.054 121.491 181.054C126.736 181.054 130.995 185.301 130.995 190.546ZM46.9381 118.628C46.9381 123.866 42.6792 128.12 37.4345 128.12C33.5365 128.12 30.186 125.777 28.7234 122.425C33.2722 119.046 38.9422 116.061 45.9008 114.31C46.5645 115.604 46.9381 117.071 46.9381 118.628ZM67.0578 195.052H48.4372C49.3586 190.759 53.1944 187.155 57.7626 187.155C62.3308 187.155 66.1365 190.759 67.0578 195.052ZM48.9097 163.416C48.9097 168.667 44.6443 172.927 39.3868 172.927C37.5376 172.927 35.8173 172.405 34.3547 171.485C35.8496 165.816 37.6793 159.715 39.8636 153.917C44.9021 154.162 48.9097 158.326 48.9097 163.416Z" fill="white"/>
<path d="M96.8528 94.3617C96.4275 97.843 96.041 101.112 96.5564 104.593C96.7819 106.099 97.1942 107.605 97.832 108.988C98.0705 109.516 98.341 110.025 98.6439 110.507C99.4171 111.768 100.409 112.882 101.627 113.744C89.8813 126.125 76.9048 127.418 65.5972 112.933C65.5972 112.933 77.9422 101.678 75.7966 85.0567C74.5208 84.3232 73.3417 83.4479 72.5686 82.1995C71.7954 80.9448 71.4668 79.3811 71.8856 77.9718C72.3108 76.5624 73.5737 75.385 75.0427 75.2626C76.5053 75.1404 78.0323 76.2472 78.187 77.7079C78.7798 77.5922 79.4047 77.4764 79.9975 77.354C80.0104 75.3913 80.2424 73.4094 80.8996 71.556C81.5503 69.7028 82.6843 67.9847 84.3015 66.8648C86.4278 65.3848 89.3143 64.6319 91.7692 65.4813C98.1994 67.7078 101.137 66.7168 101.653 67.6434C101.956 68.1841 102.039 70.9641 102.117 71.5818C102.626 75.9834 102.697 80.4364 102.323 84.8508C102.156 86.8327 101.878 88.8598 100.906 90.5972C100.01 92.1995 98.5602 93.4158 96.8786 94.1751C96.8721 94.2395 96.8657 94.2974 96.8528 94.3617Z" fill="#EDA5A5"/>
<path d="M97.8323 108.989C92.8067 99.9347 85.8287 93.4352 85.3777 93.0171C88.9536 95.3143 92.9935 95.3529 96.8529 94.3619C96.4276 97.8433 96.0411 101.112 96.5565 104.594C96.7821 106.1 97.1944 107.605 97.8323 108.989Z" fill="#CB8383"/>
<path d="M92.8904 182.592C92.6327 184.581 89.6881 182.419 89.6881 182.419C89.6043 184.323 86.0542 182.419 86.0542 182.419C86.5761 184.233 83.2837 183.886 81.2927 183.281C79.3082 182.676 79.1343 181.904 73.6834 182.592C71.2544 182.895 67.4336 183.603 62.1244 184.516C55.5009 185.649 46.5578 187.116 35.0827 188.558C14.4002 191.151 2.19696 184.059 3.15057 171.531C3.43411 167.811 4.67239 162.988 6.19307 159.12C6.19307 159.114 6.14017 159.87 6.14017 159.864C9.74188 150.707 14.3459 142.255 14.3459 142.255L41.0137 153.236C40.189 155.295 38.5596 162.31 37.6769 165.064C51.5747 166.699 80.7127 170.063 86.4858 171.788C94.0178 174.034 95.4868 179.311 96.0087 181.64C96.5243 183.976 92.8904 182.592 92.8904 182.592Z" fill="#EDA5A5"/>
<path d="M62.1244 184.516C55.5009 185.649 46.5578 187.116 35.0827 188.557C14.4002 191.151 2.19696 184.059 3.15057 171.531C3.43411 167.811 4.61319 163.751 6.13376 159.883C5.28327 163.442 5.32842 167.219 6.3399 170.739C7.99574 176.498 12.1902 181.473 17.5961 184.066C24.3227 187.303 32.1704 186.807 39.6186 186.234C47.1249 185.662 54.6247 185.089 62.1244 184.516Z" fill="#CB8383"/>
<path d="M37.793 165.213C37.7644 165.213 37.7355 165.209 37.7066 165.202C37.5175 165.154 37.4028 164.963 37.4506 164.774C39.7329 155.729 41.817 149.064 44.2082 143.164C44.2813 142.984 44.4869 142.896 44.6677 142.97C44.8485 143.043 44.9356 143.248 44.8626 143.428C42.4837 149.297 40.4089 155.933 38.1349 164.946C38.0947 165.106 37.9509 165.213 37.793 165.213ZM32.0681 195.155C32.0499 195.155 32.0318 195.153 32.0134 195.151C31.8206 195.12 31.689 194.94 31.7188 194.748C31.7222 194.726 32.0628 192.552 32.7325 189.06C32.7691 188.869 32.9537 188.745 33.1456 188.78C33.3369 188.817 33.4624 189.002 33.4259 189.193C32.7582 192.673 32.4196 194.835 32.4164 194.856C32.3893 195.03 32.2391 195.155 32.0681 195.155ZM137.226 195.155C137.031 195.155 136.873 194.997 136.873 194.802V133.709C126.822 116.949 101.806 114.258 101.554 114.233C101.36 114.213 101.219 114.041 101.238 113.847C101.258 113.653 101.435 113.509 101.625 113.531C101.881 113.557 127.331 116.296 137.53 133.432C137.562 133.486 137.579 133.548 137.579 133.612V194.802C137.579 194.997 137.421 195.155 137.226 195.155Z" fill="#252525"/>
<path d="M41.013 153.588C40.9682 153.588 40.9227 153.58 40.8788 153.562L12.8336 142.014C12.6541 141.94 12.5682 141.736 12.6407 141.556C12.6736 141.475 16.0276 133.32 24.2005 125.722C31.7438 118.71 45.0544 110.741 65.6268 112.585C65.821 112.602 65.9643 112.774 65.9468 112.968C65.9294 113.162 65.754 113.302 65.5638 113.287C45.2625 111.463 32.1397 119.313 24.7038 126.217C17.5497 132.86 14.1382 139.927 13.4344 141.499L41.1474 152.91C41.3277 152.984 41.4135 153.19 41.3393 153.37C41.2834 153.506 41.1518 153.588 41.013 153.588Z" fill="#252525"/>
<path d="M27.0171 189.439C18.2489 189.439 11.3397 187.358 7.13967 183.365C3.94032 180.323 2.43886 176.221 2.79699 171.503C3.74451 159.03 13.9411 142.24 14.0439 142.072C14.1456 141.905 14.363 141.854 14.5291 141.954C14.6954 142.056 14.7478 142.273 14.6463 142.439C14.5443 142.606 4.43536 159.253 3.50097 171.556C3.1543 176.12 4.5422 179.922 7.62624 182.854C12.8925 187.862 22.6283 189.762 35.0386 188.206C48.7662 186.485 58.9606 184.711 65.7068 183.536C69.1086 182.944 71.7958 182.476 73.6353 182.243C78.0845 181.679 79.1024 182.078 80.3901 182.585C80.6962 182.705 81.0128 182.829 81.3979 182.947C83.0074 183.435 85.0834 183.631 85.6312 183.093C85.7148 183.011 85.8145 182.862 85.7155 182.516C85.6766 182.38 85.723 182.234 85.8334 182.145C85.9444 182.057 86.0969 182.042 86.2217 182.109C87.1145 182.587 88.6082 183.125 89.1345 182.827C89.2154 182.781 89.324 182.687 89.3371 182.404C89.3429 182.274 89.4201 182.158 89.5375 182.102C89.6549 182.045 89.7936 182.059 89.8984 182.136C90.5838 182.638 91.773 183.248 92.2674 183.039C92.3223 183.015 92.4896 182.944 92.5415 182.547C92.5556 182.44 92.6178 182.345 92.7104 182.29C92.8032 182.235 92.9167 182.225 93.0169 182.263C93.8187 182.567 95.1368 182.833 95.5543 182.472C95.7077 182.339 95.7441 182.086 95.6625 181.718C95.2601 179.911 94.0363 174.41 86.3863 172.126C78.9732 169.913 29.8266 164.33 29.3309 164.273C29.1373 164.252 28.998 164.077 29.0201 163.883C29.0421 163.69 29.2156 163.548 29.4105 163.573C31.4365 163.803 79.1154 169.22 86.5885 171.451C94.6353 173.853 95.927 179.658 96.3514 181.565C96.5288 182.363 96.2668 182.788 96.0156 183.005C95.3053 183.618 93.8438 183.269 93.1395 183.05C92.9957 183.419 92.7499 183.599 92.5444 183.687C91.7545 184.024 90.5531 183.396 89.9082 182.991C89.795 183.219 89.6293 183.357 89.4829 183.44C88.6905 183.889 87.2463 183.362 86.443 183.001C86.3938 183.272 86.259 183.465 86.126 183.596C85.1897 184.515 82.5836 184.044 81.1924 183.621C80.7802 183.496 80.4505 183.366 80.1316 183.241C78.9378 182.772 77.9956 182.401 73.7239 182.942C71.9008 183.173 69.2209 183.64 65.8279 184.23C59.0753 185.406 48.8709 187.183 35.1264 188.906C32.2799 189.263 29.5695 189.439 27.0171 189.439Z" fill="#252525"/>
<path d="M86.0552 182.772C85.9228 182.772 85.7958 182.697 85.7356 182.569C85.7204 182.537 84.1817 179.333 81.4915 178.671C78.6609 177.975 76.3667 177.793 76.3438 177.792C76.1494 177.777 76.0042 177.607 76.0191 177.413C76.0338 177.219 76.2052 177.066 76.398 177.089C76.4215 177.091 78.7737 177.277 81.6601 177.987C84.6807 178.729 86.3067 182.126 86.3745 182.27C86.4572 182.446 86.3811 182.656 86.2049 182.739C86.1565 182.761 86.1055 182.772 86.0552 182.772Z" fill="#252525"/>
<path d="M89.6905 182.772C89.5555 182.772 89.4263 182.694 89.3677 182.562C89.3535 182.53 87.897 179.328 84.6391 177.535C81.3639 175.732 78.4166 175.807 78.3863 175.807C78.2013 175.819 78.0284 175.661 78.0222 175.466C78.0156 175.272 78.1679 175.109 78.3624 175.102C78.4911 175.098 81.5255 175.016 84.9797 176.917C88.4526 178.828 89.9509 182.136 90.013 182.276C90.0921 182.454 90.0117 182.662 89.8335 182.741C89.787 182.762 89.7382 182.772 89.6905 182.772Z" fill="#252525"/>
<path d="M92.8917 182.944C92.7444 182.944 92.607 182.852 92.5574 182.705C92.5376 182.647 90.5606 176.889 87.409 175.375C84.1866 173.827 81.429 173.688 81.4015 173.686C81.2069 173.677 81.0561 173.513 81.0648 173.318C81.0733 173.124 81.2312 172.969 81.4331 172.982C81.5512 172.988 84.3634 173.13 87.7148 174.74C91.1346 176.383 93.1421 182.231 93.2257 182.479C93.2882 182.664 93.1889 182.864 93.0042 182.926C92.9671 182.938 92.9292 182.944 92.8917 182.944Z" fill="#252525"/>
<path d="M83.2963 123.768C83.0178 123.768 82.7394 123.761 82.4611 123.748C76.3435 123.453 70.5758 119.889 65.318 113.152C65.2048 113.007 65.2222 112.8 65.3582 112.676C65.4797 112.565 77.4572 101.42 75.4664 85.276C73.9364 84.3728 72.9474 83.4759 72.2716 82.3827C71.396 80.9658 71.1265 79.2787 71.5509 77.8697C72.037 76.2559 73.4604 75.0397 75.0124 74.9126C76.5846 74.7871 78.1065 75.8658 78.4712 77.2951C78.6578 77.2584 78.8462 77.2219 79.0343 77.1854C79.239 77.1457 79.444 77.106 79.6464 77.0661C79.6883 74.9133 79.9895 73.0704 80.5645 71.4405C81.0794 69.982 82.1103 67.9539 84.0975 66.5736C86.5403 64.8774 89.5237 64.3322 91.8848 65.1502C95.5818 66.4311 98.1498 66.6384 99.6842 66.762C100.954 66.8646 101.654 66.921 101.963 67.472C102.206 67.9073 102.307 69.2031 102.405 70.7256C102.428 71.0891 102.447 71.3854 102.465 71.5405C102.981 75.961 103.051 80.4503 102.674 84.8838C102.515 86.7541 102.258 88.9059 101.216 90.7675C100.34 92.3322 98.9184 93.5936 97.2065 94.4128C96.7822 97.8374 96.3971 101.082 96.9076 104.539C97.4767 108.396 99.2714 111.645 101.831 113.453C101.915 113.512 101.969 113.605 101.979 113.706C101.988 113.808 101.954 113.909 101.883 113.983C95.7213 120.48 89.4723 123.768 83.2963 123.768ZM66.0705 112.968C71.1425 119.373 76.6675 122.763 82.4951 123.044C88.6365 123.342 94.8934 120.225 101.096 113.787C98.5539 111.83 96.7821 108.523 96.209 104.642C95.7056 101.231 96.0461 98.0595 96.4553 94.7366C95.2493 95.2015 93.9283 95.4564 92.5702 95.459C92.5627 95.459 92.5544 95.459 92.5468 95.459C88.6459 95.4592 85.3119 93.5744 83.1996 91.9916C83.0438 91.8745 83.0122 91.6538 83.129 91.498C83.2462 91.3423 83.467 91.311 83.6232 91.4275C85.6495 92.946 88.841 94.7541 92.5468 94.7541C92.5541 94.7541 92.5612 94.7541 92.5689 94.7541C94.0249 94.7513 95.4342 94.4397 96.6852 93.8794C96.7164 93.8587 96.7511 93.8426 96.7879 93.8328C98.421 93.0783 99.7756 91.8966 100.6 90.4239C101.573 88.6845 101.818 86.6213 101.97 84.8241C102.344 80.4374 102.274 75.9956 101.764 71.6222C101.745 71.4602 101.725 71.1507 101.701 70.7708C101.646 69.9192 101.532 68.1473 101.346 67.8162C101.222 67.5933 100.518 67.5367 99.6273 67.4647C98.0594 67.3382 95.4354 67.1267 91.6534 65.8162C89.5024 65.0709 86.7614 65.5828 84.5004 67.1524C82.6677 68.4252 81.7104 70.3143 81.2302 71.6749C80.6558 73.3019 80.3673 75.1613 80.348 77.3587C80.3467 77.5252 80.2286 77.668 80.0652 77.7011C79.7714 77.7607 79.4702 77.819 79.1688 77.8776C78.863 77.9368 78.5569 77.9959 78.2587 78.0565C78.1611 78.0767 78.06 78.0542 77.9799 77.9954C77.8995 77.9365 77.848 77.8467 77.8374 77.7478C77.7089 76.5234 76.3881 75.508 75.0704 75.6151C73.8008 75.7191 72.6314 76.7299 72.227 78.0727C71.8598 79.2917 72.101 80.7643 72.8723 82.0122C73.5055 83.0367 74.4613 83.8824 75.9716 84.7541C76.0667 84.8092 76.1308 84.9052 76.1449 85.014C78.1242 100.336 67.7824 111.276 66.0705 112.968Z" fill="#252525"/>
<path d="M76.0309 89.5236C76.0072 89.5236 75.9833 89.5213 75.9592 89.5163C72.1709 88.7376 68.6338 86.2512 66.2549 82.6947C64.1827 79.5967 62.9411 75.6621 62.664 71.3172C62.4278 67.608 62.9222 64.2927 64.134 61.4625C65.5403 58.1762 68.0116 55.5337 70.9141 54.212C73.8627 52.8692 77.4145 53.0093 80.1503 54.536C80.1966 53.4743 80.5966 52.3767 81.2914 51.4405C82.0091 50.4733 83.0302 49.6525 84.3263 49.001C86.3656 47.9762 88.7367 47.5581 91.0046 47.8287C93.1642 48.0845 95.182 48.9258 97.1336 49.7392C99.036 50.5322 101.003 51.3524 103.075 51.5928C105.402 51.8634 107.413 51.3723 108.737 50.211C108.823 50.136 108.939 50.1056 109.05 50.1326C109.161 50.158 109.252 50.2353 109.296 50.3402C110.898 54.1787 110.879 58.574 109.243 62.3987C108.512 64.1098 107.552 65.4616 106.391 66.4162C104.991 67.5675 103.271 68.1251 101.677 67.9458C101.483 67.9242 101.344 67.7498 101.366 67.5564C101.387 67.3627 101.562 67.2203 101.756 67.2455C103.163 67.4019 104.689 66.9027 105.943 65.8719C107.015 64.9899 107.907 63.7282 108.594 62.1219C110.071 58.6689 110.148 54.5657 108.819 51.0492C107.357 52.1212 105.31 52.5604 102.994 52.2931C100.823 52.0409 98.8092 51.2015 96.8615 50.3894C94.955 49.5948 92.9832 48.7728 90.9214 48.5284C88.7911 48.2765 86.5606 48.6672 84.6435 49.6306C83.4469 50.232 82.5098 50.9822 81.8584 51.8603C81.1191 52.8565 80.7593 54.0506 80.8714 55.1366C80.8854 55.272 80.8199 55.4033 80.7035 55.474C80.5867 55.5445 80.44 55.5417 80.3262 55.4669C77.7272 53.7557 74.1474 53.5148 71.2067 54.8535C68.4625 56.1029 66.121 58.6129 64.7827 61.7396C63.6151 64.4673 63.1392 67.6745 63.3683 71.2721C63.6374 75.4936 64.8386 79.308 66.8416 82.303C69.1182 85.7065 72.4934 88.084 76.1014 88.8259C76.2924 88.8651 76.415 89.0515 76.3758 89.2422C76.3417 89.4089 76.1946 89.5236 76.0309 89.5236Z" fill="#252525"/>
<path d="M73.6645 79.7941C73.5164 79.7941 73.3785 79.7005 73.3295 79.5525C73.0853 78.8155 73.4013 77.9545 74.0645 77.5497C74.7283 77.1454 75.6395 77.2576 76.1843 77.8106C76.321 77.9494 76.3191 78.1726 76.1802 78.3091C76.0416 78.4456 75.8183 78.4443 75.6811 78.305C75.3707 77.9897 74.81 77.9211 74.4326 78.1514C74.0546 78.382 73.8602 78.9111 73.9995 79.3308C74.0609 79.5158 73.9605 79.7152 73.7755 79.7762C73.7387 79.7884 73.7013 79.7941 73.6645 79.7941Z" fill="#252525"/>
<path d="M93.4207 84.2693C93.149 84.2693 92.8645 84.223 92.5784 84.1298C92.0679 83.9636 91.626 83.6848 91.1988 83.4154C91.0341 83.3115 90.9847 83.0938 91.0887 82.9292C91.1928 82.7647 91.4111 82.715 91.5756 82.8193C91.9664 83.0657 92.3705 83.3207 92.7972 83.4597C93.2363 83.6026 93.6554 83.6002 93.978 83.4528C94.3118 83.3005 94.5411 82.953 94.511 82.6449C94.483 82.358 94.2654 82.0914 94.035 81.8092L93.9024 81.6449C93.399 81.0074 93.034 80.2432 92.8467 79.4349C92.7091 78.8408 92.6685 78.2382 92.7258 77.6437C92.7447 77.4498 92.9161 77.3082 93.1112 77.3268C93.3051 77.3455 93.4471 77.5177 93.4285 77.7116C93.3784 78.2299 93.414 78.7564 93.5342 79.2761C93.6985 79.9837 94.0173 80.652 94.4567 81.2085L94.5821 81.3638C94.8553 81.6983 95.1648 82.0776 95.2138 82.5765C95.2735 83.1894 94.8861 83.8136 94.2713 84.094C94.0149 84.2108 93.7261 84.2693 93.4207 84.2693ZM97.7192 75.5568C97.7202 76.3187 98.3411 76.9338 99.104 76.9327C99.8669 76.9317 100.483 76.3151 100.482 75.5532C100.481 74.7913 99.8632 74.1762 99.1004 74.1772C98.3375 74.1782 97.7181 74.7949 97.7192 75.5568ZM87.5317 75.5568C87.5328 76.3187 88.1537 76.9338 88.9165 76.9327C89.6794 76.9317 90.2953 76.3151 90.2942 75.5532C90.2932 74.7913 89.6758 74.1762 88.9129 74.1772C88.1501 74.1782 87.5307 74.7949 87.5317 75.5568ZM88.8767 87.6957C89.6911 88.7715 91.1206 89.3427 92.453 89.1254C93.7812 88.9087 95.1162 87.7523 95.5251 86.4613C95.3868 86.505 95.2469 86.5408 95.1065 86.5727C94.5387 87.0935 93.8332 87.4719 93.1317 87.5865C91.8034 87.8032 90.3777 87.2313 89.5594 86.1561C89.1482 85.6188 88.8864 84.9349 88.7984 84.2257C88.6621 84.0424 88.5322 83.8499 88.4207 83.6463C87.8094 84.8907 88.0418 86.595 88.8767 87.6957Z" fill="#252525"/>
<path d="M89.5594 86.1569C90.3785 87.2307 91.8056 87.8037 93.1338 87.5875C93.8333 87.4712 94.5384 87.0919 95.1055 86.5734C93.9052 86.8464 92.6222 86.7474 91.4797 86.2992C90.4157 85.8775 89.4744 85.1473 88.7974 84.2266C88.8861 84.9334 89.1492 85.6177 89.5594 86.1569Z" fill="white"/>
<path d="M85.1197 70.9622C85.284 71.0791 85.7651 70.7611 86.473 70.5626C87.1773 70.3446 88.0853 70.3195 88.8232 70.5345C89.5604 70.7387 89.9689 70.9747 90.2505 71.034C90.5276 71.1049 90.6798 71.0228 90.7802 70.8507C90.8781 70.6835 90.9169 70.453 90.6846 70.1184C90.4549 69.7988 89.9296 69.3319 88.8994 69.1106C88.3902 69.0041 87.8064 69.004 87.2747 69.1256C86.7416 69.2419 86.2643 69.473 85.9064 69.7356C85.178 70.2694 84.9636 70.8663 85.1197 70.9622ZM100.45 70.7515C100.574 70.6122 100.334 70.1774 99.8179 69.8611C99.3114 69.5368 98.5638 69.4064 98.0053 69.517C97.4424 69.6239 97.184 69.8548 97.0909 70.0382C96.9973 70.2276 97.056 70.3881 97.1462 70.5575C97.2375 70.7278 97.344 70.8649 97.487 70.9287C97.6332 70.9914 97.8033 70.9719 98.1454 70.8895C98.4849 70.809 98.9805 70.7327 99.4438 70.7676C99.9077 70.7818 100.325 70.9019 100.45 70.7515ZM98.2262 80.4608C97.0549 80.4608 95.9537 80.0065 95.1243 79.1811C94.2939 78.3543 93.8356 77.2545 93.8342 76.084C93.831 73.6652 95.7989 71.6945 98.221 71.6913C98.2229 71.6913 98.2247 71.6913 98.2265 71.6913C100.644 71.6913 102.612 73.6556 102.615 76.0725C102.618 78.4893 100.652 80.4579 98.2322 80.4607C98.2301 80.4609 98.228 80.4608 98.2262 80.4608ZM98.2265 72.3962C98.2248 72.3962 98.2235 72.3962 98.2218 72.3962C96.189 72.399 94.5373 74.0528 94.54 76.0831C94.5411 77.0652 94.9257 77.9881 95.6225 78.6818C96.3184 79.3746 97.243 79.7559 98.2262 79.7559C98.2278 79.7559 98.2294 79.7559 98.2312 79.7559C99.2146 79.7548 100.139 79.3709 100.833 78.6751C101.528 77.9794 101.91 77.0555 101.909 76.0734C101.906 74.0449 100.255 72.3962 98.2265 72.3962Z" fill="#252525"/>
<path d="M92.0916 76.4372C91.8969 76.4372 91.739 76.2798 91.7388 76.0852C91.7378 75.3034 92.3656 74.6664 93.138 74.6653C93.1385 74.6653 93.1392 74.6653 93.1397 74.6653C93.5145 74.6653 93.8662 74.8131 94.1309 75.0816C94.3942 75.3489 94.5394 75.7039 94.5399 76.0816C94.5401 76.2764 94.3823 76.4343 94.1874 76.4345C94.1872 76.4345 94.1872 76.4345 94.1869 76.4345C93.992 76.4345 93.8343 76.2771 93.8341 76.0825C93.8338 75.8907 93.7605 75.7108 93.6277 75.5761C93.497 75.4435 93.3237 75.3702 93.1397 75.3702C93.1395 75.3702 93.1393 75.3702 93.139 75.3702C92.7557 75.371 92.4442 75.6913 92.4446 76.0844C92.4448 76.2792 92.287 76.4371 92.0921 76.4373C92.0919 76.4372 92.0919 76.4372 92.0916 76.4372Z" fill="#252525"/>
<path d="M88.056 80.4742C85.6367 80.4742 83.6669 78.512 83.6637 76.097C83.6607 73.6781 85.6286 71.7078 88.0504 71.7046C88.0525 71.7046 88.0545 71.7046 88.0564 71.7046C89.2261 71.7046 90.3264 72.1592 91.1549 72.985C91.985 73.8124 92.4429 74.9136 92.4443 76.0858C92.446 77.256 91.9908 78.357 91.1628 79.186C90.3349 80.0151 89.2337 80.4724 88.062 80.4741C88.0601 80.4742 88.0577 80.4742 88.056 80.4742ZM84.3695 76.0961C84.3723 78.1225 86.0256 79.7692 88.056 79.7692C88.0578 79.7692 88.0592 79.7692 88.061 79.7692C90.0916 79.7664 91.7413 78.1145 91.7385 76.0867C91.7374 75.1027 91.353 74.1785 90.6561 73.484C89.9611 72.7911 89.0379 72.4094 88.0564 72.4094C88.0547 72.4094 88.0532 72.4094 88.0513 72.4094C86.0187 72.4122 84.367 74.0661 84.3695 76.0961Z" fill="#252525"/>
<path d="M74.8247 75.5773C74.6386 75.5773 74.4828 75.4317 74.4724 75.244C74.4619 75.0494 74.611 74.8833 74.8056 74.8727L84.2444 74.3594C84.439 74.3519 84.6053 74.4978 84.6162 74.6921C84.6267 74.8868 84.4776 75.0528 84.2831 75.0634L74.8442 75.5767C74.8375 75.577 74.8311 75.5773 74.8247 75.5773Z" fill="#252525"/>
<path d="M105.34 194.665H69.8279C65.3243 194.665 61.6787 191.024 61.6787 186.526V185.161C61.6787 184.796 61.9726 184.503 62.3379 184.503H101.019L100.375 188.929C99.9386 191.952 102.282 194.665 105.34 194.665Z" fill="#FFD8DB"/>
<path d="M105.339 195.017H69.8276C65.1396 195.017 61.3257 191.208 61.3257 186.525V185.161C61.3257 184.604 61.7797 184.15 62.3378 184.15H101.018C101.121 184.15 101.218 184.195 101.285 184.272C101.352 184.349 101.382 184.452 101.368 184.553L100.724 188.98C100.53 190.322 100.929 191.679 101.818 192.704C102.704 193.726 103.987 194.312 105.339 194.312C105.534 194.312 105.692 194.47 105.692 194.664C105.692 194.859 105.534 195.017 105.339 195.017ZM62.3378 184.855C62.1662 184.855 62.0315 184.989 62.0315 185.161V186.525C62.0315 190.819 65.5289 194.312 69.8276 194.312H102.68C102.159 194.015 101.686 193.629 101.284 193.166C100.261 191.986 99.8026 190.423 100.026 188.879L100.611 184.855H62.3378V184.855Z" fill="#252525"/>
<path d="M183.775 136.083L175.764 191.113C175.468 193.155 173.713 194.664 171.656 194.664H100.153C97.623 194.664 95.6842 192.419 96.0457 189.919L104.064 134.889C104.359 132.854 106.107 131.338 108.171 131.338H179.668C182.198 131.338 184.143 133.583 183.775 136.083Z" fill="#0A0A0A"/>
<path d="M148.996 160.272C148.548 163.828 145.742 166.709 142.727 166.709C139.712 166.709 137.633 163.828 138.082 160.272C138.531 156.716 141.342 153.834 144.357 153.834C147.367 153.834 149.451 156.716 148.996 160.272Z" fill="white"/>
<path d="M171.657 195.017H100.154C98.8477 195.017 97.608 194.451 96.7523 193.464C95.8944 192.475 95.5098 191.164 95.6971 189.869L103.715 134.838C104.034 132.642 105.95 130.985 108.172 130.985H179.668C180.978 130.985 182.221 131.554 183.077 132.544C183.933 133.534 184.315 134.842 184.125 136.134L176.114 191.164C175.795 193.36 173.879 195.017 171.657 195.017ZM108.172 131.69C106.298 131.69 104.683 133.087 104.413 134.94L96.3956 189.97C96.2377 191.062 96.5621 192.168 97.2858 193.002C98.0073 193.835 99.0526 194.312 100.154 194.312H171.657C173.531 194.312 175.147 192.915 175.415 191.063L183.426 136.033C183.426 136.032 183.426 136.032 183.426 136.032C183.587 134.943 183.265 133.839 182.543 133.005C181.821 132.169 180.773 131.69 179.668 131.69H108.172Z" fill="#252525"/>
<path d="M142.728 167.061C141.343 167.061 140.07 166.484 139.145 165.436C137.994 164.133 137.48 162.234 137.733 160.227C138.202 156.508 141.174 153.482 144.358 153.482C145.743 153.482 147.016 154.06 147.941 155.11C149.091 156.414 149.603 158.311 149.347 160.315C148.878 164.035 145.909 167.061 142.728 167.061ZM144.358 154.187C141.517 154.187 138.86 156.936 138.433 160.315C138.205 162.122 138.658 163.818 139.674 164.969C140.464 165.863 141.548 166.356 142.728 166.356C145.566 166.356 148.221 163.607 148.647 160.227C148.647 160.227 148.647 160.227 148.647 160.227C148.878 158.423 148.427 156.728 147.411 155.576C146.622 154.68 145.537 154.187 144.358 154.187Z" fill="#252525"/>
<path d="M10.5889 21.9385L39.1928 10.1365C40.2477 9.70122 41.4561 10.2024 41.8918 11.256L55.589 44.3693C56.0248 45.4229 55.5229 46.6297 54.468 47.065L25.8641 58.867C24.8093 59.3023 23.6009 58.801 23.1651 57.7475L9.46796 24.6342C9.03217 23.5806 9.53403 22.3738 10.5889 21.9385Z" fill="#F2F7FD"/>
<mask id="mask0_1013_22712" style="mask-type:alpha" maskUnits="userSpaceOnUse" x="14" y="14" width="42" height="53">
<path d="M22.1405 55.2706L15.3831 38.9343C11.6809 29.984 15.938 19.7335 24.8916 16.0392C33.8452 12.3449 44.1048 16.6058 47.807 25.5561L54.5644 41.8924C58.2667 50.8427 54.0096 61.0932 45.056 64.7875C36.1024 68.4817 25.8428 64.2209 22.1405 55.2706Z" fill="#F2F7FD"/>
</mask>
<g mask="url(#mask0_1013_22712)">
<path d="M21.1398 51.27C21.8793 53.0574 23.2338 57.3076 24.2147 58.7018C25.8202 59.0307 31.7796 55.8383 34.0327 54.909C38.9223 52.9655 51.0342 47.9695 54.8937 46.3775C55.6876 45.8103 55.9572 46.1958 53.3989 40.9003C53.4175 40.8444 50.4465 40.4351 50.464 40.3764C50.4673 40.3688 50.4722 40.3571 50.4715 40.3478C49.4678 40.1901 48.4264 40.1121 47.3498 40.1355C47.0029 40.1437 46.6501 40.1608 46.2946 40.195C46.2158 40.1986 46.1353 40.2061 46.0587 40.2152C45.9502 40.2247 45.8416 40.2341 45.7326 40.2502C45.6212 40.2607 45.5122 40.2768 45.4032 40.2929C45.3954 40.2897 45.3871 40.2931 45.3817 40.2954C45.3375 40.2975 45.2985 40.304 45.2578 40.3143C45.1464 40.325 45.0401 40.3399 44.9295 40.3598C44.7341 40.3923 44.5358 40.4258 44.3399 40.4649C44.1913 40.4941 44.0426 40.5233 43.8936 40.5591C43.8693 40.5627 43.8462 40.569 43.8232 40.5752C43.788 40.5834 43.7555 40.5904 43.7241 40.6C43.6537 40.6162 43.5833 40.6325 43.5129 40.6486C43.4898 40.6549 43.4683 40.6574 43.4452 40.6637C43.4166 40.6723 43.3897 40.677 43.361 40.6855C43.3406 40.6907 43.3203 40.6959 43.3 40.7011C43.2554 40.7099 43.212 40.7214 43.1658 40.734C43.1536 40.7358 43.1388 40.7387 43.125 40.7444C43.102 40.7507 43.0789 40.757 43.053 40.7645C43.0206 40.7714 42.9864 40.7823 42.9524 40.7931C42.9458 40.7926 42.9375 40.796 42.9293 40.7994C42.9199 40.8 42.9117 40.8034 42.9034 40.8068C42.9034 40.8068 42.8995 40.8052 42.8969 40.8063L42.8941 40.8074C42.8874 40.8069 42.882 40.8092 42.8765 40.8115L42.8682 40.8148C42.7297 40.8528 42.5922 40.8933 42.4548 40.934L42.4493 40.9363L40.1605 41.7583L29.0441 45.7429C29.0414 45.7441 29.0387 45.7452 29.0387 45.7452C28.9575 45.7819 28.8735 45.8197 28.7934 45.8592C27.9584 46.2647 23.9111 48.8262 21.1398 51.27Z" fill="#6CA8F5"/>
<path d="M29.0447 45.7494C29.0447 45.7494 33.093 49.3349 37.6092 47.5153C42.1226 45.697 42.4557 40.9392 42.4557 40.9392C41.5547 40.8521 40.7368 40.1856 40.0393 39.3198C38.7359 37.7134 37.8591 35.4257 37.6682 34.9161C37.6475 34.8582 37.6363 34.823 37.6316 34.8116C37.6304 34.8088 37.6304 34.8087 37.6304 34.8087C40.8008 32.5504 35.2432 24.1359 35.2432 24.1359C35.2432 24.1359 31.8466 23.7652 28.8572 25.7295C25.8702 27.6994 28.8279 31.921 28.8279 31.921L28.1232 32.2116C27.7286 31.4669 25.6065 29.9721 25.3731 32.0528C25.1261 34.2855 28.8311 34.8548 28.8311 34.8548C32.7184 44.3538 29.0447 45.7494 29.0447 45.7494Z" fill="#EDA5A5"/>
<path opacity="0.5" d="M41.6493 43.6985C42.6386 44.3444 43.9175 44.5084 45.0913 44.0243C46.6714 43.3726 47.5596 41.7562 47.3518 40.1363C45.7896 40.1722 44.1545 40.4177 42.4557 40.9355C42.4558 40.9356 42.3667 42.2158 41.6493 43.6985Z" fill="white"/>
<path d="M21.6652 31.2947C22.9275 33.2441 24.6656 34.8875 26.6857 36.039C27.5336 36.5203 28.5901 36.919 29.4543 36.4827C29.436 36.4305 29.4177 36.3782 29.3994 36.3259C29.335 36.1463 29.2671 35.9583 29.1925 35.7696C29.1847 35.7429 29.1741 35.7173 29.1635 35.6918C29.0616 35.4213 28.9493 35.1419 28.8346 34.8567C28.8346 34.8567 27.6659 34.6772 26.6852 34.1244C26.4507 33.9917 26.2285 33.8406 26.0357 33.6642C25.5929 33.2617 25.3013 32.7337 25.3763 32.0546C25.4017 31.8346 25.4464 31.6533 25.5105 31.5105C25.7735 30.9001 26.3304 30.9031 26.874 31.1476C26.9556 31.1838 27.0395 31.2257 27.1188 31.2728C27.1981 31.3199 27.2786 31.3697 27.3535 31.422C27.4311 31.473 27.5044 31.5293 27.5718 31.5879C27.8255 31.799 28.0281 32.0313 28.1267 32.2133L28.8315 31.9227C28.8315 31.9227 26.8954 29.1575 27.7381 27.0613C27.7797 26.961 27.8226 26.8635 27.8762 26.7682C27.9569 26.6252 28.0495 26.4874 28.1599 26.3521C28.2354 26.2611 28.316 26.1747 28.4047 26.0915C28.4505 26.0493 28.4974 26.01 28.546 25.9667C28.6416 25.8841 28.7451 25.8048 28.8607 25.7306C29.0547 25.604 29.2463 25.4884 29.4415 25.3813C29.5709 25.308 29.6998 25.2416 29.8298 25.178C32.5401 23.8407 35.2476 24.1368 35.2476 24.1368C36.1237 23.8985 36.7521 22.9811 37.0225 22.1149C37.2899 21.2499 37.191 20.3034 36.8927 19.4457C36.6305 18.6995 36.1732 18.0205 35.7144 17.362C35.6621 17.2839 35.5437 17.3194 35.5357 17.4124C35.4889 18.0069 35.0412 18.5572 34.4903 18.8176C33.8338 19.1284 33.0688 19.1048 32.3552 18.9802C31.6429 18.8585 30.943 18.6385 30.2193 18.5779C28.3557 18.4158 26.1825 19.3786 25.3097 21.0883C24.9575 21.7887 24.8931 22.6463 25.1206 23.3969C23.9784 22.7111 22.4048 23.0244 21.4492 23.9471C20.492 24.8738 20.1148 26.286 20.2376 27.6117C20.362 28.9333 20.9401 30.1776 21.6652 31.2947Z" fill="#0A0A0A"/>
<path d="M40.0411 39.3203C38.7365 37.7119 37.8558 35.4241 37.6677 34.9146C37.1213 35.1585 36.564 35.376 35.9848 35.5305C35.1991 35.7391 34.4706 35.6874 33.6821 35.7345C35.2716 35.6594 39.4447 38.3279 40.0411 39.3203Z" fill="#CB8383"/>
<path d="M29.4542 36.4828C28.5822 36.9528 27.546 36.5289 26.6851 36.0379C24.6658 34.8863 22.9285 33.2451 21.6647 31.2953C20.941 30.1788 20.363 28.9338 20.2382 27.6099C20.1134 26.2859 20.492 24.8725 21.4483 23.9482C22.4046 23.0239 23.979 22.7117 25.1201 23.3971C24.8933 22.6464 24.9555 21.788 25.311 21.0891C26.1813 19.3785 28.3552 18.4146 30.2201 18.577C30.9424 18.64 31.6414 18.8577 32.3559 18.9813C33.0703 19.1049 33.8344 19.1274 34.4898 18.8183C35.0427 18.5576 35.488 18.0072 35.5359 17.4137C35.5436 17.3192 35.6621 17.2846 35.7163 17.3625C36.1732 18.0191 36.6317 18.6993 36.8932 19.4472C37.1923 20.3027 37.2909 21.2512 37.0215 22.116C36.7521 22.9809 36.1229 23.8996 35.2477 24.1362" stroke="#252525" stroke-miterlimit="10" stroke-linecap="round" stroke-linejoin="round"/>
<path d="M28.8311 34.8535C32.7188 44.3531 29.0448 45.7489 29.0448 45.7489C29.0448 45.7489 33.0935 49.3347 37.61 47.515C42.1237 45.6965 42.457 40.9383 42.457 40.9383C41.556 40.8512 40.7379 40.1846 40.0404 39.3188C38.7368 37.7123 37.8572 35.4256 37.669 34.9149C37.6484 34.8569 37.6372 34.8217 37.6324 34.8103" stroke="#252525" stroke-miterlimit="10" stroke-linecap="round" stroke-linejoin="round"/>
<path d="M32.6051 35.4659C34.2882 36.0682 36.1679 35.8349 37.634 34.8112C37.6328 34.8084 37.6328 34.8084 37.6328 34.8084C40.8037 32.5497 35.2453 24.134 35.2453 24.134C35.2453 24.134 31.8481 23.7632 28.8582 25.7278C25.8708 27.698 28.829 31.9202 28.829 31.9202L28.1242 32.2109C27.7295 31.4661 25.6071 29.9711 25.3736 32.0521C25.1265 34.2851 28.8321 34.8545 28.8321 34.8545M27.0465 32.5427C26.9036 32.3619 26.6473 32.2795 26.4258 32.3432M53.3567 40.887C52.3294 40.7263 48.3975 40.1497 47.3546 40.1688C46.1413 40.1876 44.9283 40.3315 43.7272 40.6052C43.6568 40.6214 43.5864 40.6376 43.516 40.6538C43.4929 40.6601 43.4714 40.6626 43.4483 40.6689C43.4197 40.6774 43.3927 40.6821 43.3641 40.6907C43.3438 40.6959 43.3234 40.7011 43.3031 40.7062C43.2585 40.715 43.2151 40.7265 43.1688 40.7391C43.1567 40.7409 43.1418 40.7438 43.1281 40.7495C43.105 40.7558 43.082 40.7621 43.0561 40.7696C43.0237 40.7765 42.9896 40.7874 42.9555 40.7982C42.9489 40.7977 42.9406 40.8011 42.9324 40.8045C42.9285 40.8029 42.9258 40.804 42.923 40.8051C42.9136 40.8058 42.9081 40.808 42.8999 40.8114L42.8971 40.8125C42.8905 40.812 42.885 40.8143 42.8795 40.8166C42.8767 40.8177 42.874 40.8188 42.8713 40.82C42.7327 40.8579 42.5953 40.8985 42.4578 40.9391M29.0432 45.7496C28.962 45.7863 28.8781 45.8241 28.798 45.8636C26.4082 46.9456 23.1133 49.4918 21.2079 51.2474" stroke="#252525" stroke-miterlimit="10" stroke-linecap="round" stroke-linejoin="round"/>
<path opacity="0.5" d="M33.7583 54.6912C33.0638 56.4576 46.6496 51.7134 44.4024 50.411C42.469 49.6059 40.4921 49.5279 38.4059 50.3884C36.6601 51.1084 34.3246 52.9527 33.7583 54.6912ZM24.9973 51.0319C25.3259 51.8262 26.2367 52.2044 27.0315 51.8765C27.8257 51.549 28.2036 50.6393 27.8749 49.845C27.5466 49.0514 26.6358 48.6732 25.8416 49.0008C25.0468 49.3286 24.6689 50.2383 24.9973 51.0319Z" fill="white"/>
<path d="M33.6521 28.5563C33.8867 29.0896 34.3333 29.5263 34.872 29.7493C35.0587 29.8266 35.2692 29.8892 35.3847 30.0549C35.5069 30.2303 35.4784 30.4823 35.3522 30.6546C35.2259 30.827 35.0198 30.9271 34.81 30.9685C34.6002 31.0098 34.3841 30.9987 34.1705 30.9873M36.258 32.507C35.6645 32.7727 34.9862 32.8456 34.3495 32.7121" stroke="#252525" stroke-miterlimit="10" stroke-linecap="round" stroke-linejoin="round"/>
<path d="M28.637 28.8347C28.8182 29.0489 29.8694 28.4231 30.5026 27.8886C31.1371 27.3531 31.1145 27.1108 30.9333 26.8966C30.7533 26.6838 30.4837 26.5806 29.8492 27.1161C29.2161 27.6506 28.4571 28.6219 28.637 28.8347ZM35.4636 25.2567C35.5063 25.48 34.5752 25.8219 33.9151 25.9476C33.2535 26.0736 33.1122 25.9357 33.0695 25.7125C33.027 25.4907 33.0994 25.2685 33.761 25.1425C34.4212 25.0168 35.4212 25.0349 35.4636 25.2567ZM34.1053 27.2271C34.2684 27.5171 34.6361 27.6192 34.9263 27.4565C35.2165 27.2937 35.3192 26.9277 35.1561 26.6376C34.993 26.3476 34.6266 26.2448 34.3364 26.4075C34.0461 26.5703 33.9421 26.937 34.1053 27.2271ZM30.7947 29.084C30.9578 29.3741 31.3255 29.4762 31.6157 29.3134C31.9059 29.1507 32.0086 28.7847 31.8455 28.4946C31.6824 28.2046 31.316 28.1017 31.0258 28.2645C30.7355 28.4273 30.6315 28.794 30.7947 29.084Z" fill="#252525"/>
</g>
<path fill-rule="evenodd" clip-rule="evenodd" d="M10.8808 22.6443L39.4847 10.8423C40.1493 10.5681 40.9106 10.8838 41.1851 11.5476L54.8823 44.6609C55.1568 45.3246 54.8406 46.085 54.1761 46.3592L25.5722 58.1612C24.9076 58.4354 24.1463 58.1197 23.8718 57.4559L10.1747 24.3426C9.90011 23.6789 10.2163 22.9185 10.8808 22.6443ZM39.1928 10.1365L10.5889 21.9385C9.53403 22.3738 9.03217 23.5806 9.46796 24.6342L23.1651 57.7475C23.6009 58.801 24.8093 59.3023 25.8641 58.867L54.468 47.065C55.5229 46.6297 56.0248 45.4229 55.589 44.3693L41.8918 11.256C41.4561 10.2024 40.2477 9.70122 39.1928 10.1365Z" fill="#252525"/>
<rect x="119.945" y="63.0969" width="37.6447" height="37.5961" rx="7.5" fill="#B9D3F2" stroke="#252525"/>
<rect x="168.923" y="63.0969" width="37.6447" height="37.5961" rx="7.5" fill="#B9D3F2" stroke="#252525"/>
<path d="M142.562 75.1391H134.931L135.617 73.127C135.744 72.7544 136.095 72.5039 136.489 72.5039H141.004C141.398 72.5039 141.748 72.7544 141.875 73.127L142.562 75.1391ZM131.386 74.0449V75.1393H129.333V74.0449C129.333 73.8057 129.528 73.6117 129.767 73.6117H130.952C131.191 73.6115 131.386 73.8056 131.386 74.0449Z" fill="white"/>
<path d="M150.712 77.5278V88.7952C150.712 90.1143 149.642 91.1837 148.321 91.1837H129.172C127.852 91.1837 126.781 90.1143 126.781 88.7952V77.5278C126.781 76.2087 127.852 75.1394 129.172 75.1394H148.321C149.642 75.1393 150.712 76.2087 150.712 77.5278Z" fill="white"/>
<path d="M144.313 83.4474C144.313 86.3543 141.956 88.7128 139.046 88.7128C136.135 88.7128 133.773 86.3543 133.773 83.4474C133.773 80.5403 136.135 78.1865 139.046 78.1865C141.956 78.1865 144.313 80.5403 144.313 83.4474Z" fill="#0A0A0A"/>
<path d="M140.695 83.4494C140.695 84.3607 139.956 85.1002 139.043 85.1002C138.131 85.1002 137.391 84.3607 137.391 83.4494C137.391 82.5379 138.131 81.8 139.043 81.8C139.956 81.8 140.695 82.5379 140.695 83.4494Z" fill="white"/>
<path d="M150.712 86.7622V88.7959C150.712 90.1157 149.643 91.1835 148.322 91.1835H129.172C127.85 91.1835 126.781 90.1157 126.781 88.7959V86.7622H134.949C135.916 87.9512 137.393 88.7132 139.045 88.7132C140.698 88.7132 142.175 87.9514 143.137 86.7622H150.712Z" fill="#EF603F"/>
<path d="M150.712 77.5278V88.7952C150.712 90.1143 149.642 91.1837 148.321 91.1837H129.172C127.852 91.1837 126.781 90.1143 126.781 88.7952V77.5278C126.781 76.2087 127.852 75.1394 129.172 75.1394H148.321C149.642 75.1393 150.712 76.2087 150.712 77.5278Z" stroke="#252525" stroke-miterlimit="10" stroke-linecap="round" stroke-linejoin="round"/>
<path d="M150.712 86.7621V88.7958C150.712 90.1156 149.643 91.1834 148.322 91.1834H129.172C127.85 91.1834 126.781 90.1156 126.781 88.7958V86.7621H134.949C135.916 87.9511 137.393 88.7131 139.045 88.7131C140.698 88.7131 142.175 87.9513 143.137 86.7621H150.712ZM142.562 75.1391H134.931L135.618 73.127C135.745 72.7544 136.095 72.5039 136.489 72.5039H141.004C141.398 72.5039 141.749 72.7544 141.876 73.127L142.562 75.1391Z" stroke="#252525" stroke-miterlimit="10" stroke-linecap="round" stroke-linejoin="round"/>
<path d="M144.313 83.4474C144.313 86.3543 141.956 88.7128 139.046 88.7128C136.135 88.7128 133.773 86.3543 133.773 83.4474C133.773 80.5403 136.135 78.1865 139.046 78.1865C141.956 78.1865 144.313 80.5403 144.313 83.4474Z" stroke="#252525" stroke-miterlimit="10" stroke-linecap="round" stroke-linejoin="round"/>
<path d="M140.695 83.4491C140.695 84.3604 139.956 85.0999 139.044 85.0999C138.131 85.0999 137.391 84.3604 137.391 83.4491C137.391 82.5377 138.131 81.7998 139.044 81.7998C139.956 81.7998 140.695 82.5377 140.695 83.4491ZM131.386 74.0448V75.1391H129.333V74.0448C129.333 73.8056 129.528 73.6116 129.767 73.6116H130.952C131.191 73.6114 131.386 73.8055 131.386 74.0448Z" stroke="#252525" stroke-miterlimit="10" stroke-linecap="round" stroke-linejoin="round"/>
<path d="M147.055 77.2869H148.259" stroke="#252525" stroke-miterlimit="10" stroke-linecap="round" stroke-linejoin="round"/>
<g clip-path="url(#clip2_1013_22712)">
<path fill-rule="evenodd" clip-rule="evenodd" d="M197.761 88.0605C197.761 90.0558 196.144 91.6733 194.149 91.6733C192.154 91.6733 190.537 90.0558 190.537 88.0605C190.537 86.0652 192.154 84.4478 194.149 84.4478C196.144 84.4478 197.761 86.0652 197.761 88.0605Z" fill="#6CA8F5"/>
<path fill-rule="evenodd" clip-rule="evenodd" d="M186.253 74.4022V72.2971H179.414V74.4022V76.0886V77.0148H195.009V74.4022H186.253Z" fill="#EF603F"/>
<path fill-rule="evenodd" clip-rule="evenodd" d="M190.537 88.0606C190.537 86.0653 192.155 84.4478 194.15 84.4478C194.758 84.4478 195.331 84.5983 195.834 84.8638L196.705 77.0149H177.717L178.998 88.5473H190.57C190.549 88.388 190.537 88.2256 190.537 88.0606Z" fill="#F9D95A"/>
<path fill-rule="evenodd" clip-rule="evenodd" d="M194.438 86.321C194.436 86.3197 194.435 86.3186 194.434 86.3173C194.425 86.3092 194.417 86.3014 194.408 86.2941C194.403 86.2898 194.397 86.2862 194.392 86.2822C194.387 86.2782 194.381 86.274 194.376 86.2702C194.37 86.2662 194.363 86.2626 194.357 86.2589C194.352 86.2558 194.347 86.2525 194.341 86.2497C194.335 86.2463 194.329 86.2434 194.322 86.2404C194.317 86.2378 194.311 86.2349 194.305 86.2325C194.299 86.23 194.293 86.2278 194.286 86.2256C194.28 86.2233 194.274 86.221 194.267 86.219C194.261 86.2171 194.255 86.2156 194.248 86.214C194.242 86.2124 194.235 86.2106 194.229 86.2093C194.221 86.2078 194.213 86.2069 194.206 86.2058C194.2 86.205 194.195 86.204 194.189 86.2034C194.162 86.2008 194.135 86.2008 194.108 86.2034C194.103 86.204 194.097 86.205 194.092 86.2058C194.084 86.2069 194.076 86.2078 194.069 86.2093C194.062 86.2106 194.056 86.2124 194.05 86.214C194.043 86.2156 194.037 86.2171 194.03 86.219C194.024 86.221 194.018 86.2233 194.011 86.2256C194.005 86.2278 193.999 86.23 193.992 86.2325C193.987 86.2349 193.981 86.2378 193.975 86.2404C193.969 86.2434 193.962 86.2463 193.956 86.2497C193.951 86.2525 193.946 86.2558 193.941 86.2589C193.934 86.2626 193.928 86.2662 193.922 86.2702C193.916 86.274 193.911 86.2782 193.906 86.2822C193.9 86.2862 193.895 86.2898 193.89 86.2941C193.881 86.3014 193.872 86.3092 193.864 86.3173C193.863 86.3186 193.861 86.3197 193.86 86.321L192.626 87.5555C192.466 87.715 192.466 87.9737 192.626 88.1332C192.785 88.2928 193.044 88.2928 193.203 88.1332L193.74 87.5961V89.5108C193.74 89.7364 193.923 89.9193 194.149 89.9193C194.374 89.9193 194.557 89.7364 194.557 89.5108V87.5961L195.094 88.1332C195.174 88.213 195.279 88.2528 195.383 88.2528C195.488 88.2528 195.592 88.213 195.672 88.1332C195.832 87.9737 195.832 87.715 195.672 87.5555L194.438 86.321Z" fill="#252525"/>
<path fill-rule="evenodd" clip-rule="evenodd" d="M194.149 91.2648C192.499 91.2648 191.136 90.0105 190.964 88.4051C190.963 88.3962 190.962 88.3874 190.961 88.3785C190.957 88.3346 190.954 88.2903 190.951 88.2458C190.95 88.2319 190.95 88.2181 190.949 88.2042C190.947 88.1566 190.945 88.1087 190.945 88.0606C190.945 88.0053 190.947 87.9505 190.949 87.8959C191.035 86.2053 192.438 84.8564 194.149 84.8564C194.15 84.8564 194.151 84.8564 194.151 84.8564C194.199 84.8564 194.246 84.8579 194.294 84.86C194.305 84.8605 194.316 84.8609 194.328 84.8615C194.371 84.864 194.414 84.8673 194.457 84.8714C194.473 84.873 194.489 84.8747 194.505 84.8765C194.538 84.8802 194.571 84.8845 194.604 84.8892C194.628 84.8925 194.651 84.8962 194.674 84.9001C194.703 84.9048 194.731 84.9098 194.759 84.9152C194.778 84.9189 194.798 84.9227 194.817 84.9268C194.854 84.9348 194.892 84.9434 194.929 84.9527C194.945 84.9568 194.962 84.9614 194.979 84.9659C195.013 84.9751 195.048 84.9848 195.082 84.9952C195.09 84.9976 195.098 84.9998 195.106 85.0022C195.151 85.0164 195.196 85.0318 195.241 85.0479C195.246 85.0499 195.251 85.0517 195.256 85.0537C196.479 85.5054 197.353 86.6828 197.353 88.0606C197.353 89.8274 195.916 91.2648 194.149 91.2648ZM190.129 88.1388H179.363L178.173 77.4234H196.249L195.488 84.2686C195.484 84.2673 195.481 84.2661 195.477 84.2648C195.164 84.1552 194.834 84.0832 194.492 84.0541C194.491 84.054 194.491 84.054 194.49 84.0539C194.436 84.0494 194.382 84.0459 194.328 84.0435C194.321 84.0432 194.315 84.043 194.308 84.0427C194.255 84.0407 194.203 84.0393 194.149 84.0393C192.348 84.0393 190.819 85.2302 190.309 86.8661C190.3 86.8976 190.29 86.9292 190.281 86.961C190.245 87.0881 190.215 87.2178 190.191 87.3497C190.185 87.3826 190.18 87.4158 190.175 87.449C190.165 87.5155 190.156 87.5825 190.149 87.65C190.135 87.785 190.128 87.922 190.128 88.0606C190.128 88.0866 190.129 88.1127 190.129 88.1388ZM179.822 72.7057H185.844V74.4022C185.844 74.6279 186.026 74.8107 186.252 74.8107H194.6V76.6064H179.822V72.7057ZM196.268 84.6447L197.111 77.06C197.124 76.9445 197.087 76.829 197.009 76.7424C196.932 76.6559 196.821 76.6064 196.705 76.6064H195.417V74.4022C195.417 74.1766 195.234 73.9937 195.008 73.9937H186.661V72.2972C186.661 72.0716 186.478 71.8887 186.252 71.8887H179.413C179.188 71.8887 179.005 72.0716 179.005 72.2972V76.6064H177.717C177.601 76.6064 177.49 76.6559 177.412 76.7424C177.335 76.829 177.298 76.9445 177.311 77.06L178.592 88.5924C178.615 88.7993 178.789 88.9558 178.998 88.9558H190.229C190.637 90.7437 192.24 92.0818 194.149 92.0818C196.366 92.0818 198.17 90.2779 198.17 88.0606C198.17 86.6206 197.409 85.3551 196.268 84.6447Z" fill="#252525"/>
</g>
<rect y="194" width="240" height="1" rx="0.5" fill="#252525"/>
</g>
<defs>
<clipPath id="clip0_1013_22712">
<rect width="240" height="195" fill="white"/>
</clipPath>
<clipPath id="clip1_1013_22712">
<rect width="61.9969" height="20.9492" fill="white" transform="translate(132.258 31.3276)"/>
</clipPath>
<clipPath id="clip2_1013_22712">
<rect width="20.8723" height="20.846" fill="white" transform="translate(177.308 71.4719)"/>
</clipPath>
</defs>
</svg>
