<svg xmlns="http://www.w3.org/2000/svg" width="35" height="34" viewBox="0 0 35 34" fill="none">
<path d="M11.4848 29.9072L11.744 29.4797L11.744 29.4797L11.4848 29.9072ZM5.77837 0.878899C5.71149 0.610979 5.44008 0.448005 5.17216 0.514887L0.806144 1.60479C0.538224 1.67168 0.37525 1.94309 0.442132 2.21101C0.509014 2.47893 0.780425 2.6419 1.04835 2.57502L4.92925 1.60621L5.89806 5.48712C5.96494 5.75504 6.23635 5.91801 6.50427 5.85113C6.77219 5.78425 6.93516 5.51284 6.86828 5.24492L5.77837 0.878899ZM33.7371 30.2849C31.2535 31.8202 27.3581 32.5986 23.2427 32.49C19.135 32.3816 14.8969 31.3912 11.744 29.4797L11.2255 30.3348C14.5675 32.3609 18.989 33.3781 23.2163 33.4897C27.4359 33.601 31.5506 32.8122 34.2629 31.1355L33.7371 30.2849ZM11.744 29.4797C0.794748 22.8412 0.652193 9.70035 5.72192 1.2574L4.8646 0.742605C-0.392073 9.4969 -0.340197 23.3226 11.2255 30.3348L11.744 29.4797Z" fill="#95BBE8"/>
</svg>