<svg width="24" height="24" viewBox="0 0 24 24" fill="none" xmlns="http://www.w3.org/2000/svg">
    <g clip-path="url(#clip0_5_47)">
        <path d="M0 0H24V24H0" fill="white"/>
        <path d="M14.6719 12L10.3125 9.51561V14.4844L14.6719 12ZM20.0156 7.92186C20.4375 9.65624 20.4375 14.3906 20.0156 16.0781C19.8281 16.7812 19.2187 17.3437 18.5156 17.5312C16.7812 18 7.17186 18 5.48436 17.5312C4.78124 17.3437 4.17186 16.7812 3.98436 16.0781C3.51561 14.25 3.56249 9.70311 3.98436 7.92186C4.17186 7.21874 4.78124 6.65624 5.48436 6.46874C7.31249 5.99999 16.9219 6.04686 18.5156 6.46874C19.2187 6.65624 19.8281 7.21874 20.0156 7.92186Z" fill="#ED1D24"/>
    </g>
    <defs>
        <clipPath id="clip0_5_47">
            <rect width="24" height="24" rx="12" fill="white"/>
        </clipPath>
    </defs>
</svg>
